<?xml version="1.0" standalone="no"?>
 <!DOCTYPE svg PUBLIC "-//W3C//DTD SVG 1.1//EN" 
 "http://www.w3.org/Graphics/SVG/1.1/DTD/svg11.dtd"> 
<svg
  xmlns:svg="http://www.w3.org/2000/svg"
  xmlns="http://www.w3.org/2000/svg"
  xmlns:xlink="http://www.w3.org/1999/xlink"
  version="1.1"
  width="31.229300cm" height="20.373340cm" viewBox="0 0 312293000 203733400">
<title>SVG Picture created as SofleKeyboard-Edge_Cuts.svg date 2022/08/13 18:18:33 </title>
  <desc>Picture generated by PCBNEW </desc>
<g style="fill:#000000; fill-opacity:1.000000;stroke:#000000; stroke-opacity:1.000000;
stroke-linecap:round; stroke-linejoin:round;"
 transform="translate(0 0) scale(1 1)">
</g>
<g style="fill:#000000; fill-opacity:0.0; 
stroke:#000000; stroke-width:0.000000; stroke-opacity:1; 
stroke-linecap:round; stroke-linejoin:round;">
</g>
<g style="fill:#000000; fill-opacity:0.0; 
stroke:#000000; stroke-width:150000.000000; stroke-opacity:1; 
stroke-linecap:round; stroke-linejoin:round;">
<path d="M268807864 81915404
L252377864 80005404
" />
<path d="M307857864 95585404
L268807864 81915404
" />
<path d="M307857864 174285404
L307857864 95585404
" />
<path d="M268097864 174285404
L307857864 174285404
" />
<path d="M263657864 162325404
L268097864 174285404
" />
<path d="M215647864 162215404
L263677864 162305404
" />
<path d="M226357864 164795404
L215567864 164745404
" />
<path d="M247087864 168545404
L226357864 164795404
" />
<path d="M242387864 194305404
L247087864 168545404
" />
<path d="M223807864 193165404
L242387864 194305404
" />
<path d="M185707864 193735404
L223807864 193165404
" />
<path d="M166327864 197355404
L185707864 193735404
" />
<path d="M158887864 177705404
L166327864 197355404
" />
<path d="M163728744 171402764
L158887864 177705404
" />
</g>
<g style="fill:#000000; fill-opacity:0.0; 
stroke:#000000; stroke-width:100000.000000; stroke-opacity:1; 
stroke-linecap:round; stroke-linejoin:round;">
<path d="M169826001 83248025
L169893121 83031778
" />
<path d="M170140003 82665595
L170310496 82524924
" />
<path d="M170310496 82524924
L170506180 82418709
" />
<path d="M163728744 171402764
L169528744 160652764
" />
<path d="M169893121 83031778
L169999334 82836091
" />
<path d="M169802601 83480199
L169826001 83248025
" />
<path d="M169999334 82836091
L170140003 82665595
" />
<path d="M230528744 80002764
L170954597 82328169
" />
<path d="M169804001 159402764
L169728744 160052764
" />
<path d="M169728744 160052764
L169528744 160652764
" />
<path d="M169804001 159402764
L169802601 83480199
" />
<path d="M230528744 80002764
L252478744 80002764
" />
<path d="M170506180 82418709
L170722424 82351579
" />
<path d="M170722424 82351579
L170954597 82328169
" />
</g>
<g style="fill:#000000; fill-opacity:0.0; 
stroke:#000000; stroke-width:120000.000000; stroke-opacity:1; 
stroke-linecap:round; stroke-linejoin:round;">
<path d="M257428744 105303764
L257428744 108403764
" />
<path d="M261028744 105303764
L257428744 105303764
" />
<path d="M257428744 108403764
L261028744 108403764
" />
<path d="M261028744 108403764
L261028744 105303764
" />
<path d="M200278744 88753764
L200278744 91853764
" />
<path d="M200278744 91853764
L203878744 91853764
" />
<path d="M203878744 91853764
L203878744 88753764
" />
<path d="M203878744 88753764
L200278744 88753764
" />
<path d="M238378744 83753764
L238378744 86853764
" />
<path d="M238378744 86853764
L241978744 86853764
" />
<path d="M241978744 86853764
L241978744 83753764
" />
<path d="M241978744 83753764
L238378744 83753764
" />
<path d="M203878744 129953764
L203878744 126853764
" />
<path d="M200278744 129953764
L203878744 129953764
" />
<path d="M203878744 126853764
L200278744 126853764
" />
<path d="M200278744 126853764
L200278744 129953764
" />
<path d="M222928744 124353764
L219328744 124353764
" />
<path d="M219328744 124353764
L219328744 127453764
" />
<path d="M222928744 127453764
L222928744 124353764
" />
<path d="M219328744 127453764
L222928744 127453764
" />
<path d="M203878744 145903764
L200278744 145903764
" />
<path d="M200278744 145903764
L200278744 149003764
" />
<path d="M200278744 149003764
L203878744 149003764
" />
<path d="M203878744 149003764
L203878744 145903764
" />
<path d="M238378744 140903764
L238378744 144003764
" />
<path d="M241978744 140903764
L238378744 140903764
" />
<path d="M241978744 144003764
L241978744 140903764
" />
<path d="M238378744 144003764
L241978744 144003764
" />
<path d="M280117864 157646404
L276517864 157646404
" />
<path d="M276517864 160746404
L280117864 160746404
" />
<path d="M280117864 160746404
L280117864 157646404
" />
<path d="M276517864 157646404
L276517864 160746404
" />
<path d="M178652666 178714712
L175739619 179774975
" />
<path d="M175739619 179774975
L176970891 183157868
" />
<path d="M179883938 182097606
L178652666 178714712
" />
<path d="M176970891 183157868
L179883938 182097606
" />
<path d="M191158392 174406811
L194703700 173781678
" />
<path d="M190620083 171353907
L191158392 174406811
" />
<path d="M194703700 173781678
L194165390 170728774
" />
<path d="M194165390 170728774
L190620083 171353907
" />
<path d="M295567864 119546404
L295567864 122646404
" />
<path d="M299167864 122646404
L299167864 119546404
" />
<path d="M299167864 119546404
L295567864 119546404
" />
<path d="M295567864 122646404
L299167864 122646404
" />
<path d="M299167864 138596404
L295567864 138596404
" />
<path d="M299167864 141696404
L299167864 138596404
" />
<path d="M295567864 141696404
L299167864 141696404
" />
<path d="M295567864 138596404
L295567864 141696404
" />
<path d="M299167864 157646404
L295567864 157646404
" />
<path d="M299167864 160746404
L299167864 157646404
" />
<path d="M295567864 160746404
L299167864 160746404
" />
<path d="M295567864 157646404
L295567864 160746404
" />
<path d="M261028744 89353764
L261028744 86253764
" />
<path d="M261028744 86253764
L257428744 86253764
" />
<path d="M257428744 89353764
L261028744 89353764
" />
<path d="M257428744 86253764
L257428744 89353764
" />
<path d="M276517864 103596404
L280117864 103596404
" />
<path d="M280117864 100496404
L276517864 100496404
" />
<path d="M276517864 100496404
L276517864 103596404
" />
<path d="M280117864 103596404
L280117864 100496404
" />
<path d="M219328744 105303764
L219328744 108403764
" />
<path d="M219328744 108403764
L222928744 108403764
" />
<path d="M222928744 108403764
L222928744 105303764
" />
<path d="M222928744 105303764
L219328744 105303764
" />
<path d="M241978744 102803764
L238378744 102803764
" />
<path d="M238378744 105903764
L241978744 105903764
" />
<path d="M241978744 105903764
L241978744 102803764
" />
<path d="M238378744 102803764
L238378744 105903764
" />
<path d="M257428744 127453764
L261028744 127453764
" />
<path d="M257428744 124353764
L257428744 127453764
" />
<path d="M261028744 124353764
L257428744 124353764
" />
<path d="M261028744 127453764
L261028744 124353764
" />
<path d="M299167864 100496404
L295567864 100496404
" />
<path d="M295567864 103596404
L299167864 103596404
" />
<path d="M295567864 100496404
L295567864 103596404
" />
<path d="M299167864 103596404
L299167864 100496404
" />
<path d="M200278744 110953764
L203878744 110953764
" />
<path d="M203878744 110953764
L203878744 107853764
" />
<path d="M203878744 107853764
L200278744 107853764
" />
<path d="M200278744 107853764
L200278744 110953764
" />
<path d="M280117864 119546404
L276517864 119546404
" />
<path d="M276517864 119546404
L276517864 122646404
" />
<path d="M280117864 122646404
L280117864 119546404
" />
<path d="M276517864 122646404
L280117864 122646404
" />
<path d="M257428744 143403764
L257428744 146503764
" />
<path d="M261028744 143403764
L257428744 143403764
" />
<path d="M261028744 146503764
L261028744 143403764
" />
<path d="M257428744 146503764
L261028744 146503764
" />
<path d="M276517864 138596404
L276517864 141696404
" />
<path d="M280117864 138596404
L276517864 138596404
" />
<path d="M280117864 141696404
L280117864 138596404
" />
<path d="M276517864 141696404
L280117864 141696404
" />
<path d="M233482028 173851678
L237027336 174476811
" />
<path d="M237565645 171423907
L234020338 170798774
" />
<path d="M237027336 174476811
L237565645 171423907
" />
<path d="M234020338 170798774
L233482028 173851678
" />
<path d="M241978744 121853764
L238378744 121853764
" />
<path d="M238378744 121853764
L238378744 124953764
" />
<path d="M238378744 124953764
L241978744 124953764
" />
<path d="M241978744 124953764
L241978744 121853764
" />
<path d="M219328744 86253764
L219328744 89353764
" />
<path d="M222928744 89353764
L222928744 86253764
" />
<path d="M219328744 89353764
L222928744 89353764
" />
<path d="M222928744 86253764
L219328744 86253764
" />
<path d="M219328744 146503764
L222928744 146503764
" />
<path d="M219328744 143403764
L219328744 146503764
" />
<path d="M222928744 143403764
L219328744 143403764
" />
<path d="M222928744 146503764
L222928744 143403764
" />
<path d="M212327864 172306404
L215927864 172306404
" />
<path d="M212327864 169206404
L212327864 172306404
" />
<path d="M215927864 169206404
L212327864 169206404
" />
<path d="M215927864 172306404
L215927864 169206404
" />
<g >
</g>
<g >
</g>
<g >
</g>
<g >
</g>
<g >
</g>
<g >
</g>
<g >
</g>
<g >
</g>
<g >
</g>
<g >
</g>
<g >
</g>
<g >
</g>
<g >
</g>
<g >
</g>
<g >
</g>
<g >
</g>
<g >
</g>
<g >
</g>
<g >
</g>
<g >
</g>
<g >
</g>
<g >
</g>
<g >
</g>
<g >
</g>
<g >
</g>
<g >
</g>
<g >
</g>
<g >
</g>
<g >
</g>
<g >
</g>
<g >
</g>
<g >
</g>
<g >
</g>
<g >
</g>
<g >
</g>
<g >
</g>
<g >
</g>
<g >
</g>
<g >
</g>
<g >
</g>
<g >
</g>
<g >
</g>
<g >
</g>
<g >
</g>
<g >
</g>
<g >
</g>
<g >
</g>
<g >
</g>
<g >
</g>
<g >
</g>
<g >
</g>
<g >
</g>
<g >
</g>
<g >
</g>
<g >
</g>
<g >
</g>
<g >
</g>
<g >
</g>
<g >
</g>
<g >
</g>
<g >
</g>
<g >
</g>
<g >
</g>
<g >
</g>
<g >
</g>
<g >
</g>
<g >
</g>
<g >
</g>
<g >
</g>
<g >
</g>
<g >
</g>
<g >
</g>
<g >
</g>
<g >
</g>
<g >
</g>
<g >
</g>
<g >
</g>
<g >
</g>
<g >
</g>
<g >
</g>
<g >
</g>
<g >
</g>
<g >
</g>
<g >
</g>
<g >
</g>
</g> 
</svg>
