%TF.GenerationSoftware,KiCad,Pcbnew,(6.0.0)*%
%TF.CreationDate,2023-02-15T17:26:08+02:00*%
%TF.ProjectId,SofleKeyboard,536f666c-654b-4657-9962-6f6172642e6b,rev?*%
%TF.SameCoordinates,Original*%
%TF.FileFunction,Soldermask,Top*%
%TF.FilePolarity,Negative*%
%FSLAX46Y46*%
G04 Gerber Fmt 4.6, Leading zero omitted, Abs format (unit mm)*
G04 Created by KiCad (PCBNEW (6.0.0)) date 2023-02-15 17:26:08*
%MOMM*%
%LPD*%
G01*
G04 APERTURE LIST*
G04 Aperture macros list*
%AMRoundRect*
0 Rectangle with rounded corners*
0 $1 Rounding radius*
0 $2 $3 $4 $5 $6 $7 $8 $9 X,Y pos of 4 corners*
0 Add a 4 corners polygon primitive as box body*
4,1,4,$2,$3,$4,$5,$6,$7,$8,$9,$2,$3,0*
0 Add four circle primitives for the rounded corners*
1,1,$1+$1,$2,$3*
1,1,$1+$1,$4,$5*
1,1,$1+$1,$6,$7*
1,1,$1+$1,$8,$9*
0 Add four rect primitives between the rounded corners*
20,1,$1+$1,$2,$3,$4,$5,0*
20,1,$1+$1,$4,$5,$6,$7,0*
20,1,$1+$1,$6,$7,$8,$9,0*
20,1,$1+$1,$8,$9,$2,$3,0*%
G04 Aperture macros list end*
%ADD10C,0.200000*%
%ADD11C,0.090000*%
%TA.AperFunction,Profile*%
%ADD12C,0.120000*%
%TD*%
%ADD13C,1.797000*%
%ADD14C,1.600000*%
%ADD15O,2.900000X2.100000*%
%ADD16C,5.100000*%
%ADD17C,1.924000*%
%ADD18RoundRect,0.200000X0.571500X-0.317500X0.571500X0.317500X-0.571500X0.317500X-0.571500X-0.317500X0*%
%ADD19C,2.400000*%
%ADD20RoundRect,0.200000X-0.571500X0.317500X-0.571500X-0.317500X0.571500X-0.317500X0.571500X0.317500X0*%
%ADD21RoundRect,0.200000X-0.475000X0.650000X-0.475000X-0.650000X0.475000X-0.650000X0.475000X0.650000X0*%
%ADD22RoundRect,0.200000X-0.650000X-0.475000X0.650000X-0.475000X0.650000X0.475000X-0.650000X0.475000X0*%
%ADD23RoundRect,0.200000X-0.668667X0.448341X-0.224041X-0.773260X0.668667X-0.448341X0.224041X0.773260X0*%
%ADD24C,2.200000*%
%ADD25C,3.400000*%
%ADD26C,3.800000*%
%ADD27C,1.400000*%
%ADD28RoundRect,0.200000X0.850000X0.500000X-0.850000X0.500000X-0.850000X-0.500000X0.850000X-0.500000X0*%
%ADD29RoundRect,0.200000X0.800000X1.100000X-0.800000X1.100000X-0.800000X-1.100000X0.800000X-1.100000X0*%
%ADD30RoundRect,0.200000X0.627729X0.760563X-0.969749X0.179129X-0.627729X-0.760563X0.969749X-0.179129X0*%
%ADD31RoundRect,0.200000X0.375532X1.307278X-1.127976X0.760046X-0.375532X-1.307278X1.127976X-0.760046X0*%
%ADD32C,4.400000*%
%ADD33RoundRect,0.200000X-1.600000X-1.000000X1.600000X-1.000000X1.600000X1.000000X-1.600000X1.000000X0*%
%ADD34RoundRect,0.200000X0.750263X0.640005X-0.923911X0.344803X-0.750263X-0.640005X0.923911X-0.344803X0*%
%ADD35RoundRect,0.200000X0.596833X1.222207X-0.978859X0.944370X-0.596833X-1.222207X0.978859X-0.944370X0*%
%ADD36RoundRect,0.200000X0.923911X0.344803X-0.750263X0.640005X-0.923911X-0.344803X0.750263X-0.640005X0*%
%ADD37RoundRect,0.200000X0.978859X0.944370X-0.596833X1.222207X-0.978859X-0.944370X0.596833X-1.222207X0*%
%ADD38RoundRect,0.200000X-0.580655X0.557642X-0.354912X-0.722608X0.580655X-0.557642X0.354912X0.722608X0*%
%ADD39RoundRect,0.200000X-0.354912X0.722608X-0.580655X-0.557642X0.354912X-0.722608X0.580655X0.557642X0*%
%ADD40C,0.793700*%
%ADD41C,2.100000*%
%ADD42O,2.100000X2.100000*%
%ADD43C,2.152600*%
%ADD44C,1.187400*%
%ADD45RoundRect,0.200000X-0.762000X-0.762000X0.762000X-0.762000X0.762000X0.762000X-0.762000X0.762000X0*%
%ADD46RoundRect,0.200000X-0.762000X0.762000X-0.762000X-0.762000X0.762000X-0.762000X0.762000X0.762000X0*%
G04 APERTURE END LIST*
D10*
X197489726Y-46773377D02*
X197468560Y-46685183D01*
X195687037Y-44145178D02*
X195687037Y-44233373D01*
X197701384Y-45111786D02*
X197771944Y-45055351D01*
X197581452Y-46212451D02*
X197563817Y-45937295D01*
X197087554Y-43764172D02*
X197016994Y-43820629D01*
X196131540Y-44388596D02*
X196103312Y-44395658D01*
X196868834Y-44526184D02*
X196875896Y-44526184D01*
X197821338Y-44208676D02*
X198031160Y-44257980D01*
X198224063Y-44350514D01*
X198304642Y-44406230D01*
X197450926Y-42998650D02*
X197529303Y-43185179D01*
X197539120Y-43252640D01*
X196131540Y-44843671D02*
X196075084Y-44811933D01*
X197549692Y-43340835D02*
X197493257Y-43411394D01*
X197144011Y-43294993D02*
X197087554Y-43365532D01*
X197108720Y-46685183D02*
X197155463Y-46490270D01*
X197165754Y-46283116D01*
X197165177Y-46268907D01*
X197997727Y-46141891D02*
X197987133Y-45965502D01*
X198791477Y-49884880D02*
X198621861Y-49741109D01*
X198424135Y-49679321D01*
X198204490Y-49633982D01*
X197990664Y-49602640D01*
X196558388Y-48505506D02*
X196808868Y-48505506D01*
X195380122Y-44847203D02*
X195627049Y-44607316D01*
X197126355Y-44194572D02*
X197052285Y-44251007D01*
X196611313Y-47941071D02*
X196692445Y-48110397D01*
X195267230Y-44314505D02*
X195277803Y-44455624D01*
X196611313Y-48276214D02*
X196533691Y-48110397D01*
X198304642Y-44406230D02*
X198287007Y-44187510D01*
X197465029Y-48473768D02*
X197594966Y-48318073D01*
X197616721Y-48156260D01*
X196770067Y-45894964D02*
X196840605Y-45951399D01*
X197810744Y-45485729D02*
X198004789Y-45506895D01*
X196611313Y-48276214D02*
X196533691Y-48110397D01*
X197962458Y-43432560D02*
X197902470Y-43503120D01*
X195718775Y-44607316D02*
X195718775Y-44699042D01*
X195687037Y-44233373D02*
X195408329Y-44505018D01*
X198047121Y-45894964D02*
X198114150Y-45958461D01*
X197898939Y-43503120D02*
X197835441Y-43446685D01*
X197468560Y-46685183D02*
X197553051Y-46497139D01*
X197582804Y-46294482D01*
X197581452Y-46212451D01*
X197662584Y-44681407D02*
X197733144Y-44624951D01*
X197232205Y-45482198D02*
X197161645Y-45538655D01*
X196106843Y-45263478D02*
X196128009Y-45175283D01*
X196611313Y-48276214D02*
X196533691Y-48110397D01*
X195355425Y-49884880D02*
X195524818Y-50031668D01*
X195747695Y-50100264D01*
X195980571Y-50146177D01*
X196182532Y-50174487D01*
X196404661Y-50196909D01*
X196644045Y-50212865D01*
X196897770Y-50221782D01*
X197073451Y-50223532D01*
X196159747Y-45295237D02*
X196106843Y-45263478D01*
X197087554Y-43365532D02*
X197080513Y-43365532D01*
X197616721Y-48156260D02*
X197602618Y-47323709D01*
X197708447Y-46205410D02*
X197702020Y-46409793D01*
X197648543Y-46617797D01*
X197577921Y-46755742D01*
X198272882Y-43997018D02*
X198251717Y-43753600D01*
X196745370Y-43658343D02*
X196752411Y-43658343D01*
X195313093Y-44914231D02*
X195380122Y-44847203D01*
X198287007Y-44187510D02*
X198127510Y-44046235D01*
X197937374Y-43947715D01*
X197743716Y-43901761D01*
X195277803Y-44455624D02*
X195316624Y-44413293D01*
X195778762Y-45531592D02*
X195778762Y-45623318D01*
X196015118Y-43908823D02*
X196043346Y-43824160D01*
X197807235Y-44335670D02*
X197680218Y-44321567D01*
X197412104Y-43263234D02*
X197341978Y-43069897D01*
X197256902Y-42970422D01*
X197771944Y-45055351D02*
X197944802Y-45072986D01*
X197814276Y-43252640D02*
X197747247Y-43069210D01*
X197539120Y-43252640D02*
X197549692Y-43340835D01*
X198251717Y-43753600D02*
X198205686Y-43543128D01*
X198106686Y-43354754D01*
X197963759Y-43198161D01*
X197930698Y-43171508D01*
X196741839Y-43788869D02*
X196533378Y-43805723D01*
X196331767Y-43850092D01*
X196137649Y-43922620D01*
X196099781Y-43940561D01*
X196808868Y-49436845D02*
X196600229Y-49460270D01*
X196397056Y-49502716D01*
X196206689Y-49573090D01*
X196156216Y-49602640D01*
X197930698Y-45199980D02*
X197757841Y-45182346D01*
X195563552Y-46145422D02*
X195718775Y-45993730D01*
X197987133Y-45965502D02*
X198047121Y-45894964D01*
X196156216Y-49602640D02*
X195942390Y-49633982D01*
X195722750Y-49679321D01*
X195525031Y-49741109D01*
X195359108Y-49863183D01*
X195355425Y-49884880D01*
X197073451Y-50223532D02*
X197335120Y-50219628D01*
X197584388Y-50208300D01*
X197818344Y-50190125D01*
X198034074Y-50165676D01*
X198288328Y-50124316D01*
X198498100Y-50074192D01*
X198687242Y-50001291D01*
X198791477Y-49884880D01*
X196720673Y-46808646D02*
X196688914Y-46801584D01*
X195365997Y-45566861D02*
X195387163Y-45838507D01*
X196533691Y-48110397D02*
X196611313Y-47941071D01*
X195598842Y-44141647D02*
X195687037Y-44145178D01*
X195440088Y-46512325D02*
X195450660Y-46635788D01*
X196128009Y-45175283D02*
X196316137Y-45083559D01*
X196513854Y-45015651D01*
X196718846Y-44972879D01*
X196928800Y-44956563D01*
X197016994Y-43305565D02*
X197013485Y-43273806D01*
X196748901Y-46357102D02*
X196713611Y-45961992D01*
X196808868Y-48505506D02*
X196808868Y-49436845D01*
X197577921Y-46755742D02*
X197524995Y-46783949D01*
X197214549Y-45870267D02*
X197281578Y-45930233D01*
X196805336Y-44092253D02*
X196815930Y-44092253D01*
X196741839Y-42885759D02*
X196536817Y-42895582D01*
X196480787Y-42903394D01*
X196713611Y-45961992D02*
X196770067Y-45894964D01*
X197196914Y-45051820D02*
X197126355Y-45108255D01*
X197151052Y-45937295D02*
X197214549Y-45870267D01*
X198114150Y-45958461D02*
X198124722Y-46131319D01*
X196459621Y-48240923D02*
X196491230Y-48446306D01*
X196558388Y-48505506D01*
X197161645Y-44621420D02*
X197091085Y-44677876D01*
X197165177Y-46268907D02*
X197151052Y-45937295D01*
X197623783Y-44251007D02*
X197694343Y-44194572D01*
X195718775Y-45993730D02*
X195810500Y-45997262D01*
X195316624Y-44413293D02*
X195598842Y-44141647D01*
X197577921Y-43019816D02*
X197450926Y-42998650D01*
X195440088Y-45281112D02*
X195658809Y-45069454D01*
X196156216Y-45626849D02*
X196350855Y-45526416D01*
X196557068Y-45453100D01*
X196771881Y-45407564D01*
X196992319Y-45390473D01*
X196223244Y-45736209D02*
X196191506Y-45746782D01*
X196805336Y-44219269D02*
X196585536Y-44238781D01*
X196372323Y-44289438D01*
X196170226Y-44369292D01*
X196131540Y-44388596D01*
X198403430Y-45644484D02*
X198382243Y-45401066D01*
X196071553Y-44272173D02*
X196268127Y-44188877D01*
X196474328Y-44130436D01*
X196686384Y-44098259D01*
X196805336Y-44092253D01*
X196043346Y-43824160D02*
X196231919Y-43746652D01*
X196427922Y-43693063D01*
X196630415Y-43663859D01*
X196745370Y-43658343D01*
X196928800Y-45087089D02*
X196710762Y-45105058D01*
X196499369Y-45152692D01*
X196297917Y-45229520D01*
X196191506Y-45284644D01*
X196075084Y-44811933D02*
X196099781Y-44723739D01*
X197990664Y-45633890D02*
X197796641Y-45612724D01*
X197013485Y-43273806D02*
X196947562Y-43084040D01*
X196812709Y-42935754D01*
X196745370Y-42889290D01*
X196099781Y-44723739D02*
X196281954Y-44639782D01*
X196472397Y-44578655D01*
X196668795Y-44540680D01*
X196868834Y-44526184D01*
X197338034Y-48505506D02*
X197405063Y-48505506D01*
X195627049Y-44607316D02*
X195718775Y-44607316D01*
X196611313Y-47941071D02*
X196692445Y-48110397D01*
X197493257Y-43411394D02*
X197486195Y-43411394D01*
X196043346Y-44360368D02*
X196071553Y-44272173D01*
X197740206Y-45542186D02*
X197810744Y-45485729D01*
X195747003Y-45161180D02*
X195528283Y-45372838D01*
X195503585Y-45711512D02*
X195690568Y-45531592D01*
X195845791Y-43213840D02*
X195591780Y-43450195D01*
X197867201Y-46752211D02*
X197856607Y-46660486D01*
X197295703Y-46261845D02*
X197289049Y-46465059D01*
X197249990Y-46665027D01*
X197228674Y-46731045D01*
X197761372Y-47263743D02*
X197987133Y-47168486D01*
X197581452Y-43820629D02*
X197655521Y-43764172D01*
X197080513Y-43365532D02*
X197016994Y-43305565D01*
X195468316Y-44938928D02*
X195334386Y-45095921D01*
X195330728Y-45101214D01*
X197941270Y-43242068D02*
X197962458Y-43432560D01*
X197680218Y-44321567D02*
X197623783Y-44251007D01*
X198004789Y-45506895D02*
X198200841Y-45550301D01*
X198392143Y-45637620D01*
X198403430Y-45644484D01*
X196135050Y-45715044D02*
X196156216Y-45626849D01*
X197623783Y-45866736D02*
X197690812Y-45926702D01*
X195718775Y-44699042D02*
X195468316Y-44938928D01*
X195778762Y-45623318D02*
X195591780Y-45803238D01*
X196815930Y-44092253D02*
X197069920Y-44120481D01*
X196625416Y-43351428D02*
X196618354Y-43351428D01*
X197637887Y-43891167D02*
X197581452Y-43820629D01*
X198417533Y-45810279D02*
X198243905Y-45704688D01*
X198049521Y-45642632D01*
X197990664Y-45633890D01*
X196191506Y-45284644D02*
X196159747Y-45295237D01*
X198336401Y-44818974D02*
X198318745Y-44589682D01*
X197147520Y-46769846D02*
X197108720Y-46685183D01*
X197524995Y-46783949D02*
X197489726Y-46773377D01*
X196928800Y-44956563D02*
X196939394Y-44960094D01*
X197733144Y-44624951D02*
X197881304Y-44642585D01*
X196681873Y-43277337D02*
X196625416Y-43351428D01*
X197747247Y-43069210D02*
X197577921Y-43019816D01*
X195425985Y-46304177D02*
X195558933Y-46150063D01*
X195563552Y-46145422D01*
X196554856Y-43294993D02*
X196479013Y-43101405D01*
X196330612Y-42950607D01*
X196318501Y-42942216D01*
X197052285Y-44251007D02*
X196805336Y-44219269D01*
X196865303Y-44653179D02*
X196658409Y-44670232D01*
X196456961Y-44714805D01*
X196264718Y-44785960D01*
X196163278Y-44836630D01*
X197655521Y-43764172D02*
X197757841Y-43774766D01*
X198350505Y-44995363D02*
X198188595Y-44875255D01*
X198001755Y-44796444D01*
X197867201Y-44769602D01*
X195591780Y-45803238D02*
X195456700Y-45961470D01*
X195404819Y-46039593D01*
X196071553Y-43944092D02*
X196015118Y-43908823D01*
X196999360Y-45390473D02*
X197175749Y-45411660D01*
X197016994Y-43820629D02*
X196741839Y-43788869D01*
X197422697Y-43354959D02*
X197412104Y-43263234D01*
X197906001Y-46766315D02*
X197867201Y-46752211D01*
X196618354Y-43351428D02*
X196554856Y-43294993D01*
X196163278Y-44836630D02*
X196131540Y-44843671D01*
X197690812Y-45926702D02*
X197708447Y-46205410D01*
X197405063Y-48505506D02*
X197465029Y-48473768D01*
X195404819Y-46039593D02*
X195425985Y-46304177D01*
X196692445Y-48110397D02*
X196611313Y-48276214D01*
X197694343Y-44194572D02*
X197821338Y-44208676D01*
X196988788Y-45521020D02*
X196786818Y-45536775D01*
X196590141Y-45578335D01*
X196401402Y-45645034D01*
X196223244Y-45736209D01*
X197602618Y-47323709D02*
X197761372Y-47263743D01*
X195351894Y-45376369D02*
X195440088Y-45281112D01*
X196611313Y-47941071D02*
X196692445Y-48110397D01*
X197338034Y-49436845D02*
X197338034Y-48505506D01*
X198318745Y-44589682D02*
X198150077Y-44454427D01*
X197951649Y-44364940D01*
X197807235Y-44335670D01*
X197757841Y-45182346D02*
X197701384Y-45111786D01*
X197743716Y-43901761D02*
X197637887Y-43891167D01*
X196992319Y-42928091D02*
X197103792Y-43106413D01*
X197144011Y-43263234D01*
X197881304Y-44642585D02*
X198077439Y-44685855D01*
X198272051Y-44776710D01*
X198336401Y-44818974D01*
X196777108Y-46780418D02*
X196720673Y-46808646D01*
X197105189Y-44550881D02*
X197161645Y-44621420D01*
X196099781Y-43940561D02*
X196071553Y-43944092D01*
X197069920Y-44120481D02*
X197126355Y-44194572D01*
X197140480Y-44981260D02*
X197196914Y-45051820D01*
X197168708Y-46773377D02*
X197147520Y-46769846D01*
X197256902Y-42970422D02*
X196992319Y-42928091D01*
X195330728Y-45101214D02*
X195351894Y-45376369D01*
X197281578Y-45930233D02*
X197295703Y-46261845D01*
X196191506Y-45746782D02*
X196135050Y-45715044D01*
X195690568Y-45531592D02*
X195778762Y-45531592D01*
X196459621Y-47471870D02*
X196459621Y-48240923D01*
X196875896Y-46342977D02*
X196866644Y-46543202D01*
X196797816Y-46743164D01*
X196777108Y-46780418D01*
X195810500Y-46085456D02*
X195651746Y-46237148D01*
X196533691Y-48110397D02*
X196611313Y-47941071D01*
X195810500Y-45997262D02*
X195810500Y-46085456D01*
X195750534Y-45069454D02*
X195747003Y-45161180D01*
X197990664Y-49602640D02*
X197789599Y-49514147D01*
X197571043Y-49464199D01*
X197365328Y-49438952D01*
X197338034Y-49436845D01*
X198382243Y-45401066D02*
X198214438Y-45287704D01*
X198024363Y-45217025D01*
X197930698Y-45199980D01*
X195450660Y-46635788D02*
X195493822Y-46844865D01*
X195582393Y-47034484D01*
X195709590Y-47198102D01*
X195868631Y-47329181D01*
X196052734Y-47421179D01*
X196255115Y-47467557D01*
X196339667Y-47471870D01*
X197796641Y-45612724D02*
X197740206Y-45542186D01*
X197930698Y-43171508D02*
X197941270Y-43242068D01*
X196318501Y-42942216D02*
X196126759Y-43017922D01*
X195951393Y-43125262D01*
X195845791Y-43213840D01*
X196667748Y-46713389D02*
X196740792Y-46517966D01*
X196748901Y-46357102D01*
X198368139Y-45231740D02*
X198350505Y-44995363D01*
X196533691Y-48110397D02*
X196611313Y-47941071D01*
X197856607Y-46660486D02*
X197953107Y-46475255D01*
X197995736Y-46269971D01*
X197997727Y-46141891D01*
X197486195Y-43411394D02*
X197422697Y-43354959D01*
X195591780Y-43450195D02*
X195455561Y-43604790D01*
X195353967Y-43782865D01*
X195289214Y-43979549D01*
X195263521Y-44189970D01*
X195267230Y-44314505D01*
X197091085Y-44677876D02*
X196865303Y-44653179D01*
X197955395Y-46741618D02*
X197906001Y-46766315D01*
X197175749Y-45411660D02*
X197232205Y-45482198D01*
X197867201Y-44769602D02*
X197719040Y-44751946D01*
X197987133Y-47168486D02*
X198174026Y-47055293D01*
X198318918Y-46898167D01*
X198416268Y-46706856D01*
X198460534Y-46491111D01*
X198459865Y-46360611D01*
X198124722Y-46131319D02*
X198116576Y-46344771D01*
X198066952Y-46541691D01*
X197966783Y-46726871D01*
X197955395Y-46741618D01*
X197835441Y-43446685D02*
X197814276Y-43252640D01*
X196939394Y-44960094D02*
X197140480Y-44981260D01*
X195528283Y-45372838D02*
X195392865Y-45527902D01*
X195365997Y-45566861D01*
X197563817Y-45937295D02*
X197623783Y-45866736D01*
X197944802Y-45072986D02*
X198140106Y-45117534D01*
X198332780Y-45208680D01*
X198368139Y-45231740D01*
X195387163Y-45838507D02*
X195503585Y-45711512D01*
X197228674Y-46731045D02*
X197168708Y-46773377D01*
X196480787Y-42903394D02*
X196609136Y-43065450D01*
X196680053Y-43264150D01*
X196681873Y-43277337D01*
X196692445Y-48110397D02*
X196611313Y-48276214D01*
X196752411Y-43658343D02*
X197031119Y-43693612D01*
X197757841Y-43774766D02*
X197965449Y-43821829D01*
X198156689Y-43913171D01*
X198272882Y-43997018D01*
X196840605Y-45951399D02*
X196875896Y-46342977D01*
X197126355Y-45108255D02*
X196928800Y-45087089D01*
X196992319Y-45390473D02*
X196999360Y-45390473D01*
X197719040Y-44751946D02*
X197662584Y-44681407D01*
X197161645Y-45538655D02*
X196988788Y-45521020D01*
X197031119Y-43693612D02*
X197087554Y-43764172D01*
X197902470Y-43503120D02*
X197898939Y-43503120D01*
X197144011Y-43263234D02*
X197144011Y-43294993D01*
X195408329Y-44505018D02*
X195291927Y-44635545D01*
X195658809Y-45069454D02*
X195750534Y-45069454D01*
X196875896Y-44526184D02*
X197105189Y-44550881D01*
X198459865Y-46360611D02*
X198417533Y-45810279D01*
X196103312Y-44395658D02*
X196043346Y-44360368D01*
X196688914Y-46801584D02*
X196667748Y-46713389D01*
X196745370Y-42889290D02*
X196741839Y-42885759D01*
X195651746Y-46237148D02*
X195516898Y-46392868D01*
X195440088Y-46512325D01*
X195291927Y-44635545D02*
X195313093Y-44914231D01*
X196339667Y-47471870D02*
X196459621Y-47471870D01*
X196692445Y-48110397D02*
X196611313Y-48276214D01*
D11*
X162218354Y-142806782D02*
X166017777Y-120493588D01*
X147877950Y-119422237D02*
X134684053Y-119422237D01*
X171390576Y-34528702D02*
X171122462Y-34479308D01*
X78634718Y-132876101D02*
X84773060Y-149738874D01*
X171122462Y-34479308D02*
X170780277Y-34415810D01*
X101346553Y-118835528D02*
X101340041Y-118958535D01*
X101320921Y-119063869D01*
X101289813Y-119152873D01*
X101222027Y-119258700D01*
X101130754Y-119335344D01*
X101018088Y-119387337D01*
X100886120Y-119419216D01*
X100788453Y-119431532D01*
X100683757Y-119438268D01*
X100572653Y-119440766D01*
X100455762Y-119440370D01*
X100333702Y-119438424D01*
X100207095Y-119436271D01*
X100076561Y-119435255D01*
X86783876Y-150691379D02*
X87265895Y-150648742D01*
X88118850Y-150574157D01*
X89317412Y-150469809D01*
X90836251Y-150337881D01*
X92650038Y-150180557D01*
X94733443Y-150000021D01*
X97061138Y-149798457D01*
X99607793Y-149578048D01*
X102348079Y-149340979D01*
X105256666Y-149089433D01*
X108308226Y-148825595D01*
X111477428Y-148551647D01*
X114738945Y-148269775D01*
X118067446Y-147982161D01*
X121437602Y-147690990D01*
X124824083Y-147398446D01*
X128201562Y-147106712D01*
X131544708Y-146817973D01*
X134828191Y-146534411D01*
X138026684Y-146258212D01*
X141114856Y-145991559D01*
X144067379Y-145736636D01*
X146858922Y-145495626D01*
X149464157Y-145270714D01*
X151857754Y-145064083D01*
X154014385Y-144877918D01*
X155908719Y-144714401D01*
X157515428Y-144575718D01*
X158809182Y-144464052D01*
X159764652Y-144381586D01*
X160356509Y-144330506D01*
X160559424Y-144312994D01*
X170780277Y-34415810D02*
X170643142Y-34403395D01*
X170395510Y-34392557D01*
X170044912Y-34383218D01*
X169598882Y-34375299D01*
X169064949Y-34368724D01*
X168450647Y-34363414D01*
X167763508Y-34359294D01*
X167011062Y-34356284D01*
X166200841Y-34354307D01*
X165340379Y-34353287D01*
X164437206Y-34353145D01*
X163498854Y-34353804D01*
X162532856Y-34355186D01*
X161546742Y-34357214D01*
X160548045Y-34359810D01*
X159544297Y-34362898D01*
X158543029Y-34366399D01*
X157551774Y-34370235D01*
X156578063Y-34374330D01*
X155629428Y-34378606D01*
X154713400Y-34382985D01*
X153837513Y-34387390D01*
X153009296Y-34391743D01*
X152236284Y-34395968D01*
X151526006Y-34399985D01*
X150885996Y-34403718D01*
X150323784Y-34407090D01*
X149846903Y-34410022D01*
X149462885Y-34412438D01*
X149179261Y-34414259D01*
X149003563Y-34415409D01*
X148943324Y-34415810D01*
X226131098Y-138534218D02*
X226302029Y-138486765D01*
X226462005Y-138432526D01*
X226611390Y-138372043D01*
X226750544Y-138305861D01*
X226879831Y-138234523D01*
X226999613Y-138158574D01*
X227110253Y-138078557D01*
X227212114Y-137995016D01*
X227305558Y-137908495D01*
X227390947Y-137819538D01*
X227468644Y-137728688D01*
X227539012Y-137636491D01*
X227602413Y-137543489D01*
X227659210Y-137450226D01*
X227709765Y-137357247D01*
X227754441Y-137265095D01*
X227793601Y-137174314D01*
X227827606Y-137085449D01*
X227856820Y-136999042D01*
X227902324Y-136835781D01*
X227933013Y-136688882D01*
X227951788Y-136562698D01*
X227961548Y-136461578D01*
X227965632Y-136366412D01*
X227965547Y-136346991D01*
X112007487Y-119422237D02*
X111876952Y-119423253D01*
X111750345Y-119425406D01*
X111628285Y-119427352D01*
X111511394Y-119427748D01*
X111400290Y-119425250D01*
X111295594Y-119418514D01*
X111197927Y-119406198D01*
X111107907Y-119386957D01*
X110988574Y-119342172D01*
X110889938Y-119274249D01*
X110814091Y-119178653D01*
X110763126Y-119050851D01*
X110744006Y-118945517D01*
X110737495Y-118822510D01*
X125201384Y-119422237D02*
X112007487Y-119422237D01*
X227965547Y-45810528D02*
X227956434Y-45678539D01*
X227930682Y-45559934D01*
X227890668Y-45454041D01*
X227838768Y-45360188D01*
X227777359Y-45277704D01*
X227708819Y-45205917D01*
X227635525Y-45144155D01*
X227559854Y-45091746D01*
X227447090Y-45029201D01*
X227342349Y-44983922D01*
X227253653Y-44953642D01*
X227163274Y-44930349D01*
X227154162Y-44928584D01*
X100076561Y-119435255D02*
X88583055Y-119435255D01*
X227965547Y-136346991D02*
X227965547Y-136089375D01*
X227965547Y-135338363D01*
X227965547Y-134126701D01*
X227965547Y-132487138D01*
X227965547Y-130452423D01*
X227965547Y-128055304D01*
X227965547Y-125328530D01*
X227965547Y-122304850D01*
X227965547Y-119017010D01*
X227965547Y-115497762D01*
X227965547Y-111779851D01*
X227965547Y-107896028D01*
X227965547Y-103879040D01*
X227965547Y-99761637D01*
X227965547Y-95576566D01*
X227965547Y-91356576D01*
X227965547Y-87134416D01*
X227965547Y-82942834D01*
X227965547Y-78814578D01*
X227965547Y-74782397D01*
X227965547Y-70879040D01*
X227965547Y-67137255D01*
X227965547Y-63589790D01*
X227965547Y-60269394D01*
X227965547Y-57208816D01*
X227965547Y-54440803D01*
X227965547Y-51998105D01*
X227965547Y-49913470D01*
X227965547Y-48219646D01*
X227965547Y-46949382D01*
X227965547Y-46135426D01*
X227965547Y-45810528D01*
X166017777Y-120493588D02*
X166012075Y-120376265D01*
X165995314Y-120262767D01*
X165968011Y-120153609D01*
X165930683Y-120049309D01*
X165883847Y-119950383D01*
X165828018Y-119857348D01*
X165763715Y-119770720D01*
X165691454Y-119691018D01*
X165611751Y-119618756D01*
X165525123Y-119554453D01*
X165432088Y-119498624D01*
X165333162Y-119451788D01*
X165228862Y-119414460D01*
X165119704Y-119387157D01*
X165006206Y-119370396D01*
X164888884Y-119364695D01*
X162207782Y-142859708D02*
X162218354Y-142806782D01*
X147877950Y-118258075D02*
X148008484Y-118256662D01*
X148135091Y-118253389D01*
X148257150Y-118249702D01*
X148374042Y-118247049D01*
X148485146Y-118246876D01*
X148589841Y-118250630D01*
X148687509Y-118259759D01*
X148777529Y-118275709D01*
X148896861Y-118315589D01*
X148995497Y-118378956D01*
X149071344Y-118470693D01*
X149122309Y-118595685D01*
X149141429Y-118699899D01*
X149147941Y-118822510D01*
X84773060Y-149738874D02*
X84821658Y-149840417D01*
X84888141Y-149949678D01*
X84950685Y-150036183D01*
X85029126Y-150129547D01*
X85124599Y-150226282D01*
X85238236Y-150322896D01*
X85371171Y-150415899D01*
X85524536Y-150501802D01*
X85609235Y-150541000D01*
X85699465Y-150577114D01*
X85795370Y-150609707D01*
X85897091Y-150638345D01*
X86004769Y-150662589D01*
X86118546Y-150682005D01*
X86238564Y-150696155D01*
X86364964Y-150704604D01*
X86497889Y-150706915D01*
X86637478Y-150702652D01*
X86783876Y-150691379D01*
X183445187Y-140624426D02*
X183536912Y-140762658D01*
X183630630Y-140891813D01*
X183726021Y-141012200D01*
X183822761Y-141124124D01*
X183920529Y-141227894D01*
X184019004Y-141323817D01*
X184117864Y-141412200D01*
X184216787Y-141493352D01*
X184315452Y-141567579D01*
X184413536Y-141635189D01*
X184510719Y-141696489D01*
X184606678Y-141751787D01*
X184701092Y-141801391D01*
X184793639Y-141845607D01*
X184883997Y-141884744D01*
X184971845Y-141919108D01*
X185056862Y-141949008D01*
X185217112Y-141996643D01*
X185362174Y-142030108D01*
X185489475Y-142051863D01*
X185596441Y-142064369D01*
X185713133Y-142071163D01*
X185773533Y-142070806D01*
X227154162Y-44928584D02*
X171390576Y-34528702D01*
X87524722Y-120070250D02*
X87427251Y-120199811D01*
X87310170Y-120355436D01*
X87151755Y-120565999D01*
X86955176Y-120827283D01*
X86723606Y-121135069D01*
X86460217Y-121485139D01*
X86168179Y-121873276D01*
X85850664Y-122295260D01*
X85510845Y-122746875D01*
X85151893Y-123223901D01*
X84776979Y-123722122D01*
X84389275Y-124237318D01*
X83991952Y-124765272D01*
X83588184Y-125301765D01*
X83181140Y-125842580D01*
X82773993Y-126383498D01*
X82369914Y-126920302D01*
X81972075Y-127448772D01*
X81583648Y-127964692D01*
X81207804Y-128463843D01*
X80847714Y-128942007D01*
X80506552Y-129394966D01*
X80187488Y-129818501D01*
X79893693Y-130208395D01*
X79628340Y-130560430D01*
X79394600Y-130870387D01*
X79195645Y-131134049D01*
X79034646Y-131347197D01*
X78914776Y-131505614D01*
X78839205Y-131605080D01*
X78811106Y-131641379D01*
X148943324Y-34415810D02*
X112066641Y-36553643D01*
X176283602Y-118235823D02*
X176387579Y-118238555D01*
X176487862Y-118246519D01*
X176584476Y-118259367D01*
X176677447Y-118276750D01*
X176766800Y-118298318D01*
X176934758Y-118352616D01*
X177088557Y-118419471D01*
X177228403Y-118496093D01*
X177354503Y-118579691D01*
X177467064Y-118667474D01*
X177566292Y-118756654D01*
X177652395Y-118844437D01*
X177725578Y-118928035D01*
X177786049Y-119004657D01*
X177853372Y-119100405D01*
X177900570Y-119177609D01*
X177906393Y-119188306D01*
X185773533Y-142070806D02*
X185883884Y-142062008D01*
X186205785Y-142036303D01*
X186725505Y-141994727D01*
X187429314Y-141938313D01*
X188303481Y-141868095D01*
X189334277Y-141785109D01*
X190507971Y-141690389D01*
X191810833Y-141584968D01*
X193229132Y-141469881D01*
X194749138Y-141346163D01*
X196357121Y-141214848D01*
X198039351Y-141076971D01*
X199782097Y-140933565D01*
X201571629Y-140785666D01*
X203394217Y-140634307D01*
X205236130Y-140480523D01*
X207083638Y-140325348D01*
X208923012Y-140169817D01*
X210740520Y-140014963D01*
X212522432Y-139861823D01*
X214255019Y-139711429D01*
X215924549Y-139564816D01*
X217517293Y-139423019D01*
X219019520Y-139287072D01*
X220417500Y-139158009D01*
X221697502Y-139036865D01*
X222845797Y-138924674D01*
X223848654Y-138822470D01*
X224692343Y-138731288D01*
X225363133Y-138652163D01*
X225847295Y-138586128D01*
X226131098Y-138534218D01*
X108404975Y-36770481D02*
X89178586Y-36841035D01*
X164888884Y-119364695D02*
X156831430Y-119364695D01*
X87912769Y-92804064D02*
X87912769Y-117142199D01*
X112066641Y-36553643D02*
X111950703Y-36563327D01*
X111815220Y-36574420D01*
X111636448Y-36588782D01*
X111532796Y-36596977D01*
X111420681Y-36605737D01*
X111300890Y-36614976D01*
X111174210Y-36624611D01*
X111041426Y-36634556D01*
X110903326Y-36644729D01*
X110760696Y-36655044D01*
X110614322Y-36665417D01*
X110464991Y-36675764D01*
X110313490Y-36686000D01*
X110160604Y-36696042D01*
X110007121Y-36705804D01*
X109853826Y-36715203D01*
X109701506Y-36724153D01*
X109550949Y-36732572D01*
X109402939Y-36740375D01*
X109258264Y-36747476D01*
X109117710Y-36753792D01*
X108982064Y-36759239D01*
X108852112Y-36763732D01*
X108728641Y-36767187D01*
X108612436Y-36769520D01*
X108504285Y-36770646D01*
X108404975Y-36770481D01*
X110737495Y-118822510D02*
X110744006Y-118699899D01*
X110763126Y-118595685D01*
X110794234Y-118508421D01*
X110862020Y-118406142D01*
X110953293Y-118333860D01*
X111065959Y-118286694D01*
X111197927Y-118259759D01*
X111295594Y-118250630D01*
X111400290Y-118246876D01*
X111511394Y-118247049D01*
X111628285Y-118249702D01*
X111750345Y-118253389D01*
X111876952Y-118256662D01*
X112007487Y-118258075D01*
X126471376Y-118822510D02*
X126464864Y-118945517D01*
X126445744Y-119050851D01*
X126414636Y-119139855D01*
X126346850Y-119245682D01*
X126255577Y-119322326D01*
X126142911Y-119374319D01*
X126010943Y-119406198D01*
X125913276Y-119418514D01*
X125808580Y-119425250D01*
X125697476Y-119427748D01*
X125580585Y-119427352D01*
X125458525Y-119425406D01*
X125331918Y-119423253D01*
X125201384Y-119422237D01*
X156831430Y-118200532D02*
X176283602Y-118235823D01*
X100076561Y-118271092D02*
X100207095Y-118269679D01*
X100333702Y-118266406D01*
X100455762Y-118262719D01*
X100572653Y-118260066D01*
X100683757Y-118259893D01*
X100788453Y-118263648D01*
X100886120Y-118272776D01*
X100976140Y-118288726D01*
X101095473Y-118328607D01*
X101194109Y-118391974D01*
X101269956Y-118483711D01*
X101320921Y-118608703D01*
X101340041Y-118712917D01*
X101346553Y-118835528D01*
X78564158Y-132452763D02*
X78568854Y-132545361D01*
X78581465Y-132637964D01*
X78599772Y-132730571D01*
X78621559Y-132823181D01*
X78634718Y-132876101D01*
X134684053Y-119422237D02*
X134553518Y-119423253D01*
X134426911Y-119425406D01*
X134304851Y-119427352D01*
X134187960Y-119427748D01*
X134076856Y-119425250D01*
X133972160Y-119418514D01*
X133874493Y-119406198D01*
X133784473Y-119386957D01*
X133665140Y-119342172D01*
X133566504Y-119274249D01*
X133490657Y-119178653D01*
X133439692Y-119050851D01*
X133420572Y-118945517D01*
X133414061Y-118822510D01*
X87595282Y-119964421D02*
X87535792Y-120033877D01*
X87524722Y-120070250D01*
X89056533Y-36841922D02*
X88939211Y-36847623D01*
X88825712Y-36864384D01*
X88716555Y-36891687D01*
X88612254Y-36929015D01*
X88513328Y-36975852D01*
X88420293Y-37031680D01*
X88333666Y-37095983D01*
X88253963Y-37168245D01*
X88181701Y-37247948D01*
X88117398Y-37334575D01*
X88061570Y-37427610D01*
X88014733Y-37526536D01*
X87977405Y-37630837D01*
X87950102Y-37739994D01*
X87933341Y-37853493D01*
X87927640Y-37970815D01*
X89178586Y-36841035D02*
X89056533Y-36841922D01*
X177906393Y-119188306D02*
X183445187Y-140624426D01*
X149147941Y-118822510D02*
X149141429Y-118945517D01*
X149122309Y-119050851D01*
X149091201Y-119139855D01*
X149023415Y-119245682D01*
X148932143Y-119322326D01*
X148819476Y-119374319D01*
X148687509Y-119406198D01*
X148589841Y-119418514D01*
X148485146Y-119425250D01*
X148374042Y-119427748D01*
X148257150Y-119427352D01*
X148135091Y-119425406D01*
X148008484Y-119423253D01*
X147877950Y-119422237D01*
X88583055Y-119435255D02*
X88474899Y-119449743D01*
X88368953Y-119473009D01*
X88265566Y-119504529D01*
X88165087Y-119543781D01*
X88067864Y-119590241D01*
X87974246Y-119643387D01*
X87884582Y-119702694D01*
X87799221Y-119767640D01*
X87718512Y-119837702D01*
X87642804Y-119912357D01*
X87595282Y-119964421D01*
X133414061Y-118822510D02*
X133420572Y-118699899D01*
X133439692Y-118595685D01*
X133470800Y-118508421D01*
X133538586Y-118406142D01*
X133629859Y-118333860D01*
X133742525Y-118286694D01*
X133874493Y-118259759D01*
X133972160Y-118250630D01*
X134076856Y-118246876D01*
X134187960Y-118247049D01*
X134304851Y-118249702D01*
X134426911Y-118253389D01*
X134553518Y-118256662D01*
X134684053Y-118258075D01*
X156831430Y-119364695D02*
X156700895Y-119365711D01*
X156574288Y-119367865D01*
X156452229Y-119369812D01*
X156335337Y-119370209D01*
X156224234Y-119367713D01*
X156119538Y-119360979D01*
X156021870Y-119348664D01*
X155931851Y-119329425D01*
X155812518Y-119284643D01*
X155713882Y-119216723D01*
X155638035Y-119121130D01*
X155587070Y-118993330D01*
X155567950Y-118887996D01*
X155561439Y-118764990D01*
X87927640Y-37970815D02*
X87912769Y-92804064D01*
X125201384Y-118258075D02*
X125331918Y-118256662D01*
X125458525Y-118253389D01*
X125580585Y-118249702D01*
X125697476Y-118247049D01*
X125808580Y-118246876D01*
X125913276Y-118250630D01*
X126010943Y-118259759D01*
X126100963Y-118275709D01*
X126220296Y-118315589D01*
X126318932Y-118378956D01*
X126394779Y-118470693D01*
X126445744Y-118595685D01*
X126464864Y-118699899D01*
X126471376Y-118822510D01*
X89041662Y-118271092D02*
X100076561Y-118271092D01*
X87912769Y-117142199D02*
X87918470Y-117259521D01*
X87935231Y-117373019D01*
X87962534Y-117482177D01*
X87999862Y-117586477D01*
X88046698Y-117685403D01*
X88102527Y-117778438D01*
X88166830Y-117865066D01*
X88239092Y-117944769D01*
X88318794Y-118017030D01*
X88405422Y-118081333D01*
X88498457Y-118137162D01*
X88597383Y-118183998D01*
X88701683Y-118221326D01*
X88810841Y-118248629D01*
X88924339Y-118265390D01*
X89041662Y-118271092D01*
X134684053Y-118258075D02*
X147877950Y-118258075D01*
X155561439Y-118764990D02*
X155567950Y-118642378D01*
X155587070Y-118538164D01*
X155618178Y-118450899D01*
X155685964Y-118348617D01*
X155777237Y-118276333D01*
X155889903Y-118229163D01*
X156021870Y-118202225D01*
X156119538Y-118193094D01*
X156224234Y-118189338D01*
X156335337Y-118189509D01*
X156452229Y-118192161D01*
X156574288Y-118195847D01*
X156700895Y-118199119D01*
X156831430Y-118200532D01*
X78811106Y-131641379D02*
X78749852Y-131735562D01*
X78698106Y-131832643D01*
X78655455Y-131932205D01*
X78621486Y-132033836D01*
X78595785Y-132137122D01*
X78577939Y-132241647D01*
X78567534Y-132346999D01*
X78564158Y-132452763D01*
X112007487Y-118258075D02*
X125201384Y-118258075D01*
X160559424Y-144312994D02*
X160684334Y-144296775D01*
X160823088Y-144267449D01*
X160935981Y-144235941D01*
X161061179Y-144192782D01*
X161195248Y-144136182D01*
X161334755Y-144064353D01*
X161476266Y-143975508D01*
X161616348Y-143867857D01*
X161684779Y-143806420D01*
X161751565Y-143739612D01*
X161816276Y-143667208D01*
X161878484Y-143588984D01*
X161937759Y-143504718D01*
X161993672Y-143414186D01*
X162045794Y-143317164D01*
X162093695Y-143213429D01*
X162136946Y-143102757D01*
X162175118Y-142984924D01*
X162207782Y-142859708D01*
D12*
X118750000Y-43751000D02*
X118750000Y-46851000D01*
X118750000Y-46851000D02*
X122350000Y-46851000D01*
X122350000Y-46851000D02*
X122350000Y-43751000D01*
X122350000Y-43751000D02*
X118750000Y-43751000D01*
X156850000Y-38751000D02*
X156850000Y-41851000D01*
X156850000Y-41851000D02*
X160450000Y-41851000D01*
X160450000Y-41851000D02*
X160450000Y-38751000D01*
X160450000Y-38751000D02*
X156850000Y-38751000D01*
X122350000Y-84951000D02*
X122350000Y-81851000D01*
X118750000Y-84951000D02*
X122350000Y-84951000D01*
X122350000Y-81851000D02*
X118750000Y-81851000D01*
X118750000Y-81851000D02*
X118750000Y-84951000D01*
X141400000Y-79351000D02*
X137800000Y-79351000D01*
X137800000Y-79351000D02*
X137800000Y-82451000D01*
X141400000Y-82451000D02*
X141400000Y-79351000D01*
X137800000Y-82451000D02*
X141400000Y-82451000D01*
X122350000Y-100901000D02*
X118750000Y-100901000D01*
X118750000Y-100901000D02*
X118750000Y-104001000D01*
X118750000Y-104001000D02*
X122350000Y-104001000D01*
X122350000Y-104001000D02*
X122350000Y-100901000D01*
X156850000Y-95901000D02*
X156850000Y-99001000D01*
X160450000Y-95901000D02*
X156850000Y-95901000D01*
X160450000Y-99001000D02*
X160450000Y-95901000D01*
X156850000Y-99001000D02*
X160450000Y-99001000D01*
X198589120Y-112643640D02*
X194989120Y-112643640D01*
X194989120Y-115743640D02*
X198589120Y-115743640D01*
X198589120Y-115743640D02*
X198589120Y-112643640D01*
X194989120Y-112643640D02*
X194989120Y-115743640D01*
X88168599Y-132402244D02*
X89228862Y-135315291D01*
X89228862Y-135315291D02*
X92611755Y-134084019D01*
X91551493Y-131170972D02*
X88168599Y-132402244D01*
X92611755Y-134084019D02*
X91551493Y-131170972D01*
X112636646Y-125726010D02*
X109091339Y-126351143D01*
X113174956Y-128778914D02*
X112636646Y-125726010D01*
X109091339Y-126351143D02*
X109629648Y-129404047D01*
X109629648Y-129404047D02*
X113174956Y-128778914D01*
X214039120Y-74543640D02*
X214039120Y-77643640D01*
X217639120Y-77643640D02*
X217639120Y-74543640D01*
X217639120Y-74543640D02*
X214039120Y-74543640D01*
X214039120Y-77643640D02*
X217639120Y-77643640D01*
X217639120Y-93593640D02*
X214039120Y-93593640D01*
X217639120Y-96693640D02*
X217639120Y-93593640D01*
X214039120Y-96693640D02*
X217639120Y-96693640D01*
X214039120Y-93593640D02*
X214039120Y-96693640D01*
X217639120Y-112643640D02*
X214039120Y-112643640D01*
X217639120Y-115743640D02*
X217639120Y-112643640D01*
X214039120Y-115743640D02*
X217639120Y-115743640D01*
X214039120Y-112643640D02*
X214039120Y-115743640D01*
X179500000Y-44351000D02*
X179500000Y-41251000D01*
X179500000Y-41251000D02*
X175900000Y-41251000D01*
X175900000Y-44351000D02*
X179500000Y-44351000D01*
X175900000Y-41251000D02*
X175900000Y-44351000D01*
X194989120Y-58593640D02*
X198589120Y-58593640D01*
X198589120Y-55493640D02*
X194989120Y-55493640D01*
X194989120Y-55493640D02*
X194989120Y-58593640D01*
X198589120Y-58593640D02*
X198589120Y-55493640D01*
X137800000Y-60301000D02*
X137800000Y-63401000D01*
X137800000Y-63401000D02*
X141400000Y-63401000D01*
X141400000Y-63401000D02*
X141400000Y-60301000D01*
X141400000Y-60301000D02*
X137800000Y-60301000D01*
X175900000Y-60301000D02*
X175900000Y-63401000D01*
X179500000Y-60301000D02*
X175900000Y-60301000D01*
X175900000Y-63401000D02*
X179500000Y-63401000D01*
X179500000Y-63401000D02*
X179500000Y-60301000D01*
X160450000Y-57801000D02*
X156850000Y-57801000D01*
X156850000Y-60901000D02*
X160450000Y-60901000D01*
X160450000Y-60901000D02*
X160450000Y-57801000D01*
X156850000Y-57801000D02*
X156850000Y-60901000D01*
X175900000Y-82451000D02*
X179500000Y-82451000D01*
X175900000Y-79351000D02*
X175900000Y-82451000D01*
X179500000Y-79351000D02*
X175900000Y-79351000D01*
X179500000Y-82451000D02*
X179500000Y-79351000D01*
X217639120Y-55493640D02*
X214039120Y-55493640D01*
X214039120Y-58593640D02*
X217639120Y-58593640D01*
X214039120Y-55493640D02*
X214039120Y-58593640D01*
X217639120Y-58593640D02*
X217639120Y-55493640D01*
X118750000Y-65951000D02*
X122350000Y-65951000D01*
X122350000Y-65951000D02*
X122350000Y-62851000D01*
X122350000Y-62851000D02*
X118750000Y-62851000D01*
X118750000Y-62851000D02*
X118750000Y-65951000D01*
X194989120Y-77643640D02*
X198589120Y-77643640D01*
X198589120Y-77643640D02*
X198589120Y-74543640D01*
X194989120Y-74543640D02*
X194989120Y-77643640D01*
X198589120Y-74543640D02*
X194989120Y-74543640D01*
X175900000Y-98401000D02*
X175900000Y-101501000D01*
X179500000Y-98401000D02*
X175900000Y-98401000D01*
X179500000Y-101501000D02*
X179500000Y-98401000D01*
X175900000Y-101501000D02*
X179500000Y-101501000D01*
X194989120Y-93593640D02*
X194989120Y-96693640D01*
X198589120Y-93593640D02*
X194989120Y-93593640D01*
X198589120Y-96693640D02*
X198589120Y-93593640D01*
X194989120Y-96693640D02*
X198589120Y-96693640D01*
X151953284Y-128848914D02*
X155498592Y-129474047D01*
X156036901Y-126421143D02*
X152491594Y-125796010D01*
X155498592Y-129474047D02*
X156036901Y-126421143D01*
X152491594Y-125796010D02*
X151953284Y-128848914D01*
X160450000Y-76851000D02*
X156850000Y-76851000D01*
X156850000Y-76851000D02*
X156850000Y-79951000D01*
X156850000Y-79951000D02*
X160450000Y-79951000D01*
X160450000Y-79951000D02*
X160450000Y-76851000D01*
X137800000Y-41251000D02*
X137800000Y-44351000D01*
X141400000Y-44351000D02*
X141400000Y-41251000D01*
X137800000Y-44351000D02*
X141400000Y-44351000D01*
X141400000Y-41251000D02*
X137800000Y-41251000D01*
X137800000Y-101501000D02*
X141400000Y-101501000D01*
X137800000Y-98401000D02*
X137800000Y-101501000D01*
X141400000Y-98401000D02*
X137800000Y-98401000D01*
X141400000Y-101501000D02*
X141400000Y-98401000D01*
X130799120Y-127303640D02*
X134399120Y-127303640D01*
X130799120Y-124203640D02*
X130799120Y-127303640D01*
X134399120Y-124203640D02*
X130799120Y-124203640D01*
X134399120Y-127303640D02*
X134399120Y-124203640D01*
D13*
X95499272Y-80311965D03*
X100579272Y-80311965D03*
X95499272Y-78061965D03*
X100579272Y-78061965D03*
D14*
X96500000Y-87400000D03*
X96500000Y-85650000D03*
X89500000Y-85650000D03*
X89500000Y-87400000D03*
D15*
X98300000Y-89500000D03*
X98300000Y-83550000D03*
X94300000Y-83550000D03*
X94300000Y-89500000D03*
X91300000Y-83550000D03*
X91300000Y-89500000D03*
X99800000Y-87750000D03*
X99800000Y-85300000D03*
D13*
X102700000Y-80300000D03*
X102700000Y-78100000D03*
D16*
X106399120Y-113372640D03*
D17*
X108718815Y-42425745D03*
X92180000Y-41230000D03*
X108718815Y-44965745D03*
X92180000Y-43770000D03*
X108718815Y-47505745D03*
X92180000Y-46310000D03*
X108718815Y-50045745D03*
X92180000Y-48850000D03*
X108718815Y-52585745D03*
X92180000Y-51390000D03*
X92180000Y-53930000D03*
X108718815Y-55125745D03*
X108718815Y-57665745D03*
X92180000Y-56470000D03*
X108718815Y-60205745D03*
X92180000Y-59010000D03*
X108718815Y-62745745D03*
X92180000Y-61550000D03*
X92180000Y-64090000D03*
X108718815Y-65285745D03*
X108718815Y-67825745D03*
X92180000Y-66630000D03*
X108718815Y-70365745D03*
X92180000Y-69170000D03*
X93478815Y-70365745D03*
X107420000Y-69170000D03*
X107420000Y-66630000D03*
X93478815Y-67825745D03*
X93478815Y-65285745D03*
X107420000Y-64090000D03*
X93478815Y-62745745D03*
X107420000Y-61550000D03*
X107420000Y-59010000D03*
X93478815Y-60205745D03*
X93478815Y-57665745D03*
X107420000Y-56470000D03*
X93478815Y-55125745D03*
X107420000Y-53930000D03*
X107420000Y-51390000D03*
X93478815Y-52585745D03*
X107420000Y-48850000D03*
X93478815Y-50045745D03*
X93478815Y-47505745D03*
X107420000Y-46310000D03*
X107420000Y-43770000D03*
X93478815Y-44965745D03*
X93478815Y-42425745D03*
X107420000Y-41230000D03*
D18*
X104300000Y-69800380D03*
X104300000Y-68799620D03*
X101700000Y-69800380D03*
X101700000Y-68799620D03*
X99200000Y-69800380D03*
X99200000Y-68799620D03*
D19*
X90000000Y-74250000D03*
X90000000Y-80750000D03*
D20*
X94000000Y-74499620D03*
X94000000Y-75500380D03*
D21*
X128705000Y-44452000D03*
X128705000Y-48002000D03*
X131245000Y-44455000D03*
X131245000Y-48005000D03*
X150345000Y-41955000D03*
X150345000Y-45505000D03*
X169345000Y-44455000D03*
X169345000Y-48005000D03*
X188590120Y-58490640D03*
X188590120Y-62040640D03*
X207690120Y-58620640D03*
X207690120Y-62170640D03*
X128705000Y-82555000D03*
X128705000Y-86105000D03*
X128705000Y-101655000D03*
X128705000Y-105205000D03*
D22*
X105225000Y-97000000D03*
X108775000Y-97000000D03*
D23*
X82994156Y-137255034D03*
X84208328Y-140590942D03*
D24*
X126050000Y-50000000D03*
X115050000Y-50000000D03*
D25*
X125550000Y-53700000D03*
X120550000Y-55900000D03*
X115550000Y-53700000D03*
D26*
X120550000Y-50000000D03*
D27*
X125770000Y-45800000D03*
X115330000Y-45800000D03*
D28*
X117800000Y-46001000D03*
X117800000Y-44601000D03*
X123300000Y-44601000D03*
X123300000Y-46001000D03*
D29*
X117750000Y-55900000D03*
X128450000Y-53700000D03*
D25*
X153650000Y-48700000D03*
D27*
X163870000Y-40800000D03*
D24*
X153150000Y-45000000D03*
D25*
X163650000Y-48700000D03*
X158650000Y-50900000D03*
D27*
X153430000Y-40800000D03*
D24*
X164150000Y-45000000D03*
D26*
X158650000Y-45000000D03*
D28*
X155900000Y-41001000D03*
X155900000Y-39601000D03*
X161400000Y-39601000D03*
X161400000Y-41001000D03*
D29*
X155850000Y-50900000D03*
X166550000Y-48700000D03*
D27*
X125770000Y-83900000D03*
D26*
X120550000Y-88100000D03*
D25*
X125550000Y-91800000D03*
D24*
X115050000Y-88100000D03*
D25*
X120550000Y-94000000D03*
D24*
X126050000Y-88100000D03*
D27*
X115330000Y-83900000D03*
D25*
X115550000Y-91800000D03*
D28*
X117800000Y-84101000D03*
X117800000Y-82701000D03*
X123300000Y-82701000D03*
X123300000Y-84101000D03*
D29*
X117750000Y-94000000D03*
X128450000Y-91800000D03*
D25*
X134600000Y-89300000D03*
D26*
X139600000Y-85600000D03*
D25*
X144600000Y-89300000D03*
D27*
X144820000Y-81400000D03*
D25*
X139600000Y-91500000D03*
D27*
X134380000Y-81400000D03*
D24*
X145100000Y-85600000D03*
X134100000Y-85600000D03*
D28*
X136850000Y-81601000D03*
X136850000Y-80201000D03*
X142350000Y-80201000D03*
X142350000Y-81601000D03*
D29*
X136800000Y-91500000D03*
X147500000Y-89300000D03*
D25*
X125550000Y-110850000D03*
X115550000Y-110850000D03*
X120550000Y-113050000D03*
D27*
X125770000Y-102950000D03*
D24*
X126050000Y-107150000D03*
X115050000Y-107150000D03*
D26*
X120550000Y-107150000D03*
D27*
X115330000Y-102950000D03*
D28*
X117800000Y-103151000D03*
X117800000Y-101751000D03*
X123300000Y-101751000D03*
X123300000Y-103151000D03*
D29*
X117750000Y-113050000D03*
X128450000Y-110850000D03*
D24*
X153150000Y-102150000D03*
D25*
X158650000Y-108050000D03*
D24*
X164150000Y-102150000D03*
D26*
X158650000Y-102150000D03*
D27*
X163870000Y-97950000D03*
D25*
X153650000Y-105850000D03*
D27*
X153430000Y-97950000D03*
D25*
X163650000Y-105850000D03*
D28*
X155900000Y-98151000D03*
X155900000Y-96751000D03*
X161400000Y-96751000D03*
X161400000Y-98151000D03*
D29*
X155850000Y-108050000D03*
X166550000Y-105850000D03*
D27*
X191569120Y-114692640D03*
D24*
X191289120Y-118892640D03*
D26*
X196789120Y-118892640D03*
D24*
X202289120Y-118892640D03*
D25*
X196789120Y-124792640D03*
X191789120Y-122592640D03*
D27*
X202009120Y-114692640D03*
D25*
X201789120Y-122592640D03*
D28*
X194039120Y-114893640D03*
X194039120Y-113493640D03*
X199539120Y-113493640D03*
X199539120Y-114893640D03*
D29*
X193989120Y-124792640D03*
X204689120Y-122592640D03*
D25*
X94015249Y-143202933D03*
D24*
X86829021Y-139539858D03*
D25*
X97961268Y-139425509D03*
D27*
X95466041Y-131926693D03*
D24*
X97165639Y-135777636D03*
D26*
X91997330Y-137658747D03*
D25*
X88564341Y-142845710D03*
D27*
X85655650Y-135497383D03*
D30*
X88045437Y-134841472D03*
X87566609Y-133525902D03*
X92734918Y-131644791D03*
X93213746Y-132960361D03*
D31*
X91384110Y-144160590D03*
X100686376Y-138433651D03*
D32*
X91500000Y-93500000D03*
D18*
X96700000Y-69800380D03*
X96700000Y-68799620D03*
D13*
X96700000Y-74600000D03*
X99240000Y-74600000D03*
X101780000Y-74600000D03*
X104320000Y-74600000D03*
D32*
X107000000Y-93500000D03*
D19*
X92500000Y-102000000D03*
X92500000Y-107000000D03*
X92500000Y-104500000D03*
D33*
X100000000Y-98900000D03*
X100000000Y-110100000D03*
D19*
X107000000Y-107000000D03*
X107000000Y-102000000D03*
D25*
X117515657Y-134968188D03*
D24*
X117365563Y-131237575D03*
D27*
X116360494Y-127150004D03*
D26*
X111949120Y-132192640D03*
D24*
X106532677Y-133147705D03*
D27*
X106079101Y-128962891D03*
D25*
X107667579Y-136704670D03*
X112973644Y-138003006D03*
D34*
X108546480Y-128731926D03*
X108303372Y-127353195D03*
X113719815Y-126398130D03*
X113962922Y-127776861D03*
D35*
X110216183Y-138489221D03*
X120371600Y-134464608D03*
D26*
X215839120Y-80792640D03*
D24*
X221339120Y-80792640D03*
D27*
X221059120Y-76592640D03*
D25*
X220839120Y-84492640D03*
X210839120Y-84492640D03*
D24*
X210339120Y-80792640D03*
D25*
X215839120Y-86692640D03*
D27*
X210619120Y-76592640D03*
D28*
X213089120Y-76793640D03*
X213089120Y-75393640D03*
X218589120Y-75393640D03*
X218589120Y-76793640D03*
D29*
X213039120Y-86692640D03*
X223739120Y-84492640D03*
D25*
X210839120Y-103542640D03*
D24*
X210339120Y-99842640D03*
D25*
X215839120Y-105742640D03*
X220839120Y-103542640D03*
D27*
X221059120Y-95642640D03*
D26*
X215839120Y-99842640D03*
D24*
X221339120Y-99842640D03*
D27*
X210619120Y-95642640D03*
D28*
X213089120Y-95843640D03*
X213089120Y-94443640D03*
X218589120Y-94443640D03*
X218589120Y-95843640D03*
D29*
X213039120Y-105742640D03*
X223739120Y-103542640D03*
D24*
X210339120Y-118892640D03*
D25*
X210839120Y-122592640D03*
D26*
X215839120Y-118892640D03*
D27*
X221059120Y-114692640D03*
D24*
X221339120Y-118892640D03*
D27*
X210619120Y-114692640D03*
D25*
X220839120Y-122592640D03*
X215839120Y-124792640D03*
D28*
X213089120Y-114893640D03*
X213089120Y-113493640D03*
X218589120Y-113493640D03*
X218589120Y-114893640D03*
D29*
X213039120Y-124792640D03*
X223739120Y-122592640D03*
D27*
X182920000Y-43300000D03*
X172480000Y-43300000D03*
D26*
X177700000Y-47500000D03*
D25*
X182700000Y-51200000D03*
D24*
X172200000Y-47500000D03*
D25*
X172700000Y-51200000D03*
D24*
X183200000Y-47500000D03*
D25*
X177700000Y-53400000D03*
D28*
X174950000Y-43501000D03*
X174950000Y-42101000D03*
X180450000Y-42101000D03*
X180450000Y-43501000D03*
D29*
X174900000Y-53400000D03*
X185600000Y-51200000D03*
D16*
X206164120Y-71357640D03*
D21*
X128705000Y-63555000D03*
X128705000Y-67105000D03*
X131245000Y-63555000D03*
X131245000Y-67105000D03*
X150345000Y-61045000D03*
X150345000Y-64595000D03*
X169345000Y-63455000D03*
X169345000Y-67005000D03*
X188590120Y-77520640D03*
X188590120Y-81070640D03*
X207590120Y-77520640D03*
X207590120Y-81070640D03*
D25*
X191789120Y-65442640D03*
D24*
X191289120Y-61742640D03*
D25*
X201789120Y-65442640D03*
D27*
X202009120Y-57542640D03*
D26*
X196789120Y-61742640D03*
D24*
X202289120Y-61742640D03*
D27*
X191569120Y-57542640D03*
D25*
X196789120Y-67642640D03*
D28*
X194039120Y-57743640D03*
X194039120Y-56343640D03*
X199539120Y-56343640D03*
X199539120Y-57743640D03*
D29*
X193989120Y-67642640D03*
X204689120Y-65442640D03*
D24*
X145100000Y-66550000D03*
D27*
X144820000Y-62350000D03*
X134380000Y-62350000D03*
D26*
X139600000Y-66550000D03*
D24*
X134100000Y-66550000D03*
D25*
X139600000Y-72450000D03*
X144600000Y-70250000D03*
X134600000Y-70250000D03*
D28*
X136850000Y-62551000D03*
X136850000Y-61151000D03*
X142350000Y-61151000D03*
X142350000Y-62551000D03*
D29*
X136800000Y-72450000D03*
X147500000Y-70250000D03*
D26*
X177700000Y-66550000D03*
D27*
X172480000Y-62350000D03*
D25*
X172700000Y-70250000D03*
D24*
X172200000Y-66550000D03*
X183200000Y-66550000D03*
D27*
X182920000Y-62350000D03*
D25*
X182700000Y-70250000D03*
X177700000Y-72450000D03*
D28*
X174950000Y-62551000D03*
X174950000Y-61151000D03*
X180450000Y-61151000D03*
X180450000Y-62551000D03*
D29*
X174900000Y-72450000D03*
X185600000Y-70250000D03*
D25*
X158650000Y-69950000D03*
X163650000Y-67750000D03*
D24*
X153150000Y-64050000D03*
X164150000Y-64050000D03*
D27*
X163870000Y-59850000D03*
X153430000Y-59850000D03*
D25*
X153650000Y-67750000D03*
D26*
X158650000Y-64050000D03*
D28*
X155900000Y-60051000D03*
X155900000Y-58651000D03*
X161400000Y-58651000D03*
X161400000Y-60051000D03*
D29*
X155850000Y-69950000D03*
X166550000Y-67750000D03*
D26*
X177700000Y-85600000D03*
D27*
X172480000Y-81400000D03*
D24*
X183200000Y-85600000D03*
D27*
X182920000Y-81400000D03*
D24*
X172200000Y-85600000D03*
D25*
X177700000Y-91500000D03*
X172700000Y-89300000D03*
X182700000Y-89300000D03*
D28*
X174950000Y-81601000D03*
X174950000Y-80201000D03*
X180450000Y-80201000D03*
X180450000Y-81601000D03*
D29*
X174900000Y-91500000D03*
X185600000Y-89300000D03*
D24*
X221339120Y-61742640D03*
D25*
X215839120Y-67642640D03*
D27*
X210619120Y-57542640D03*
D24*
X210339120Y-61742640D03*
D25*
X220839120Y-65442640D03*
X210839120Y-65442640D03*
D27*
X221059120Y-57542640D03*
D26*
X215839120Y-61742640D03*
D28*
X213089120Y-57743640D03*
X213089120Y-56343640D03*
X218589120Y-56343640D03*
X218589120Y-57743640D03*
D29*
X213039120Y-67642640D03*
X223739120Y-65442640D03*
D26*
X120550000Y-69100000D03*
D27*
X115330000Y-64900000D03*
D25*
X115550000Y-72800000D03*
D27*
X125770000Y-64900000D03*
D24*
X115050000Y-69100000D03*
D25*
X125550000Y-72800000D03*
X120550000Y-75000000D03*
D24*
X126050000Y-69100000D03*
D28*
X117800000Y-65101000D03*
X117800000Y-63701000D03*
X123300000Y-63701000D03*
X123300000Y-65101000D03*
D29*
X117750000Y-75000000D03*
X128450000Y-72800000D03*
D27*
X202009120Y-76592640D03*
X191569120Y-76592640D03*
D26*
X196789120Y-80792640D03*
D25*
X191789120Y-84492640D03*
D24*
X191289120Y-80792640D03*
X202289120Y-80792640D03*
D25*
X196789120Y-86692640D03*
X201789120Y-84492640D03*
D28*
X194039120Y-76793640D03*
X194039120Y-75393640D03*
X199539120Y-75393640D03*
X199539120Y-76793640D03*
D29*
X193989120Y-86692640D03*
X204689120Y-84492640D03*
D24*
X183200000Y-104650000D03*
D25*
X177700000Y-110550000D03*
D27*
X182920000Y-100450000D03*
X172480000Y-100450000D03*
D25*
X182700000Y-108350000D03*
D26*
X177700000Y-104650000D03*
D25*
X172700000Y-108350000D03*
D24*
X172200000Y-104650000D03*
D28*
X174950000Y-100651000D03*
X174950000Y-99251000D03*
X180450000Y-99251000D03*
X180450000Y-100651000D03*
D29*
X174900000Y-110550000D03*
X185600000Y-108350000D03*
D25*
X196789120Y-105742640D03*
X191789120Y-103542640D03*
D24*
X202289120Y-99842640D03*
X191289120Y-99842640D03*
D26*
X196789120Y-99842640D03*
D27*
X191569120Y-95642640D03*
X202009120Y-95642640D03*
D25*
X201789120Y-103542640D03*
D28*
X194039120Y-95843640D03*
X194039120Y-94443640D03*
X199539120Y-94443640D03*
X199539120Y-95843640D03*
D29*
X193989120Y-105742640D03*
X204689120Y-103542640D03*
D26*
X153179120Y-132262640D03*
D25*
X157460661Y-136774670D03*
D27*
X159049139Y-129032891D03*
X148767746Y-127220004D03*
D24*
X158595563Y-133217705D03*
D25*
X147612583Y-135038188D03*
X152154596Y-138073006D03*
D24*
X147762677Y-131307575D03*
D36*
X151165318Y-127846861D03*
X151408425Y-126468130D03*
X156824868Y-127423195D03*
X156581760Y-128801926D03*
D37*
X149397134Y-137586791D03*
X160316603Y-137278249D03*
D25*
X163650000Y-86800000D03*
X158650000Y-89000000D03*
D26*
X158650000Y-83100000D03*
D27*
X153430000Y-78900000D03*
D24*
X153150000Y-83100000D03*
D27*
X163870000Y-78900000D03*
D24*
X164150000Y-83100000D03*
D25*
X153650000Y-86800000D03*
D28*
X155900000Y-79101000D03*
X155900000Y-77701000D03*
X161400000Y-77701000D03*
X161400000Y-79101000D03*
D29*
X155850000Y-89000000D03*
X166550000Y-86800000D03*
D24*
X145100000Y-47500000D03*
X134100000Y-47500000D03*
D25*
X144600000Y-51200000D03*
D27*
X144820000Y-43300000D03*
D26*
X139600000Y-47500000D03*
D27*
X134380000Y-43300000D03*
D25*
X139600000Y-53400000D03*
X134600000Y-51200000D03*
D28*
X136850000Y-43501000D03*
X136850000Y-42101000D03*
X142350000Y-42101000D03*
X142350000Y-43501000D03*
D29*
X136800000Y-53400000D03*
X147500000Y-51200000D03*
D38*
X103399710Y-130525648D03*
X104016162Y-134021716D03*
D24*
X134100000Y-104650000D03*
X145100000Y-104650000D03*
D27*
X134380000Y-100450000D03*
X144820000Y-100450000D03*
D25*
X134600000Y-108350000D03*
X139600000Y-110550000D03*
X144600000Y-108350000D03*
D26*
X139600000Y-104650000D03*
D28*
X136850000Y-100651000D03*
X136850000Y-99251000D03*
X142350000Y-99251000D03*
X142350000Y-100651000D03*
D29*
X136800000Y-110550000D03*
X147500000Y-108350000D03*
D16*
X206094120Y-109277640D03*
D21*
X150345000Y-80145000D03*
X150345000Y-83695000D03*
X169345000Y-82555000D03*
X169345000Y-86105000D03*
X188590120Y-96720640D03*
X188590120Y-100270640D03*
X207590120Y-96720640D03*
X207590120Y-100270640D03*
X124190120Y-127410640D03*
X124190120Y-130960640D03*
D39*
X145470743Y-127906844D03*
X144854291Y-131402912D03*
D21*
X207640120Y-115720640D03*
X207640120Y-119270640D03*
X131245000Y-101655000D03*
X131245000Y-105205000D03*
X150345000Y-99145000D03*
X150345000Y-102695000D03*
X169345000Y-101655000D03*
X169345000Y-105205000D03*
X188590120Y-115720640D03*
X188590120Y-119270640D03*
X131245000Y-82555000D03*
X131245000Y-86105000D03*
D26*
X132599120Y-130452640D03*
D25*
X127599120Y-134152640D03*
D27*
X127379120Y-126252640D03*
X137819120Y-126252640D03*
D24*
X127099120Y-130452640D03*
D25*
X137599120Y-134152640D03*
D24*
X138099120Y-130452640D03*
D25*
X132599120Y-136352640D03*
D28*
X129849120Y-126453640D03*
X129849120Y-125053640D03*
X135349120Y-125053640D03*
X135349120Y-126453640D03*
D29*
X129799120Y-136352640D03*
X140499120Y-134152640D03*
D16*
X130527120Y-57573640D03*
X130375120Y-95852640D03*
D40*
X126969120Y-118842640D03*
D41*
X132649120Y-114592640D03*
D42*
X135189120Y-114592640D03*
X137729120Y-114592640D03*
X140269120Y-114592640D03*
D32*
X161689120Y-122812640D03*
D43*
X140879120Y-121562640D03*
D44*
X151059120Y-118788640D03*
X154869120Y-118788640D03*
X149789120Y-118788640D03*
X153599120Y-118788640D03*
X152329120Y-118788640D03*
D40*
X128169120Y-118848640D03*
D44*
X132189120Y-118838640D03*
X129649120Y-118838640D03*
X130919120Y-118838640D03*
D45*
X99829120Y-114892640D03*
D46*
X94729120Y-114892640D03*
X97329120Y-114892640D03*
D45*
X99929120Y-121452640D03*
D46*
X94829120Y-121452640D03*
X97429120Y-121452640D03*
D43*
X142889120Y-114572640D03*
D44*
X104369120Y-118798640D03*
X101829120Y-118798640D03*
X106909120Y-118798640D03*
X105639120Y-118798640D03*
X103099120Y-118798640D03*
D41*
X130639120Y-121582640D03*
D42*
X133179120Y-121582640D03*
X135719120Y-121582640D03*
X138259120Y-121582640D03*
D40*
X110139120Y-118852640D03*
D32*
X89949120Y-123382640D03*
D40*
X108609120Y-118822640D03*
M02*
