%TF.GenerationSoftware,KiCad,Pcbnew,(6.0.0)*%
%TF.CreationDate,2023-02-15T17:26:08+02:00*%
%TF.ProjectId,SofleKeyboard,536f666c-654b-4657-9962-6f6172642e6b,rev?*%
%TF.SameCoordinates,Original*%
%TF.FileFunction,Profile,NP*%
%FSLAX46Y46*%
G04 Gerber Fmt 4.6, Leading zero omitted, Abs format (unit mm)*
G04 Created by KiCad (PCBNEW (6.0.0)) date 2023-02-15 17:26:08*
%MOMM*%
%LPD*%
G01*
G04 APERTURE LIST*
%ADD10C,0.090000*%
%TA.AperFunction,Profile*%
%ADD11C,0.120000*%
%TD*%
G04 APERTURE END LIST*
D10*
X162218354Y-142806782D02*
X166017777Y-120493588D01*
X147877950Y-119422237D02*
X134684053Y-119422237D01*
X171390576Y-34528702D02*
X171122462Y-34479308D01*
X78634718Y-132876101D02*
X84773060Y-149738874D01*
X171122462Y-34479308D02*
X170780277Y-34415810D01*
X101346553Y-118835528D02*
X101340041Y-118958535D01*
X101320921Y-119063869D01*
X101289813Y-119152873D01*
X101222027Y-119258700D01*
X101130754Y-119335344D01*
X101018088Y-119387337D01*
X100886120Y-119419216D01*
X100788453Y-119431532D01*
X100683757Y-119438268D01*
X100572653Y-119440766D01*
X100455762Y-119440370D01*
X100333702Y-119438424D01*
X100207095Y-119436271D01*
X100076561Y-119435255D01*
X86783876Y-150691379D02*
X87265895Y-150648742D01*
X88118850Y-150574157D01*
X89317412Y-150469809D01*
X90836251Y-150337881D01*
X92650038Y-150180557D01*
X94733443Y-150000021D01*
X97061138Y-149798457D01*
X99607793Y-149578048D01*
X102348079Y-149340979D01*
X105256666Y-149089433D01*
X108308226Y-148825595D01*
X111477428Y-148551647D01*
X114738945Y-148269775D01*
X118067446Y-147982161D01*
X121437602Y-147690990D01*
X124824083Y-147398446D01*
X128201562Y-147106712D01*
X131544708Y-146817973D01*
X134828191Y-146534411D01*
X138026684Y-146258212D01*
X141114856Y-145991559D01*
X144067379Y-145736636D01*
X146858922Y-145495626D01*
X149464157Y-145270714D01*
X151857754Y-145064083D01*
X154014385Y-144877918D01*
X155908719Y-144714401D01*
X157515428Y-144575718D01*
X158809182Y-144464052D01*
X159764652Y-144381586D01*
X160356509Y-144330506D01*
X160559424Y-144312994D01*
X170780277Y-34415810D02*
X170643142Y-34403395D01*
X170395510Y-34392557D01*
X170044912Y-34383218D01*
X169598882Y-34375299D01*
X169064949Y-34368724D01*
X168450647Y-34363414D01*
X167763508Y-34359294D01*
X167011062Y-34356284D01*
X166200841Y-34354307D01*
X165340379Y-34353287D01*
X164437206Y-34353145D01*
X163498854Y-34353804D01*
X162532856Y-34355186D01*
X161546742Y-34357214D01*
X160548045Y-34359810D01*
X159544297Y-34362898D01*
X158543029Y-34366399D01*
X157551774Y-34370235D01*
X156578063Y-34374330D01*
X155629428Y-34378606D01*
X154713400Y-34382985D01*
X153837513Y-34387390D01*
X153009296Y-34391743D01*
X152236284Y-34395968D01*
X151526006Y-34399985D01*
X150885996Y-34403718D01*
X150323784Y-34407090D01*
X149846903Y-34410022D01*
X149462885Y-34412438D01*
X149179261Y-34414259D01*
X149003563Y-34415409D01*
X148943324Y-34415810D01*
X226131098Y-138534218D02*
X226302029Y-138486765D01*
X226462005Y-138432526D01*
X226611390Y-138372043D01*
X226750544Y-138305861D01*
X226879831Y-138234523D01*
X226999613Y-138158574D01*
X227110253Y-138078557D01*
X227212114Y-137995016D01*
X227305558Y-137908495D01*
X227390947Y-137819538D01*
X227468644Y-137728688D01*
X227539012Y-137636491D01*
X227602413Y-137543489D01*
X227659210Y-137450226D01*
X227709765Y-137357247D01*
X227754441Y-137265095D01*
X227793601Y-137174314D01*
X227827606Y-137085449D01*
X227856820Y-136999042D01*
X227902324Y-136835781D01*
X227933013Y-136688882D01*
X227951788Y-136562698D01*
X227961548Y-136461578D01*
X227965632Y-136366412D01*
X227965547Y-136346991D01*
X112007487Y-119422237D02*
X111876952Y-119423253D01*
X111750345Y-119425406D01*
X111628285Y-119427352D01*
X111511394Y-119427748D01*
X111400290Y-119425250D01*
X111295594Y-119418514D01*
X111197927Y-119406198D01*
X111107907Y-119386957D01*
X110988574Y-119342172D01*
X110889938Y-119274249D01*
X110814091Y-119178653D01*
X110763126Y-119050851D01*
X110744006Y-118945517D01*
X110737495Y-118822510D01*
X125201384Y-119422237D02*
X112007487Y-119422237D01*
X227965547Y-45810528D02*
X227956434Y-45678539D01*
X227930682Y-45559934D01*
X227890668Y-45454041D01*
X227838768Y-45360188D01*
X227777359Y-45277704D01*
X227708819Y-45205917D01*
X227635525Y-45144155D01*
X227559854Y-45091746D01*
X227447090Y-45029201D01*
X227342349Y-44983922D01*
X227253653Y-44953642D01*
X227163274Y-44930349D01*
X227154162Y-44928584D01*
X100076561Y-119435255D02*
X88583055Y-119435255D01*
X227965547Y-136346991D02*
X227965547Y-136089375D01*
X227965547Y-135338363D01*
X227965547Y-134126701D01*
X227965547Y-132487138D01*
X227965547Y-130452423D01*
X227965547Y-128055304D01*
X227965547Y-125328530D01*
X227965547Y-122304850D01*
X227965547Y-119017010D01*
X227965547Y-115497762D01*
X227965547Y-111779851D01*
X227965547Y-107896028D01*
X227965547Y-103879040D01*
X227965547Y-99761637D01*
X227965547Y-95576566D01*
X227965547Y-91356576D01*
X227965547Y-87134416D01*
X227965547Y-82942834D01*
X227965547Y-78814578D01*
X227965547Y-74782397D01*
X227965547Y-70879040D01*
X227965547Y-67137255D01*
X227965547Y-63589790D01*
X227965547Y-60269394D01*
X227965547Y-57208816D01*
X227965547Y-54440803D01*
X227965547Y-51998105D01*
X227965547Y-49913470D01*
X227965547Y-48219646D01*
X227965547Y-46949382D01*
X227965547Y-46135426D01*
X227965547Y-45810528D01*
X166017777Y-120493588D02*
X166012075Y-120376265D01*
X165995314Y-120262767D01*
X165968011Y-120153609D01*
X165930683Y-120049309D01*
X165883847Y-119950383D01*
X165828018Y-119857348D01*
X165763715Y-119770720D01*
X165691454Y-119691018D01*
X165611751Y-119618756D01*
X165525123Y-119554453D01*
X165432088Y-119498624D01*
X165333162Y-119451788D01*
X165228862Y-119414460D01*
X165119704Y-119387157D01*
X165006206Y-119370396D01*
X164888884Y-119364695D01*
X162207782Y-142859708D02*
X162218354Y-142806782D01*
X147877950Y-118258075D02*
X148008484Y-118256662D01*
X148135091Y-118253389D01*
X148257150Y-118249702D01*
X148374042Y-118247049D01*
X148485146Y-118246876D01*
X148589841Y-118250630D01*
X148687509Y-118259759D01*
X148777529Y-118275709D01*
X148896861Y-118315589D01*
X148995497Y-118378956D01*
X149071344Y-118470693D01*
X149122309Y-118595685D01*
X149141429Y-118699899D01*
X149147941Y-118822510D01*
X84773060Y-149738874D02*
X84821658Y-149840417D01*
X84888141Y-149949678D01*
X84950685Y-150036183D01*
X85029126Y-150129547D01*
X85124599Y-150226282D01*
X85238236Y-150322896D01*
X85371171Y-150415899D01*
X85524536Y-150501802D01*
X85609235Y-150541000D01*
X85699465Y-150577114D01*
X85795370Y-150609707D01*
X85897091Y-150638345D01*
X86004769Y-150662589D01*
X86118546Y-150682005D01*
X86238564Y-150696155D01*
X86364964Y-150704604D01*
X86497889Y-150706915D01*
X86637478Y-150702652D01*
X86783876Y-150691379D01*
X183445187Y-140624426D02*
X183536912Y-140762658D01*
X183630630Y-140891813D01*
X183726021Y-141012200D01*
X183822761Y-141124124D01*
X183920529Y-141227894D01*
X184019004Y-141323817D01*
X184117864Y-141412200D01*
X184216787Y-141493352D01*
X184315452Y-141567579D01*
X184413536Y-141635189D01*
X184510719Y-141696489D01*
X184606678Y-141751787D01*
X184701092Y-141801391D01*
X184793639Y-141845607D01*
X184883997Y-141884744D01*
X184971845Y-141919108D01*
X185056862Y-141949008D01*
X185217112Y-141996643D01*
X185362174Y-142030108D01*
X185489475Y-142051863D01*
X185596441Y-142064369D01*
X185713133Y-142071163D01*
X185773533Y-142070806D01*
X227154162Y-44928584D02*
X171390576Y-34528702D01*
X87524722Y-120070250D02*
X87427251Y-120199811D01*
X87310170Y-120355436D01*
X87151755Y-120565999D01*
X86955176Y-120827283D01*
X86723606Y-121135069D01*
X86460217Y-121485139D01*
X86168179Y-121873276D01*
X85850664Y-122295260D01*
X85510845Y-122746875D01*
X85151893Y-123223901D01*
X84776979Y-123722122D01*
X84389275Y-124237318D01*
X83991952Y-124765272D01*
X83588184Y-125301765D01*
X83181140Y-125842580D01*
X82773993Y-126383498D01*
X82369914Y-126920302D01*
X81972075Y-127448772D01*
X81583648Y-127964692D01*
X81207804Y-128463843D01*
X80847714Y-128942007D01*
X80506552Y-129394966D01*
X80187488Y-129818501D01*
X79893693Y-130208395D01*
X79628340Y-130560430D01*
X79394600Y-130870387D01*
X79195645Y-131134049D01*
X79034646Y-131347197D01*
X78914776Y-131505614D01*
X78839205Y-131605080D01*
X78811106Y-131641379D01*
X148943324Y-34415810D02*
X112066641Y-36553643D01*
X176283602Y-118235823D02*
X176387579Y-118238555D01*
X176487862Y-118246519D01*
X176584476Y-118259367D01*
X176677447Y-118276750D01*
X176766800Y-118298318D01*
X176934758Y-118352616D01*
X177088557Y-118419471D01*
X177228403Y-118496093D01*
X177354503Y-118579691D01*
X177467064Y-118667474D01*
X177566292Y-118756654D01*
X177652395Y-118844437D01*
X177725578Y-118928035D01*
X177786049Y-119004657D01*
X177853372Y-119100405D01*
X177900570Y-119177609D01*
X177906393Y-119188306D01*
X185773533Y-142070806D02*
X185883884Y-142062008D01*
X186205785Y-142036303D01*
X186725505Y-141994727D01*
X187429314Y-141938313D01*
X188303481Y-141868095D01*
X189334277Y-141785109D01*
X190507971Y-141690389D01*
X191810833Y-141584968D01*
X193229132Y-141469881D01*
X194749138Y-141346163D01*
X196357121Y-141214848D01*
X198039351Y-141076971D01*
X199782097Y-140933565D01*
X201571629Y-140785666D01*
X203394217Y-140634307D01*
X205236130Y-140480523D01*
X207083638Y-140325348D01*
X208923012Y-140169817D01*
X210740520Y-140014963D01*
X212522432Y-139861823D01*
X214255019Y-139711429D01*
X215924549Y-139564816D01*
X217517293Y-139423019D01*
X219019520Y-139287072D01*
X220417500Y-139158009D01*
X221697502Y-139036865D01*
X222845797Y-138924674D01*
X223848654Y-138822470D01*
X224692343Y-138731288D01*
X225363133Y-138652163D01*
X225847295Y-138586128D01*
X226131098Y-138534218D01*
X108404975Y-36770481D02*
X89178586Y-36841035D01*
X164888884Y-119364695D02*
X156831430Y-119364695D01*
X87912769Y-92804064D02*
X87912769Y-117142199D01*
X112066641Y-36553643D02*
X111950703Y-36563327D01*
X111815220Y-36574420D01*
X111636448Y-36588782D01*
X111532796Y-36596977D01*
X111420681Y-36605737D01*
X111300890Y-36614976D01*
X111174210Y-36624611D01*
X111041426Y-36634556D01*
X110903326Y-36644729D01*
X110760696Y-36655044D01*
X110614322Y-36665417D01*
X110464991Y-36675764D01*
X110313490Y-36686000D01*
X110160604Y-36696042D01*
X110007121Y-36705804D01*
X109853826Y-36715203D01*
X109701506Y-36724153D01*
X109550949Y-36732572D01*
X109402939Y-36740375D01*
X109258264Y-36747476D01*
X109117710Y-36753792D01*
X108982064Y-36759239D01*
X108852112Y-36763732D01*
X108728641Y-36767187D01*
X108612436Y-36769520D01*
X108504285Y-36770646D01*
X108404975Y-36770481D01*
X110737495Y-118822510D02*
X110744006Y-118699899D01*
X110763126Y-118595685D01*
X110794234Y-118508421D01*
X110862020Y-118406142D01*
X110953293Y-118333860D01*
X111065959Y-118286694D01*
X111197927Y-118259759D01*
X111295594Y-118250630D01*
X111400290Y-118246876D01*
X111511394Y-118247049D01*
X111628285Y-118249702D01*
X111750345Y-118253389D01*
X111876952Y-118256662D01*
X112007487Y-118258075D01*
X126471376Y-118822510D02*
X126464864Y-118945517D01*
X126445744Y-119050851D01*
X126414636Y-119139855D01*
X126346850Y-119245682D01*
X126255577Y-119322326D01*
X126142911Y-119374319D01*
X126010943Y-119406198D01*
X125913276Y-119418514D01*
X125808580Y-119425250D01*
X125697476Y-119427748D01*
X125580585Y-119427352D01*
X125458525Y-119425406D01*
X125331918Y-119423253D01*
X125201384Y-119422237D01*
X156831430Y-118200532D02*
X176283602Y-118235823D01*
X100076561Y-118271092D02*
X100207095Y-118269679D01*
X100333702Y-118266406D01*
X100455762Y-118262719D01*
X100572653Y-118260066D01*
X100683757Y-118259893D01*
X100788453Y-118263648D01*
X100886120Y-118272776D01*
X100976140Y-118288726D01*
X101095473Y-118328607D01*
X101194109Y-118391974D01*
X101269956Y-118483711D01*
X101320921Y-118608703D01*
X101340041Y-118712917D01*
X101346553Y-118835528D01*
X78564158Y-132452763D02*
X78568854Y-132545361D01*
X78581465Y-132637964D01*
X78599772Y-132730571D01*
X78621559Y-132823181D01*
X78634718Y-132876101D01*
X134684053Y-119422237D02*
X134553518Y-119423253D01*
X134426911Y-119425406D01*
X134304851Y-119427352D01*
X134187960Y-119427748D01*
X134076856Y-119425250D01*
X133972160Y-119418514D01*
X133874493Y-119406198D01*
X133784473Y-119386957D01*
X133665140Y-119342172D01*
X133566504Y-119274249D01*
X133490657Y-119178653D01*
X133439692Y-119050851D01*
X133420572Y-118945517D01*
X133414061Y-118822510D01*
X87595282Y-119964421D02*
X87535792Y-120033877D01*
X87524722Y-120070250D01*
X89056533Y-36841922D02*
X88939211Y-36847623D01*
X88825712Y-36864384D01*
X88716555Y-36891687D01*
X88612254Y-36929015D01*
X88513328Y-36975852D01*
X88420293Y-37031680D01*
X88333666Y-37095983D01*
X88253963Y-37168245D01*
X88181701Y-37247948D01*
X88117398Y-37334575D01*
X88061570Y-37427610D01*
X88014733Y-37526536D01*
X87977405Y-37630837D01*
X87950102Y-37739994D01*
X87933341Y-37853493D01*
X87927640Y-37970815D01*
X89178586Y-36841035D02*
X89056533Y-36841922D01*
X177906393Y-119188306D02*
X183445187Y-140624426D01*
X149147941Y-118822510D02*
X149141429Y-118945517D01*
X149122309Y-119050851D01*
X149091201Y-119139855D01*
X149023415Y-119245682D01*
X148932143Y-119322326D01*
X148819476Y-119374319D01*
X148687509Y-119406198D01*
X148589841Y-119418514D01*
X148485146Y-119425250D01*
X148374042Y-119427748D01*
X148257150Y-119427352D01*
X148135091Y-119425406D01*
X148008484Y-119423253D01*
X147877950Y-119422237D01*
X88583055Y-119435255D02*
X88474899Y-119449743D01*
X88368953Y-119473009D01*
X88265566Y-119504529D01*
X88165087Y-119543781D01*
X88067864Y-119590241D01*
X87974246Y-119643387D01*
X87884582Y-119702694D01*
X87799221Y-119767640D01*
X87718512Y-119837702D01*
X87642804Y-119912357D01*
X87595282Y-119964421D01*
X133414061Y-118822510D02*
X133420572Y-118699899D01*
X133439692Y-118595685D01*
X133470800Y-118508421D01*
X133538586Y-118406142D01*
X133629859Y-118333860D01*
X133742525Y-118286694D01*
X133874493Y-118259759D01*
X133972160Y-118250630D01*
X134076856Y-118246876D01*
X134187960Y-118247049D01*
X134304851Y-118249702D01*
X134426911Y-118253389D01*
X134553518Y-118256662D01*
X134684053Y-118258075D01*
X156831430Y-119364695D02*
X156700895Y-119365711D01*
X156574288Y-119367865D01*
X156452229Y-119369812D01*
X156335337Y-119370209D01*
X156224234Y-119367713D01*
X156119538Y-119360979D01*
X156021870Y-119348664D01*
X155931851Y-119329425D01*
X155812518Y-119284643D01*
X155713882Y-119216723D01*
X155638035Y-119121130D01*
X155587070Y-118993330D01*
X155567950Y-118887996D01*
X155561439Y-118764990D01*
X87927640Y-37970815D02*
X87912769Y-92804064D01*
X125201384Y-118258075D02*
X125331918Y-118256662D01*
X125458525Y-118253389D01*
X125580585Y-118249702D01*
X125697476Y-118247049D01*
X125808580Y-118246876D01*
X125913276Y-118250630D01*
X126010943Y-118259759D01*
X126100963Y-118275709D01*
X126220296Y-118315589D01*
X126318932Y-118378956D01*
X126394779Y-118470693D01*
X126445744Y-118595685D01*
X126464864Y-118699899D01*
X126471376Y-118822510D01*
X89041662Y-118271092D02*
X100076561Y-118271092D01*
X87912769Y-117142199D02*
X87918470Y-117259521D01*
X87935231Y-117373019D01*
X87962534Y-117482177D01*
X87999862Y-117586477D01*
X88046698Y-117685403D01*
X88102527Y-117778438D01*
X88166830Y-117865066D01*
X88239092Y-117944769D01*
X88318794Y-118017030D01*
X88405422Y-118081333D01*
X88498457Y-118137162D01*
X88597383Y-118183998D01*
X88701683Y-118221326D01*
X88810841Y-118248629D01*
X88924339Y-118265390D01*
X89041662Y-118271092D01*
X134684053Y-118258075D02*
X147877950Y-118258075D01*
X155561439Y-118764990D02*
X155567950Y-118642378D01*
X155587070Y-118538164D01*
X155618178Y-118450899D01*
X155685964Y-118348617D01*
X155777237Y-118276333D01*
X155889903Y-118229163D01*
X156021870Y-118202225D01*
X156119538Y-118193094D01*
X156224234Y-118189338D01*
X156335337Y-118189509D01*
X156452229Y-118192161D01*
X156574288Y-118195847D01*
X156700895Y-118199119D01*
X156831430Y-118200532D01*
X78811106Y-131641379D02*
X78749852Y-131735562D01*
X78698106Y-131832643D01*
X78655455Y-131932205D01*
X78621486Y-132033836D01*
X78595785Y-132137122D01*
X78577939Y-132241647D01*
X78567534Y-132346999D01*
X78564158Y-132452763D01*
X112007487Y-118258075D02*
X125201384Y-118258075D01*
X160559424Y-144312994D02*
X160684334Y-144296775D01*
X160823088Y-144267449D01*
X160935981Y-144235941D01*
X161061179Y-144192782D01*
X161195248Y-144136182D01*
X161334755Y-144064353D01*
X161476266Y-143975508D01*
X161616348Y-143867857D01*
X161684779Y-143806420D01*
X161751565Y-143739612D01*
X161816276Y-143667208D01*
X161878484Y-143588984D01*
X161937759Y-143504718D01*
X161993672Y-143414186D01*
X162045794Y-143317164D01*
X162093695Y-143213429D01*
X162136946Y-143102757D01*
X162175118Y-142984924D01*
X162207782Y-142859708D01*
D11*
X118750000Y-43751000D02*
X118750000Y-46851000D01*
X118750000Y-46851000D02*
X122350000Y-46851000D01*
X122350000Y-46851000D02*
X122350000Y-43751000D01*
X122350000Y-43751000D02*
X118750000Y-43751000D01*
X156850000Y-38751000D02*
X156850000Y-41851000D01*
X156850000Y-41851000D02*
X160450000Y-41851000D01*
X160450000Y-41851000D02*
X160450000Y-38751000D01*
X160450000Y-38751000D02*
X156850000Y-38751000D01*
X122350000Y-84951000D02*
X122350000Y-81851000D01*
X118750000Y-84951000D02*
X122350000Y-84951000D01*
X122350000Y-81851000D02*
X118750000Y-81851000D01*
X118750000Y-81851000D02*
X118750000Y-84951000D01*
X141400000Y-79351000D02*
X137800000Y-79351000D01*
X137800000Y-79351000D02*
X137800000Y-82451000D01*
X141400000Y-82451000D02*
X141400000Y-79351000D01*
X137800000Y-82451000D02*
X141400000Y-82451000D01*
X122350000Y-100901000D02*
X118750000Y-100901000D01*
X118750000Y-100901000D02*
X118750000Y-104001000D01*
X118750000Y-104001000D02*
X122350000Y-104001000D01*
X122350000Y-104001000D02*
X122350000Y-100901000D01*
X156850000Y-95901000D02*
X156850000Y-99001000D01*
X160450000Y-95901000D02*
X156850000Y-95901000D01*
X160450000Y-99001000D02*
X160450000Y-95901000D01*
X156850000Y-99001000D02*
X160450000Y-99001000D01*
X198589120Y-112643640D02*
X194989120Y-112643640D01*
X194989120Y-115743640D02*
X198589120Y-115743640D01*
X198589120Y-115743640D02*
X198589120Y-112643640D01*
X194989120Y-112643640D02*
X194989120Y-115743640D01*
X88168599Y-132402244D02*
X89228862Y-135315291D01*
X89228862Y-135315291D02*
X92611755Y-134084019D01*
X91551493Y-131170972D02*
X88168599Y-132402244D01*
X92611755Y-134084019D02*
X91551493Y-131170972D01*
X112636646Y-125726010D02*
X109091339Y-126351143D01*
X113174956Y-128778914D02*
X112636646Y-125726010D01*
X109091339Y-126351143D02*
X109629648Y-129404047D01*
X109629648Y-129404047D02*
X113174956Y-128778914D01*
X214039120Y-74543640D02*
X214039120Y-77643640D01*
X217639120Y-77643640D02*
X217639120Y-74543640D01*
X217639120Y-74543640D02*
X214039120Y-74543640D01*
X214039120Y-77643640D02*
X217639120Y-77643640D01*
X217639120Y-93593640D02*
X214039120Y-93593640D01*
X217639120Y-96693640D02*
X217639120Y-93593640D01*
X214039120Y-96693640D02*
X217639120Y-96693640D01*
X214039120Y-93593640D02*
X214039120Y-96693640D01*
X217639120Y-112643640D02*
X214039120Y-112643640D01*
X217639120Y-115743640D02*
X217639120Y-112643640D01*
X214039120Y-115743640D02*
X217639120Y-115743640D01*
X214039120Y-112643640D02*
X214039120Y-115743640D01*
X179500000Y-44351000D02*
X179500000Y-41251000D01*
X179500000Y-41251000D02*
X175900000Y-41251000D01*
X175900000Y-44351000D02*
X179500000Y-44351000D01*
X175900000Y-41251000D02*
X175900000Y-44351000D01*
X194989120Y-58593640D02*
X198589120Y-58593640D01*
X198589120Y-55493640D02*
X194989120Y-55493640D01*
X194989120Y-55493640D02*
X194989120Y-58593640D01*
X198589120Y-58593640D02*
X198589120Y-55493640D01*
X137800000Y-60301000D02*
X137800000Y-63401000D01*
X137800000Y-63401000D02*
X141400000Y-63401000D01*
X141400000Y-63401000D02*
X141400000Y-60301000D01*
X141400000Y-60301000D02*
X137800000Y-60301000D01*
X175900000Y-60301000D02*
X175900000Y-63401000D01*
X179500000Y-60301000D02*
X175900000Y-60301000D01*
X175900000Y-63401000D02*
X179500000Y-63401000D01*
X179500000Y-63401000D02*
X179500000Y-60301000D01*
X160450000Y-57801000D02*
X156850000Y-57801000D01*
X156850000Y-60901000D02*
X160450000Y-60901000D01*
X160450000Y-60901000D02*
X160450000Y-57801000D01*
X156850000Y-57801000D02*
X156850000Y-60901000D01*
X175900000Y-82451000D02*
X179500000Y-82451000D01*
X175900000Y-79351000D02*
X175900000Y-82451000D01*
X179500000Y-79351000D02*
X175900000Y-79351000D01*
X179500000Y-82451000D02*
X179500000Y-79351000D01*
X217639120Y-55493640D02*
X214039120Y-55493640D01*
X214039120Y-58593640D02*
X217639120Y-58593640D01*
X214039120Y-55493640D02*
X214039120Y-58593640D01*
X217639120Y-58593640D02*
X217639120Y-55493640D01*
X118750000Y-65951000D02*
X122350000Y-65951000D01*
X122350000Y-65951000D02*
X122350000Y-62851000D01*
X122350000Y-62851000D02*
X118750000Y-62851000D01*
X118750000Y-62851000D02*
X118750000Y-65951000D01*
X194989120Y-77643640D02*
X198589120Y-77643640D01*
X198589120Y-77643640D02*
X198589120Y-74543640D01*
X194989120Y-74543640D02*
X194989120Y-77643640D01*
X198589120Y-74543640D02*
X194989120Y-74543640D01*
X175900000Y-98401000D02*
X175900000Y-101501000D01*
X179500000Y-98401000D02*
X175900000Y-98401000D01*
X179500000Y-101501000D02*
X179500000Y-98401000D01*
X175900000Y-101501000D02*
X179500000Y-101501000D01*
X194989120Y-93593640D02*
X194989120Y-96693640D01*
X198589120Y-93593640D02*
X194989120Y-93593640D01*
X198589120Y-96693640D02*
X198589120Y-93593640D01*
X194989120Y-96693640D02*
X198589120Y-96693640D01*
X151953284Y-128848914D02*
X155498592Y-129474047D01*
X156036901Y-126421143D02*
X152491594Y-125796010D01*
X155498592Y-129474047D02*
X156036901Y-126421143D01*
X152491594Y-125796010D02*
X151953284Y-128848914D01*
X160450000Y-76851000D02*
X156850000Y-76851000D01*
X156850000Y-76851000D02*
X156850000Y-79951000D01*
X156850000Y-79951000D02*
X160450000Y-79951000D01*
X160450000Y-79951000D02*
X160450000Y-76851000D01*
X137800000Y-41251000D02*
X137800000Y-44351000D01*
X141400000Y-44351000D02*
X141400000Y-41251000D01*
X137800000Y-44351000D02*
X141400000Y-44351000D01*
X141400000Y-41251000D02*
X137800000Y-41251000D01*
X137800000Y-101501000D02*
X141400000Y-101501000D01*
X137800000Y-98401000D02*
X137800000Y-101501000D01*
X141400000Y-98401000D02*
X137800000Y-98401000D01*
X141400000Y-101501000D02*
X141400000Y-98401000D01*
X130799120Y-127303640D02*
X134399120Y-127303640D01*
X130799120Y-124203640D02*
X130799120Y-127303640D01*
X134399120Y-124203640D02*
X130799120Y-124203640D01*
X134399120Y-127303640D02*
X134399120Y-124203640D01*
M02*
