M48
; DRILL file {KiCad (6.0.0)} date Wed Feb 15 17:26:15 2023
; FORMAT={-:-/ absolute / metric / decimal}
; #@! TF.CreationDate,2023-02-15T17:26:15+02:00
; #@! TF.GenerationSoftware,Kicad,Pcbnew,(6.0.0)
; #@! TF.FileFunction,Plated,1,2,PTH
FMAT,2
METRIC
; #@! TA.AperFunction,Plated,PTH,ViaDrill
T1C0.300
; #@! TA.AperFunction,Plated,PTH,ComponentDrill
T2C0.813
; #@! TA.AperFunction,Plated,PTH,ComponentDrill
T3C1.000
; #@! TA.AperFunction,Plated,PTH,ComponentDrill
T4C1.092
; #@! TA.AperFunction,Plated,PTH,ComponentDrill
T5C1.300
; #@! TA.AperFunction,Plated,PTH,ComponentDrill
T6C1.500
; #@! TA.AperFunction,Plated,PTH,ComponentDrill
T7C2.200
; #@! TA.AperFunction,Plated,PTH,ComponentDrill
T8C4.100
%
G90
G05
T1
X83.639Y-135.603
X83.976Y-142.37
X84.459Y-134.733
X85.23Y-145.816
X85.32Y-134.157
X85.92Y-141.612
X86.227Y-133.863
X91.433Y-141.9
X92.939Y-140.683
X93.883Y-135.383
X94.449Y-130.823
X94.479Y-127.273
X94.8Y-70.6
X95.1Y-44.2
X96.05Y-67.806
X96.1Y-51.39
X96.7Y-67.8
X96.839Y-76.633
X96.9Y-44.966
X96.9Y-48.8
X98.514Y-52.586
X98.819Y-128.883
X100.4Y-50.046
X100.4Y-68.8
X101.05Y-53.93
X101.349Y-132.993
X101.588Y-55.126
X102.117Y-57.701
X102.642Y-60.241
X102.649Y-126.683
X102.826Y-68.77
X102.829Y-125.713
X103.1Y-67.9
X103.167Y-62.781
X103.223Y-135.714
X103.309Y-129.223
X103.479Y-127.143
X103.692Y-64.288
X103.862Y-139.34
X104.217Y-65.374
X104.364Y-129.144
X104.457Y-131.294
X104.742Y-67.229
X105.328Y-67.072
X105.528Y-135.219
X105.6Y-51.4
X105.6Y-65.2
X105.7Y-56.7
X105.7Y-44.0
X105.7Y-59.0
X105.7Y-61.9
X105.7Y-41.6
X105.7Y-54.2
X105.733Y-63.957
X105.997Y-127.66
X106.143Y-97.96
X106.639Y-120.893
X106.844Y-126.092
X106.941Y-127.528
X107.389Y-117.087
X107.775Y-97.775
X107.859Y-124.153
X107.879Y-120.893
X108.879Y-132.873
X109.826Y-98.976
X109.826Y-114.256
X110.129Y-120.893
X110.498Y-66.794
X110.498Y-76.606
X110.498Y-83.796
X110.498Y-102.592
X110.602Y-48.15
X110.907Y-136.461
X111.252Y-64.873
X111.252Y-83.407
X111.252Y-102.33
X111.252Y-109.73
X111.56Y-45.595
X111.828Y-89.501
X111.902Y-75.176
X111.902Y-88.498
X111.909Y-116.437
X111.922Y-51.605
X111.922Y-70.655
X111.922Y-109.009
X112.554Y-124.426
X113.001Y-89.768
X114.271Y-75.608
X114.819Y-98.283
X115.004Y-126.182
X115.139Y-131.693
X115.224Y-57.637
X115.287Y-113.771
X115.47Y-44.452
X115.47Y-63.488
X115.47Y-82.552
X115.47Y-101.602
X115.859Y-125.971
X116.471Y-44.513
X116.471Y-63.549
X116.471Y-82.613
X116.493Y-101.706
X117.409Y-105.803
X117.479Y-124.083
X117.609Y-79.343
X118.674Y-53.861
X118.674Y-72.897
X118.674Y-91.961
X118.674Y-111.011
X119.437Y-124.494
X119.559Y-130.383
X122.526Y-42.461
X122.948Y-127.41
X123.451Y-132.208
X123.451Y-135.875
X123.739Y-48.873
X124.602Y-44.592
X124.602Y-63.629
X124.602Y-82.692
X124.602Y-101.742
X125.117Y-96.867
X125.129Y-124.543
X125.537Y-132.16
X125.664Y-44.45
X125.664Y-63.486
X125.664Y-82.55
X125.664Y-101.6
X126.259Y-122.393
X127.389Y-114.233
X127.463Y-67.047
X127.463Y-86.11
X127.463Y-105.16
X127.465Y-124.46
X128.029Y-77.443
X128.14Y-98.7
X128.241Y-60.586
X128.241Y-79.646
X128.418Y-125.029
X128.705Y-49.21
X129.139Y-130.083
X130.003Y-44.454
X130.003Y-63.491
X130.003Y-82.554
X130.003Y-101.604
X130.506Y-49.252
X130.506Y-52.919
X130.506Y-68.288
X130.506Y-71.956
X130.506Y-87.352
X130.506Y-91.019
X130.506Y-106.402
X130.506Y-110.069
X130.619Y-134.317
X131.079Y-103.523
X131.8Y-111.963
X132.592Y-49.204
X132.592Y-68.24
X132.592Y-87.304
X132.592Y-106.354
X133.575Y-39.921
X134.149Y-111.653
X134.52Y-42.039
X134.52Y-61.075
X134.52Y-80.139
X134.52Y-99.189
X135.473Y-99.223
X135.48Y-42.08
X135.543Y-80.243
X135.55Y-61.187
X135.949Y-130.163
X135.999Y-47.663
X136.109Y-104.993
X136.549Y-103.111
X136.623Y-125.115
X136.809Y-76.993
X136.869Y-127.003
X137.471Y-125.044
X137.674Y-51.361
X137.674Y-70.397
X137.674Y-89.461
X137.674Y-108.511
X137.749Y-50.433
X138.709Y-137.143
X141.839Y-128.373
X142.069Y-124.073
X142.689Y-104.513
X142.809Y-85.493
X142.819Y-47.243
X142.929Y-123.018
X142.939Y-124.083
X143.289Y-136.025
X143.339Y-130.993
X143.6Y-42.195
X143.608Y-61.184
X143.608Y-80.247
X143.63Y-99.315
X143.926Y-132.414
X143.979Y-124.123
X143.989Y-44.211
X143.989Y-63.248
X143.989Y-82.311
X143.989Y-101.361
X144.526Y-42.088
X144.526Y-61.124
X144.526Y-80.188
X144.526Y-99.238
X144.557Y-127.685
X145.988Y-132.729
X147.339Y-123.543
X147.749Y-47.673
X147.749Y-66.403
X147.779Y-85.593
X147.949Y-93.383
X148.129Y-104.993
X148.949Y-110.673
X149.107Y-126.09
X149.138Y-99.329
X149.217Y-42.101
X149.266Y-80.145
X149.309Y-61.045
X149.606Y-46.752
X149.606Y-50.419
X149.606Y-65.788
X149.606Y-69.456
X149.606Y-84.852
X149.606Y-88.519
X149.606Y-103.902
X149.606Y-107.569
X149.768Y-36.746
X150.009Y-126.245
X150.429Y-111.813
X150.618Y-135.736
X151.692Y-46.704
X151.692Y-65.74
X151.692Y-84.804
X151.692Y-103.854
X153.61Y-39.624
X153.61Y-58.66
X153.61Y-77.724
X153.61Y-96.774
X154.399Y-54.433
X154.526Y-39.621
X154.526Y-58.657
X154.526Y-77.721
X154.526Y-96.771
X154.879Y-92.993
X155.489Y-102.153
X156.209Y-73.633
X156.774Y-48.861
X156.774Y-67.897
X156.774Y-86.961
X157.011Y-126.12
X157.024Y-106.011
X158.008Y-127.665
X159.184Y-127.881
X160.753Y-37.325
X161.609Y-44.683
X161.769Y-83.013
X161.829Y-102.333
X162.65Y-39.63
X162.65Y-58.666
X162.65Y-77.73
X162.65Y-96.78
X163.579Y-110.403
X163.845Y-39.638
X163.845Y-58.674
X163.845Y-77.738
X163.845Y-96.788
X166.789Y-64.263
X166.809Y-83.423
X166.839Y-102.403
X166.949Y-45.053
X168.606Y-49.252
X168.606Y-52.919
X168.606Y-68.288
X168.606Y-71.956
X168.606Y-87.352
X168.606Y-91.019
X168.606Y-106.402
X168.606Y-110.069
X168.881Y-62.418
X168.907Y-43.382
X168.907Y-81.482
X168.907Y-100.532
X169.759Y-96.673
X170.692Y-49.204
X170.692Y-68.24
X170.692Y-87.304
X170.692Y-106.354
X172.129Y-74.303
X172.183Y-39.992
X172.209Y-96.673
X172.499Y-41.91
X172.499Y-60.947
X172.499Y-80.01
X172.499Y-99.06
X173.577Y-61.105
X173.647Y-42.139
X173.647Y-80.239
X173.647Y-99.289
X174.509Y-104.453
X175.774Y-51.361
X175.774Y-70.397
X175.774Y-89.461
X175.774Y-108.511
X180.879Y-66.543
X180.879Y-104.613
X181.7Y-42.214
X181.7Y-80.314
X181.708Y-61.257
X181.729Y-99.378
X182.026Y-63.162
X182.089Y-44.112
X182.089Y-101.325
X182.216Y-82.311
X182.782Y-42.164
X182.782Y-61.2
X182.782Y-80.264
X182.782Y-99.314
X184.529Y-113.413
X185.099Y-118.663
X185.279Y-85.643
X187.851Y-120.568
X187.851Y-124.235
X187.949Y-125.259
X188.279Y-63.543
X188.409Y-101.463
X188.449Y-105.383
X188.519Y-82.403
X188.539Y-86.203
X188.569Y-67.403
X188.59Y-57.066
X188.59Y-76.272
X188.59Y-95.504
X188.59Y-114.521
X189.937Y-63.37
X189.937Y-82.406
X189.937Y-101.47
X189.937Y-120.52
X191.509Y-126.273
X191.694Y-56.025
X191.694Y-75.062
X191.694Y-94.125
X191.694Y-113.175
X192.359Y-71.893
X192.519Y-108.673
X192.768Y-56.18
X192.768Y-75.217
X192.768Y-94.28
X192.895Y-113.448
X193.22Y-111.234
X193.569Y-90.853
X193.659Y-117.823
X195.019Y-65.527
X195.019Y-84.563
X195.019Y-103.627
X195.019Y-122.677
X199.062Y-54.084
X200.149Y-118.223
X200.199Y-61.593
X200.907Y-56.309
X200.907Y-75.346
X200.907Y-94.409
X200.907Y-113.459
X202.021Y-56.304
X202.021Y-75.34
X202.021Y-94.404
X202.021Y-113.454
X205.279Y-126.033
X206.701Y-59.433
X206.701Y-78.469
X206.701Y-97.533
X206.701Y-116.583
X206.761Y-63.418
X206.761Y-67.085
X206.761Y-82.454
X206.761Y-86.121
X206.761Y-101.518
X206.761Y-105.185
X206.761Y-120.568
X206.761Y-124.235
X209.037Y-63.37
X209.037Y-82.406
X209.037Y-101.47
X209.037Y-120.52
X210.049Y-69.663
X210.509Y-88.023
X210.711Y-56.046
X210.711Y-75.082
X210.711Y-94.146
X210.711Y-113.196
X211.867Y-56.282
X211.867Y-75.319
X211.867Y-94.382
X211.889Y-113.432
X211.899Y-79.093
X212.219Y-60.363
X212.389Y-98.473
X213.399Y-121.383
X214.119Y-65.527
X214.119Y-84.563
X214.119Y-103.627
X214.119Y-122.677
X218.112Y-112.178
X219.952Y-56.353
X219.952Y-75.39
X219.952Y-94.453
X219.952Y-113.503
X220.271Y-77.444
X220.334Y-96.557
X220.398Y-58.394
X220.969Y-56.256
X220.969Y-75.292
X220.969Y-94.356
X220.969Y-113.406
X222.499Y-125.603
T2
X92.18Y-41.23
X92.18Y-43.77
X92.18Y-46.31
X92.18Y-48.85
X92.18Y-51.39
X92.18Y-53.93
X92.18Y-56.47
X92.18Y-59.01
X92.18Y-61.55
X92.18Y-64.09
X92.18Y-66.63
X92.18Y-69.17
X93.479Y-42.426
X93.479Y-44.966
X93.479Y-47.506
X93.479Y-50.046
X93.479Y-52.586
X93.479Y-55.126
X93.479Y-57.666
X93.479Y-60.206
X93.479Y-62.746
X93.479Y-65.286
X93.479Y-67.826
X93.479Y-70.366
X95.499Y-78.062
X95.499Y-80.312
X96.7Y-74.6
X99.24Y-74.6
X100.579Y-78.062
X100.579Y-80.312
X101.78Y-74.6
X102.7Y-78.1
X102.7Y-80.3
X104.32Y-74.6
X107.42Y-41.23
X107.42Y-43.77
X107.42Y-46.31
X107.42Y-48.85
X107.42Y-51.39
X107.42Y-53.93
X107.42Y-56.47
X107.42Y-59.01
X107.42Y-61.55
X107.42Y-64.09
X107.42Y-66.63
X107.42Y-69.17
X108.719Y-42.426
X108.719Y-44.966
X108.719Y-47.506
X108.719Y-50.046
X108.719Y-52.586
X108.719Y-55.126
X108.719Y-57.666
X108.719Y-60.206
X108.719Y-62.746
X108.719Y-65.286
X108.719Y-67.826
X108.719Y-70.366
T3
X92.5Y-102.0
X92.5Y-104.5
X92.5Y-107.0
X94.729Y-114.893
X94.829Y-121.453
X97.329Y-114.893
X97.429Y-121.453
X99.829Y-114.893
X99.929Y-121.453
X107.0Y-102.0
X107.0Y-107.0
X130.639Y-121.583
X132.649Y-114.593
X133.179Y-121.583
X135.189Y-114.593
X135.719Y-121.583
X137.729Y-114.593
X138.259Y-121.583
X140.269Y-114.593
T4
X140.879Y-121.563
X142.889Y-114.573
T5
X90.0Y-74.25
X90.0Y-80.75
T7
X89.949Y-123.383
X91.5Y-93.5
X107.0Y-93.5
X161.689Y-122.813
T8
X106.399Y-113.373
X130.375Y-95.853
X130.527Y-57.574
X206.094Y-109.278
X206.164Y-71.358
T3
X91.05Y-83.55G85X91.55Y-83.55
G05
X91.05Y-89.5G85X91.55Y-89.5
G05
X94.05Y-83.55G85X94.55Y-83.55
G05
X94.05Y-89.5G85X94.55Y-89.5
G05
X98.05Y-83.55G85X98.55Y-83.55
G05
X98.05Y-89.5G85X98.55Y-89.5
G05
X99.55Y-85.3G85X100.05Y-85.3
G05
X99.55Y-87.75G85X100.05Y-87.75
G05
T6
X99.35Y-98.9G85X100.65Y-98.9
G05
X99.35Y-110.1G85X100.65Y-110.1
G05
T0
M30
