%TF.GenerationSoftware,KiCad,Pcbnew,(6.0.0)*%
%TF.CreationDate,2023-02-15T17:26:08+02:00*%
%TF.ProjectId,SofleKeyboard,536f666c-654b-4657-9962-6f6172642e6b,rev?*%
%TF.SameCoordinates,Original*%
%TF.FileFunction,Soldermask,Bot*%
%TF.FilePolarity,Negative*%
%FSLAX46Y46*%
G04 Gerber Fmt 4.6, Leading zero omitted, Abs format (unit mm)*
G04 Created by KiCad (PCBNEW (6.0.0)) date 2023-02-15 17:26:08*
%MOMM*%
%LPD*%
G01*
G04 APERTURE LIST*
G04 Aperture macros list*
%AMRoundRect*
0 Rectangle with rounded corners*
0 $1 Rounding radius*
0 $2 $3 $4 $5 $6 $7 $8 $9 X,Y pos of 4 corners*
0 Add a 4 corners polygon primitive as box body*
4,1,4,$2,$3,$4,$5,$6,$7,$8,$9,$2,$3,0*
0 Add four circle primitives for the rounded corners*
1,1,$1+$1,$2,$3*
1,1,$1+$1,$4,$5*
1,1,$1+$1,$6,$7*
1,1,$1+$1,$8,$9*
0 Add four rect primitives between the rounded corners*
20,1,$1+$1,$2,$3,$4,$5,0*
20,1,$1+$1,$4,$5,$6,$7,0*
20,1,$1+$1,$6,$7,$8,$9,0*
20,1,$1+$1,$8,$9,$2,$3,0*%
G04 Aperture macros list end*
%ADD10C,0.200000*%
%ADD11C,0.090000*%
%TA.AperFunction,Profile*%
%ADD12C,0.120000*%
%TD*%
%ADD13C,1.797000*%
%ADD14C,1.600000*%
%ADD15O,2.900000X2.100000*%
%ADD16C,5.100000*%
%ADD17C,1.924000*%
%ADD18C,2.400000*%
%ADD19RoundRect,0.200000X-0.475000X0.650000X-0.475000X-0.650000X0.475000X-0.650000X0.475000X0.650000X0*%
%ADD20RoundRect,0.200000X-0.650000X-0.475000X0.650000X-0.475000X0.650000X0.475000X-0.650000X0.475000X0*%
%ADD21RoundRect,0.200000X-0.668667X0.448341X-0.224041X-0.773260X0.668667X-0.448341X0.224041X0.773260X0*%
%ADD22C,2.200000*%
%ADD23C,3.400000*%
%ADD24C,3.800000*%
%ADD25C,1.400000*%
%ADD26RoundRect,0.200000X0.850000X0.500000X-0.850000X0.500000X-0.850000X-0.500000X0.850000X-0.500000X0*%
%ADD27RoundRect,0.200000X0.800000X1.100000X-0.800000X1.100000X-0.800000X-1.100000X0.800000X-1.100000X0*%
%ADD28RoundRect,0.200000X0.627729X0.760563X-0.969749X0.179129X-0.627729X-0.760563X0.969749X-0.179129X0*%
%ADD29RoundRect,0.200000X0.375532X1.307278X-1.127976X0.760046X-0.375532X-1.307278X1.127976X-0.760046X0*%
%ADD30C,4.400000*%
%ADD31RoundRect,0.200000X-1.600000X-1.000000X1.600000X-1.000000X1.600000X1.000000X-1.600000X1.000000X0*%
%ADD32RoundRect,0.200000X0.750263X0.640005X-0.923911X0.344803X-0.750263X-0.640005X0.923911X-0.344803X0*%
%ADD33RoundRect,0.200000X0.596833X1.222207X-0.978859X0.944370X-0.596833X-1.222207X0.978859X-0.944370X0*%
%ADD34RoundRect,0.200000X0.923911X0.344803X-0.750263X0.640005X-0.923911X-0.344803X0.750263X-0.640005X0*%
%ADD35RoundRect,0.200000X0.978859X0.944370X-0.596833X1.222207X-0.978859X-0.944370X0.596833X-1.222207X0*%
%ADD36RoundRect,0.200000X-0.580655X0.557642X-0.354912X-0.722608X0.580655X-0.557642X0.354912X0.722608X0*%
%ADD37RoundRect,0.200000X-0.354912X0.722608X-0.580655X-0.557642X0.354912X-0.722608X0.580655X0.557642X0*%
%ADD38C,0.793700*%
%ADD39C,2.100000*%
%ADD40O,2.100000X2.100000*%
%ADD41C,2.152600*%
%ADD42C,1.187400*%
%ADD43RoundRect,0.200000X-0.762000X-0.762000X0.762000X-0.762000X0.762000X0.762000X-0.762000X0.762000X0*%
%ADD44RoundRect,0.200000X-0.762000X0.762000X-0.762000X-0.762000X0.762000X-0.762000X0.762000X0.762000X0*%
%ADD45RoundRect,0.200000X0.571500X-0.317500X0.571500X0.317500X-0.571500X0.317500X-0.571500X-0.317500X0*%
G04 APERTURE END LIST*
D10*
X197011747Y-43341991D02*
X197015256Y-43310232D01*
X197039953Y-45557446D02*
X197241922Y-45573201D01*
X197438599Y-45614761D01*
X197627338Y-45681460D01*
X197805497Y-45772635D01*
X196122740Y-46802741D02*
X196161540Y-46788637D01*
X196690707Y-48541932D02*
X196623678Y-48541932D01*
X198309966Y-44643742D02*
X198309966Y-44735468D01*
X197163438Y-44689605D02*
X197370331Y-44706658D01*
X197571779Y-44751231D01*
X197764022Y-44822386D01*
X197865463Y-44873056D01*
X196087471Y-43278494D02*
X196066283Y-43468986D01*
X196193300Y-43483111D02*
X196214465Y-43289066D01*
X196270900Y-43811192D02*
X196063291Y-43858255D01*
X195872051Y-43949597D01*
X195755859Y-44033444D01*
X196920021Y-46721609D02*
X196873278Y-46526696D01*
X196862986Y-46319542D01*
X196863564Y-46305333D01*
X196616637Y-43299660D02*
X196686762Y-43106323D01*
X196771839Y-43006848D01*
X196923552Y-44587307D02*
X196867096Y-44657846D01*
X196098043Y-43207934D02*
X196087471Y-43278494D01*
X198013623Y-43945249D02*
X197985395Y-43860586D01*
X197308068Y-46845072D02*
X197339827Y-46838010D01*
X197336296Y-48146823D02*
X197417428Y-48312640D01*
X196412020Y-48192686D02*
X196426123Y-47360135D01*
X195568876Y-46397037D02*
X195611208Y-45846705D01*
X197872525Y-45663275D02*
X197677885Y-45562842D01*
X197471672Y-45489526D01*
X197256859Y-45443990D01*
X197036422Y-45426899D01*
X198436961Y-45839664D02*
X198572040Y-45997896D01*
X198623922Y-46076019D01*
X198620412Y-44541444D02*
X198736814Y-44671971D01*
X196606044Y-43391385D02*
X196616637Y-43299660D01*
X196447289Y-43857055D02*
X196373220Y-43800598D01*
X196867096Y-44657846D02*
X196937656Y-44714302D01*
X196902386Y-44230998D02*
X196976456Y-44287433D01*
X195904019Y-46167745D02*
X195912164Y-46381197D01*
X195961788Y-46578117D01*
X196061957Y-46763297D01*
X196073346Y-46778044D01*
X198525156Y-45747938D02*
X198338173Y-45568018D01*
X196256797Y-45091777D02*
X196083939Y-45109412D01*
X197089347Y-44996520D02*
X196888261Y-45017686D01*
X197099941Y-44992989D02*
X197089347Y-44996520D01*
X197223405Y-44255695D02*
X197443204Y-44275207D01*
X197656417Y-44325864D01*
X197858514Y-44405718D01*
X197897201Y-44425022D01*
X197872525Y-49639066D02*
X198086350Y-49670408D01*
X198305990Y-49715747D01*
X198503709Y-49777535D01*
X198669632Y-49899609D01*
X198673316Y-49921306D01*
X198698013Y-45137640D02*
X198676847Y-45412795D01*
X198281738Y-45197606D02*
X198500458Y-45409264D01*
X198218241Y-46033688D02*
X198218241Y-46121882D01*
X197029381Y-45426899D02*
X196852992Y-45448086D01*
X198401692Y-44643742D02*
X198309966Y-44643742D01*
X197928960Y-43976987D02*
X197957188Y-43980518D01*
X196172134Y-46696912D02*
X196075633Y-46511681D01*
X196033004Y-46306397D01*
X196031014Y-46178317D01*
X197336296Y-48146823D02*
X197417428Y-48312640D01*
X196489621Y-43289066D02*
X196479049Y-43377261D01*
X195625311Y-45680910D02*
X195646498Y-45437492D01*
X198712117Y-44449719D02*
X198429899Y-44178073D01*
X197470353Y-48541932D02*
X197219873Y-48541932D01*
X196976456Y-44287433D02*
X197223405Y-44255695D01*
X196948228Y-43401958D02*
X197011747Y-43341991D01*
X198641578Y-45874933D02*
X198525156Y-45747938D01*
X197805497Y-45772635D02*
X197837235Y-45783208D01*
X196958821Y-44156907D02*
X196902386Y-44230998D01*
X198309966Y-46030156D02*
X198218241Y-46033688D01*
X197569120Y-48277349D02*
X197537510Y-48482732D01*
X197470353Y-48541932D01*
X196147437Y-44679011D02*
X195951301Y-44722281D01*
X195756689Y-44813136D01*
X195692340Y-44855400D01*
X196867096Y-45575081D02*
X197039953Y-45557446D01*
X198662744Y-45603287D02*
X198641578Y-45874933D01*
X198182950Y-43250266D02*
X198436961Y-43486621D01*
X197417428Y-48312640D02*
X197495050Y-48146823D01*
X195981620Y-45931390D02*
X195914591Y-45994887D01*
X198648619Y-44883629D02*
X198401692Y-44643742D01*
X196426123Y-47360135D02*
X196267369Y-47300169D01*
X198602756Y-46340603D02*
X198469807Y-46186489D01*
X198465189Y-46181848D01*
X196863564Y-46305333D02*
X196877689Y-45973721D01*
X196479049Y-43377261D02*
X196535484Y-43447820D01*
X197985395Y-44396794D02*
X197957188Y-44308599D01*
X196464924Y-45973721D02*
X196404958Y-45903162D01*
X198736814Y-44671971D02*
X198715648Y-44950657D01*
X197417428Y-47977497D02*
X197336296Y-48146823D01*
X197410387Y-43387854D02*
X197473885Y-43331419D01*
X197897201Y-44425022D02*
X197925429Y-44432084D01*
X196390854Y-43927593D02*
X196447289Y-43857055D01*
X196881221Y-46806272D02*
X196920021Y-46721609D01*
X197011747Y-43857055D02*
X197286902Y-43825295D01*
X197152845Y-46379403D02*
X197162096Y-46579628D01*
X197230924Y-46779590D01*
X197251633Y-46816844D01*
X196327357Y-45148212D02*
X196256797Y-45091777D01*
X197897201Y-44880097D02*
X197953657Y-44848359D01*
X197957188Y-44308599D02*
X197760613Y-44225303D01*
X197554412Y-44166862D01*
X197342356Y-44134685D01*
X197223405Y-44128679D01*
X196023952Y-45543321D02*
X195827899Y-45586727D01*
X195636597Y-45674046D01*
X195625311Y-45680910D01*
X196831827Y-45088246D02*
X196902386Y-45144681D01*
X196860033Y-46809803D02*
X196881221Y-46806272D01*
X195755859Y-44033444D02*
X195777024Y-43790026D01*
X196577815Y-43035076D02*
X196499437Y-43221605D01*
X196489621Y-43289066D01*
X198676847Y-45412795D02*
X198588653Y-45317538D01*
X196771839Y-43006848D02*
X197036422Y-42964517D01*
X198341704Y-44269799D02*
X198620412Y-44541444D01*
X197928960Y-44760165D02*
X197746786Y-44676208D01*
X197556343Y-44615081D01*
X197359945Y-44577106D01*
X197159907Y-44562610D01*
X198376995Y-46273574D02*
X198511842Y-46429294D01*
X198588653Y-46548751D01*
X195611208Y-45846705D02*
X195784835Y-45741114D01*
X195979219Y-45679058D01*
X196038077Y-45670316D01*
X198623922Y-46076019D02*
X198602756Y-46340603D01*
X196373220Y-43800598D02*
X196270900Y-43811192D01*
X197417428Y-48312640D02*
X197495050Y-48146823D01*
X197360993Y-46749815D02*
X197287948Y-46554392D01*
X197279840Y-46393528D01*
X198560425Y-44975354D02*
X198694354Y-45132347D01*
X198698013Y-45137640D01*
X196877689Y-45973721D02*
X196814192Y-45906693D01*
X198341704Y-44181604D02*
X198341704Y-44269799D01*
X197495050Y-48146823D02*
X197417428Y-47977497D01*
X196503746Y-46820375D02*
X196539015Y-46809803D01*
X196997622Y-43730038D02*
X196941187Y-43800598D01*
X196733038Y-46298271D02*
X196739691Y-46501485D01*
X196778750Y-46701453D01*
X196800067Y-46767471D01*
X196690707Y-49473271D02*
X196690707Y-48541932D01*
X195741734Y-44223936D02*
X195901230Y-44082661D01*
X196091366Y-43984141D01*
X196285025Y-43938187D01*
X196814192Y-45906693D02*
X196747163Y-45966659D01*
X196937656Y-44714302D02*
X197163438Y-44689605D01*
X197036422Y-45426899D02*
X197029381Y-45426899D01*
X196214465Y-43289066D02*
X196281494Y-43105636D01*
X198436961Y-43486621D02*
X198573179Y-43641216D01*
X198674773Y-43819291D01*
X198739526Y-44015975D01*
X198765219Y-44226396D01*
X198761511Y-44350931D01*
X196038077Y-49639066D02*
X196239141Y-49550573D01*
X196457697Y-49500625D01*
X196663412Y-49475378D01*
X196690707Y-49473271D01*
X198218241Y-46121882D02*
X198376995Y-46273574D01*
X196337929Y-45963128D02*
X196320294Y-46241836D01*
X195777024Y-43790026D02*
X195823054Y-43579554D01*
X195922054Y-43391180D01*
X196064981Y-43234587D01*
X196098043Y-43207934D01*
X196320294Y-46241836D02*
X196326720Y-46446219D01*
X196380197Y-46654223D01*
X196450820Y-46792168D01*
X196041608Y-47204912D02*
X195854714Y-47091719D01*
X195709822Y-46934593D01*
X195612472Y-46743282D01*
X195568206Y-46527537D01*
X195568876Y-46397037D01*
X196404958Y-45903162D02*
X196337929Y-45963128D01*
X197283371Y-42925716D02*
X197286902Y-42922185D01*
X197925429Y-44432084D02*
X197985395Y-44396794D01*
X195914591Y-45994887D02*
X195904019Y-46167745D01*
X197417428Y-47977497D02*
X197336296Y-48146823D01*
X198249979Y-45568018D02*
X198249979Y-45659744D01*
X196129802Y-43539546D02*
X196193300Y-43483111D01*
X195237264Y-49921306D02*
X195406879Y-49777535D01*
X195604605Y-49715747D01*
X195824250Y-49670408D01*
X196038077Y-49639066D01*
X197159907Y-44562610D02*
X197152845Y-44562610D01*
X196852992Y-45448086D02*
X196796536Y-45518624D01*
X196083939Y-45109412D02*
X195888634Y-45153960D01*
X195695960Y-45245106D01*
X195660602Y-45268166D01*
X196800067Y-46767471D02*
X196860033Y-46809803D01*
X196270900Y-45218772D02*
X196327357Y-45148212D01*
X197015256Y-43310232D02*
X197081178Y-43120466D01*
X197216031Y-42972180D01*
X197283371Y-42925716D01*
X198338173Y-45568018D02*
X198249979Y-45568018D01*
X197953657Y-44848359D02*
X197928960Y-44760165D01*
X196955290Y-50259958D02*
X196693620Y-50256054D01*
X196444352Y-50244726D01*
X196210396Y-50226551D01*
X195994666Y-50202102D01*
X195740412Y-50160742D01*
X195530640Y-50110618D01*
X195341498Y-50037717D01*
X195237264Y-49921306D01*
X197865463Y-44873056D02*
X197897201Y-44880097D01*
X197212811Y-44128679D02*
X196958821Y-44156907D01*
X196232100Y-45649150D02*
X196288535Y-45578612D01*
X196288535Y-45578612D02*
X196217997Y-45522155D01*
X197315130Y-45998418D02*
X197258674Y-45931390D01*
X196041608Y-46001928D02*
X195981620Y-45931390D01*
X196623678Y-48541932D02*
X196563712Y-48510194D01*
X197985395Y-43860586D02*
X197796821Y-43783078D01*
X197600818Y-43729489D01*
X197398325Y-43700285D01*
X197283371Y-43694769D01*
X196221506Y-44372096D02*
X196348523Y-44357993D01*
X197495050Y-48146823D02*
X197417428Y-47977497D01*
X197251633Y-46816844D02*
X197308068Y-46845072D01*
X195646498Y-45437492D02*
X195814302Y-45324130D01*
X196004377Y-45253451D01*
X196098043Y-45236406D01*
X197223405Y-44128679D02*
X197212811Y-44128679D01*
X197286902Y-42922185D02*
X197491923Y-42932008D01*
X197547954Y-42939820D01*
X195724099Y-44442656D02*
X195741734Y-44223936D01*
X195692340Y-44855400D02*
X195709996Y-44626108D01*
X197279840Y-46393528D02*
X197315130Y-45998418D01*
X196066283Y-43468986D02*
X196126271Y-43539546D01*
X196404958Y-44287433D02*
X196334398Y-44230998D01*
X196447289Y-46248877D02*
X196464924Y-45973721D01*
X197152845Y-44562610D02*
X196923552Y-44587307D01*
X196161540Y-46788637D02*
X196172134Y-46696912D01*
X198249979Y-45659744D02*
X198436961Y-45839664D01*
X197417428Y-48312640D02*
X197495050Y-48146823D01*
X197036422Y-42964517D02*
X196924948Y-43142839D01*
X196884730Y-43299660D01*
X198578081Y-46672214D02*
X198534918Y-46881291D01*
X198446347Y-47070910D01*
X198319150Y-47234528D01*
X198160109Y-47365607D01*
X197976006Y-47457605D01*
X197773625Y-47503983D01*
X197689074Y-47508296D01*
X197569120Y-47508296D02*
X197569120Y-48277349D01*
X197336296Y-48146823D02*
X197417428Y-48312640D01*
X195678236Y-45031789D02*
X195840145Y-44911681D01*
X196026985Y-44832870D01*
X196161540Y-44806028D01*
X197099941Y-45123515D02*
X197317978Y-45141484D01*
X197529371Y-45189118D01*
X197730823Y-45265946D01*
X197837235Y-45321070D01*
X198429899Y-44178073D02*
X198341704Y-44181604D01*
X196281494Y-43105636D02*
X196450820Y-43056242D01*
X197547954Y-42939820D02*
X197419604Y-43101876D01*
X197348687Y-43300576D01*
X197346868Y-43313763D01*
X198588653Y-45317538D02*
X198369932Y-45105880D01*
X196285025Y-43938187D02*
X196390854Y-43927593D01*
X197283371Y-43694769D02*
X197276330Y-43694769D01*
X198715648Y-44950657D02*
X198648619Y-44883629D01*
X196334398Y-44230998D02*
X196207403Y-44245102D01*
X198500458Y-45409264D02*
X198635875Y-45564328D01*
X198662744Y-45603287D01*
X196902386Y-45144681D02*
X197099941Y-45123515D01*
X196884730Y-43331419D02*
X196941187Y-43401958D01*
X196888261Y-45017686D02*
X196831827Y-45088246D01*
X198588653Y-46548751D02*
X198578081Y-46672214D01*
X196884730Y-43299660D02*
X196884730Y-43331419D01*
X196295597Y-44661377D02*
X196147437Y-44679011D01*
X197188136Y-45987825D02*
X197152845Y-46379403D01*
X196941187Y-43401958D02*
X196948228Y-43401958D01*
X196098043Y-45236406D02*
X196270900Y-45218772D01*
X198278207Y-45105880D02*
X198281738Y-45197606D01*
X196309701Y-44788372D02*
X196366157Y-44717833D01*
X198465189Y-46181848D02*
X198309966Y-46030156D01*
X196796536Y-45518624D02*
X196867096Y-45575081D01*
X197957188Y-43980518D02*
X198013623Y-43945249D01*
X196217997Y-45522155D02*
X196023952Y-45543321D01*
X197403325Y-43387854D02*
X197410387Y-43387854D01*
X197258674Y-45931390D02*
X197188136Y-45987825D01*
X196560181Y-46721609D02*
X196475689Y-46533565D01*
X196445936Y-46330908D01*
X196447289Y-46248877D01*
X197868994Y-45331663D02*
X197921898Y-45299904D01*
X198761511Y-44350931D02*
X198750938Y-44492050D01*
X197417428Y-47977497D02*
X197336296Y-48146823D01*
X197921898Y-45299904D02*
X197900732Y-45211709D01*
X196073346Y-46778044D02*
X196122740Y-46802741D01*
X196031014Y-46178317D02*
X196041608Y-46001928D01*
X198309966Y-44735468D02*
X198560425Y-44975354D01*
X196207403Y-44245102D02*
X195997580Y-44294406D01*
X195804677Y-44386940D01*
X195724099Y-44442656D01*
X197339827Y-46838010D02*
X197360993Y-46749815D01*
X196038077Y-45670316D02*
X196232100Y-45649150D01*
X197286902Y-43825295D02*
X197495362Y-43842149D01*
X197696973Y-43886518D01*
X197891091Y-43959046D01*
X197928960Y-43976987D01*
X197276330Y-43694769D02*
X196997622Y-43730038D01*
X197837235Y-45783208D02*
X197893691Y-45751470D01*
X198673316Y-49921306D02*
X198503922Y-50068094D01*
X198281045Y-50136690D01*
X198048169Y-50182603D01*
X197846208Y-50210913D01*
X197624079Y-50233335D01*
X197384695Y-50249291D01*
X197130970Y-50258208D01*
X196955290Y-50259958D01*
X196126271Y-43539546D02*
X196129802Y-43539546D01*
X196450820Y-46792168D02*
X196503746Y-46820375D01*
X197837235Y-45321070D02*
X197868994Y-45331663D01*
X196539015Y-46809803D02*
X196560181Y-46721609D01*
X197710240Y-42978642D02*
X197901981Y-43054348D01*
X198077347Y-43161688D01*
X198182950Y-43250266D01*
X196563712Y-48510194D02*
X196433774Y-48354499D01*
X196412020Y-48192686D01*
X196348523Y-44357993D02*
X196404958Y-44287433D01*
X195709996Y-44626108D02*
X195878663Y-44490853D01*
X196077091Y-44401366D01*
X196221506Y-44372096D01*
X196366157Y-44717833D02*
X196295597Y-44661377D01*
X196535484Y-43447820D02*
X196542546Y-43447820D01*
X197473885Y-43331419D02*
X197549728Y-43137831D01*
X197698128Y-42987033D01*
X197710240Y-42978642D01*
X196161540Y-44806028D02*
X196309701Y-44788372D01*
X197346868Y-43313763D02*
X197403325Y-43387854D01*
X198750938Y-44492050D02*
X198712117Y-44449719D01*
X197219873Y-49473271D02*
X197428511Y-49496696D01*
X197631684Y-49539142D01*
X197822051Y-49609516D01*
X197872525Y-49639066D01*
X197689074Y-47508296D02*
X197569120Y-47508296D01*
X196450820Y-43056242D02*
X196577815Y-43035076D01*
X197219873Y-48541932D02*
X197219873Y-49473271D01*
X195660602Y-45268166D02*
X195678236Y-45031789D01*
X197495050Y-48146823D02*
X197417428Y-47977497D01*
X196542546Y-43447820D02*
X196606044Y-43391385D01*
X196941187Y-43800598D02*
X197011747Y-43857055D01*
X196747163Y-45966659D02*
X196733038Y-46298271D01*
X196267369Y-47300169D02*
X196041608Y-47204912D01*
X197900732Y-45211709D02*
X197712603Y-45119985D01*
X197514886Y-45052077D01*
X197309894Y-45009305D01*
X197099941Y-44992989D01*
X197893691Y-45751470D02*
X197872525Y-45663275D01*
X198369932Y-45105880D02*
X198278207Y-45105880D01*
D11*
X162218354Y-142806782D02*
X166017777Y-120493588D01*
X147877950Y-119422237D02*
X134684053Y-119422237D01*
X171390576Y-34528702D02*
X171122462Y-34479308D01*
X78634718Y-132876101D02*
X84773060Y-149738874D01*
X171122462Y-34479308D02*
X170780277Y-34415810D01*
X101346553Y-118835528D02*
X101340041Y-118958535D01*
X101320921Y-119063869D01*
X101289813Y-119152873D01*
X101222027Y-119258700D01*
X101130754Y-119335344D01*
X101018088Y-119387337D01*
X100886120Y-119419216D01*
X100788453Y-119431532D01*
X100683757Y-119438268D01*
X100572653Y-119440766D01*
X100455762Y-119440370D01*
X100333702Y-119438424D01*
X100207095Y-119436271D01*
X100076561Y-119435255D01*
X86783876Y-150691379D02*
X87265895Y-150648742D01*
X88118850Y-150574157D01*
X89317412Y-150469809D01*
X90836251Y-150337881D01*
X92650038Y-150180557D01*
X94733443Y-150000021D01*
X97061138Y-149798457D01*
X99607793Y-149578048D01*
X102348079Y-149340979D01*
X105256666Y-149089433D01*
X108308226Y-148825595D01*
X111477428Y-148551647D01*
X114738945Y-148269775D01*
X118067446Y-147982161D01*
X121437602Y-147690990D01*
X124824083Y-147398446D01*
X128201562Y-147106712D01*
X131544708Y-146817973D01*
X134828191Y-146534411D01*
X138026684Y-146258212D01*
X141114856Y-145991559D01*
X144067379Y-145736636D01*
X146858922Y-145495626D01*
X149464157Y-145270714D01*
X151857754Y-145064083D01*
X154014385Y-144877918D01*
X155908719Y-144714401D01*
X157515428Y-144575718D01*
X158809182Y-144464052D01*
X159764652Y-144381586D01*
X160356509Y-144330506D01*
X160559424Y-144312994D01*
X170780277Y-34415810D02*
X170643142Y-34403395D01*
X170395510Y-34392557D01*
X170044912Y-34383218D01*
X169598882Y-34375299D01*
X169064949Y-34368724D01*
X168450647Y-34363414D01*
X167763508Y-34359294D01*
X167011062Y-34356284D01*
X166200841Y-34354307D01*
X165340379Y-34353287D01*
X164437206Y-34353145D01*
X163498854Y-34353804D01*
X162532856Y-34355186D01*
X161546742Y-34357214D01*
X160548045Y-34359810D01*
X159544297Y-34362898D01*
X158543029Y-34366399D01*
X157551774Y-34370235D01*
X156578063Y-34374330D01*
X155629428Y-34378606D01*
X154713400Y-34382985D01*
X153837513Y-34387390D01*
X153009296Y-34391743D01*
X152236284Y-34395968D01*
X151526006Y-34399985D01*
X150885996Y-34403718D01*
X150323784Y-34407090D01*
X149846903Y-34410022D01*
X149462885Y-34412438D01*
X149179261Y-34414259D01*
X149003563Y-34415409D01*
X148943324Y-34415810D01*
X226131098Y-138534218D02*
X226302029Y-138486765D01*
X226462005Y-138432526D01*
X226611390Y-138372043D01*
X226750544Y-138305861D01*
X226879831Y-138234523D01*
X226999613Y-138158574D01*
X227110253Y-138078557D01*
X227212114Y-137995016D01*
X227305558Y-137908495D01*
X227390947Y-137819538D01*
X227468644Y-137728688D01*
X227539012Y-137636491D01*
X227602413Y-137543489D01*
X227659210Y-137450226D01*
X227709765Y-137357247D01*
X227754441Y-137265095D01*
X227793601Y-137174314D01*
X227827606Y-137085449D01*
X227856820Y-136999042D01*
X227902324Y-136835781D01*
X227933013Y-136688882D01*
X227951788Y-136562698D01*
X227961548Y-136461578D01*
X227965632Y-136366412D01*
X227965547Y-136346991D01*
X112007487Y-119422237D02*
X111876952Y-119423253D01*
X111750345Y-119425406D01*
X111628285Y-119427352D01*
X111511394Y-119427748D01*
X111400290Y-119425250D01*
X111295594Y-119418514D01*
X111197927Y-119406198D01*
X111107907Y-119386957D01*
X110988574Y-119342172D01*
X110889938Y-119274249D01*
X110814091Y-119178653D01*
X110763126Y-119050851D01*
X110744006Y-118945517D01*
X110737495Y-118822510D01*
X125201384Y-119422237D02*
X112007487Y-119422237D01*
X227965547Y-45810528D02*
X227956434Y-45678539D01*
X227930682Y-45559934D01*
X227890668Y-45454041D01*
X227838768Y-45360188D01*
X227777359Y-45277704D01*
X227708819Y-45205917D01*
X227635525Y-45144155D01*
X227559854Y-45091746D01*
X227447090Y-45029201D01*
X227342349Y-44983922D01*
X227253653Y-44953642D01*
X227163274Y-44930349D01*
X227154162Y-44928584D01*
X100076561Y-119435255D02*
X88583055Y-119435255D01*
X227965547Y-136346991D02*
X227965547Y-136089375D01*
X227965547Y-135338363D01*
X227965547Y-134126701D01*
X227965547Y-132487138D01*
X227965547Y-130452423D01*
X227965547Y-128055304D01*
X227965547Y-125328530D01*
X227965547Y-122304850D01*
X227965547Y-119017010D01*
X227965547Y-115497762D01*
X227965547Y-111779851D01*
X227965547Y-107896028D01*
X227965547Y-103879040D01*
X227965547Y-99761637D01*
X227965547Y-95576566D01*
X227965547Y-91356576D01*
X227965547Y-87134416D01*
X227965547Y-82942834D01*
X227965547Y-78814578D01*
X227965547Y-74782397D01*
X227965547Y-70879040D01*
X227965547Y-67137255D01*
X227965547Y-63589790D01*
X227965547Y-60269394D01*
X227965547Y-57208816D01*
X227965547Y-54440803D01*
X227965547Y-51998105D01*
X227965547Y-49913470D01*
X227965547Y-48219646D01*
X227965547Y-46949382D01*
X227965547Y-46135426D01*
X227965547Y-45810528D01*
X166017777Y-120493588D02*
X166012075Y-120376265D01*
X165995314Y-120262767D01*
X165968011Y-120153609D01*
X165930683Y-120049309D01*
X165883847Y-119950383D01*
X165828018Y-119857348D01*
X165763715Y-119770720D01*
X165691454Y-119691018D01*
X165611751Y-119618756D01*
X165525123Y-119554453D01*
X165432088Y-119498624D01*
X165333162Y-119451788D01*
X165228862Y-119414460D01*
X165119704Y-119387157D01*
X165006206Y-119370396D01*
X164888884Y-119364695D01*
X162207782Y-142859708D02*
X162218354Y-142806782D01*
X147877950Y-118258075D02*
X148008484Y-118256662D01*
X148135091Y-118253389D01*
X148257150Y-118249702D01*
X148374042Y-118247049D01*
X148485146Y-118246876D01*
X148589841Y-118250630D01*
X148687509Y-118259759D01*
X148777529Y-118275709D01*
X148896861Y-118315589D01*
X148995497Y-118378956D01*
X149071344Y-118470693D01*
X149122309Y-118595685D01*
X149141429Y-118699899D01*
X149147941Y-118822510D01*
X84773060Y-149738874D02*
X84821658Y-149840417D01*
X84888141Y-149949678D01*
X84950685Y-150036183D01*
X85029126Y-150129547D01*
X85124599Y-150226282D01*
X85238236Y-150322896D01*
X85371171Y-150415899D01*
X85524536Y-150501802D01*
X85609235Y-150541000D01*
X85699465Y-150577114D01*
X85795370Y-150609707D01*
X85897091Y-150638345D01*
X86004769Y-150662589D01*
X86118546Y-150682005D01*
X86238564Y-150696155D01*
X86364964Y-150704604D01*
X86497889Y-150706915D01*
X86637478Y-150702652D01*
X86783876Y-150691379D01*
X183445187Y-140624426D02*
X183536912Y-140762658D01*
X183630630Y-140891813D01*
X183726021Y-141012200D01*
X183822761Y-141124124D01*
X183920529Y-141227894D01*
X184019004Y-141323817D01*
X184117864Y-141412200D01*
X184216787Y-141493352D01*
X184315452Y-141567579D01*
X184413536Y-141635189D01*
X184510719Y-141696489D01*
X184606678Y-141751787D01*
X184701092Y-141801391D01*
X184793639Y-141845607D01*
X184883997Y-141884744D01*
X184971845Y-141919108D01*
X185056862Y-141949008D01*
X185217112Y-141996643D01*
X185362174Y-142030108D01*
X185489475Y-142051863D01*
X185596441Y-142064369D01*
X185713133Y-142071163D01*
X185773533Y-142070806D01*
X227154162Y-44928584D02*
X171390576Y-34528702D01*
X87524722Y-120070250D02*
X87427251Y-120199811D01*
X87310170Y-120355436D01*
X87151755Y-120565999D01*
X86955176Y-120827283D01*
X86723606Y-121135069D01*
X86460217Y-121485139D01*
X86168179Y-121873276D01*
X85850664Y-122295260D01*
X85510845Y-122746875D01*
X85151893Y-123223901D01*
X84776979Y-123722122D01*
X84389275Y-124237318D01*
X83991952Y-124765272D01*
X83588184Y-125301765D01*
X83181140Y-125842580D01*
X82773993Y-126383498D01*
X82369914Y-126920302D01*
X81972075Y-127448772D01*
X81583648Y-127964692D01*
X81207804Y-128463843D01*
X80847714Y-128942007D01*
X80506552Y-129394966D01*
X80187488Y-129818501D01*
X79893693Y-130208395D01*
X79628340Y-130560430D01*
X79394600Y-130870387D01*
X79195645Y-131134049D01*
X79034646Y-131347197D01*
X78914776Y-131505614D01*
X78839205Y-131605080D01*
X78811106Y-131641379D01*
X148943324Y-34415810D02*
X112066641Y-36553643D01*
X176283602Y-118235823D02*
X176387579Y-118238555D01*
X176487862Y-118246519D01*
X176584476Y-118259367D01*
X176677447Y-118276750D01*
X176766800Y-118298318D01*
X176934758Y-118352616D01*
X177088557Y-118419471D01*
X177228403Y-118496093D01*
X177354503Y-118579691D01*
X177467064Y-118667474D01*
X177566292Y-118756654D01*
X177652395Y-118844437D01*
X177725578Y-118928035D01*
X177786049Y-119004657D01*
X177853372Y-119100405D01*
X177900570Y-119177609D01*
X177906393Y-119188306D01*
X185773533Y-142070806D02*
X185883884Y-142062008D01*
X186205785Y-142036303D01*
X186725505Y-141994727D01*
X187429314Y-141938313D01*
X188303481Y-141868095D01*
X189334277Y-141785109D01*
X190507971Y-141690389D01*
X191810833Y-141584968D01*
X193229132Y-141469881D01*
X194749138Y-141346163D01*
X196357121Y-141214848D01*
X198039351Y-141076971D01*
X199782097Y-140933565D01*
X201571629Y-140785666D01*
X203394217Y-140634307D01*
X205236130Y-140480523D01*
X207083638Y-140325348D01*
X208923012Y-140169817D01*
X210740520Y-140014963D01*
X212522432Y-139861823D01*
X214255019Y-139711429D01*
X215924549Y-139564816D01*
X217517293Y-139423019D01*
X219019520Y-139287072D01*
X220417500Y-139158009D01*
X221697502Y-139036865D01*
X222845797Y-138924674D01*
X223848654Y-138822470D01*
X224692343Y-138731288D01*
X225363133Y-138652163D01*
X225847295Y-138586128D01*
X226131098Y-138534218D01*
X108404975Y-36770481D02*
X89178586Y-36841035D01*
X164888884Y-119364695D02*
X156831430Y-119364695D01*
X87912769Y-92804064D02*
X87912769Y-117142199D01*
X112066641Y-36553643D02*
X111950703Y-36563327D01*
X111815220Y-36574420D01*
X111636448Y-36588782D01*
X111532796Y-36596977D01*
X111420681Y-36605737D01*
X111300890Y-36614976D01*
X111174210Y-36624611D01*
X111041426Y-36634556D01*
X110903326Y-36644729D01*
X110760696Y-36655044D01*
X110614322Y-36665417D01*
X110464991Y-36675764D01*
X110313490Y-36686000D01*
X110160604Y-36696042D01*
X110007121Y-36705804D01*
X109853826Y-36715203D01*
X109701506Y-36724153D01*
X109550949Y-36732572D01*
X109402939Y-36740375D01*
X109258264Y-36747476D01*
X109117710Y-36753792D01*
X108982064Y-36759239D01*
X108852112Y-36763732D01*
X108728641Y-36767187D01*
X108612436Y-36769520D01*
X108504285Y-36770646D01*
X108404975Y-36770481D01*
X110737495Y-118822510D02*
X110744006Y-118699899D01*
X110763126Y-118595685D01*
X110794234Y-118508421D01*
X110862020Y-118406142D01*
X110953293Y-118333860D01*
X111065959Y-118286694D01*
X111197927Y-118259759D01*
X111295594Y-118250630D01*
X111400290Y-118246876D01*
X111511394Y-118247049D01*
X111628285Y-118249702D01*
X111750345Y-118253389D01*
X111876952Y-118256662D01*
X112007487Y-118258075D01*
X126471376Y-118822510D02*
X126464864Y-118945517D01*
X126445744Y-119050851D01*
X126414636Y-119139855D01*
X126346850Y-119245682D01*
X126255577Y-119322326D01*
X126142911Y-119374319D01*
X126010943Y-119406198D01*
X125913276Y-119418514D01*
X125808580Y-119425250D01*
X125697476Y-119427748D01*
X125580585Y-119427352D01*
X125458525Y-119425406D01*
X125331918Y-119423253D01*
X125201384Y-119422237D01*
X156831430Y-118200532D02*
X176283602Y-118235823D01*
X100076561Y-118271092D02*
X100207095Y-118269679D01*
X100333702Y-118266406D01*
X100455762Y-118262719D01*
X100572653Y-118260066D01*
X100683757Y-118259893D01*
X100788453Y-118263648D01*
X100886120Y-118272776D01*
X100976140Y-118288726D01*
X101095473Y-118328607D01*
X101194109Y-118391974D01*
X101269956Y-118483711D01*
X101320921Y-118608703D01*
X101340041Y-118712917D01*
X101346553Y-118835528D01*
X78564158Y-132452763D02*
X78568854Y-132545361D01*
X78581465Y-132637964D01*
X78599772Y-132730571D01*
X78621559Y-132823181D01*
X78634718Y-132876101D01*
X134684053Y-119422237D02*
X134553518Y-119423253D01*
X134426911Y-119425406D01*
X134304851Y-119427352D01*
X134187960Y-119427748D01*
X134076856Y-119425250D01*
X133972160Y-119418514D01*
X133874493Y-119406198D01*
X133784473Y-119386957D01*
X133665140Y-119342172D01*
X133566504Y-119274249D01*
X133490657Y-119178653D01*
X133439692Y-119050851D01*
X133420572Y-118945517D01*
X133414061Y-118822510D01*
X87595282Y-119964421D02*
X87535792Y-120033877D01*
X87524722Y-120070250D01*
X89056533Y-36841922D02*
X88939211Y-36847623D01*
X88825712Y-36864384D01*
X88716555Y-36891687D01*
X88612254Y-36929015D01*
X88513328Y-36975852D01*
X88420293Y-37031680D01*
X88333666Y-37095983D01*
X88253963Y-37168245D01*
X88181701Y-37247948D01*
X88117398Y-37334575D01*
X88061570Y-37427610D01*
X88014733Y-37526536D01*
X87977405Y-37630837D01*
X87950102Y-37739994D01*
X87933341Y-37853493D01*
X87927640Y-37970815D01*
X89178586Y-36841035D02*
X89056533Y-36841922D01*
X177906393Y-119188306D02*
X183445187Y-140624426D01*
X149147941Y-118822510D02*
X149141429Y-118945517D01*
X149122309Y-119050851D01*
X149091201Y-119139855D01*
X149023415Y-119245682D01*
X148932143Y-119322326D01*
X148819476Y-119374319D01*
X148687509Y-119406198D01*
X148589841Y-119418514D01*
X148485146Y-119425250D01*
X148374042Y-119427748D01*
X148257150Y-119427352D01*
X148135091Y-119425406D01*
X148008484Y-119423253D01*
X147877950Y-119422237D01*
X88583055Y-119435255D02*
X88474899Y-119449743D01*
X88368953Y-119473009D01*
X88265566Y-119504529D01*
X88165087Y-119543781D01*
X88067864Y-119590241D01*
X87974246Y-119643387D01*
X87884582Y-119702694D01*
X87799221Y-119767640D01*
X87718512Y-119837702D01*
X87642804Y-119912357D01*
X87595282Y-119964421D01*
X133414061Y-118822510D02*
X133420572Y-118699899D01*
X133439692Y-118595685D01*
X133470800Y-118508421D01*
X133538586Y-118406142D01*
X133629859Y-118333860D01*
X133742525Y-118286694D01*
X133874493Y-118259759D01*
X133972160Y-118250630D01*
X134076856Y-118246876D01*
X134187960Y-118247049D01*
X134304851Y-118249702D01*
X134426911Y-118253389D01*
X134553518Y-118256662D01*
X134684053Y-118258075D01*
X156831430Y-119364695D02*
X156700895Y-119365711D01*
X156574288Y-119367865D01*
X156452229Y-119369812D01*
X156335337Y-119370209D01*
X156224234Y-119367713D01*
X156119538Y-119360979D01*
X156021870Y-119348664D01*
X155931851Y-119329425D01*
X155812518Y-119284643D01*
X155713882Y-119216723D01*
X155638035Y-119121130D01*
X155587070Y-118993330D01*
X155567950Y-118887996D01*
X155561439Y-118764990D01*
X87927640Y-37970815D02*
X87912769Y-92804064D01*
X125201384Y-118258075D02*
X125331918Y-118256662D01*
X125458525Y-118253389D01*
X125580585Y-118249702D01*
X125697476Y-118247049D01*
X125808580Y-118246876D01*
X125913276Y-118250630D01*
X126010943Y-118259759D01*
X126100963Y-118275709D01*
X126220296Y-118315589D01*
X126318932Y-118378956D01*
X126394779Y-118470693D01*
X126445744Y-118595685D01*
X126464864Y-118699899D01*
X126471376Y-118822510D01*
X89041662Y-118271092D02*
X100076561Y-118271092D01*
X87912769Y-117142199D02*
X87918470Y-117259521D01*
X87935231Y-117373019D01*
X87962534Y-117482177D01*
X87999862Y-117586477D01*
X88046698Y-117685403D01*
X88102527Y-117778438D01*
X88166830Y-117865066D01*
X88239092Y-117944769D01*
X88318794Y-118017030D01*
X88405422Y-118081333D01*
X88498457Y-118137162D01*
X88597383Y-118183998D01*
X88701683Y-118221326D01*
X88810841Y-118248629D01*
X88924339Y-118265390D01*
X89041662Y-118271092D01*
X134684053Y-118258075D02*
X147877950Y-118258075D01*
X155561439Y-118764990D02*
X155567950Y-118642378D01*
X155587070Y-118538164D01*
X155618178Y-118450899D01*
X155685964Y-118348617D01*
X155777237Y-118276333D01*
X155889903Y-118229163D01*
X156021870Y-118202225D01*
X156119538Y-118193094D01*
X156224234Y-118189338D01*
X156335337Y-118189509D01*
X156452229Y-118192161D01*
X156574288Y-118195847D01*
X156700895Y-118199119D01*
X156831430Y-118200532D01*
X78811106Y-131641379D02*
X78749852Y-131735562D01*
X78698106Y-131832643D01*
X78655455Y-131932205D01*
X78621486Y-132033836D01*
X78595785Y-132137122D01*
X78577939Y-132241647D01*
X78567534Y-132346999D01*
X78564158Y-132452763D01*
X112007487Y-118258075D02*
X125201384Y-118258075D01*
X160559424Y-144312994D02*
X160684334Y-144296775D01*
X160823088Y-144267449D01*
X160935981Y-144235941D01*
X161061179Y-144192782D01*
X161195248Y-144136182D01*
X161334755Y-144064353D01*
X161476266Y-143975508D01*
X161616348Y-143867857D01*
X161684779Y-143806420D01*
X161751565Y-143739612D01*
X161816276Y-143667208D01*
X161878484Y-143588984D01*
X161937759Y-143504718D01*
X161993672Y-143414186D01*
X162045794Y-143317164D01*
X162093695Y-143213429D01*
X162136946Y-143102757D01*
X162175118Y-142984924D01*
X162207782Y-142859708D01*
D12*
X118750000Y-43751000D02*
X118750000Y-46851000D01*
X118750000Y-46851000D02*
X122350000Y-46851000D01*
X122350000Y-46851000D02*
X122350000Y-43751000D01*
X122350000Y-43751000D02*
X118750000Y-43751000D01*
X156850000Y-38751000D02*
X156850000Y-41851000D01*
X156850000Y-41851000D02*
X160450000Y-41851000D01*
X160450000Y-41851000D02*
X160450000Y-38751000D01*
X160450000Y-38751000D02*
X156850000Y-38751000D01*
X122350000Y-84951000D02*
X122350000Y-81851000D01*
X118750000Y-84951000D02*
X122350000Y-84951000D01*
X122350000Y-81851000D02*
X118750000Y-81851000D01*
X118750000Y-81851000D02*
X118750000Y-84951000D01*
X141400000Y-79351000D02*
X137800000Y-79351000D01*
X137800000Y-79351000D02*
X137800000Y-82451000D01*
X141400000Y-82451000D02*
X141400000Y-79351000D01*
X137800000Y-82451000D02*
X141400000Y-82451000D01*
X122350000Y-100901000D02*
X118750000Y-100901000D01*
X118750000Y-100901000D02*
X118750000Y-104001000D01*
X118750000Y-104001000D02*
X122350000Y-104001000D01*
X122350000Y-104001000D02*
X122350000Y-100901000D01*
X156850000Y-95901000D02*
X156850000Y-99001000D01*
X160450000Y-95901000D02*
X156850000Y-95901000D01*
X160450000Y-99001000D02*
X160450000Y-95901000D01*
X156850000Y-99001000D02*
X160450000Y-99001000D01*
X198589120Y-112643640D02*
X194989120Y-112643640D01*
X194989120Y-115743640D02*
X198589120Y-115743640D01*
X198589120Y-115743640D02*
X198589120Y-112643640D01*
X194989120Y-112643640D02*
X194989120Y-115743640D01*
X88168599Y-132402244D02*
X89228862Y-135315291D01*
X89228862Y-135315291D02*
X92611755Y-134084019D01*
X91551493Y-131170972D02*
X88168599Y-132402244D01*
X92611755Y-134084019D02*
X91551493Y-131170972D01*
X112636646Y-125726010D02*
X109091339Y-126351143D01*
X113174956Y-128778914D02*
X112636646Y-125726010D01*
X109091339Y-126351143D02*
X109629648Y-129404047D01*
X109629648Y-129404047D02*
X113174956Y-128778914D01*
X214039120Y-74543640D02*
X214039120Y-77643640D01*
X217639120Y-77643640D02*
X217639120Y-74543640D01*
X217639120Y-74543640D02*
X214039120Y-74543640D01*
X214039120Y-77643640D02*
X217639120Y-77643640D01*
X217639120Y-93593640D02*
X214039120Y-93593640D01*
X217639120Y-96693640D02*
X217639120Y-93593640D01*
X214039120Y-96693640D02*
X217639120Y-96693640D01*
X214039120Y-93593640D02*
X214039120Y-96693640D01*
X217639120Y-112643640D02*
X214039120Y-112643640D01*
X217639120Y-115743640D02*
X217639120Y-112643640D01*
X214039120Y-115743640D02*
X217639120Y-115743640D01*
X214039120Y-112643640D02*
X214039120Y-115743640D01*
X179500000Y-44351000D02*
X179500000Y-41251000D01*
X179500000Y-41251000D02*
X175900000Y-41251000D01*
X175900000Y-44351000D02*
X179500000Y-44351000D01*
X175900000Y-41251000D02*
X175900000Y-44351000D01*
X194989120Y-58593640D02*
X198589120Y-58593640D01*
X198589120Y-55493640D02*
X194989120Y-55493640D01*
X194989120Y-55493640D02*
X194989120Y-58593640D01*
X198589120Y-58593640D02*
X198589120Y-55493640D01*
X137800000Y-60301000D02*
X137800000Y-63401000D01*
X137800000Y-63401000D02*
X141400000Y-63401000D01*
X141400000Y-63401000D02*
X141400000Y-60301000D01*
X141400000Y-60301000D02*
X137800000Y-60301000D01*
X175900000Y-60301000D02*
X175900000Y-63401000D01*
X179500000Y-60301000D02*
X175900000Y-60301000D01*
X175900000Y-63401000D02*
X179500000Y-63401000D01*
X179500000Y-63401000D02*
X179500000Y-60301000D01*
X160450000Y-57801000D02*
X156850000Y-57801000D01*
X156850000Y-60901000D02*
X160450000Y-60901000D01*
X160450000Y-60901000D02*
X160450000Y-57801000D01*
X156850000Y-57801000D02*
X156850000Y-60901000D01*
X175900000Y-82451000D02*
X179500000Y-82451000D01*
X175900000Y-79351000D02*
X175900000Y-82451000D01*
X179500000Y-79351000D02*
X175900000Y-79351000D01*
X179500000Y-82451000D02*
X179500000Y-79351000D01*
X217639120Y-55493640D02*
X214039120Y-55493640D01*
X214039120Y-58593640D02*
X217639120Y-58593640D01*
X214039120Y-55493640D02*
X214039120Y-58593640D01*
X217639120Y-58593640D02*
X217639120Y-55493640D01*
X118750000Y-65951000D02*
X122350000Y-65951000D01*
X122350000Y-65951000D02*
X122350000Y-62851000D01*
X122350000Y-62851000D02*
X118750000Y-62851000D01*
X118750000Y-62851000D02*
X118750000Y-65951000D01*
X194989120Y-77643640D02*
X198589120Y-77643640D01*
X198589120Y-77643640D02*
X198589120Y-74543640D01*
X194989120Y-74543640D02*
X194989120Y-77643640D01*
X198589120Y-74543640D02*
X194989120Y-74543640D01*
X175900000Y-98401000D02*
X175900000Y-101501000D01*
X179500000Y-98401000D02*
X175900000Y-98401000D01*
X179500000Y-101501000D02*
X179500000Y-98401000D01*
X175900000Y-101501000D02*
X179500000Y-101501000D01*
X194989120Y-93593640D02*
X194989120Y-96693640D01*
X198589120Y-93593640D02*
X194989120Y-93593640D01*
X198589120Y-96693640D02*
X198589120Y-93593640D01*
X194989120Y-96693640D02*
X198589120Y-96693640D01*
X151953284Y-128848914D02*
X155498592Y-129474047D01*
X156036901Y-126421143D02*
X152491594Y-125796010D01*
X155498592Y-129474047D02*
X156036901Y-126421143D01*
X152491594Y-125796010D02*
X151953284Y-128848914D01*
X160450000Y-76851000D02*
X156850000Y-76851000D01*
X156850000Y-76851000D02*
X156850000Y-79951000D01*
X156850000Y-79951000D02*
X160450000Y-79951000D01*
X160450000Y-79951000D02*
X160450000Y-76851000D01*
X137800000Y-41251000D02*
X137800000Y-44351000D01*
X141400000Y-44351000D02*
X141400000Y-41251000D01*
X137800000Y-44351000D02*
X141400000Y-44351000D01*
X141400000Y-41251000D02*
X137800000Y-41251000D01*
X137800000Y-101501000D02*
X141400000Y-101501000D01*
X137800000Y-98401000D02*
X137800000Y-101501000D01*
X141400000Y-98401000D02*
X137800000Y-98401000D01*
X141400000Y-101501000D02*
X141400000Y-98401000D01*
X130799120Y-127303640D02*
X134399120Y-127303640D01*
X130799120Y-124203640D02*
X130799120Y-127303640D01*
X134399120Y-124203640D02*
X130799120Y-124203640D01*
X134399120Y-127303640D02*
X134399120Y-124203640D01*
D13*
X95499272Y-80311965D03*
X100579272Y-80311965D03*
X95499272Y-78061965D03*
X100579272Y-78061965D03*
D14*
X96500000Y-87400000D03*
X96500000Y-85650000D03*
X89500000Y-85650000D03*
X89500000Y-87400000D03*
D15*
X98300000Y-89500000D03*
X98300000Y-83550000D03*
X94300000Y-83550000D03*
X94300000Y-89500000D03*
X91300000Y-83550000D03*
X91300000Y-89500000D03*
X99800000Y-87750000D03*
X99800000Y-85300000D03*
D13*
X102700000Y-80300000D03*
X102700000Y-78100000D03*
D16*
X106399120Y-113372640D03*
D17*
X108718815Y-42425745D03*
X92180000Y-41230000D03*
X108718815Y-44965745D03*
X92180000Y-43770000D03*
X108718815Y-47505745D03*
X92180000Y-46310000D03*
X108718815Y-50045745D03*
X92180000Y-48850000D03*
X108718815Y-52585745D03*
X92180000Y-51390000D03*
X92180000Y-53930000D03*
X108718815Y-55125745D03*
X108718815Y-57665745D03*
X92180000Y-56470000D03*
X108718815Y-60205745D03*
X92180000Y-59010000D03*
X108718815Y-62745745D03*
X92180000Y-61550000D03*
X92180000Y-64090000D03*
X108718815Y-65285745D03*
X108718815Y-67825745D03*
X92180000Y-66630000D03*
X108718815Y-70365745D03*
X92180000Y-69170000D03*
X93478815Y-70365745D03*
X107420000Y-69170000D03*
X107420000Y-66630000D03*
X93478815Y-67825745D03*
X93478815Y-65285745D03*
X107420000Y-64090000D03*
X93478815Y-62745745D03*
X107420000Y-61550000D03*
X107420000Y-59010000D03*
X93478815Y-60205745D03*
X93478815Y-57665745D03*
X107420000Y-56470000D03*
X93478815Y-55125745D03*
X107420000Y-53930000D03*
X107420000Y-51390000D03*
X93478815Y-52585745D03*
X107420000Y-48850000D03*
X93478815Y-50045745D03*
X93478815Y-47505745D03*
X107420000Y-46310000D03*
X107420000Y-43770000D03*
X93478815Y-44965745D03*
X93478815Y-42425745D03*
X107420000Y-41230000D03*
D18*
X90000000Y-74250000D03*
X90000000Y-80750000D03*
D19*
X128705000Y-44452000D03*
X128705000Y-48002000D03*
X131245000Y-44455000D03*
X131245000Y-48005000D03*
X150345000Y-41955000D03*
X150345000Y-45505000D03*
X169345000Y-44455000D03*
X169345000Y-48005000D03*
X188590120Y-58490640D03*
X188590120Y-62040640D03*
X207690120Y-58620640D03*
X207690120Y-62170640D03*
X128705000Y-82555000D03*
X128705000Y-86105000D03*
X128705000Y-101655000D03*
X128705000Y-105205000D03*
D20*
X105225000Y-97000000D03*
X108775000Y-97000000D03*
D21*
X82994156Y-137255034D03*
X84208328Y-140590942D03*
D22*
X126050000Y-50000000D03*
X115050000Y-50000000D03*
D23*
X125550000Y-53700000D03*
X120550000Y-55900000D03*
X115550000Y-53700000D03*
D24*
X120550000Y-50000000D03*
D25*
X125770000Y-45800000D03*
X115330000Y-45800000D03*
D26*
X117800000Y-44601000D03*
X117800000Y-46001000D03*
X123300000Y-46001000D03*
X123300000Y-44601000D03*
D27*
X123350000Y-55900000D03*
X112750000Y-53700000D03*
D23*
X153650000Y-48700000D03*
D25*
X163870000Y-40800000D03*
D22*
X153150000Y-45000000D03*
D23*
X163650000Y-48700000D03*
X158650000Y-50900000D03*
D25*
X153430000Y-40800000D03*
D22*
X164150000Y-45000000D03*
D24*
X158650000Y-45000000D03*
D26*
X155900000Y-39601000D03*
X155900000Y-41001000D03*
X161400000Y-41001000D03*
X161400000Y-39601000D03*
D27*
X161450000Y-50900000D03*
X150850000Y-48700000D03*
D25*
X125770000Y-83900000D03*
D24*
X120550000Y-88100000D03*
D23*
X125550000Y-91800000D03*
D22*
X115050000Y-88100000D03*
D23*
X120550000Y-94000000D03*
D22*
X126050000Y-88100000D03*
D25*
X115330000Y-83900000D03*
D23*
X115550000Y-91800000D03*
D26*
X117800000Y-82701000D03*
X117800000Y-84101000D03*
X123300000Y-84101000D03*
X123300000Y-82701000D03*
D27*
X123350000Y-94000000D03*
X112750000Y-91800000D03*
D23*
X134600000Y-89300000D03*
D24*
X139600000Y-85600000D03*
D23*
X144600000Y-89300000D03*
D25*
X144820000Y-81400000D03*
D23*
X139600000Y-91500000D03*
D25*
X134380000Y-81400000D03*
D22*
X145100000Y-85600000D03*
X134100000Y-85600000D03*
D26*
X136850000Y-80201000D03*
X136850000Y-81601000D03*
X142350000Y-81601000D03*
X142350000Y-80201000D03*
D27*
X142400000Y-91500000D03*
X131800000Y-89300000D03*
D23*
X125550000Y-110850000D03*
X115550000Y-110850000D03*
X120550000Y-113050000D03*
D25*
X125770000Y-102950000D03*
D22*
X126050000Y-107150000D03*
X115050000Y-107150000D03*
D24*
X120550000Y-107150000D03*
D25*
X115330000Y-102950000D03*
D26*
X117800000Y-101751000D03*
X117800000Y-103151000D03*
X123300000Y-103151000D03*
X123300000Y-101751000D03*
D27*
X123350000Y-113050000D03*
X112750000Y-110850000D03*
D22*
X153150000Y-102150000D03*
D23*
X158650000Y-108050000D03*
D22*
X164150000Y-102150000D03*
D24*
X158650000Y-102150000D03*
D25*
X163870000Y-97950000D03*
D23*
X153650000Y-105850000D03*
D25*
X153430000Y-97950000D03*
D23*
X163650000Y-105850000D03*
D26*
X155900000Y-96751000D03*
X155900000Y-98151000D03*
X161400000Y-98151000D03*
X161400000Y-96751000D03*
D27*
X161450000Y-108050000D03*
X150850000Y-105850000D03*
D25*
X191569120Y-114692640D03*
D22*
X191289120Y-118892640D03*
D24*
X196789120Y-118892640D03*
D22*
X202289120Y-118892640D03*
D23*
X196789120Y-124792640D03*
X191789120Y-122592640D03*
D25*
X202009120Y-114692640D03*
D23*
X201789120Y-122592640D03*
D26*
X194039120Y-113493640D03*
X194039120Y-114893640D03*
X199539120Y-114893640D03*
X199539120Y-113493640D03*
D27*
X199589120Y-124792640D03*
X188989120Y-122592640D03*
D23*
X94015249Y-143202933D03*
D22*
X86829021Y-139539858D03*
D23*
X97961268Y-139425509D03*
D25*
X95466041Y-131926693D03*
D22*
X97165639Y-135777636D03*
D24*
X91997330Y-137658747D03*
D23*
X88564341Y-142845710D03*
D25*
X85655650Y-135497383D03*
D28*
X87566609Y-133525902D03*
X88045437Y-134841472D03*
X93213746Y-132960361D03*
X92734918Y-131644791D03*
D29*
X96646388Y-142245277D03*
X85933202Y-143803367D03*
D30*
X91500000Y-93500000D03*
D13*
X96700000Y-74600000D03*
X99240000Y-74600000D03*
X101780000Y-74600000D03*
X104320000Y-74600000D03*
D30*
X107000000Y-93500000D03*
D18*
X92500000Y-102000000D03*
X92500000Y-107000000D03*
X92500000Y-104500000D03*
D31*
X100000000Y-98900000D03*
X100000000Y-110100000D03*
D18*
X107000000Y-107000000D03*
X107000000Y-102000000D03*
D23*
X117515657Y-134968188D03*
D22*
X117365563Y-131237575D03*
D25*
X116360494Y-127150004D03*
D24*
X111949120Y-132192640D03*
D22*
X106532677Y-133147705D03*
D25*
X106079101Y-128962891D03*
D23*
X107667579Y-136704670D03*
X112973644Y-138003006D03*
D32*
X108303372Y-127353195D03*
X108546480Y-128731926D03*
X113962922Y-127776861D03*
X113719815Y-126398130D03*
D33*
X115731106Y-137516791D03*
X104910118Y-137190884D03*
D24*
X215839120Y-80792640D03*
D22*
X221339120Y-80792640D03*
D25*
X221059120Y-76592640D03*
D23*
X220839120Y-84492640D03*
X210839120Y-84492640D03*
D22*
X210339120Y-80792640D03*
D23*
X215839120Y-86692640D03*
D25*
X210619120Y-76592640D03*
D26*
X213089120Y-75393640D03*
X213089120Y-76793640D03*
X218589120Y-76793640D03*
X218589120Y-75393640D03*
D27*
X218639120Y-86692640D03*
X208039120Y-84492640D03*
D23*
X210839120Y-103542640D03*
D22*
X210339120Y-99842640D03*
D23*
X215839120Y-105742640D03*
X220839120Y-103542640D03*
D25*
X221059120Y-95642640D03*
D24*
X215839120Y-99842640D03*
D22*
X221339120Y-99842640D03*
D25*
X210619120Y-95642640D03*
D26*
X213089120Y-94443640D03*
X213089120Y-95843640D03*
X218589120Y-95843640D03*
X218589120Y-94443640D03*
D27*
X218639120Y-105742640D03*
X208039120Y-103542640D03*
D22*
X210339120Y-118892640D03*
D23*
X210839120Y-122592640D03*
D24*
X215839120Y-118892640D03*
D25*
X221059120Y-114692640D03*
D22*
X221339120Y-118892640D03*
D25*
X210619120Y-114692640D03*
D23*
X220839120Y-122592640D03*
X215839120Y-124792640D03*
D26*
X213089120Y-113493640D03*
X213089120Y-114893640D03*
X218589120Y-114893640D03*
X218589120Y-113493640D03*
D27*
X218639120Y-124792640D03*
X208039120Y-122592640D03*
D25*
X182920000Y-43300000D03*
X172480000Y-43300000D03*
D24*
X177700000Y-47500000D03*
D23*
X182700000Y-51200000D03*
D22*
X172200000Y-47500000D03*
D23*
X172700000Y-51200000D03*
D22*
X183200000Y-47500000D03*
D23*
X177700000Y-53400000D03*
D26*
X174950000Y-42101000D03*
X174950000Y-43501000D03*
X180450000Y-43501000D03*
X180450000Y-42101000D03*
D27*
X180500000Y-53400000D03*
X169900000Y-51200000D03*
D16*
X206164120Y-71357640D03*
D19*
X128705000Y-63555000D03*
X128705000Y-67105000D03*
X131245000Y-63555000D03*
X131245000Y-67105000D03*
X150345000Y-61045000D03*
X150345000Y-64595000D03*
X169345000Y-63455000D03*
X169345000Y-67005000D03*
X188590120Y-77520640D03*
X188590120Y-81070640D03*
X207590120Y-77520640D03*
X207590120Y-81070640D03*
D23*
X191789120Y-65442640D03*
D22*
X191289120Y-61742640D03*
D23*
X201789120Y-65442640D03*
D25*
X202009120Y-57542640D03*
D24*
X196789120Y-61742640D03*
D22*
X202289120Y-61742640D03*
D25*
X191569120Y-57542640D03*
D23*
X196789120Y-67642640D03*
D26*
X194039120Y-56343640D03*
X194039120Y-57743640D03*
X199539120Y-57743640D03*
X199539120Y-56343640D03*
D27*
X199589120Y-67642640D03*
X188989120Y-65442640D03*
D22*
X145100000Y-66550000D03*
D25*
X144820000Y-62350000D03*
X134380000Y-62350000D03*
D24*
X139600000Y-66550000D03*
D22*
X134100000Y-66550000D03*
D23*
X139600000Y-72450000D03*
X144600000Y-70250000D03*
X134600000Y-70250000D03*
D26*
X136850000Y-61151000D03*
X136850000Y-62551000D03*
X142350000Y-62551000D03*
X142350000Y-61151000D03*
D27*
X142400000Y-72450000D03*
X131800000Y-70250000D03*
D24*
X177700000Y-66550000D03*
D25*
X172480000Y-62350000D03*
D23*
X172700000Y-70250000D03*
D22*
X172200000Y-66550000D03*
X183200000Y-66550000D03*
D25*
X182920000Y-62350000D03*
D23*
X182700000Y-70250000D03*
X177700000Y-72450000D03*
D26*
X174950000Y-61151000D03*
X174950000Y-62551000D03*
X180450000Y-62551000D03*
X180450000Y-61151000D03*
D27*
X180500000Y-72450000D03*
X169900000Y-70250000D03*
D23*
X158650000Y-69950000D03*
X163650000Y-67750000D03*
D22*
X153150000Y-64050000D03*
X164150000Y-64050000D03*
D25*
X163870000Y-59850000D03*
X153430000Y-59850000D03*
D23*
X153650000Y-67750000D03*
D24*
X158650000Y-64050000D03*
D26*
X155900000Y-58651000D03*
X155900000Y-60051000D03*
X161400000Y-60051000D03*
X161400000Y-58651000D03*
D27*
X161450000Y-69950000D03*
X150850000Y-67750000D03*
D24*
X177700000Y-85600000D03*
D25*
X172480000Y-81400000D03*
D22*
X183200000Y-85600000D03*
D25*
X182920000Y-81400000D03*
D22*
X172200000Y-85600000D03*
D23*
X177700000Y-91500000D03*
X172700000Y-89300000D03*
X182700000Y-89300000D03*
D26*
X174950000Y-80201000D03*
X174950000Y-81601000D03*
X180450000Y-81601000D03*
X180450000Y-80201000D03*
D27*
X180500000Y-91500000D03*
X169900000Y-89300000D03*
D22*
X221339120Y-61742640D03*
D23*
X215839120Y-67642640D03*
D25*
X210619120Y-57542640D03*
D22*
X210339120Y-61742640D03*
D23*
X220839120Y-65442640D03*
X210839120Y-65442640D03*
D25*
X221059120Y-57542640D03*
D24*
X215839120Y-61742640D03*
D26*
X213089120Y-56343640D03*
X213089120Y-57743640D03*
X218589120Y-57743640D03*
X218589120Y-56343640D03*
D27*
X218639120Y-67642640D03*
X208039120Y-65442640D03*
D24*
X120550000Y-69100000D03*
D25*
X115330000Y-64900000D03*
D23*
X115550000Y-72800000D03*
D25*
X125770000Y-64900000D03*
D22*
X115050000Y-69100000D03*
D23*
X125550000Y-72800000D03*
X120550000Y-75000000D03*
D22*
X126050000Y-69100000D03*
D26*
X117800000Y-63701000D03*
X117800000Y-65101000D03*
X123300000Y-65101000D03*
X123300000Y-63701000D03*
D27*
X123350000Y-75000000D03*
X112750000Y-72800000D03*
D25*
X202009120Y-76592640D03*
X191569120Y-76592640D03*
D24*
X196789120Y-80792640D03*
D23*
X191789120Y-84492640D03*
D22*
X191289120Y-80792640D03*
X202289120Y-80792640D03*
D23*
X196789120Y-86692640D03*
X201789120Y-84492640D03*
D26*
X194039120Y-75393640D03*
X194039120Y-76793640D03*
X199539120Y-76793640D03*
X199539120Y-75393640D03*
D27*
X199589120Y-86692640D03*
X188989120Y-84492640D03*
D22*
X183200000Y-104650000D03*
D23*
X177700000Y-110550000D03*
D25*
X182920000Y-100450000D03*
X172480000Y-100450000D03*
D23*
X182700000Y-108350000D03*
D24*
X177700000Y-104650000D03*
D23*
X172700000Y-108350000D03*
D22*
X172200000Y-104650000D03*
D26*
X174950000Y-99251000D03*
X174950000Y-100651000D03*
X180450000Y-100651000D03*
X180450000Y-99251000D03*
D27*
X180500000Y-110550000D03*
X169900000Y-108350000D03*
D23*
X196789120Y-105742640D03*
X191789120Y-103542640D03*
D22*
X202289120Y-99842640D03*
X191289120Y-99842640D03*
D24*
X196789120Y-99842640D03*
D25*
X191569120Y-95642640D03*
X202009120Y-95642640D03*
D23*
X201789120Y-103542640D03*
D26*
X194039120Y-94443640D03*
X194039120Y-95843640D03*
X199539120Y-95843640D03*
X199539120Y-94443640D03*
D27*
X199589120Y-105742640D03*
X188989120Y-103542640D03*
D24*
X153179120Y-132262640D03*
D23*
X157460661Y-136774670D03*
D25*
X159049139Y-129032891D03*
X148767746Y-127220004D03*
D22*
X158595563Y-133217705D03*
D23*
X147612583Y-135038188D03*
X152154596Y-138073006D03*
D22*
X147762677Y-131307575D03*
D34*
X151408425Y-126468130D03*
X151165318Y-127846861D03*
X156581760Y-128801926D03*
X156824868Y-127423195D03*
D35*
X154912057Y-138559221D03*
X144855121Y-134551973D03*
D23*
X163650000Y-86800000D03*
X158650000Y-89000000D03*
D24*
X158650000Y-83100000D03*
D25*
X153430000Y-78900000D03*
D22*
X153150000Y-83100000D03*
D25*
X163870000Y-78900000D03*
D22*
X164150000Y-83100000D03*
D23*
X153650000Y-86800000D03*
D26*
X155900000Y-77701000D03*
X155900000Y-79101000D03*
X161400000Y-79101000D03*
X161400000Y-77701000D03*
D27*
X161450000Y-89000000D03*
X150850000Y-86800000D03*
D22*
X145100000Y-47500000D03*
X134100000Y-47500000D03*
D23*
X144600000Y-51200000D03*
D25*
X144820000Y-43300000D03*
D24*
X139600000Y-47500000D03*
D25*
X134380000Y-43300000D03*
D23*
X139600000Y-53400000D03*
X134600000Y-51200000D03*
D26*
X136850000Y-42101000D03*
X136850000Y-43501000D03*
X142350000Y-43501000D03*
X142350000Y-42101000D03*
D27*
X142400000Y-53400000D03*
X131800000Y-51200000D03*
D36*
X103399710Y-130525648D03*
X104016162Y-134021716D03*
D22*
X134100000Y-104650000D03*
X145100000Y-104650000D03*
D25*
X134380000Y-100450000D03*
X144820000Y-100450000D03*
D23*
X134600000Y-108350000D03*
X139600000Y-110550000D03*
X144600000Y-108350000D03*
D24*
X139600000Y-104650000D03*
D26*
X136850000Y-99251000D03*
X136850000Y-100651000D03*
X142350000Y-100651000D03*
X142350000Y-99251000D03*
D27*
X142400000Y-110550000D03*
X131800000Y-108350000D03*
D16*
X206094120Y-109277640D03*
D19*
X150345000Y-80145000D03*
X150345000Y-83695000D03*
X169345000Y-82555000D03*
X169345000Y-86105000D03*
X188590120Y-96720640D03*
X188590120Y-100270640D03*
X207590120Y-96720640D03*
X207590120Y-100270640D03*
X124190120Y-127410640D03*
X124190120Y-130960640D03*
D37*
X145470743Y-127906844D03*
X144854291Y-131402912D03*
D19*
X207640120Y-115720640D03*
X207640120Y-119270640D03*
X131245000Y-101655000D03*
X131245000Y-105205000D03*
X150345000Y-99145000D03*
X150345000Y-102695000D03*
X169345000Y-101655000D03*
X169345000Y-105205000D03*
X188590120Y-115720640D03*
X188590120Y-119270640D03*
X131245000Y-82555000D03*
X131245000Y-86105000D03*
D24*
X132599120Y-130452640D03*
D23*
X127599120Y-134152640D03*
D25*
X127379120Y-126252640D03*
X137819120Y-126252640D03*
D22*
X127099120Y-130452640D03*
D23*
X137599120Y-134152640D03*
D22*
X138099120Y-130452640D03*
D23*
X132599120Y-136352640D03*
D26*
X129849120Y-125053640D03*
X129849120Y-126453640D03*
X135349120Y-126453640D03*
X135349120Y-125053640D03*
D27*
X135399120Y-136352640D03*
X124799120Y-134152640D03*
D16*
X130527120Y-57573640D03*
X130375120Y-95852640D03*
D38*
X126969120Y-118842640D03*
D39*
X132649120Y-114592640D03*
D40*
X135189120Y-114592640D03*
X137729120Y-114592640D03*
X140269120Y-114592640D03*
D30*
X161689120Y-122812640D03*
D41*
X140879120Y-121562640D03*
D42*
X151059120Y-118788640D03*
X154869120Y-118788640D03*
X149789120Y-118788640D03*
X153599120Y-118788640D03*
X152329120Y-118788640D03*
D38*
X128169120Y-118848640D03*
D42*
X132189120Y-118838640D03*
X129649120Y-118838640D03*
X130919120Y-118838640D03*
D43*
X99829120Y-114892640D03*
D44*
X94729120Y-114892640D03*
X97329120Y-114892640D03*
D43*
X99929120Y-121452640D03*
D44*
X94829120Y-121452640D03*
X97429120Y-121452640D03*
D41*
X142889120Y-114572640D03*
D42*
X104369120Y-118798640D03*
X101829120Y-118798640D03*
X106909120Y-118798640D03*
X105639120Y-118798640D03*
X103099120Y-118798640D03*
D39*
X130639120Y-121582640D03*
D40*
X133179120Y-121582640D03*
X135719120Y-121582640D03*
X138259120Y-121582640D03*
D38*
X110139120Y-118852640D03*
D30*
X89949120Y-123382640D03*
D38*
X108609120Y-118822640D03*
D45*
X101700000Y-69800380D03*
X101700000Y-68799620D03*
X99200000Y-69800380D03*
X99200000Y-68799620D03*
X96700000Y-69800380D03*
X96700000Y-68799620D03*
X104300000Y-69800380D03*
X104300000Y-68799620D03*
M02*
