%FSLAX45Y45*%
G04 Gerber Fmt 4.5, Leading zero omitted, Abs format (unit mm)*
G04 Created by KiCad (PCBNEW (6.0.0)) date 2023-02-15 17:26:18*
%MOMM*%
%LPD*%
G01*
G04 APERTURE LIST*
%ADD10C,0.090000*%
%ADD11C,0.200000*%
%ADD12C,0.030000*%
%ADD13C,0.081280*%
%ADD14C,0.100000*%
%ADD15C,0.109220*%
%ADD16C,0.130000*%
%ADD17C,0.150000*%
%ADD18C,0.220000*%
%ADD19C,0.410000*%
G04 APERTURE END LIST*
D10*
X16221835Y-14280678D02*
X16601778Y-12049359D01*
X14787795Y-11942224D02*
X13468405Y-11942224D01*
X17139058Y-3452870D02*
X17112246Y-3447931D01*
X7863472Y-13287610D02*
X8477306Y-14973887D01*
X17112246Y-3447931D02*
X17078028Y-3441581D01*
X10134655Y-11883553D02*
X10134004Y-11895853D01*
X10132092Y-11906387D01*
X10128981Y-11915287D01*
X10122203Y-11925870D01*
X10113075Y-11933534D01*
X10101809Y-11938734D01*
X10088612Y-11941922D01*
X10078845Y-11943153D01*
X10068376Y-11943827D01*
X10057265Y-11944077D01*
X10045576Y-11944037D01*
X10033370Y-11943842D01*
X10020710Y-11943627D01*
X10007656Y-11943525D01*
X8678388Y-15069138D02*
X8726590Y-15064874D01*
X8811885Y-15057416D01*
X8931741Y-15046981D01*
X9083625Y-15033788D01*
X9265004Y-15018056D01*
X9473344Y-15000002D01*
X9706114Y-14979846D01*
X9960779Y-14957805D01*
X10234808Y-14934098D01*
X10525667Y-14908943D01*
X10830823Y-14882559D01*
X11147743Y-14855165D01*
X11473894Y-14826977D01*
X11806745Y-14798216D01*
X12143760Y-14769099D01*
X12482408Y-14739845D01*
X12820156Y-14710671D01*
X13154471Y-14681797D01*
X13482819Y-14653441D01*
X13802668Y-14625821D01*
X14111486Y-14599156D01*
X14406738Y-14573664D01*
X14685892Y-14549563D01*
X14946416Y-14527071D01*
X15185775Y-14506408D01*
X15401438Y-14487792D01*
X15590872Y-14471440D01*
X15751543Y-14457572D01*
X15880918Y-14446405D01*
X15976465Y-14438159D01*
X16035651Y-14433051D01*
X16055942Y-14431299D01*
X17078028Y-3441581D02*
X17064314Y-3440339D01*
X17039551Y-3439256D01*
X17004491Y-3438322D01*
X16959888Y-3437530D01*
X16906495Y-3436872D01*
X16845065Y-3436341D01*
X16776351Y-3435929D01*
X16701106Y-3435628D01*
X16620084Y-3435431D01*
X16534038Y-3435329D01*
X16443721Y-3435314D01*
X16349885Y-3435380D01*
X16253286Y-3435519D01*
X16154674Y-3435721D01*
X16054804Y-3435981D01*
X15954430Y-3436290D01*
X15854303Y-3436640D01*
X15755177Y-3437023D01*
X15657806Y-3437433D01*
X15562943Y-3437861D01*
X15471340Y-3438298D01*
X15383751Y-3438739D01*
X15300930Y-3439174D01*
X15223628Y-3439597D01*
X15152601Y-3439998D01*
X15088600Y-3440372D01*
X15032378Y-3440709D01*
X14984690Y-3441002D01*
X14946288Y-3441244D01*
X14917926Y-3441426D01*
X14900356Y-3441541D01*
X14894332Y-3441581D01*
X22613110Y-13853422D02*
X22630203Y-13848676D01*
X22646200Y-13843253D01*
X22661139Y-13837204D01*
X22675054Y-13830586D01*
X22687983Y-13823452D01*
X22699961Y-13815857D01*
X22711025Y-13807856D01*
X22721211Y-13799502D01*
X22730556Y-13790849D01*
X22739095Y-13781954D01*
X22746864Y-13772869D01*
X22753901Y-13763649D01*
X22760241Y-13754349D01*
X22765921Y-13745023D01*
X22770976Y-13735725D01*
X22775444Y-13726509D01*
X22779360Y-13717431D01*
X22782761Y-13708545D01*
X22785682Y-13699904D01*
X22790232Y-13683578D01*
X22793301Y-13668888D01*
X22795179Y-13656270D01*
X22796155Y-13646158D01*
X22796563Y-13636641D01*
X22796555Y-13634699D01*
X11200749Y-11942224D02*
X11187695Y-11942325D01*
X11175035Y-11942541D01*
X11162829Y-11942735D01*
X11151139Y-11942775D01*
X11140029Y-11942525D01*
X11129559Y-11941851D01*
X11119793Y-11940620D01*
X11110791Y-11938696D01*
X11098857Y-11934217D01*
X11088994Y-11927425D01*
X11081409Y-11917865D01*
X11076313Y-11905085D01*
X11074401Y-11894552D01*
X11073750Y-11882251D01*
X12520138Y-11942224D02*
X11200749Y-11942224D01*
X22796555Y-4581053D02*
X22795643Y-4567854D01*
X22793068Y-4555993D01*
X22789067Y-4545404D01*
X22783877Y-4536019D01*
X22777736Y-4527770D01*
X22770882Y-4520592D01*
X22763552Y-4514416D01*
X22755985Y-4509175D01*
X22744709Y-4502920D01*
X22734235Y-4498392D01*
X22725365Y-4495364D01*
X22716327Y-4493035D01*
X22715416Y-4492858D01*
X10007656Y-11943525D02*
X8858306Y-11943525D01*
X22796555Y-13634699D02*
X22796555Y-13608937D01*
X22796555Y-13533836D01*
X22796555Y-13412670D01*
X22796555Y-13248714D01*
X22796555Y-13045242D01*
X22796555Y-12805530D01*
X22796555Y-12532853D01*
X22796555Y-12230485D01*
X22796555Y-11901701D01*
X22796555Y-11549776D01*
X22796555Y-11177985D01*
X22796555Y-10789603D01*
X22796555Y-10387904D01*
X22796555Y-9976164D01*
X22796555Y-9557657D01*
X22796555Y-9135658D01*
X22796555Y-8713442D01*
X22796555Y-8294283D01*
X22796555Y-7881458D01*
X22796555Y-7478240D01*
X22796555Y-7087904D01*
X22796555Y-6713725D01*
X22796555Y-6358979D01*
X22796555Y-6026939D01*
X22796555Y-5720882D01*
X22796555Y-5444080D01*
X22796555Y-5199811D01*
X22796555Y-4991347D01*
X22796555Y-4821965D01*
X22796555Y-4694938D01*
X22796555Y-4613543D01*
X22796555Y-4581053D01*
X16601778Y-12049359D02*
X16601207Y-12037626D01*
X16599531Y-12026277D01*
X16596801Y-12015361D01*
X16593068Y-12004931D01*
X16588385Y-11995038D01*
X16582802Y-11985735D01*
X16576371Y-11977072D01*
X16569145Y-11969102D01*
X16561175Y-11961876D01*
X16552512Y-11955445D01*
X16543209Y-11949862D01*
X16533316Y-11945179D01*
X16522886Y-11941446D01*
X16511970Y-11938716D01*
X16500621Y-11937040D01*
X16488888Y-11936469D01*
X16220778Y-14285971D02*
X16221835Y-14280678D01*
X14787795Y-11825807D02*
X14800848Y-11825666D01*
X14813509Y-11825339D01*
X14825715Y-11824970D01*
X14837404Y-11824705D01*
X14848515Y-11824688D01*
X14858984Y-11825063D01*
X14868751Y-11825976D01*
X14877753Y-11827571D01*
X14889686Y-11831559D01*
X14899550Y-11837896D01*
X14907134Y-11847069D01*
X14912231Y-11859568D01*
X14914143Y-11869990D01*
X14914794Y-11882251D01*
X8477306Y-14973887D02*
X8482166Y-14984042D01*
X8488814Y-14994968D01*
X8495069Y-15003618D01*
X8502913Y-15012955D01*
X8512460Y-15022628D01*
X8523824Y-15032290D01*
X8537117Y-15041590D01*
X8552454Y-15050180D01*
X8560924Y-15054100D01*
X8569947Y-15057711D01*
X8579537Y-15060971D01*
X8589709Y-15063834D01*
X8600477Y-15066259D01*
X8611855Y-15068200D01*
X8623856Y-15069615D01*
X8636496Y-15070460D01*
X8649789Y-15070691D01*
X8663748Y-15070265D01*
X8678388Y-15069138D01*
X18344519Y-14062443D02*
X18353691Y-14076266D01*
X18363063Y-14089181D01*
X18372602Y-14101220D01*
X18382276Y-14112412D01*
X18392053Y-14122789D01*
X18401900Y-14132382D01*
X18411786Y-14141220D01*
X18421679Y-14149335D01*
X18431545Y-14156758D01*
X18441354Y-14163519D01*
X18451072Y-14169649D01*
X18460668Y-14175179D01*
X18470109Y-14180139D01*
X18479364Y-14184561D01*
X18488400Y-14188474D01*
X18497185Y-14191911D01*
X18505686Y-14194901D01*
X18521711Y-14199664D01*
X18536217Y-14203011D01*
X18548948Y-14205186D01*
X18559644Y-14206437D01*
X18571313Y-14207116D01*
X18577353Y-14207081D01*
X22715416Y-4492858D02*
X17139058Y-3452870D01*
X8752472Y-12007025D02*
X8742725Y-12019981D01*
X8731017Y-12035544D01*
X8715176Y-12056600D01*
X8695518Y-12082728D01*
X8672361Y-12113507D01*
X8646022Y-12148514D01*
X8616818Y-12187328D01*
X8585066Y-12229526D01*
X8551085Y-12274687D01*
X8515189Y-12322390D01*
X8477698Y-12372212D01*
X8438928Y-12423732D01*
X8399195Y-12476527D01*
X8358818Y-12530176D01*
X8318114Y-12584258D01*
X8277399Y-12638350D01*
X8236991Y-12692030D01*
X8197207Y-12744877D01*
X8158365Y-12796469D01*
X8120780Y-12846384D01*
X8084771Y-12894201D01*
X8050655Y-12939497D01*
X8018749Y-12981850D01*
X7989369Y-13020839D01*
X7962834Y-13056043D01*
X7939460Y-13087039D01*
X7919564Y-13113405D01*
X7903465Y-13134720D01*
X7891478Y-13150561D01*
X7883920Y-13160508D01*
X7881111Y-13164138D01*
X14894332Y-3441581D02*
X11206664Y-3655364D01*
X17628360Y-11823582D02*
X17638758Y-11823855D01*
X17648786Y-11824652D01*
X17658448Y-11825937D01*
X17667745Y-11827675D01*
X17676680Y-11829832D01*
X17693476Y-11835262D01*
X17708856Y-11841947D01*
X17722840Y-11849609D01*
X17735450Y-11857969D01*
X17746706Y-11866747D01*
X17756629Y-11875665D01*
X17765240Y-11884444D01*
X17772558Y-11892803D01*
X17778605Y-11900466D01*
X17785337Y-11910040D01*
X17790057Y-11917761D01*
X17790639Y-11918831D01*
X18577353Y-14207081D02*
X18588388Y-14206201D01*
X18620579Y-14203630D01*
X18672551Y-14199473D01*
X18742931Y-14193831D01*
X18830348Y-14186809D01*
X18933428Y-14178511D01*
X19050797Y-14169039D01*
X19181083Y-14158497D01*
X19322913Y-14146988D01*
X19474914Y-14134616D01*
X19635712Y-14121485D01*
X19803935Y-14107697D01*
X19978210Y-14093356D01*
X20157163Y-14078567D01*
X20339422Y-14063431D01*
X20523613Y-14048052D01*
X20708364Y-14032535D01*
X20892301Y-14016982D01*
X21074052Y-14001496D01*
X21252243Y-13986182D01*
X21425502Y-13971143D01*
X21592455Y-13956482D01*
X21751729Y-13942302D01*
X21901952Y-13928707D01*
X22041750Y-13915801D01*
X22169750Y-13903686D01*
X22284580Y-13892467D01*
X22384865Y-13882247D01*
X22469234Y-13873129D01*
X22536313Y-13865216D01*
X22584729Y-13858613D01*
X22613110Y-13853422D01*
X10840498Y-3677048D02*
X8917859Y-3684103D01*
X16488888Y-11936469D02*
X15683143Y-11936469D01*
X8791277Y-9280406D02*
X8791277Y-11714220D01*
X11206664Y-3655364D02*
X11195070Y-3656333D01*
X11181522Y-3657442D01*
X11163645Y-3658878D01*
X11153280Y-3659698D01*
X11142068Y-3660574D01*
X11130089Y-3661498D01*
X11117421Y-3662461D01*
X11104143Y-3663456D01*
X11090333Y-3664473D01*
X11076070Y-3665504D01*
X11061432Y-3666542D01*
X11046499Y-3667576D01*
X11031349Y-3668600D01*
X11016060Y-3669604D01*
X11000712Y-3670580D01*
X10985383Y-3671520D01*
X10970151Y-3672415D01*
X10955095Y-3673257D01*
X10940294Y-3674037D01*
X10925826Y-3674748D01*
X10911771Y-3675379D01*
X10898206Y-3675924D01*
X10885211Y-3676373D01*
X10872864Y-3676719D01*
X10861244Y-3676952D01*
X10850429Y-3677065D01*
X10840498Y-3677048D01*
X11073750Y-11882251D02*
X11074401Y-11869990D01*
X11076313Y-11859568D01*
X11079423Y-11850842D01*
X11086202Y-11840614D01*
X11095329Y-11833386D01*
X11106596Y-11828669D01*
X11119793Y-11825976D01*
X11129559Y-11825063D01*
X11140029Y-11824688D01*
X11151139Y-11824705D01*
X11162829Y-11824970D01*
X11175035Y-11825339D01*
X11187695Y-11825666D01*
X11200749Y-11825807D01*
X12647138Y-11882251D02*
X12646486Y-11894552D01*
X12644574Y-11905085D01*
X12641464Y-11913985D01*
X12634685Y-11924568D01*
X12625558Y-11932233D01*
X12614291Y-11937432D01*
X12601094Y-11940620D01*
X12591328Y-11941851D01*
X12580858Y-11942525D01*
X12569748Y-11942775D01*
X12558058Y-11942735D01*
X12545852Y-11942541D01*
X12533192Y-11942325D01*
X12520138Y-11942224D01*
X15683143Y-11820053D02*
X17628360Y-11823582D01*
X10007656Y-11827109D02*
X10020710Y-11826968D01*
X10033370Y-11826641D01*
X10045576Y-11826272D01*
X10057265Y-11826007D01*
X10068376Y-11825989D01*
X10078845Y-11826365D01*
X10088612Y-11827278D01*
X10097614Y-11828873D01*
X10109547Y-11832861D01*
X10119411Y-11839197D01*
X10126996Y-11848371D01*
X10132092Y-11860870D01*
X10134004Y-11871292D01*
X10134655Y-11883553D01*
X7856416Y-13245276D02*
X7856885Y-13254536D01*
X7858146Y-13263796D01*
X7859977Y-13273057D01*
X7862156Y-13282318D01*
X7863472Y-13287610D01*
X13468405Y-11942224D02*
X13455352Y-11942325D01*
X13442691Y-11942541D01*
X13430485Y-11942735D01*
X13418796Y-11942775D01*
X13407686Y-11942525D01*
X13397216Y-11941851D01*
X13387449Y-11940620D01*
X13378447Y-11938696D01*
X13366514Y-11934217D01*
X13356650Y-11927425D01*
X13349066Y-11917865D01*
X13343969Y-11905085D01*
X13342057Y-11894552D01*
X13341406Y-11882251D01*
X8759528Y-11996442D02*
X8753579Y-12003388D01*
X8752472Y-12007025D01*
X8905653Y-3684192D02*
X8893921Y-3684762D01*
X8882571Y-3686438D01*
X8871656Y-3689169D01*
X8861225Y-3692901D01*
X8851333Y-3697585D01*
X8842029Y-3703168D01*
X8833367Y-3709598D01*
X8825396Y-3716824D01*
X8818170Y-3724795D01*
X8811740Y-3733457D01*
X8806157Y-3742761D01*
X8801473Y-3752654D01*
X8797741Y-3763084D01*
X8795010Y-3773999D01*
X8793334Y-3785349D01*
X8792764Y-3797081D01*
X8917859Y-3684103D02*
X8905653Y-3684192D01*
X17790639Y-11918831D02*
X18344519Y-14062443D01*
X14914794Y-11882251D02*
X14914143Y-11894552D01*
X14912231Y-11905085D01*
X14909120Y-11913985D01*
X14902341Y-11924568D01*
X14893214Y-11932233D01*
X14881948Y-11937432D01*
X14868751Y-11940620D01*
X14858984Y-11941851D01*
X14848515Y-11942525D01*
X14837404Y-11942775D01*
X14825715Y-11942735D01*
X14813509Y-11942541D01*
X14800848Y-11942325D01*
X14787795Y-11942224D01*
X8858306Y-11943525D02*
X8847490Y-11944974D01*
X8836895Y-11947301D01*
X8826557Y-11950453D01*
X8816509Y-11954378D01*
X8806786Y-11959024D01*
X8797425Y-11964339D01*
X8788458Y-11970269D01*
X8779922Y-11976764D01*
X8771851Y-11983770D01*
X8764280Y-11991236D01*
X8759528Y-11996442D01*
X13341406Y-11882251D02*
X13342057Y-11869990D01*
X13343969Y-11859568D01*
X13347080Y-11850842D01*
X13353859Y-11840614D01*
X13362986Y-11833386D01*
X13374252Y-11828669D01*
X13387449Y-11825976D01*
X13397216Y-11825063D01*
X13407686Y-11824688D01*
X13418796Y-11824705D01*
X13430485Y-11824970D01*
X13442691Y-11825339D01*
X13455352Y-11825666D01*
X13468405Y-11825807D01*
X15683143Y-11936469D02*
X15670089Y-11936571D01*
X15657429Y-11936786D01*
X15645223Y-11936981D01*
X15633534Y-11937021D01*
X15622423Y-11936771D01*
X15611954Y-11936098D01*
X15602187Y-11934866D01*
X15593185Y-11932942D01*
X15581252Y-11928464D01*
X15571388Y-11921672D01*
X15563803Y-11912113D01*
X15558707Y-11899333D01*
X15556795Y-11888800D01*
X15556144Y-11876499D01*
X8792764Y-3797081D02*
X8791277Y-9280406D01*
X12520138Y-11825807D02*
X12533192Y-11825666D01*
X12545852Y-11825339D01*
X12558058Y-11824970D01*
X12569748Y-11824705D01*
X12580858Y-11824688D01*
X12591328Y-11825063D01*
X12601094Y-11825976D01*
X12610096Y-11827571D01*
X12622030Y-11831559D01*
X12631893Y-11837896D01*
X12639478Y-11847069D01*
X12644574Y-11859568D01*
X12646486Y-11869990D01*
X12647138Y-11882251D01*
X8904166Y-11827109D02*
X10007656Y-11827109D01*
X8791277Y-11714220D02*
X8791847Y-11725952D01*
X8793523Y-11737302D01*
X8796253Y-11748218D01*
X8799986Y-11758648D01*
X8804670Y-11768540D01*
X8810253Y-11777844D01*
X8816683Y-11786507D01*
X8823909Y-11794477D01*
X8831879Y-11801703D01*
X8840542Y-11808133D01*
X8849846Y-11813716D01*
X8859738Y-11818400D01*
X8870168Y-11822133D01*
X8881084Y-11824863D01*
X8892434Y-11826539D01*
X8904166Y-11827109D01*
X13468405Y-11825807D02*
X14787795Y-11825807D01*
X15556144Y-11876499D02*
X15556795Y-11864238D01*
X15558707Y-11853816D01*
X15561818Y-11845090D01*
X15568596Y-11834862D01*
X15577724Y-11827633D01*
X15588990Y-11822916D01*
X15602187Y-11820222D01*
X15611954Y-11819309D01*
X15622423Y-11818934D01*
X15633534Y-11818951D01*
X15645223Y-11819216D01*
X15657429Y-11819585D01*
X15670089Y-11819912D01*
X15683143Y-11820053D01*
X7881111Y-13164138D02*
X7874985Y-13173556D01*
X7869811Y-13183264D01*
X7865545Y-13193220D01*
X7862149Y-13203384D01*
X7859578Y-13213712D01*
X7857794Y-13224165D01*
X7856753Y-13234700D01*
X7856416Y-13245276D01*
X11200749Y-11825807D02*
X12520138Y-11825807D01*
X16055942Y-14431299D02*
X16068433Y-14429677D01*
X16082309Y-14426745D01*
X16093598Y-14423594D01*
X16106118Y-14419278D01*
X16119525Y-14413618D01*
X16133475Y-14406435D01*
X16147627Y-14397551D01*
X16161635Y-14386786D01*
X16168478Y-14380642D01*
X16175156Y-14373961D01*
X16181628Y-14366721D01*
X16187848Y-14358898D01*
X16193776Y-14350472D01*
X16199367Y-14341419D01*
X16204579Y-14331716D01*
X16209369Y-14321343D01*
X16213695Y-14310276D01*
X16217512Y-14298492D01*
X16220778Y-14285971D01*
D11*
D12*
X8348912Y-13545264D02*
X8378912Y-13575264D01*
X8378912Y-13545264D02*
X8348912Y-13575264D01*
X8382589Y-14222021D02*
X8412589Y-14252021D01*
X8412589Y-14222021D02*
X8382589Y-14252021D01*
X8430912Y-13458264D02*
X8460912Y-13488264D01*
X8460912Y-13458264D02*
X8430912Y-13488264D01*
X8508008Y-14566606D02*
X8538008Y-14596606D01*
X8538008Y-14566606D02*
X8508008Y-14596606D01*
X8516997Y-13400703D02*
X8546997Y-13430703D01*
X8546997Y-13400703D02*
X8516997Y-13430703D01*
X8576967Y-14146165D02*
X8606967Y-14176165D01*
X8606967Y-14146165D02*
X8576967Y-14176165D01*
X8607720Y-13371287D02*
X8637720Y-13401287D01*
X8637720Y-13371287D02*
X8607720Y-13401287D01*
X9128293Y-14175042D02*
X9158293Y-14205042D01*
X9158293Y-14175042D02*
X9128293Y-14205042D01*
X9278912Y-14053264D02*
X9308912Y-14083264D01*
X9308912Y-14053264D02*
X9278912Y-14083264D01*
X9373314Y-13523298D02*
X9403314Y-13553298D01*
X9403314Y-13523298D02*
X9373314Y-13553298D01*
X9429912Y-13067264D02*
X9459912Y-13097264D01*
X9459912Y-13067264D02*
X9429912Y-13097264D01*
X9432912Y-12712264D02*
X9462912Y-12742264D01*
X9462912Y-12712264D02*
X9432912Y-12742264D01*
X9465000Y-7045000D02*
X9495000Y-7075000D01*
X9495000Y-7045000D02*
X9465000Y-7075000D01*
X9495000Y-4405000D02*
X9525000Y-4435000D01*
X9525000Y-4405000D02*
X9495000Y-4435000D01*
X9590000Y-6765585D02*
X9620000Y-6795585D01*
X9620000Y-6765585D02*
X9590000Y-6795585D01*
X9595000Y-5124000D02*
X9625000Y-5154000D01*
X9625000Y-5124000D02*
X9595000Y-5154000D01*
X9655000Y-6765000D02*
X9685000Y-6795000D01*
X9685000Y-6765000D02*
X9655000Y-6795000D01*
X9668912Y-7648264D02*
X9698912Y-7678264D01*
X9698912Y-7648264D02*
X9668912Y-7678264D01*
X9675000Y-4481575D02*
X9705000Y-4511575D01*
X9705000Y-4481575D02*
X9675000Y-4511575D01*
X9675000Y-4865000D02*
X9705000Y-4895000D01*
X9705000Y-4865000D02*
X9675000Y-4895000D01*
X9836426Y-5243575D02*
X9866426Y-5273575D01*
X9866426Y-5243575D02*
X9836426Y-5273575D01*
X9866912Y-12873264D02*
X9896912Y-12903264D01*
X9896912Y-12873264D02*
X9866912Y-12903264D01*
X10025000Y-4989575D02*
X10055000Y-5019575D01*
X10055000Y-4989575D02*
X10025000Y-5019575D01*
X10025001Y-6865000D02*
X10055001Y-6895000D01*
X10055001Y-6865000D02*
X10025001Y-6895000D01*
X10090001Y-5378000D02*
X10120001Y-5408000D01*
X10120001Y-5378000D02*
X10090001Y-5408000D01*
X10119912Y-13284264D02*
X10149912Y-13314264D01*
X10149912Y-13284264D02*
X10119912Y-13314264D01*
X10143812Y-5497575D02*
X10173812Y-5527575D01*
X10173812Y-5497575D02*
X10143812Y-5527575D01*
X10196735Y-5755064D02*
X10226735Y-5785064D01*
X10226735Y-5755064D02*
X10196735Y-5785064D01*
X10249235Y-6009064D02*
X10279235Y-6039064D01*
X10279235Y-6009064D02*
X10249235Y-6039064D01*
X10249912Y-12653264D02*
X10279912Y-12683264D01*
X10279912Y-12653264D02*
X10249912Y-12683264D01*
X10267602Y-6862050D02*
X10297602Y-6892050D01*
X10297602Y-6862050D02*
X10267602Y-6892050D01*
X10267912Y-12556264D02*
X10297912Y-12586264D01*
X10297912Y-12556264D02*
X10267912Y-12586264D01*
X10295000Y-6775000D02*
X10325000Y-6805000D01*
X10325000Y-6775000D02*
X10295000Y-6805000D01*
X10301735Y-6263064D02*
X10331735Y-6293064D01*
X10331735Y-6263064D02*
X10301735Y-6293064D01*
X10307336Y-13556418D02*
X10337336Y-13586418D01*
X10337336Y-13556418D02*
X10307336Y-13586418D01*
X10315912Y-12907264D02*
X10345912Y-12937264D01*
X10345912Y-12907264D02*
X10315912Y-12937264D01*
X10332912Y-12699264D02*
X10362912Y-12729264D01*
X10362912Y-12699264D02*
X10332912Y-12729264D01*
X10354235Y-6413764D02*
X10384235Y-6443764D01*
X10384235Y-6413764D02*
X10354235Y-6443764D01*
X10371230Y-13918966D02*
X10401230Y-13948966D01*
X10401230Y-13918966D02*
X10371230Y-13948966D01*
X10406735Y-6522367D02*
X10436735Y-6552367D01*
X10436735Y-6522367D02*
X10406735Y-6552367D01*
X10421421Y-12899397D02*
X10451421Y-12929397D01*
X10451421Y-12899397D02*
X10421421Y-12929397D01*
X10430656Y-13114382D02*
X10460656Y-13144382D01*
X10460656Y-13114382D02*
X10430656Y-13144382D01*
X10459235Y-6707915D02*
X10489235Y-6737915D01*
X10489235Y-6707915D02*
X10459235Y-6737915D01*
X10517783Y-6692217D02*
X10547783Y-6722217D01*
X10547783Y-6692217D02*
X10517783Y-6722217D01*
X10537771Y-13506910D02*
X10567771Y-13536910D01*
X10567771Y-13506910D02*
X10537771Y-13536910D01*
X10545000Y-5125000D02*
X10575000Y-5155000D01*
X10575000Y-5125000D02*
X10545000Y-5155000D01*
X10545000Y-6505000D02*
X10575000Y-6535000D01*
X10575000Y-6505000D02*
X10545000Y-6535000D01*
X10554999Y-5655000D02*
X10584999Y-5685000D01*
X10584999Y-5655000D02*
X10554999Y-5685000D01*
X10555000Y-4385000D02*
X10585000Y-4415000D01*
X10585000Y-4385000D02*
X10555000Y-4415000D01*
X10555000Y-5885000D02*
X10585000Y-5915000D01*
X10585000Y-5885000D02*
X10555000Y-5915000D01*
X10555000Y-6175000D02*
X10585000Y-6205000D01*
X10585000Y-6175000D02*
X10555000Y-6205000D01*
X10555001Y-4145000D02*
X10585001Y-4175000D01*
X10585001Y-4145000D02*
X10555001Y-4175000D01*
X10555002Y-5405000D02*
X10585002Y-5435000D01*
X10585002Y-5405000D02*
X10555002Y-5435000D01*
X10558276Y-6380733D02*
X10588276Y-6410733D01*
X10588276Y-6380733D02*
X10558276Y-6410733D01*
X10584686Y-12750988D02*
X10614686Y-12780988D01*
X10614686Y-12750988D02*
X10584686Y-12780988D01*
X10599312Y-9780964D02*
X10629312Y-9810964D01*
X10629312Y-9780964D02*
X10599312Y-9810964D01*
X10648912Y-12074264D02*
X10678912Y-12104264D01*
X10678912Y-12074264D02*
X10648912Y-12104264D01*
X10669409Y-12594193D02*
X10699409Y-12624193D01*
X10699409Y-12594193D02*
X10669409Y-12624193D01*
X10679139Y-12737773D02*
X10709139Y-12767773D01*
X10709139Y-12737773D02*
X10679139Y-12767773D01*
X10723912Y-11693714D02*
X10753912Y-11723714D01*
X10753912Y-11693714D02*
X10723912Y-11723714D01*
X10762500Y-9762500D02*
X10792500Y-9792500D01*
X10792500Y-9762500D02*
X10762500Y-9792500D01*
X10770912Y-12400264D02*
X10800912Y-12430264D01*
X10800912Y-12400264D02*
X10770912Y-12430264D01*
X10772912Y-12074264D02*
X10802912Y-12104264D01*
X10802912Y-12074264D02*
X10772912Y-12104264D01*
X10872912Y-13272264D02*
X10902912Y-13302264D01*
X10902912Y-13272264D02*
X10872912Y-13302264D01*
X10967612Y-9882564D02*
X10997612Y-9912564D01*
X10997612Y-9882564D02*
X10967612Y-9912564D01*
X10967612Y-11410564D02*
X10997612Y-11440564D01*
X10997612Y-11410564D02*
X10967612Y-11440564D01*
X10997912Y-12074264D02*
X11027912Y-12104264D01*
X11027912Y-12074264D02*
X10997912Y-12104264D01*
X11034775Y-6664425D02*
X11064775Y-6694425D01*
X11064775Y-6664425D02*
X11034775Y-6694425D01*
X11034775Y-7645574D02*
X11064775Y-7675574D01*
X11064775Y-7645574D02*
X11034775Y-7675574D01*
X11034775Y-8364574D02*
X11064775Y-8394575D01*
X11064775Y-8364574D02*
X11034775Y-8394575D01*
X11034775Y-10244175D02*
X11064775Y-10274175D01*
X11064775Y-10244175D02*
X11034775Y-10274175D01*
X11045200Y-4800024D02*
X11075200Y-4830024D01*
X11075200Y-4800024D02*
X11045200Y-4830024D01*
X11075707Y-13631085D02*
X11105707Y-13661085D01*
X11105707Y-13631085D02*
X11075707Y-13661085D01*
X11110200Y-6472300D02*
X11140200Y-6502300D01*
X11140200Y-6472300D02*
X11110200Y-6502300D01*
X11110200Y-8325700D02*
X11140200Y-8355700D01*
X11140200Y-8325700D02*
X11110200Y-8355700D01*
X11110200Y-10218000D02*
X11140200Y-10248000D01*
X11140200Y-10218000D02*
X11110200Y-10248000D01*
X11110200Y-10957976D02*
X11140200Y-10987976D01*
X11140200Y-10957976D02*
X11110200Y-10987976D01*
X11141000Y-4544500D02*
X11171000Y-4574500D01*
X11171000Y-4544500D02*
X11141000Y-4574500D01*
X11167764Y-8935144D02*
X11197764Y-8965144D01*
X11197764Y-8935144D02*
X11167764Y-8965144D01*
X11175200Y-7502584D02*
X11205200Y-7532584D01*
X11205200Y-7502584D02*
X11175200Y-7532584D01*
X11175200Y-8834814D02*
X11205200Y-8864814D01*
X11205200Y-8834814D02*
X11175200Y-8864814D01*
X11175912Y-11628714D02*
X11205912Y-11658714D01*
X11205912Y-11628714D02*
X11175912Y-11658714D01*
X11177162Y-5145464D02*
X11207162Y-5175464D01*
X11207162Y-5145464D02*
X11177162Y-5175464D01*
X11177162Y-7050464D02*
X11207162Y-7080464D01*
X11207162Y-7050464D02*
X11177162Y-7080464D01*
X11177162Y-10885864D02*
X11207162Y-10915864D01*
X11207162Y-10885864D02*
X11177162Y-10915864D01*
X11240434Y-12427554D02*
X11270434Y-12457554D01*
X11270434Y-12427554D02*
X11240434Y-12457554D01*
X11285112Y-8961814D02*
X11315112Y-8991814D01*
X11315112Y-8961814D02*
X11285112Y-8991814D01*
X11412112Y-7545764D02*
X11442112Y-7575764D01*
X11442112Y-7545764D02*
X11412112Y-7575764D01*
X11466912Y-9813264D02*
X11496912Y-9843264D01*
X11496912Y-9813264D02*
X11466912Y-9843264D01*
X11485435Y-12603163D02*
X11515435Y-12633163D01*
X11515435Y-12603163D02*
X11485435Y-12633163D01*
X11498912Y-13154264D02*
X11528912Y-13184264D01*
X11528912Y-13154264D02*
X11498912Y-13184264D01*
X11507362Y-5748714D02*
X11537362Y-5778714D01*
X11537362Y-5748714D02*
X11507362Y-5778714D01*
X11513712Y-11362114D02*
X11543712Y-11392114D01*
X11543712Y-11362114D02*
X11513712Y-11392114D01*
X11532000Y-4430200D02*
X11562000Y-4460200D01*
X11562000Y-4430200D02*
X11532000Y-4460200D01*
X11532000Y-6333850D02*
X11562000Y-6363850D01*
X11562000Y-6333850D02*
X11532000Y-6363850D01*
X11532000Y-8240200D02*
X11562000Y-8270200D01*
X11562000Y-8240200D02*
X11532000Y-8270200D01*
X11532000Y-10145200D02*
X11562000Y-10175200D01*
X11562000Y-10145200D02*
X11532000Y-10175200D01*
X11570935Y-12582061D02*
X11600935Y-12612061D01*
X11600935Y-12582061D02*
X11570935Y-12612061D01*
X11632115Y-4436292D02*
X11662115Y-4466292D01*
X11662115Y-4436292D02*
X11632115Y-4466292D01*
X11632115Y-6339942D02*
X11662115Y-6369942D01*
X11662115Y-6339942D02*
X11632115Y-6369942D01*
X11632115Y-8246292D02*
X11662115Y-8276292D01*
X11662115Y-8246292D02*
X11632115Y-8276292D01*
X11634350Y-10155626D02*
X11664350Y-10185626D01*
X11664350Y-10155626D02*
X11634350Y-10185626D01*
X11725912Y-10565264D02*
X11755912Y-10595264D01*
X11755912Y-10565264D02*
X11725912Y-10595264D01*
X11732912Y-12393264D02*
X11762912Y-12423264D01*
X11762912Y-12393264D02*
X11732912Y-12423264D01*
X11745912Y-7919264D02*
X11775912Y-7949264D01*
X11775912Y-7919264D02*
X11745912Y-7949264D01*
X11852400Y-5371100D02*
X11882400Y-5401100D01*
X11882400Y-5371100D02*
X11852400Y-5401100D01*
X11852400Y-7274750D02*
X11882400Y-7304750D01*
X11882400Y-7274750D02*
X11852400Y-7304750D01*
X11852400Y-9181100D02*
X11882400Y-9211100D01*
X11882400Y-9181100D02*
X11852400Y-9211100D01*
X11852400Y-11086100D02*
X11882400Y-11116100D01*
X11882400Y-11086100D02*
X11852400Y-11116100D01*
X11928686Y-12434418D02*
X11958686Y-12464418D01*
X11958686Y-12434418D02*
X11928686Y-12464418D01*
X11940912Y-13023264D02*
X11970912Y-13053264D01*
X11970912Y-13023264D02*
X11940912Y-13053264D01*
X12237612Y-4231064D02*
X12267612Y-4261064D01*
X12267612Y-4231064D02*
X12237612Y-4261064D01*
X12279806Y-12725972D02*
X12309806Y-12755972D01*
X12309806Y-12725972D02*
X12279806Y-12755972D01*
X12330112Y-13205764D02*
X12360112Y-13235764D01*
X12360112Y-13205764D02*
X12330112Y-13235764D01*
X12330112Y-13572464D02*
X12360112Y-13602464D01*
X12360112Y-13572464D02*
X12330112Y-13602464D01*
X12358912Y-4872264D02*
X12388912Y-4902264D01*
X12388912Y-4872264D02*
X12358912Y-4902264D01*
X12445238Y-4444238D02*
X12475238Y-4474238D01*
X12475238Y-4444238D02*
X12445238Y-4474238D01*
X12445238Y-6347888D02*
X12475238Y-6377888D01*
X12475238Y-6347888D02*
X12445238Y-6377888D01*
X12445238Y-8254238D02*
X12475238Y-8284238D01*
X12475238Y-8254238D02*
X12445238Y-8284238D01*
X12445238Y-10159238D02*
X12475238Y-10189238D01*
X12475238Y-10159238D02*
X12445238Y-10189238D01*
X12496692Y-9671744D02*
X12526692Y-9701744D01*
X12526692Y-9671744D02*
X12496692Y-9701744D01*
X12497912Y-12439264D02*
X12527912Y-12469264D01*
X12527912Y-12439264D02*
X12497912Y-12469264D01*
X12538712Y-13200964D02*
X12568712Y-13230964D01*
X12568712Y-13200964D02*
X12538712Y-13230964D01*
X12551400Y-4430000D02*
X12581400Y-4460000D01*
X12581400Y-4430000D02*
X12551400Y-4460000D01*
X12551400Y-6333650D02*
X12581400Y-6363650D01*
X12581400Y-6333650D02*
X12551400Y-6363650D01*
X12551400Y-8240000D02*
X12581400Y-8270000D01*
X12581400Y-8240000D02*
X12551400Y-8270000D01*
X12551400Y-10145000D02*
X12581400Y-10175000D01*
X12581400Y-10145000D02*
X12551400Y-10175000D01*
X12610912Y-12224264D02*
X12640912Y-12254264D01*
X12640912Y-12224264D02*
X12610912Y-12254264D01*
X12723912Y-11408264D02*
X12753912Y-11438264D01*
X12753912Y-11408264D02*
X12723912Y-11438264D01*
X12731294Y-6689658D02*
X12761294Y-6719658D01*
X12761294Y-6689658D02*
X12731294Y-6719658D01*
X12731294Y-8596008D02*
X12761294Y-8626008D01*
X12761294Y-8596008D02*
X12731294Y-8626008D01*
X12731294Y-10501008D02*
X12761294Y-10531008D01*
X12761294Y-10501008D02*
X12731294Y-10531008D01*
X12731512Y-12430964D02*
X12761512Y-12460964D01*
X12761512Y-12430964D02*
X12731512Y-12460964D01*
X12787912Y-7729264D02*
X12817912Y-7759264D01*
X12817912Y-7729264D02*
X12787912Y-7759264D01*
X12798952Y-9854999D02*
X12828952Y-9884999D01*
X12828952Y-9854999D02*
X12798952Y-9884999D01*
X12809112Y-6043649D02*
X12839112Y-6073649D01*
X12839112Y-6043649D02*
X12809112Y-6073649D01*
X12809112Y-7949624D02*
X12839112Y-7979624D01*
X12839112Y-7949624D02*
X12809112Y-7979624D01*
X12826825Y-12487851D02*
X12856825Y-12517851D01*
X12856825Y-12487851D02*
X12826825Y-12517851D01*
X12855500Y-4906036D02*
X12885500Y-4936036D01*
X12885500Y-4906036D02*
X12855500Y-4936036D01*
X12898912Y-12993264D02*
X12928912Y-13023264D01*
X12928912Y-12993264D02*
X12898912Y-13023264D01*
X12985294Y-4430408D02*
X13015294Y-4460408D01*
X13015294Y-4430408D02*
X12985294Y-4460408D01*
X12985294Y-6334058D02*
X13015294Y-6364058D01*
X13015294Y-6334058D02*
X12985294Y-6364058D01*
X12985294Y-8240408D02*
X13015294Y-8270408D01*
X13015294Y-8240408D02*
X12985294Y-8270408D01*
X12985294Y-10145408D02*
X13015294Y-10175408D01*
X13015294Y-10145408D02*
X12985294Y-10175408D01*
X13035600Y-4910200D02*
X13065600Y-4940200D01*
X13065600Y-4910200D02*
X13035600Y-4940200D01*
X13035600Y-5276900D02*
X13065600Y-5306900D01*
X13065600Y-5276900D02*
X13035600Y-5306900D01*
X13035600Y-6813850D02*
X13065600Y-6843850D01*
X13065600Y-6813850D02*
X13035600Y-6843850D01*
X13035600Y-7180550D02*
X13065600Y-7210550D01*
X13065600Y-7180550D02*
X13035600Y-7210550D01*
X13035600Y-8720200D02*
X13065600Y-8750200D01*
X13065600Y-8720200D02*
X13035600Y-8750200D01*
X13035600Y-9086900D02*
X13065600Y-9116900D01*
X13065600Y-9086900D02*
X13035600Y-9116900D01*
X13035600Y-10625200D02*
X13065600Y-10655200D01*
X13065600Y-10625200D02*
X13035600Y-10655200D01*
X13035600Y-10991900D02*
X13065600Y-11021900D01*
X13065600Y-10991900D02*
X13035600Y-11021900D01*
X13046912Y-13416664D02*
X13076912Y-13446664D01*
X13076912Y-13416664D02*
X13046912Y-13446664D01*
X13092912Y-10337264D02*
X13122912Y-10367264D01*
X13122912Y-10337264D02*
X13092912Y-10367264D01*
X13165000Y-11181300D02*
X13195000Y-11211300D01*
X13195000Y-11181300D02*
X13165000Y-11211300D01*
X13244200Y-4905400D02*
X13274200Y-4935400D01*
X13274200Y-4905400D02*
X13244200Y-4935400D01*
X13244200Y-6809050D02*
X13274200Y-6839050D01*
X13274200Y-6809050D02*
X13244200Y-6839050D01*
X13244200Y-8715400D02*
X13274200Y-8745400D01*
X13274200Y-8715400D02*
X13244200Y-8745400D01*
X13244200Y-10620400D02*
X13274200Y-10650400D01*
X13274200Y-10620400D02*
X13244200Y-10650400D01*
X13342512Y-3977064D02*
X13372512Y-4007064D01*
X13372512Y-3977064D02*
X13342512Y-4007064D01*
X13399912Y-11150264D02*
X13429912Y-11180264D01*
X13429912Y-11150264D02*
X13399912Y-11180264D01*
X13437000Y-4188900D02*
X13467000Y-4218900D01*
X13467000Y-4188900D02*
X13437000Y-4218900D01*
X13437000Y-6092550D02*
X13467000Y-6122550D01*
X13467000Y-6092550D02*
X13437000Y-6122550D01*
X13437000Y-7998900D02*
X13467000Y-8028900D01*
X13467000Y-7998900D02*
X13437000Y-8028900D01*
X13437000Y-9903900D02*
X13467000Y-9933900D01*
X13467000Y-9903900D02*
X13437000Y-9933900D01*
X13532313Y-9907287D02*
X13562313Y-9937287D01*
X13562313Y-9907287D02*
X13532313Y-9937287D01*
X13533000Y-4192976D02*
X13563000Y-4222976D01*
X13563000Y-4192976D02*
X13533000Y-4222976D01*
X13539350Y-8009326D02*
X13569350Y-8039326D01*
X13569350Y-8009326D02*
X13539350Y-8039326D01*
X13540025Y-6103651D02*
X13570025Y-6133651D01*
X13570025Y-6103651D02*
X13540025Y-6133651D01*
X13579912Y-13001264D02*
X13609912Y-13031264D01*
X13609912Y-13001264D02*
X13579912Y-13031264D01*
X13584912Y-4751264D02*
X13614912Y-4781264D01*
X13614912Y-4751264D02*
X13584912Y-4781264D01*
X13595912Y-10484264D02*
X13625912Y-10514264D01*
X13625912Y-10484264D02*
X13595912Y-10514264D01*
X13639912Y-10296052D02*
X13669912Y-10326052D01*
X13669912Y-10296052D02*
X13639912Y-10326052D01*
X13647323Y-12496498D02*
X13677323Y-12526498D01*
X13677323Y-12496498D02*
X13647323Y-12526498D01*
X13665912Y-7684264D02*
X13695912Y-7714264D01*
X13695912Y-7684264D02*
X13665912Y-7714264D01*
X13671912Y-12685264D02*
X13701912Y-12715264D01*
X13701912Y-12685264D02*
X13671912Y-12715264D01*
X13732112Y-12489364D02*
X13762112Y-12519364D01*
X13762112Y-12489364D02*
X13732112Y-12519364D01*
X13752400Y-5121100D02*
X13782400Y-5151100D01*
X13782400Y-5121100D02*
X13752400Y-5151100D01*
X13752400Y-7024750D02*
X13782400Y-7054750D01*
X13782400Y-7024750D02*
X13752400Y-7054750D01*
X13752400Y-8931100D02*
X13782400Y-8961100D01*
X13782400Y-8931100D02*
X13752400Y-8961100D01*
X13752400Y-10836100D02*
X13782400Y-10866100D01*
X13782400Y-10836100D02*
X13752400Y-10866100D01*
X13759912Y-5028264D02*
X13789912Y-5058264D01*
X13789912Y-5028264D02*
X13759912Y-5058264D01*
X13855912Y-13699264D02*
X13885912Y-13729264D01*
X13885912Y-13699264D02*
X13855912Y-13729264D01*
X14168912Y-12822264D02*
X14198912Y-12852264D01*
X14198912Y-12822264D02*
X14168912Y-12852264D01*
X14191912Y-12392264D02*
X14221912Y-12422264D01*
X14221912Y-12392264D02*
X14191912Y-12422264D01*
X14253912Y-10436264D02*
X14283912Y-10466264D01*
X14283912Y-10436264D02*
X14253912Y-10466264D01*
X14265912Y-8534264D02*
X14295912Y-8564264D01*
X14295912Y-8534264D02*
X14265912Y-8564264D01*
X14266912Y-4709264D02*
X14296912Y-4739264D01*
X14296912Y-4709264D02*
X14266912Y-4739264D01*
X14277912Y-12286814D02*
X14307912Y-12316814D01*
X14307912Y-12286814D02*
X14277912Y-12316814D01*
X14278912Y-12393264D02*
X14308912Y-12423264D01*
X14308912Y-12393264D02*
X14278912Y-12423264D01*
X14313884Y-13587530D02*
X14343884Y-13617530D01*
X14343884Y-13587530D02*
X14313884Y-13617530D01*
X14318912Y-13084264D02*
X14348912Y-13114264D01*
X14348912Y-13084264D02*
X14318912Y-13114264D01*
X14345000Y-4204476D02*
X14375000Y-4234476D01*
X14375000Y-4204476D02*
X14345000Y-4234476D01*
X14345812Y-6103384D02*
X14375812Y-6133384D01*
X14375812Y-6103384D02*
X14345812Y-6133384D01*
X14345812Y-8009734D02*
X14375812Y-8039734D01*
X14375812Y-8009734D02*
X14345812Y-8039734D01*
X14347987Y-9916489D02*
X14377987Y-9946489D01*
X14377987Y-9916489D02*
X14347987Y-9946489D01*
X14377561Y-13226401D02*
X14407561Y-13256401D01*
X14407561Y-13226401D02*
X14377561Y-13256401D01*
X14382912Y-12397264D02*
X14412912Y-12427264D01*
X14412912Y-12397264D02*
X14382912Y-12427264D01*
X14383912Y-4406101D02*
X14413912Y-4436101D01*
X14413912Y-4406101D02*
X14383912Y-4436101D01*
X14383912Y-6309751D02*
X14413912Y-6339751D01*
X14413912Y-6309751D02*
X14383912Y-6339751D01*
X14383912Y-8216101D02*
X14413912Y-8246101D01*
X14413912Y-8216101D02*
X14383912Y-8246101D01*
X14383912Y-10121101D02*
X14413912Y-10151101D01*
X14413912Y-10121101D02*
X14383912Y-10151101D01*
X14437600Y-4193800D02*
X14467600Y-4223800D01*
X14467600Y-4193800D02*
X14437600Y-4223800D01*
X14437600Y-6097450D02*
X14467600Y-6127450D01*
X14467600Y-6097450D02*
X14437600Y-6127450D01*
X14437600Y-8003800D02*
X14467600Y-8033800D01*
X14467600Y-8003800D02*
X14437600Y-8033800D01*
X14437600Y-9908800D02*
X14467600Y-9938800D01*
X14467600Y-9908800D02*
X14437600Y-9938800D01*
X14440668Y-12753508D02*
X14470668Y-12783508D01*
X14470668Y-12753508D02*
X14440668Y-12783508D01*
X14583825Y-13257897D02*
X14613825Y-13287897D01*
X14613825Y-13257897D02*
X14583825Y-13287897D01*
X14718912Y-12339264D02*
X14748912Y-12369264D01*
X14748912Y-12339264D02*
X14718912Y-12369264D01*
X14759912Y-4752264D02*
X14789912Y-4782264D01*
X14789912Y-4752264D02*
X14759912Y-4782264D01*
X14759912Y-6625264D02*
X14789912Y-6655264D01*
X14789912Y-6625264D02*
X14759912Y-6655264D01*
X14762912Y-8544264D02*
X14792912Y-8574264D01*
X14792912Y-8544264D02*
X14762912Y-8574264D01*
X14779912Y-9323264D02*
X14809912Y-9353264D01*
X14809912Y-9323264D02*
X14779912Y-9353264D01*
X14797912Y-10484264D02*
X14827912Y-10514264D01*
X14827912Y-10484264D02*
X14797912Y-10514264D01*
X14879912Y-11052264D02*
X14909912Y-11082264D01*
X14909912Y-11052264D02*
X14879912Y-11082264D01*
X14895654Y-12593959D02*
X14925654Y-12623959D01*
X14925654Y-12593959D02*
X14895654Y-12623959D01*
X14898850Y-9917950D02*
X14928850Y-9947950D01*
X14928850Y-9917950D02*
X14898850Y-9947950D01*
X14906724Y-4195076D02*
X14936724Y-4225076D01*
X14936724Y-4195076D02*
X14906724Y-4225076D01*
X14911632Y-7999500D02*
X14941632Y-8029500D01*
X14941632Y-7999500D02*
X14911632Y-8029500D01*
X14915950Y-6089500D02*
X14945950Y-6119500D01*
X14945950Y-6089500D02*
X14915950Y-6119500D01*
X14945600Y-4660200D02*
X14975600Y-4690200D01*
X14975600Y-4660200D02*
X14945600Y-4690200D01*
X14945600Y-5026900D02*
X14975600Y-5056900D01*
X14975600Y-5026900D02*
X14945600Y-5056900D01*
X14945600Y-6563850D02*
X14975600Y-6593850D01*
X14975600Y-6563850D02*
X14945600Y-6593850D01*
X14945600Y-6930550D02*
X14975600Y-6960550D01*
X14975600Y-6930550D02*
X14945600Y-6960550D01*
X14945600Y-8470200D02*
X14975600Y-8500200D01*
X14975600Y-8470200D02*
X14945600Y-8500200D01*
X14945600Y-8836900D02*
X14975600Y-8866900D01*
X14975600Y-8836900D02*
X14945600Y-8866900D01*
X14945600Y-10375200D02*
X14975600Y-10405200D01*
X14975600Y-10375200D02*
X14945600Y-10405200D01*
X14945600Y-10741900D02*
X14975600Y-10771900D01*
X14975600Y-10741900D02*
X14945600Y-10771900D01*
X14961762Y-3659564D02*
X14991762Y-3689564D01*
X14991762Y-3659564D02*
X14961762Y-3689564D01*
X14985915Y-12609540D02*
X15015915Y-12639540D01*
X15015915Y-12609540D02*
X14985915Y-12639540D01*
X15027912Y-11166264D02*
X15057912Y-11196264D01*
X15057912Y-11166264D02*
X15027912Y-11196264D01*
X15046849Y-13558568D02*
X15076849Y-13588568D01*
X15076849Y-13558568D02*
X15046849Y-13588568D01*
X15154200Y-4655400D02*
X15184200Y-4685400D01*
X15184200Y-4655400D02*
X15154200Y-4685400D01*
X15154200Y-6559050D02*
X15184200Y-6589050D01*
X15184200Y-6559050D02*
X15154200Y-6589050D01*
X15154200Y-8465400D02*
X15184200Y-8495400D01*
X15184200Y-8465400D02*
X15154200Y-8495400D01*
X15154200Y-10370400D02*
X15184200Y-10400400D01*
X15184200Y-10370400D02*
X15154200Y-10400400D01*
X15346000Y-3947400D02*
X15376000Y-3977400D01*
X15376000Y-3947400D02*
X15346000Y-3977400D01*
X15346000Y-5851050D02*
X15376000Y-5881050D01*
X15376000Y-5851050D02*
X15346000Y-5881050D01*
X15346000Y-7757400D02*
X15376000Y-7787400D01*
X15376000Y-7757400D02*
X15346000Y-7787400D01*
X15346000Y-9662400D02*
X15376000Y-9692400D01*
X15376000Y-9662400D02*
X15346000Y-9692400D01*
X15424912Y-5428264D02*
X15454912Y-5458264D01*
X15454912Y-5428264D02*
X15424912Y-5458264D01*
X15437595Y-3947071D02*
X15467595Y-3977071D01*
X15467595Y-3947071D02*
X15437595Y-3977071D01*
X15437595Y-5850721D02*
X15467595Y-5880721D01*
X15467595Y-5850721D02*
X15437595Y-5880721D01*
X15437595Y-7757071D02*
X15467595Y-7787071D01*
X15467595Y-7757071D02*
X15437595Y-7787071D01*
X15437595Y-9662071D02*
X15467595Y-9692071D01*
X15467595Y-9662071D02*
X15437595Y-9692071D01*
X15472912Y-9284264D02*
X15502912Y-9314264D01*
X15502912Y-9284264D02*
X15472912Y-9314264D01*
X15533912Y-10200264D02*
X15563912Y-10230264D01*
X15563912Y-10200264D02*
X15533912Y-10230264D01*
X15605912Y-7348264D02*
X15635912Y-7378264D01*
X15635912Y-7348264D02*
X15605912Y-7378264D01*
X15662400Y-4871100D02*
X15692400Y-4901100D01*
X15692400Y-4871100D02*
X15662400Y-4901100D01*
X15662400Y-6774750D02*
X15692400Y-6804750D01*
X15692400Y-6774750D02*
X15662400Y-6804750D01*
X15662400Y-8681100D02*
X15692400Y-8711100D01*
X15692400Y-8681100D02*
X15662400Y-8711100D01*
X15686131Y-12597022D02*
X15716131Y-12627022D01*
X15716131Y-12597022D02*
X15686131Y-12627022D01*
X15687363Y-10586100D02*
X15717363Y-10616100D01*
X15717363Y-10586100D02*
X15687363Y-10616100D01*
X15785817Y-12751525D02*
X15815817Y-12781525D01*
X15815817Y-12751525D02*
X15785817Y-12781525D01*
X15903363Y-12773066D02*
X15933363Y-12803066D01*
X15933363Y-12773066D02*
X15903363Y-12803066D01*
X16060312Y-3717500D02*
X16090312Y-3747500D01*
X16090312Y-3717500D02*
X16060312Y-3747500D01*
X16145912Y-4453264D02*
X16175912Y-4483264D01*
X16175912Y-4453264D02*
X16145912Y-4483264D01*
X16161912Y-8286264D02*
X16191912Y-8316264D01*
X16191912Y-8286264D02*
X16161912Y-8316264D01*
X16167912Y-10218264D02*
X16197912Y-10248264D01*
X16197912Y-10218264D02*
X16167912Y-10248264D01*
X16250001Y-3947998D02*
X16280001Y-3977998D01*
X16280001Y-3947998D02*
X16250001Y-3977998D01*
X16250001Y-5851648D02*
X16280001Y-5881648D01*
X16280001Y-5851648D02*
X16250001Y-5881648D01*
X16250001Y-7757998D02*
X16280001Y-7787998D01*
X16280001Y-7757998D02*
X16250001Y-7787998D01*
X16250001Y-9662998D02*
X16280001Y-9692998D01*
X16280001Y-9662998D02*
X16250001Y-9692998D01*
X16342912Y-11025264D02*
X16372912Y-11055264D01*
X16372912Y-11025264D02*
X16342912Y-11055264D01*
X16369501Y-3948800D02*
X16399501Y-3978800D01*
X16399501Y-3948800D02*
X16369501Y-3978800D01*
X16369501Y-5852450D02*
X16399501Y-5882450D01*
X16399501Y-5852450D02*
X16369501Y-5882450D01*
X16369501Y-7758800D02*
X16399501Y-7788800D01*
X16399501Y-7758800D02*
X16369501Y-7788800D01*
X16369501Y-9663800D02*
X16399501Y-9693800D01*
X16399501Y-9663800D02*
X16369501Y-9693800D01*
X16663912Y-6411264D02*
X16693912Y-6441264D01*
X16693912Y-6411264D02*
X16663912Y-6441264D01*
X16665912Y-8327264D02*
X16695912Y-8357264D01*
X16695912Y-8327264D02*
X16665912Y-8357264D01*
X16668912Y-10225264D02*
X16698912Y-10255264D01*
X16698912Y-10225264D02*
X16668912Y-10255264D01*
X16679912Y-4490264D02*
X16709912Y-4520264D01*
X16709912Y-4490264D02*
X16679912Y-4520264D01*
X16845600Y-4910200D02*
X16875600Y-4940200D01*
X16875600Y-4910200D02*
X16845600Y-4940200D01*
X16845600Y-5276900D02*
X16875600Y-5306900D01*
X16875600Y-5276900D02*
X16845600Y-5306900D01*
X16845600Y-6813850D02*
X16875600Y-6843850D01*
X16875600Y-6813850D02*
X16845600Y-6843850D01*
X16845600Y-7180550D02*
X16875600Y-7210550D01*
X16875600Y-7180550D02*
X16845600Y-7210550D01*
X16845600Y-8720200D02*
X16875600Y-8750200D01*
X16875600Y-8720200D02*
X16845600Y-8750200D01*
X16845600Y-9086900D02*
X16875600Y-9116900D01*
X16875600Y-9086900D02*
X16845600Y-9116900D01*
X16845600Y-10625200D02*
X16875600Y-10655200D01*
X16875600Y-10625200D02*
X16845600Y-10655200D01*
X16845600Y-10991900D02*
X16875600Y-11021900D01*
X16875600Y-10991900D02*
X16845600Y-11021900D01*
X16873112Y-6226849D02*
X16903112Y-6256849D01*
X16903112Y-6226849D02*
X16873112Y-6256849D01*
X16875700Y-4323199D02*
X16905700Y-4353199D01*
X16905700Y-4323199D02*
X16875700Y-4353199D01*
X16875700Y-8133199D02*
X16905700Y-8163199D01*
X16905700Y-8133199D02*
X16875700Y-8163199D01*
X16875700Y-10038199D02*
X16905700Y-10068199D01*
X16905700Y-10038199D02*
X16875700Y-10068199D01*
X16960912Y-9652264D02*
X16990912Y-9682264D01*
X16990912Y-9652264D02*
X16960912Y-9682264D01*
X17054200Y-4905400D02*
X17084200Y-4935400D01*
X17084200Y-4905400D02*
X17054200Y-4935400D01*
X17054200Y-6809050D02*
X17084200Y-6839050D01*
X17084200Y-6809050D02*
X17054200Y-6839050D01*
X17054200Y-8715400D02*
X17084200Y-8745400D01*
X17084200Y-8715400D02*
X17054200Y-8745400D01*
X17054200Y-10620400D02*
X17084200Y-10650400D01*
X17084200Y-10620400D02*
X17054200Y-10650400D01*
X17197912Y-7415264D02*
X17227912Y-7445264D01*
X17227912Y-7415264D02*
X17197912Y-7445264D01*
X17203312Y-3984200D02*
X17233312Y-4014200D01*
X17233312Y-3984200D02*
X17203312Y-4014200D01*
X17205912Y-9652264D02*
X17235912Y-9682264D01*
X17235912Y-9652264D02*
X17205912Y-9682264D01*
X17234900Y-4176000D02*
X17264900Y-4206000D01*
X17264900Y-4176000D02*
X17234900Y-4206000D01*
X17234900Y-6079650D02*
X17264900Y-6109650D01*
X17264900Y-6079650D02*
X17234900Y-6109650D01*
X17234900Y-7986000D02*
X17264900Y-8016000D01*
X17264900Y-7986000D02*
X17234900Y-8016000D01*
X17234900Y-9891000D02*
X17264900Y-9921000D01*
X17264900Y-9891000D02*
X17234900Y-9921000D01*
X17342712Y-6095538D02*
X17372712Y-6125538D01*
X17372712Y-6095538D02*
X17342712Y-6125538D01*
X17349750Y-4198926D02*
X17379750Y-4228926D01*
X17379750Y-4198926D02*
X17349750Y-4228926D01*
X17349750Y-8008926D02*
X17379750Y-8038926D01*
X17379750Y-8008926D02*
X17349750Y-8038926D01*
X17349750Y-9913926D02*
X17379750Y-9943926D01*
X17379750Y-9913926D02*
X17349750Y-9943926D01*
X17435912Y-10430264D02*
X17465912Y-10460264D01*
X17465912Y-10430264D02*
X17435912Y-10460264D01*
X17562400Y-5121100D02*
X17592400Y-5151100D01*
X17592400Y-5121100D02*
X17562400Y-5151100D01*
X17562400Y-7024750D02*
X17592400Y-7054750D01*
X17592400Y-7024750D02*
X17562400Y-7054750D01*
X17562400Y-8931100D02*
X17592400Y-8961100D01*
X17592400Y-8931100D02*
X17562400Y-8961100D01*
X17562400Y-10836100D02*
X17592400Y-10866100D01*
X17592400Y-10836100D02*
X17562400Y-10866100D01*
X18072912Y-6639264D02*
X18102912Y-6669264D01*
X18102912Y-6639264D02*
X18072912Y-6669264D01*
X18072912Y-10446264D02*
X18102912Y-10476264D01*
X18102912Y-10446264D02*
X18072912Y-10476264D01*
X18155001Y-4206400D02*
X18185001Y-4236400D01*
X18185001Y-4206400D02*
X18155001Y-4236400D01*
X18155001Y-8016400D02*
X18185001Y-8046400D01*
X18185001Y-8016400D02*
X18155001Y-8046400D01*
X18155812Y-6110664D02*
X18185812Y-6140664D01*
X18185812Y-6110664D02*
X18155812Y-6140664D01*
X18157913Y-9922765D02*
X18187913Y-9952765D01*
X18187913Y-9922765D02*
X18157913Y-9952765D01*
X18187562Y-6301164D02*
X18217562Y-6331164D01*
X18217562Y-6301164D02*
X18187562Y-6331164D01*
X18193912Y-4396164D02*
X18223912Y-4426164D01*
X18223912Y-4396164D02*
X18193912Y-4426164D01*
X18193912Y-10117514D02*
X18223912Y-10147514D01*
X18223912Y-10117514D02*
X18193912Y-10147514D01*
X18206612Y-8216101D02*
X18236612Y-8246101D01*
X18236612Y-8216101D02*
X18206612Y-8246101D01*
X18263200Y-4201400D02*
X18293200Y-4231400D01*
X18293200Y-4201400D02*
X18263200Y-4231400D01*
X18263200Y-6105050D02*
X18293200Y-6135050D01*
X18293200Y-6105050D02*
X18263200Y-6135050D01*
X18263200Y-8011400D02*
X18293200Y-8041400D01*
X18293200Y-8011400D02*
X18263200Y-8041400D01*
X18263200Y-9916400D02*
X18293200Y-9946400D01*
X18293200Y-9916400D02*
X18263200Y-9946400D01*
X18437912Y-11326264D02*
X18467912Y-11356264D01*
X18467912Y-11326264D02*
X18437912Y-11356264D01*
X18494912Y-11851264D02*
X18524912Y-11881264D01*
X18524912Y-11851264D02*
X18494912Y-11881264D01*
X18512912Y-8549264D02*
X18542912Y-8579264D01*
X18542912Y-8549264D02*
X18512912Y-8579264D01*
X18770112Y-12041764D02*
X18800112Y-12071764D01*
X18800112Y-12041764D02*
X18770112Y-12071764D01*
X18770112Y-12408464D02*
X18800112Y-12438464D01*
X18800112Y-12408464D02*
X18770112Y-12438464D01*
X18779924Y-12510928D02*
X18809924Y-12540928D01*
X18809924Y-12510928D02*
X18779924Y-12540928D01*
X18812912Y-6339264D02*
X18842912Y-6369264D01*
X18842912Y-6339264D02*
X18812912Y-6369264D01*
X18825912Y-10131264D02*
X18855912Y-10161264D01*
X18855912Y-10131264D02*
X18825912Y-10161264D01*
X18829912Y-10523264D02*
X18859912Y-10553264D01*
X18859912Y-10523264D02*
X18829912Y-10553264D01*
X18836912Y-8225264D02*
X18866912Y-8255264D01*
X18866912Y-8225264D02*
X18836912Y-8255264D01*
X18838912Y-8605264D02*
X18868912Y-8635264D01*
X18868912Y-8605264D02*
X18838912Y-8635264D01*
X18841912Y-6725264D02*
X18871912Y-6755264D01*
X18871912Y-6725264D02*
X18841912Y-6755264D01*
X18844012Y-5691616D02*
X18874012Y-5721616D01*
X18874012Y-5691616D02*
X18844012Y-5721616D01*
X18844012Y-7612204D02*
X18874012Y-7642204D01*
X18874012Y-7612204D02*
X18844012Y-7642204D01*
X18844012Y-9535398D02*
X18874012Y-9565398D01*
X18874012Y-9535398D02*
X18844012Y-9565398D01*
X18844012Y-11437096D02*
X18874012Y-11467096D01*
X18874012Y-11437096D02*
X18844012Y-11467096D01*
X18978712Y-6321964D02*
X19008712Y-6351964D01*
X19008712Y-6321964D02*
X18978712Y-6351964D01*
X18978712Y-8225614D02*
X19008712Y-8255614D01*
X19008712Y-8225614D02*
X18978712Y-8255614D01*
X18978712Y-10131964D02*
X19008712Y-10161964D01*
X19008712Y-10131964D02*
X18978712Y-10161964D01*
X18978712Y-12036964D02*
X19008712Y-12066964D01*
X19008712Y-12036964D02*
X18978712Y-12066964D01*
X19135912Y-12612264D02*
X19165912Y-12642264D01*
X19165912Y-12612264D02*
X19135912Y-12642264D01*
X19154362Y-5587514D02*
X19184362Y-5617514D01*
X19184362Y-5587514D02*
X19154362Y-5617514D01*
X19154362Y-7491164D02*
X19184362Y-7521164D01*
X19184362Y-7491164D02*
X19154362Y-7521164D01*
X19154362Y-9397514D02*
X19184362Y-9427514D01*
X19184362Y-9397514D02*
X19154362Y-9427514D01*
X19154362Y-11302514D02*
X19184362Y-11332514D01*
X19184362Y-11302514D02*
X19154362Y-11332514D01*
X19220912Y-7174264D02*
X19250912Y-7204264D01*
X19250912Y-7174264D02*
X19220912Y-7204264D01*
X19236912Y-10852264D02*
X19266912Y-10882264D01*
X19266912Y-10852264D02*
X19236912Y-10882264D01*
X19261779Y-5603007D02*
X19291779Y-5633007D01*
X19291779Y-5603007D02*
X19261779Y-5633007D01*
X19261779Y-7506657D02*
X19291779Y-7536657D01*
X19291779Y-7506657D02*
X19261779Y-7536657D01*
X19261779Y-9413007D02*
X19291779Y-9443007D01*
X19291779Y-9413007D02*
X19261779Y-9443007D01*
X19274512Y-11329828D02*
X19304512Y-11359828D01*
X19304512Y-11329828D02*
X19274512Y-11359828D01*
X19306974Y-11108364D02*
X19336974Y-11138364D01*
X19336974Y-11108364D02*
X19306974Y-11138364D01*
X19341912Y-9070264D02*
X19371912Y-9100264D01*
X19371912Y-9070264D02*
X19341912Y-9100264D01*
X19350912Y-11767264D02*
X19380912Y-11797264D01*
X19380912Y-11767264D02*
X19350912Y-11797264D01*
X19486912Y-6537664D02*
X19516912Y-6567664D01*
X19516912Y-6537664D02*
X19486912Y-6567664D01*
X19486912Y-8441314D02*
X19516912Y-8471314D01*
X19516912Y-8441314D02*
X19486912Y-8471314D01*
X19486912Y-10347664D02*
X19516912Y-10377664D01*
X19516912Y-10347664D02*
X19486912Y-10377664D01*
X19486912Y-12252664D02*
X19516912Y-12282664D01*
X19516912Y-12252664D02*
X19486912Y-12282664D01*
X19891174Y-5393364D02*
X19921174Y-5423364D01*
X19921174Y-5393364D02*
X19891174Y-5423364D01*
X19999912Y-11807264D02*
X20029912Y-11837264D01*
X20029912Y-11807264D02*
X19999912Y-11837264D01*
X20004912Y-6144264D02*
X20034912Y-6174264D01*
X20034912Y-6144264D02*
X20004912Y-6174264D01*
X20075748Y-5615929D02*
X20105748Y-5645929D01*
X20105748Y-5615929D02*
X20075748Y-5645929D01*
X20075748Y-7519579D02*
X20105748Y-7549579D01*
X20105748Y-7519579D02*
X20075748Y-7549579D01*
X20075748Y-9425929D02*
X20105748Y-9455929D01*
X20105748Y-9425929D02*
X20075748Y-9455929D01*
X20075748Y-11330929D02*
X20105748Y-11360929D01*
X20105748Y-11330929D02*
X20075748Y-11360929D01*
X20187112Y-5615364D02*
X20217112Y-5645364D01*
X20217112Y-5615364D02*
X20187112Y-5645364D01*
X20187112Y-7519014D02*
X20217112Y-7549014D01*
X20217112Y-7519014D02*
X20187112Y-7549014D01*
X20187112Y-9425364D02*
X20217112Y-9455364D01*
X20217112Y-9425364D02*
X20187112Y-9455364D01*
X20187112Y-11330364D02*
X20217112Y-11360364D01*
X20217112Y-11330364D02*
X20187112Y-11360364D01*
X20512912Y-12588264D02*
X20542912Y-12618264D01*
X20542912Y-12588264D02*
X20512912Y-12618264D01*
X20655112Y-5928264D02*
X20685112Y-5958264D01*
X20685112Y-5928264D02*
X20655112Y-5958264D01*
X20655112Y-7831914D02*
X20685112Y-7861914D01*
X20685112Y-7831914D02*
X20655112Y-7861914D01*
X20655112Y-9738264D02*
X20685112Y-9768264D01*
X20685112Y-9738264D02*
X20655112Y-9768264D01*
X20655112Y-11643264D02*
X20685112Y-11673264D01*
X20685112Y-11643264D02*
X20655112Y-11673264D01*
X20661062Y-6326764D02*
X20691062Y-6356764D01*
X20691062Y-6326764D02*
X20661062Y-6356764D01*
X20661062Y-6693464D02*
X20691062Y-6723464D01*
X20691062Y-6693464D02*
X20661062Y-6723464D01*
X20661062Y-8230414D02*
X20691062Y-8260414D01*
X20691062Y-8230414D02*
X20661062Y-8260414D01*
X20661062Y-8597114D02*
X20691062Y-8627114D01*
X20691062Y-8597114D02*
X20661062Y-8627114D01*
X20661062Y-10136764D02*
X20691062Y-10166764D01*
X20691062Y-10136764D02*
X20661062Y-10166764D01*
X20661062Y-10503464D02*
X20691062Y-10533464D01*
X20691062Y-10503464D02*
X20661062Y-10533464D01*
X20661062Y-12041764D02*
X20691062Y-12071764D01*
X20691062Y-12041764D02*
X20661062Y-12071764D01*
X20661062Y-12408464D02*
X20691062Y-12438464D01*
X20691062Y-12408464D02*
X20661062Y-12438464D01*
X20888712Y-6321964D02*
X20918712Y-6351964D01*
X20918712Y-6321964D02*
X20888712Y-6351964D01*
X20888712Y-8225614D02*
X20918712Y-8255614D01*
X20918712Y-8225614D02*
X20888712Y-8255614D01*
X20888712Y-10131964D02*
X20918712Y-10161964D01*
X20918712Y-10131964D02*
X20888712Y-10161964D01*
X20888712Y-12036964D02*
X20918712Y-12066964D01*
X20918712Y-12036964D02*
X20888712Y-12066964D01*
X20989912Y-6951264D02*
X21019912Y-6981264D01*
X21019912Y-6951264D02*
X20989912Y-6981264D01*
X21035912Y-8787264D02*
X21065912Y-8817264D01*
X21065912Y-8787264D02*
X21035912Y-8817264D01*
X21056112Y-5589564D02*
X21086112Y-5619564D01*
X21086112Y-5589564D02*
X21056112Y-5619564D01*
X21056112Y-7493214D02*
X21086112Y-7523214D01*
X21086112Y-7493214D02*
X21056112Y-7523214D01*
X21056112Y-9399564D02*
X21086112Y-9429564D01*
X21086112Y-9399564D02*
X21056112Y-9429564D01*
X21056112Y-11304564D02*
X21086112Y-11334564D01*
X21086112Y-11304564D02*
X21056112Y-11334564D01*
X21171676Y-5613204D02*
X21201676Y-5643204D01*
X21201676Y-5613204D02*
X21171676Y-5643204D01*
X21171676Y-7516854D02*
X21201676Y-7546854D01*
X21201676Y-7516854D02*
X21171676Y-7546854D01*
X21171676Y-9423204D02*
X21201676Y-9453204D01*
X21201676Y-9423204D02*
X21171676Y-9453204D01*
X21173874Y-11328204D02*
X21203874Y-11358204D01*
X21203874Y-11328204D02*
X21173874Y-11358204D01*
X21174912Y-7894264D02*
X21204912Y-7924264D01*
X21204912Y-7894264D02*
X21174912Y-7924264D01*
X21206912Y-6021264D02*
X21236912Y-6051264D01*
X21236912Y-6021264D02*
X21206912Y-6051264D01*
X21223912Y-9832264D02*
X21253912Y-9862264D01*
X21253912Y-9832264D02*
X21223912Y-9862264D01*
X21324912Y-12123264D02*
X21354912Y-12153264D01*
X21354912Y-12123264D02*
X21324912Y-12153264D01*
X21396912Y-6537664D02*
X21426912Y-6567664D01*
X21426912Y-6537664D02*
X21396912Y-6567664D01*
X21396912Y-8441314D02*
X21426912Y-8471314D01*
X21426912Y-8441314D02*
X21396912Y-8471314D01*
X21396912Y-10347664D02*
X21426912Y-10377664D01*
X21426912Y-10347664D02*
X21396912Y-10377664D01*
X21396912Y-12252664D02*
X21426912Y-12282664D01*
X21426912Y-12252664D02*
X21396912Y-12282664D01*
X21796174Y-11202828D02*
X21826174Y-11232828D01*
X21826174Y-11202828D02*
X21796174Y-11232828D01*
X21980250Y-5620302D02*
X22010250Y-5650302D01*
X22010250Y-5620302D02*
X21980250Y-5650302D01*
X21980250Y-7523952D02*
X22010250Y-7553952D01*
X22010250Y-7523952D02*
X21980250Y-7553952D01*
X21980250Y-9430302D02*
X22010250Y-9460302D01*
X22010250Y-9430302D02*
X21980250Y-9460302D01*
X21980250Y-11335302D02*
X22010250Y-11365302D01*
X22010250Y-11335302D02*
X21980250Y-11365302D01*
X22012074Y-7729378D02*
X22042074Y-7759378D01*
X22042074Y-7729378D02*
X22012074Y-7759378D01*
X22018424Y-9640728D02*
X22048424Y-9670728D01*
X22048424Y-9640728D02*
X22018424Y-9670728D01*
X22024774Y-5824378D02*
X22054774Y-5854378D01*
X22054774Y-5824378D02*
X22024774Y-5854378D01*
X22081912Y-5610564D02*
X22111912Y-5640564D01*
X22111912Y-5610564D02*
X22081912Y-5640564D01*
X22081912Y-7514214D02*
X22111912Y-7544214D01*
X22111912Y-7514214D02*
X22081912Y-7544214D01*
X22081912Y-9420564D02*
X22111912Y-9450564D01*
X22111912Y-9420564D02*
X22081912Y-9450564D01*
X22081912Y-11325564D02*
X22111912Y-11355564D01*
X22111912Y-11325564D02*
X22081912Y-11355564D01*
X22234912Y-12545264D02*
X22264912Y-12575264D01*
X22264912Y-12545264D02*
X22234912Y-12575264D01*
D13*
X9258640Y-4123000D02*
G75*
G03*
X9258640Y-4123000I-40640J0D01*
G01*
X9258640Y-4377000D02*
G75*
G03*
X9258640Y-4377000I-40640J0D01*
G01*
X9258640Y-4631000D02*
G75*
G03*
X9258640Y-4631000I-40640J0D01*
G01*
X9258640Y-4885000D02*
G75*
G03*
X9258640Y-4885000I-40640J0D01*
G01*
X9258640Y-5139000D02*
G75*
G03*
X9258640Y-5139000I-40640J0D01*
G01*
X9258640Y-5393000D02*
G75*
G03*
X9258640Y-5393000I-40640J0D01*
G01*
X9258640Y-5647000D02*
G75*
G03*
X9258640Y-5647000I-40640J0D01*
G01*
X9258640Y-5901000D02*
G75*
G03*
X9258640Y-5901000I-40640J0D01*
G01*
X9258640Y-6155000D02*
G75*
G03*
X9258640Y-6155000I-40640J0D01*
G01*
X9258640Y-6409000D02*
G75*
G03*
X9258640Y-6409000I-40640J0D01*
G01*
X9258640Y-6663000D02*
G75*
G03*
X9258640Y-6663000I-40640J0D01*
G01*
X9258640Y-6917000D02*
G75*
G03*
X9258640Y-6917000I-40640J0D01*
G01*
X9388522Y-4242575D02*
G75*
G03*
X9388522Y-4242575I-40640J0D01*
G01*
X9388522Y-4496575D02*
G75*
G03*
X9388522Y-4496575I-40640J0D01*
G01*
X9388522Y-4750575D02*
G75*
G03*
X9388522Y-4750575I-40640J0D01*
G01*
X9388522Y-5004575D02*
G75*
G03*
X9388522Y-5004575I-40640J0D01*
G01*
X9388522Y-5258575D02*
G75*
G03*
X9388522Y-5258575I-40640J0D01*
G01*
X9388522Y-5512575D02*
G75*
G03*
X9388522Y-5512575I-40640J0D01*
G01*
X9388522Y-5766574D02*
G75*
G03*
X9388522Y-5766574I-40640J0D01*
G01*
X9388522Y-6020574D02*
G75*
G03*
X9388522Y-6020574I-40640J0D01*
G01*
X9388522Y-6274574D02*
G75*
G03*
X9388522Y-6274574I-40640J0D01*
G01*
X9388522Y-6528574D02*
G75*
G03*
X9388522Y-6528574I-40640J0D01*
G01*
X9388522Y-6782574D02*
G75*
G03*
X9388522Y-6782574I-40640J0D01*
G01*
X9388522Y-7036574D02*
G75*
G03*
X9388522Y-7036574I-40640J0D01*
G01*
X9590567Y-7806196D02*
G75*
G03*
X9590567Y-7806196I-40640J0D01*
G01*
X9590567Y-8031196D02*
G75*
G03*
X9590567Y-8031196I-40640J0D01*
G01*
X9710640Y-7460000D02*
G75*
G03*
X9710640Y-7460000I-40640J0D01*
G01*
X9964640Y-7460000D02*
G75*
G03*
X9964640Y-7460000I-40640J0D01*
G01*
X10098567Y-7806196D02*
G75*
G03*
X10098567Y-7806196I-40640J0D01*
G01*
X10098567Y-8031196D02*
G75*
G03*
X10098567Y-8031196I-40640J0D01*
G01*
X10218640Y-7460000D02*
G75*
G03*
X10218640Y-7460000I-40640J0D01*
G01*
X10310640Y-7810000D02*
G75*
G03*
X10310640Y-7810000I-40640J0D01*
G01*
X10310640Y-8030000D02*
G75*
G03*
X10310640Y-8030000I-40640J0D01*
G01*
X10472640Y-7460000D02*
G75*
G03*
X10472640Y-7460000I-40640J0D01*
G01*
X10782640Y-4123000D02*
G75*
G03*
X10782640Y-4123000I-40640J0D01*
G01*
X10782640Y-4377000D02*
G75*
G03*
X10782640Y-4377000I-40640J0D01*
G01*
X10782640Y-4631000D02*
G75*
G03*
X10782640Y-4631000I-40640J0D01*
G01*
X10782640Y-4885000D02*
G75*
G03*
X10782640Y-4885000I-40640J0D01*
G01*
X10782640Y-5139000D02*
G75*
G03*
X10782640Y-5139000I-40640J0D01*
G01*
X10782640Y-5393000D02*
G75*
G03*
X10782640Y-5393000I-40640J0D01*
G01*
X10782640Y-5647000D02*
G75*
G03*
X10782640Y-5647000I-40640J0D01*
G01*
X10782640Y-5901000D02*
G75*
G03*
X10782640Y-5901000I-40640J0D01*
G01*
X10782640Y-6155000D02*
G75*
G03*
X10782640Y-6155000I-40640J0D01*
G01*
X10782640Y-6409000D02*
G75*
G03*
X10782640Y-6409000I-40640J0D01*
G01*
X10782640Y-6663000D02*
G75*
G03*
X10782640Y-6663000I-40640J0D01*
G01*
X10782640Y-6917000D02*
G75*
G03*
X10782640Y-6917000I-40640J0D01*
G01*
X10912522Y-4242575D02*
G75*
G03*
X10912522Y-4242575I-40640J0D01*
G01*
X10912522Y-4496575D02*
G75*
G03*
X10912522Y-4496575I-40640J0D01*
G01*
X10912522Y-4750575D02*
G75*
G03*
X10912522Y-4750575I-40640J0D01*
G01*
X10912522Y-5004575D02*
G75*
G03*
X10912522Y-5004575I-40640J0D01*
G01*
X10912522Y-5258575D02*
G75*
G03*
X10912522Y-5258575I-40640J0D01*
G01*
X10912522Y-5512575D02*
G75*
G03*
X10912522Y-5512575I-40640J0D01*
G01*
X10912522Y-5766574D02*
G75*
G03*
X10912522Y-5766574I-40640J0D01*
G01*
X10912522Y-6020574D02*
G75*
G03*
X10912522Y-6020574I-40640J0D01*
G01*
X10912522Y-6274574D02*
G75*
G03*
X10912522Y-6274574I-40640J0D01*
G01*
X10912522Y-6528574D02*
G75*
G03*
X10912522Y-6528574I-40640J0D01*
G01*
X10912522Y-6782574D02*
G75*
G03*
X10912522Y-6782574I-40640J0D01*
G01*
X10912522Y-7036574D02*
G75*
G03*
X10912522Y-7036574I-40640J0D01*
G01*
D14*
X9130000Y-8305000D02*
X9130000Y-8405000D01*
X9080000Y-8355000D02*
X9180000Y-8355000D01*
D11*
X9105000Y-8395000D02*
X9155000Y-8395000D01*
X9105000Y-8315000D02*
X9155000Y-8315000D01*
X9155000Y-8395000D02*
G75*
G03*
X9155000Y-8315000I0J40000D01*
G01*
X9105000Y-8315000D02*
G75*
G03*
X9105000Y-8395000I0J-40000D01*
G01*
D14*
X9130000Y-8900000D02*
X9130000Y-9000000D01*
X9080000Y-8950000D02*
X9180000Y-8950000D01*
D11*
X9105000Y-8990000D02*
X9155000Y-8990000D01*
X9105000Y-8910000D02*
X9155000Y-8910000D01*
X9155000Y-8990000D02*
G75*
G03*
X9155000Y-8910000I0J40000D01*
G01*
X9105000Y-8910000D02*
G75*
G03*
X9105000Y-8990000I0J-40000D01*
G01*
D14*
X9250000Y-10150000D02*
X9250000Y-10250000D01*
X9200000Y-10200000D02*
X9300000Y-10200000D01*
X9250000Y-10400000D02*
X9250000Y-10500000D01*
X9200000Y-10450000D02*
X9300000Y-10450000D01*
X9250000Y-10650000D02*
X9250000Y-10750000D01*
X9200000Y-10700000D02*
X9300000Y-10700000D01*
X9430000Y-8305000D02*
X9430000Y-8405000D01*
X9380000Y-8355000D02*
X9480000Y-8355000D01*
D11*
X9405000Y-8395000D02*
X9455000Y-8395000D01*
X9405000Y-8315000D02*
X9455000Y-8315000D01*
X9455000Y-8395000D02*
G75*
G03*
X9455000Y-8315000I0J40000D01*
G01*
X9405000Y-8315000D02*
G75*
G03*
X9405000Y-8395000I0J-40000D01*
G01*
D14*
X9430000Y-8900000D02*
X9430000Y-9000000D01*
X9380000Y-8950000D02*
X9480000Y-8950000D01*
D11*
X9405000Y-8990000D02*
X9455000Y-8990000D01*
X9405000Y-8910000D02*
X9455000Y-8910000D01*
X9455000Y-8990000D02*
G75*
G03*
X9455000Y-8910000I0J40000D01*
G01*
X9405000Y-8910000D02*
G75*
G03*
X9405000Y-8990000I0J-40000D01*
G01*
D14*
X9472912Y-11439264D02*
X9472912Y-11539264D01*
X9422912Y-11489264D02*
X9522912Y-11489264D01*
X9482912Y-12095264D02*
X9482912Y-12195264D01*
X9432912Y-12145264D02*
X9532912Y-12145264D01*
X9732912Y-11439264D02*
X9732912Y-11539264D01*
X9682912Y-11489264D02*
X9782912Y-11489264D01*
X9742912Y-12095264D02*
X9742912Y-12195264D01*
X9692912Y-12145264D02*
X9792912Y-12145264D01*
X9830000Y-8305000D02*
X9830000Y-8405000D01*
X9780000Y-8355000D02*
X9880000Y-8355000D01*
D11*
X9805000Y-8395000D02*
X9855000Y-8395000D01*
X9805000Y-8315000D02*
X9855000Y-8315000D01*
X9855000Y-8395000D02*
G75*
G03*
X9855000Y-8315000I0J40000D01*
G01*
X9805000Y-8315000D02*
G75*
G03*
X9805000Y-8395000I0J-40000D01*
G01*
D14*
X9830000Y-8900000D02*
X9830000Y-9000000D01*
X9780000Y-8950000D02*
X9880000Y-8950000D01*
D11*
X9805000Y-8990000D02*
X9855000Y-8990000D01*
X9805000Y-8910000D02*
X9855000Y-8910000D01*
X9855000Y-8990000D02*
G75*
G03*
X9855000Y-8910000I0J40000D01*
G01*
X9805000Y-8910000D02*
G75*
G03*
X9805000Y-8990000I0J-40000D01*
G01*
D14*
X9980000Y-8480000D02*
X9980000Y-8580000D01*
X9930000Y-8530000D02*
X10030000Y-8530000D01*
D11*
X9955000Y-8570000D02*
X10005000Y-8570000D01*
X9955000Y-8490000D02*
X10005000Y-8490000D01*
X10005000Y-8570000D02*
G75*
G03*
X10005000Y-8490000I0J40000D01*
G01*
X9955000Y-8490000D02*
G75*
G03*
X9955000Y-8570000I0J-40000D01*
G01*
D14*
X9980000Y-8725000D02*
X9980000Y-8825000D01*
X9930000Y-8775000D02*
X10030000Y-8775000D01*
D11*
X9955000Y-8815000D02*
X10005000Y-8815000D01*
X9955000Y-8735000D02*
X10005000Y-8735000D01*
X10005000Y-8815000D02*
G75*
G03*
X10005000Y-8735000I0J40000D01*
G01*
X9955000Y-8735000D02*
G75*
G03*
X9955000Y-8815000I0J-40000D01*
G01*
D14*
X9982912Y-11439264D02*
X9982912Y-11539264D01*
X9932912Y-11489264D02*
X10032912Y-11489264D01*
X9992912Y-12095264D02*
X9992912Y-12195264D01*
X9942912Y-12145264D02*
X10042912Y-12145264D01*
X10700000Y-10150000D02*
X10700000Y-10250000D01*
X10650000Y-10200000D02*
X10750000Y-10200000D01*
X10700000Y-10650000D02*
X10700000Y-10750000D01*
X10650000Y-10700000D02*
X10750000Y-10700000D01*
X13063912Y-12108264D02*
X13063912Y-12208264D01*
X13013912Y-12158264D02*
X13113912Y-12158264D01*
X13264912Y-11409264D02*
X13264912Y-11509264D01*
X13214912Y-11459264D02*
X13314912Y-11459264D01*
X13317912Y-12108264D02*
X13317912Y-12208264D01*
X13267912Y-12158264D02*
X13367912Y-12158264D01*
X13518912Y-11409264D02*
X13518912Y-11509264D01*
X13468912Y-11459264D02*
X13568912Y-11459264D01*
X13571912Y-12108264D02*
X13571912Y-12208264D01*
X13521912Y-12158264D02*
X13621912Y-12158264D01*
X13772912Y-11409264D02*
X13772912Y-11509264D01*
X13722912Y-11459264D02*
X13822912Y-11459264D01*
X13825912Y-12108264D02*
X13825912Y-12208264D01*
X13775912Y-12158264D02*
X13875912Y-12158264D01*
X14026912Y-11409264D02*
X14026912Y-11509264D01*
X13976912Y-11459264D02*
X14076912Y-11459264D01*
D15*
X14126527Y-12194879D02*
X14126527Y-12117648D01*
X14049296Y-12117648D01*
X14049296Y-12194879D01*
X14126527Y-12194879D01*
X14327527Y-11495879D02*
X14327527Y-11418648D01*
X14250296Y-11418648D01*
X14250296Y-11495879D01*
X14327527Y-11495879D01*
D16*
X9000000Y-7490000D02*
X9065000Y-7425000D01*
X9000000Y-7360000D01*
X8935000Y-7425000D01*
X9000000Y-7490000D01*
X9000000Y-8140000D02*
X9065000Y-8075000D01*
X9000000Y-8010000D01*
X8935000Y-8075000D01*
X9000000Y-8140000D01*
D17*
X9925000Y-9815000D02*
X10075000Y-9965000D01*
X10075000Y-9815000D02*
X9925000Y-9965000D01*
X10075000Y-9890000D02*
G75*
G03*
X10075000Y-9890000I-75000J0D01*
G01*
D11*
X9935000Y-9955000D02*
X10065000Y-9955000D01*
X9935000Y-9825000D02*
X10065000Y-9825000D01*
X10065000Y-9955000D02*
G75*
G03*
X10065000Y-9825000I0J65000D01*
G01*
X9935000Y-9825000D02*
G75*
G03*
X9935000Y-9955000I0J-65000D01*
G01*
D17*
X9925000Y-10935000D02*
X10075000Y-11085000D01*
X10075000Y-10935000D02*
X9925000Y-11085000D01*
X10075000Y-11010000D02*
G75*
G03*
X10075000Y-11010000I-75000J0D01*
G01*
D11*
X9935000Y-11075000D02*
X10065000Y-11075000D01*
X9935000Y-10945000D02*
X10065000Y-10945000D01*
X10065000Y-11075000D02*
G75*
G03*
X10065000Y-10945000I0J65000D01*
G01*
X9935000Y-10945000D02*
G75*
G03*
X9935000Y-11075000I0J-65000D01*
G01*
D18*
X8884912Y-12228264D02*
X9104912Y-12448264D01*
X9104912Y-12228264D02*
X8884912Y-12448264D01*
X8994912Y-12228264D02*
X8994912Y-12448264D01*
X8884912Y-12338264D02*
X9104912Y-12338264D01*
X9040000Y-9240000D02*
X9260000Y-9460000D01*
X9260000Y-9240000D02*
X9040000Y-9460000D01*
X9150000Y-9240000D02*
X9150000Y-9460000D01*
X9040000Y-9350000D02*
X9260000Y-9350000D01*
X10590000Y-9240000D02*
X10810000Y-9460000D01*
X10810000Y-9240000D02*
X10590000Y-9460000D01*
X10700000Y-9240000D02*
X10700000Y-9460000D01*
X10590000Y-9350000D02*
X10810000Y-9350000D01*
X16058912Y-12171264D02*
X16278912Y-12391264D01*
X16278912Y-12171264D02*
X16058912Y-12391264D01*
X16168912Y-12171264D02*
X16168912Y-12391264D01*
X16058912Y-12281264D02*
X16278912Y-12281264D01*
D19*
X10434912Y-11132264D02*
X10844912Y-11542264D01*
X10844912Y-11132264D02*
X10434912Y-11542264D01*
X10784870Y-11482222D02*
X10784870Y-11192306D01*
X10494954Y-11192306D01*
X10494954Y-11482222D01*
X10784870Y-11482222D01*
X12832512Y-9380264D02*
X13242512Y-9790264D01*
X13242512Y-9380264D02*
X12832512Y-9790264D01*
X13182470Y-9730222D02*
X13182470Y-9440306D01*
X12892554Y-9440306D01*
X12892554Y-9730222D01*
X13182470Y-9730222D01*
X12847712Y-5552364D02*
X13257712Y-5962364D01*
X13257712Y-5552364D02*
X12847712Y-5962364D01*
X13197670Y-5902322D02*
X13197670Y-5612406D01*
X12907754Y-5612406D01*
X12907754Y-5902322D01*
X13197670Y-5902322D01*
X20404412Y-10722764D02*
X20814412Y-11132764D01*
X20814412Y-10722764D02*
X20404412Y-11132764D01*
X20754370Y-11072722D02*
X20754370Y-10782806D01*
X20464454Y-10782806D01*
X20464454Y-11072722D01*
X20754370Y-11072722D01*
X20411412Y-6930764D02*
X20821412Y-7340764D01*
X20821412Y-6930764D02*
X20411412Y-7340764D01*
X20761370Y-7280722D02*
X20761370Y-6990806D01*
X20471454Y-6990806D01*
X20471454Y-7280722D01*
X20761370Y-7280722D01*
D11*
X8109535Y-15400033D02*
X8109535Y-15200033D01*
X8157154Y-15200033D01*
X8185725Y-15209557D01*
X8204773Y-15228604D01*
X8214297Y-15247652D01*
X8223820Y-15285747D01*
X8223820Y-15314319D01*
X8214297Y-15352414D01*
X8204773Y-15371461D01*
X8185725Y-15390509D01*
X8157154Y-15400033D01*
X8109535Y-15400033D01*
X8309535Y-15400033D02*
X8309535Y-15266700D01*
X8309535Y-15304795D02*
X8319059Y-15285747D01*
X8328582Y-15276223D01*
X8347630Y-15266700D01*
X8366678Y-15266700D01*
X8433344Y-15400033D02*
X8433344Y-15266700D01*
X8433344Y-15200033D02*
X8423821Y-15209557D01*
X8433344Y-15219081D01*
X8442868Y-15209557D01*
X8433344Y-15200033D01*
X8433344Y-15219081D01*
X8557154Y-15400033D02*
X8538106Y-15390509D01*
X8528582Y-15371461D01*
X8528582Y-15200033D01*
X8661916Y-15400033D02*
X8642868Y-15390509D01*
X8633344Y-15371461D01*
X8633344Y-15200033D01*
X8890487Y-15400033D02*
X8890487Y-15200033D01*
X8957154Y-15342890D01*
X9023821Y-15200033D01*
X9023821Y-15400033D01*
X9204773Y-15400033D02*
X9204773Y-15295271D01*
X9195249Y-15276223D01*
X9176202Y-15266700D01*
X9138106Y-15266700D01*
X9119059Y-15276223D01*
X9204773Y-15390509D02*
X9185725Y-15400033D01*
X9138106Y-15400033D01*
X9119059Y-15390509D01*
X9109535Y-15371461D01*
X9109535Y-15352414D01*
X9119059Y-15333366D01*
X9138106Y-15323842D01*
X9185725Y-15323842D01*
X9204773Y-15314319D01*
X9300011Y-15266700D02*
X9300011Y-15466700D01*
X9300011Y-15276223D02*
X9319059Y-15266700D01*
X9357154Y-15266700D01*
X9376202Y-15276223D01*
X9385725Y-15285747D01*
X9395249Y-15304795D01*
X9395249Y-15361938D01*
X9385725Y-15380985D01*
X9376202Y-15390509D01*
X9357154Y-15400033D01*
X9319059Y-15400033D01*
X9300011Y-15390509D01*
X9480963Y-15380985D02*
X9490487Y-15390509D01*
X9480963Y-15400033D01*
X9471440Y-15390509D01*
X9480963Y-15380985D01*
X9480963Y-15400033D01*
X9480963Y-15276223D02*
X9490487Y-15285747D01*
X9480963Y-15295271D01*
X9471440Y-15285747D01*
X9480963Y-15276223D01*
X9480963Y-15295271D01*
D12*
X7821916Y-15714557D02*
X7851916Y-15744557D01*
X7851916Y-15714557D02*
X7821916Y-15744557D01*
D11*
X8147630Y-15620033D02*
X8166678Y-15620033D01*
X8185725Y-15629557D01*
X8195249Y-15639081D01*
X8204773Y-15658128D01*
X8214297Y-15696223D01*
X8214297Y-15743842D01*
X8204773Y-15781938D01*
X8195249Y-15800985D01*
X8185725Y-15810509D01*
X8166678Y-15820033D01*
X8147630Y-15820033D01*
X8128582Y-15810509D01*
X8119059Y-15800985D01*
X8109535Y-15781938D01*
X8100011Y-15743842D01*
X8100011Y-15696223D01*
X8109535Y-15658128D01*
X8119059Y-15639081D01*
X8128582Y-15629557D01*
X8147630Y-15620033D01*
X8300011Y-15800985D02*
X8309535Y-15810509D01*
X8300011Y-15820033D01*
X8290487Y-15810509D01*
X8300011Y-15800985D01*
X8300011Y-15820033D01*
X8376201Y-15620033D02*
X8500011Y-15620033D01*
X8433344Y-15696223D01*
X8461916Y-15696223D01*
X8480963Y-15705747D01*
X8490487Y-15715271D01*
X8500011Y-15734319D01*
X8500011Y-15781938D01*
X8490487Y-15800985D01*
X8480963Y-15810509D01*
X8461916Y-15820033D01*
X8404773Y-15820033D01*
X8385725Y-15810509D01*
X8376201Y-15800985D01*
X8623821Y-15620033D02*
X8642868Y-15620033D01*
X8661916Y-15629557D01*
X8671440Y-15639081D01*
X8680963Y-15658128D01*
X8690487Y-15696223D01*
X8690487Y-15743842D01*
X8680963Y-15781938D01*
X8671440Y-15800985D01*
X8661916Y-15810509D01*
X8642868Y-15820033D01*
X8623821Y-15820033D01*
X8604773Y-15810509D01*
X8595249Y-15800985D01*
X8585725Y-15781938D01*
X8576202Y-15743842D01*
X8576202Y-15696223D01*
X8585725Y-15658128D01*
X8595249Y-15639081D01*
X8604773Y-15629557D01*
X8623821Y-15620033D01*
X8814297Y-15620033D02*
X8833344Y-15620033D01*
X8852392Y-15629557D01*
X8861916Y-15639081D01*
X8871440Y-15658128D01*
X8880963Y-15696223D01*
X8880963Y-15743842D01*
X8871440Y-15781938D01*
X8861916Y-15800985D01*
X8852392Y-15810509D01*
X8833344Y-15820033D01*
X8814297Y-15820033D01*
X8795249Y-15810509D01*
X8785725Y-15800985D01*
X8776202Y-15781938D01*
X8766678Y-15743842D01*
X8766678Y-15696223D01*
X8776202Y-15658128D01*
X8785725Y-15639081D01*
X8795249Y-15629557D01*
X8814297Y-15620033D01*
X8966678Y-15820033D02*
X8966678Y-15686700D01*
X8966678Y-15705747D02*
X8976202Y-15696223D01*
X8995249Y-15686700D01*
X9023821Y-15686700D01*
X9042868Y-15696223D01*
X9052392Y-15715271D01*
X9052392Y-15820033D01*
X9052392Y-15715271D02*
X9061916Y-15696223D01*
X9080963Y-15686700D01*
X9109535Y-15686700D01*
X9128582Y-15696223D01*
X9138106Y-15715271D01*
X9138106Y-15820033D01*
X9233344Y-15820033D02*
X9233344Y-15686700D01*
X9233344Y-15705747D02*
X9242868Y-15696223D01*
X9261916Y-15686700D01*
X9290487Y-15686700D01*
X9309535Y-15696223D01*
X9319059Y-15715271D01*
X9319059Y-15820033D01*
X9319059Y-15715271D02*
X9328582Y-15696223D01*
X9347630Y-15686700D01*
X9376202Y-15686700D01*
X9395249Y-15696223D01*
X9404773Y-15715271D01*
X9404773Y-15820033D01*
X9795249Y-15610509D02*
X9623821Y-15867652D01*
X10052392Y-15620033D02*
X10071440Y-15620033D01*
X10090487Y-15629557D01*
X10100011Y-15639081D01*
X10109535Y-15658128D01*
X10119059Y-15696223D01*
X10119059Y-15743842D01*
X10109535Y-15781938D01*
X10100011Y-15800985D01*
X10090487Y-15810509D01*
X10071440Y-15820033D01*
X10052392Y-15820033D01*
X10033344Y-15810509D01*
X10023821Y-15800985D01*
X10014297Y-15781938D01*
X10004773Y-15743842D01*
X10004773Y-15696223D01*
X10014297Y-15658128D01*
X10023821Y-15639081D01*
X10033344Y-15629557D01*
X10052392Y-15620033D01*
X10204773Y-15800985D02*
X10214297Y-15810509D01*
X10204773Y-15820033D01*
X10195249Y-15810509D01*
X10204773Y-15800985D01*
X10204773Y-15820033D01*
X10338106Y-15620033D02*
X10357154Y-15620033D01*
X10376202Y-15629557D01*
X10385725Y-15639081D01*
X10395249Y-15658128D01*
X10404773Y-15696223D01*
X10404773Y-15743842D01*
X10395249Y-15781938D01*
X10385725Y-15800985D01*
X10376202Y-15810509D01*
X10357154Y-15820033D01*
X10338106Y-15820033D01*
X10319059Y-15810509D01*
X10309535Y-15800985D01*
X10300011Y-15781938D01*
X10290487Y-15743842D01*
X10290487Y-15696223D01*
X10300011Y-15658128D01*
X10309535Y-15639081D01*
X10319059Y-15629557D01*
X10338106Y-15620033D01*
X10595249Y-15820033D02*
X10480963Y-15820033D01*
X10538106Y-15820033D02*
X10538106Y-15620033D01*
X10519059Y-15648604D01*
X10500011Y-15667652D01*
X10480963Y-15677176D01*
X10785725Y-15820033D02*
X10671440Y-15820033D01*
X10728582Y-15820033D02*
X10728582Y-15620033D01*
X10709535Y-15648604D01*
X10690487Y-15667652D01*
X10671440Y-15677176D01*
X10900011Y-15705747D02*
X10880963Y-15696223D01*
X10871440Y-15686700D01*
X10861916Y-15667652D01*
X10861916Y-15658128D01*
X10871440Y-15639081D01*
X10880963Y-15629557D01*
X10900011Y-15620033D01*
X10938106Y-15620033D01*
X10957154Y-15629557D01*
X10966678Y-15639081D01*
X10976202Y-15658128D01*
X10976202Y-15667652D01*
X10966678Y-15686700D01*
X10957154Y-15696223D01*
X10938106Y-15705747D01*
X10900011Y-15705747D01*
X10880963Y-15715271D01*
X10871440Y-15724795D01*
X10861916Y-15743842D01*
X10861916Y-15781938D01*
X10871440Y-15800985D01*
X10880963Y-15810509D01*
X10900011Y-15820033D01*
X10938106Y-15820033D01*
X10957154Y-15810509D01*
X10966678Y-15800985D01*
X10976202Y-15781938D01*
X10976202Y-15743842D01*
X10966678Y-15724795D01*
X10957154Y-15715271D01*
X10938106Y-15705747D01*
X11052392Y-15620033D02*
X11052392Y-15658128D01*
X11128582Y-15620033D02*
X11128582Y-15658128D01*
X11423820Y-15896223D02*
X11414297Y-15886700D01*
X11395249Y-15858128D01*
X11385725Y-15839081D01*
X11376201Y-15810509D01*
X11366678Y-15762890D01*
X11366678Y-15724795D01*
X11376201Y-15677176D01*
X11385725Y-15648604D01*
X11395249Y-15629557D01*
X11414297Y-15600985D01*
X11423820Y-15591461D01*
X11585725Y-15686700D02*
X11585725Y-15820033D01*
X11538106Y-15610509D02*
X11490487Y-15753366D01*
X11614297Y-15753366D01*
X11795249Y-15820033D02*
X11680963Y-15820033D01*
X11738106Y-15820033D02*
X11738106Y-15620033D01*
X11719059Y-15648604D01*
X11700011Y-15667652D01*
X11680963Y-15677176D01*
X11966678Y-15620033D02*
X11928582Y-15620033D01*
X11909535Y-15629557D01*
X11900011Y-15639081D01*
X11880963Y-15667652D01*
X11871440Y-15705747D01*
X11871440Y-15781938D01*
X11880963Y-15800985D01*
X11890487Y-15810509D01*
X11909535Y-15820033D01*
X11947630Y-15820033D01*
X11966678Y-15810509D01*
X11976201Y-15800985D01*
X11985725Y-15781938D01*
X11985725Y-15734319D01*
X11976201Y-15715271D01*
X11966678Y-15705747D01*
X11947630Y-15696223D01*
X11909535Y-15696223D01*
X11890487Y-15705747D01*
X11880963Y-15715271D01*
X11871440Y-15734319D01*
X12223820Y-15820033D02*
X12223820Y-15620033D01*
X12309535Y-15820033D02*
X12309535Y-15715271D01*
X12300011Y-15696223D01*
X12280963Y-15686700D01*
X12252392Y-15686700D01*
X12233344Y-15696223D01*
X12223820Y-15705747D01*
X12433344Y-15820033D02*
X12414297Y-15810509D01*
X12404773Y-15800985D01*
X12395249Y-15781938D01*
X12395249Y-15724795D01*
X12404773Y-15705747D01*
X12414297Y-15696223D01*
X12433344Y-15686700D01*
X12461916Y-15686700D01*
X12480963Y-15696223D01*
X12490487Y-15705747D01*
X12500011Y-15724795D01*
X12500011Y-15781938D01*
X12490487Y-15800985D01*
X12480963Y-15810509D01*
X12461916Y-15820033D01*
X12433344Y-15820033D01*
X12614297Y-15820033D02*
X12595249Y-15810509D01*
X12585725Y-15791461D01*
X12585725Y-15620033D01*
X12766678Y-15810509D02*
X12747630Y-15820033D01*
X12709535Y-15820033D01*
X12690487Y-15810509D01*
X12680963Y-15791461D01*
X12680963Y-15715271D01*
X12690487Y-15696223D01*
X12709535Y-15686700D01*
X12747630Y-15686700D01*
X12766678Y-15696223D01*
X12776201Y-15715271D01*
X12776201Y-15734319D01*
X12680963Y-15753366D01*
X12852392Y-15810509D02*
X12871440Y-15820033D01*
X12909535Y-15820033D01*
X12928582Y-15810509D01*
X12938106Y-15791461D01*
X12938106Y-15781938D01*
X12928582Y-15762890D01*
X12909535Y-15753366D01*
X12880963Y-15753366D01*
X12861916Y-15743842D01*
X12852392Y-15724795D01*
X12852392Y-15715271D01*
X12861916Y-15696223D01*
X12880963Y-15686700D01*
X12909535Y-15686700D01*
X12928582Y-15696223D01*
X13004773Y-15896223D02*
X13014297Y-15886700D01*
X13033344Y-15858128D01*
X13042868Y-15839081D01*
X13052392Y-15810509D01*
X13061916Y-15762890D01*
X13061916Y-15724795D01*
X13052392Y-15677176D01*
X13042868Y-15648604D01*
X13033344Y-15629557D01*
X13014297Y-15600985D01*
X13004773Y-15591461D01*
D13*
X7851916Y-15993557D02*
G75*
G03*
X7851916Y-15993557I-40640J0D01*
G01*
D11*
X8147630Y-15884033D02*
X8166678Y-15884033D01*
X8185725Y-15893557D01*
X8195249Y-15903081D01*
X8204773Y-15922128D01*
X8214297Y-15960223D01*
X8214297Y-16007842D01*
X8204773Y-16045938D01*
X8195249Y-16064985D01*
X8185725Y-16074509D01*
X8166678Y-16084033D01*
X8147630Y-16084033D01*
X8128582Y-16074509D01*
X8119059Y-16064985D01*
X8109535Y-16045938D01*
X8100011Y-16007842D01*
X8100011Y-15960223D01*
X8109535Y-15922128D01*
X8119059Y-15903081D01*
X8128582Y-15893557D01*
X8147630Y-15884033D01*
X8300011Y-16064985D02*
X8309535Y-16074509D01*
X8300011Y-16084033D01*
X8290487Y-16074509D01*
X8300011Y-16064985D01*
X8300011Y-16084033D01*
X8423821Y-15969747D02*
X8404773Y-15960223D01*
X8395249Y-15950700D01*
X8385725Y-15931652D01*
X8385725Y-15922128D01*
X8395249Y-15903081D01*
X8404773Y-15893557D01*
X8423821Y-15884033D01*
X8461916Y-15884033D01*
X8480963Y-15893557D01*
X8490487Y-15903081D01*
X8500011Y-15922128D01*
X8500011Y-15931652D01*
X8490487Y-15950700D01*
X8480963Y-15960223D01*
X8461916Y-15969747D01*
X8423821Y-15969747D01*
X8404773Y-15979271D01*
X8395249Y-15988795D01*
X8385725Y-16007842D01*
X8385725Y-16045938D01*
X8395249Y-16064985D01*
X8404773Y-16074509D01*
X8423821Y-16084033D01*
X8461916Y-16084033D01*
X8480963Y-16074509D01*
X8490487Y-16064985D01*
X8500011Y-16045938D01*
X8500011Y-16007842D01*
X8490487Y-15988795D01*
X8480963Y-15979271D01*
X8461916Y-15969747D01*
X8690487Y-16084033D02*
X8576202Y-16084033D01*
X8633344Y-16084033D02*
X8633344Y-15884033D01*
X8614297Y-15912604D01*
X8595249Y-15931652D01*
X8576202Y-15941176D01*
X8757154Y-15884033D02*
X8880963Y-15884033D01*
X8814297Y-15960223D01*
X8842868Y-15960223D01*
X8861916Y-15969747D01*
X8871440Y-15979271D01*
X8880963Y-15998319D01*
X8880963Y-16045938D01*
X8871440Y-16064985D01*
X8861916Y-16074509D01*
X8842868Y-16084033D01*
X8785725Y-16084033D01*
X8766678Y-16074509D01*
X8757154Y-16064985D01*
X8966678Y-16084033D02*
X8966678Y-15950700D01*
X8966678Y-15969747D02*
X8976202Y-15960223D01*
X8995249Y-15950700D01*
X9023821Y-15950700D01*
X9042868Y-15960223D01*
X9052392Y-15979271D01*
X9052392Y-16084033D01*
X9052392Y-15979271D02*
X9061916Y-15960223D01*
X9080963Y-15950700D01*
X9109535Y-15950700D01*
X9128582Y-15960223D01*
X9138106Y-15979271D01*
X9138106Y-16084033D01*
X9233344Y-16084033D02*
X9233344Y-15950700D01*
X9233344Y-15969747D02*
X9242868Y-15960223D01*
X9261916Y-15950700D01*
X9290487Y-15950700D01*
X9309535Y-15960223D01*
X9319059Y-15979271D01*
X9319059Y-16084033D01*
X9319059Y-15979271D02*
X9328582Y-15960223D01*
X9347630Y-15950700D01*
X9376202Y-15950700D01*
X9395249Y-15960223D01*
X9404773Y-15979271D01*
X9404773Y-16084033D01*
X9795249Y-15874509D02*
X9623821Y-16131652D01*
X10052392Y-15884033D02*
X10071440Y-15884033D01*
X10090487Y-15893557D01*
X10100011Y-15903081D01*
X10109535Y-15922128D01*
X10119059Y-15960223D01*
X10119059Y-16007842D01*
X10109535Y-16045938D01*
X10100011Y-16064985D01*
X10090487Y-16074509D01*
X10071440Y-16084033D01*
X10052392Y-16084033D01*
X10033344Y-16074509D01*
X10023821Y-16064985D01*
X10014297Y-16045938D01*
X10004773Y-16007842D01*
X10004773Y-15960223D01*
X10014297Y-15922128D01*
X10023821Y-15903081D01*
X10033344Y-15893557D01*
X10052392Y-15884033D01*
X10204773Y-16064985D02*
X10214297Y-16074509D01*
X10204773Y-16084033D01*
X10195249Y-16074509D01*
X10204773Y-16064985D01*
X10204773Y-16084033D01*
X10338106Y-15884033D02*
X10357154Y-15884033D01*
X10376202Y-15893557D01*
X10385725Y-15903081D01*
X10395249Y-15922128D01*
X10404773Y-15960223D01*
X10404773Y-16007842D01*
X10395249Y-16045938D01*
X10385725Y-16064985D01*
X10376202Y-16074509D01*
X10357154Y-16084033D01*
X10338106Y-16084033D01*
X10319059Y-16074509D01*
X10309535Y-16064985D01*
X10300011Y-16045938D01*
X10290487Y-16007842D01*
X10290487Y-15960223D01*
X10300011Y-15922128D01*
X10309535Y-15903081D01*
X10319059Y-15893557D01*
X10338106Y-15884033D01*
X10471440Y-15884033D02*
X10595249Y-15884033D01*
X10528582Y-15960223D01*
X10557154Y-15960223D01*
X10576202Y-15969747D01*
X10585725Y-15979271D01*
X10595249Y-15998319D01*
X10595249Y-16045938D01*
X10585725Y-16064985D01*
X10576202Y-16074509D01*
X10557154Y-16084033D01*
X10500011Y-16084033D01*
X10480963Y-16074509D01*
X10471440Y-16064985D01*
X10671440Y-15903081D02*
X10680963Y-15893557D01*
X10700011Y-15884033D01*
X10747630Y-15884033D01*
X10766678Y-15893557D01*
X10776202Y-15903081D01*
X10785725Y-15922128D01*
X10785725Y-15941176D01*
X10776202Y-15969747D01*
X10661916Y-16084033D01*
X10785725Y-16084033D01*
X10909535Y-15884033D02*
X10928582Y-15884033D01*
X10947630Y-15893557D01*
X10957154Y-15903081D01*
X10966678Y-15922128D01*
X10976202Y-15960223D01*
X10976202Y-16007842D01*
X10966678Y-16045938D01*
X10957154Y-16064985D01*
X10947630Y-16074509D01*
X10928582Y-16084033D01*
X10909535Y-16084033D01*
X10890487Y-16074509D01*
X10880963Y-16064985D01*
X10871440Y-16045938D01*
X10861916Y-16007842D01*
X10861916Y-15960223D01*
X10871440Y-15922128D01*
X10880963Y-15903081D01*
X10890487Y-15893557D01*
X10909535Y-15884033D01*
X11052392Y-15884033D02*
X11052392Y-15922128D01*
X11128582Y-15884033D02*
X11128582Y-15922128D01*
X11423820Y-16160223D02*
X11414297Y-16150700D01*
X11395249Y-16122128D01*
X11385725Y-16103081D01*
X11376201Y-16074509D01*
X11366678Y-16026890D01*
X11366678Y-15988795D01*
X11376201Y-15941176D01*
X11385725Y-15912604D01*
X11395249Y-15893557D01*
X11414297Y-15864985D01*
X11423820Y-15855461D01*
X11595249Y-15884033D02*
X11500011Y-15884033D01*
X11490487Y-15979271D01*
X11500011Y-15969747D01*
X11519059Y-15960223D01*
X11566678Y-15960223D01*
X11585725Y-15969747D01*
X11595249Y-15979271D01*
X11604773Y-15998319D01*
X11604773Y-16045938D01*
X11595249Y-16064985D01*
X11585725Y-16074509D01*
X11566678Y-16084033D01*
X11519059Y-16084033D01*
X11500011Y-16074509D01*
X11490487Y-16064985D01*
X11719059Y-15969747D02*
X11700011Y-15960223D01*
X11690487Y-15950700D01*
X11680963Y-15931652D01*
X11680963Y-15922128D01*
X11690487Y-15903081D01*
X11700011Y-15893557D01*
X11719059Y-15884033D01*
X11757154Y-15884033D01*
X11776201Y-15893557D01*
X11785725Y-15903081D01*
X11795249Y-15922128D01*
X11795249Y-15931652D01*
X11785725Y-15950700D01*
X11776201Y-15960223D01*
X11757154Y-15969747D01*
X11719059Y-15969747D01*
X11700011Y-15979271D01*
X11690487Y-15988795D01*
X11680963Y-16007842D01*
X11680963Y-16045938D01*
X11690487Y-16064985D01*
X11700011Y-16074509D01*
X11719059Y-16084033D01*
X11757154Y-16084033D01*
X11776201Y-16074509D01*
X11785725Y-16064985D01*
X11795249Y-16045938D01*
X11795249Y-16007842D01*
X11785725Y-15988795D01*
X11776201Y-15979271D01*
X11757154Y-15969747D01*
X12033344Y-16084033D02*
X12033344Y-15884033D01*
X12119059Y-16084033D02*
X12119059Y-15979271D01*
X12109535Y-15960223D01*
X12090487Y-15950700D01*
X12061916Y-15950700D01*
X12042868Y-15960223D01*
X12033344Y-15969747D01*
X12242868Y-16084033D02*
X12223820Y-16074509D01*
X12214297Y-16064985D01*
X12204773Y-16045938D01*
X12204773Y-15988795D01*
X12214297Y-15969747D01*
X12223820Y-15960223D01*
X12242868Y-15950700D01*
X12271440Y-15950700D01*
X12290487Y-15960223D01*
X12300011Y-15969747D01*
X12309535Y-15988795D01*
X12309535Y-16045938D01*
X12300011Y-16064985D01*
X12290487Y-16074509D01*
X12271440Y-16084033D01*
X12242868Y-16084033D01*
X12423820Y-16084033D02*
X12404773Y-16074509D01*
X12395249Y-16055461D01*
X12395249Y-15884033D01*
X12576201Y-16074509D02*
X12557154Y-16084033D01*
X12519059Y-16084033D01*
X12500011Y-16074509D01*
X12490487Y-16055461D01*
X12490487Y-15979271D01*
X12500011Y-15960223D01*
X12519059Y-15950700D01*
X12557154Y-15950700D01*
X12576201Y-15960223D01*
X12585725Y-15979271D01*
X12585725Y-15998319D01*
X12490487Y-16017366D01*
X12661916Y-16074509D02*
X12680963Y-16084033D01*
X12719059Y-16084033D01*
X12738106Y-16074509D01*
X12747630Y-16055461D01*
X12747630Y-16045938D01*
X12738106Y-16026890D01*
X12719059Y-16017366D01*
X12690487Y-16017366D01*
X12671440Y-16007842D01*
X12661916Y-15988795D01*
X12661916Y-15979271D01*
X12671440Y-15960223D01*
X12690487Y-15950700D01*
X12719059Y-15950700D01*
X12738106Y-15960223D01*
X12814297Y-16160223D02*
X12823820Y-16150700D01*
X12842868Y-16122128D01*
X12852392Y-16103081D01*
X12861916Y-16074509D01*
X12871440Y-16026890D01*
X12871440Y-15988795D01*
X12861916Y-15941176D01*
X12852392Y-15912604D01*
X12842868Y-15893557D01*
X12823820Y-15864985D01*
X12814297Y-15855461D01*
D14*
X7801916Y-16207557D02*
X7801916Y-16307557D01*
X7751916Y-16257557D02*
X7851916Y-16257557D01*
D11*
X8214297Y-16348033D02*
X8100011Y-16348033D01*
X8157154Y-16348033D02*
X8157154Y-16148033D01*
X8138106Y-16176604D01*
X8119059Y-16195652D01*
X8100011Y-16205176D01*
X8300011Y-16328985D02*
X8309535Y-16338509D01*
X8300011Y-16348033D01*
X8290487Y-16338509D01*
X8300011Y-16328985D01*
X8300011Y-16348033D01*
X8433344Y-16148033D02*
X8452392Y-16148033D01*
X8471440Y-16157557D01*
X8480963Y-16167081D01*
X8490487Y-16186128D01*
X8500011Y-16224223D01*
X8500011Y-16271842D01*
X8490487Y-16309938D01*
X8480963Y-16328985D01*
X8471440Y-16338509D01*
X8452392Y-16348033D01*
X8433344Y-16348033D01*
X8414297Y-16338509D01*
X8404773Y-16328985D01*
X8395249Y-16309938D01*
X8385725Y-16271842D01*
X8385725Y-16224223D01*
X8395249Y-16186128D01*
X8404773Y-16167081D01*
X8414297Y-16157557D01*
X8433344Y-16148033D01*
X8623821Y-16148033D02*
X8642868Y-16148033D01*
X8661916Y-16157557D01*
X8671440Y-16167081D01*
X8680963Y-16186128D01*
X8690487Y-16224223D01*
X8690487Y-16271842D01*
X8680963Y-16309938D01*
X8671440Y-16328985D01*
X8661916Y-16338509D01*
X8642868Y-16348033D01*
X8623821Y-16348033D01*
X8604773Y-16338509D01*
X8595249Y-16328985D01*
X8585725Y-16309938D01*
X8576202Y-16271842D01*
X8576202Y-16224223D01*
X8585725Y-16186128D01*
X8595249Y-16167081D01*
X8604773Y-16157557D01*
X8623821Y-16148033D01*
X8814297Y-16148033D02*
X8833344Y-16148033D01*
X8852392Y-16157557D01*
X8861916Y-16167081D01*
X8871440Y-16186128D01*
X8880963Y-16224223D01*
X8880963Y-16271842D01*
X8871440Y-16309938D01*
X8861916Y-16328985D01*
X8852392Y-16338509D01*
X8833344Y-16348033D01*
X8814297Y-16348033D01*
X8795249Y-16338509D01*
X8785725Y-16328985D01*
X8776202Y-16309938D01*
X8766678Y-16271842D01*
X8766678Y-16224223D01*
X8776202Y-16186128D01*
X8785725Y-16167081D01*
X8795249Y-16157557D01*
X8814297Y-16148033D01*
X8966678Y-16348033D02*
X8966678Y-16214700D01*
X8966678Y-16233747D02*
X8976202Y-16224223D01*
X8995249Y-16214700D01*
X9023821Y-16214700D01*
X9042868Y-16224223D01*
X9052392Y-16243271D01*
X9052392Y-16348033D01*
X9052392Y-16243271D02*
X9061916Y-16224223D01*
X9080963Y-16214700D01*
X9109535Y-16214700D01*
X9128582Y-16224223D01*
X9138106Y-16243271D01*
X9138106Y-16348033D01*
X9233344Y-16348033D02*
X9233344Y-16214700D01*
X9233344Y-16233747D02*
X9242868Y-16224223D01*
X9261916Y-16214700D01*
X9290487Y-16214700D01*
X9309535Y-16224223D01*
X9319059Y-16243271D01*
X9319059Y-16348033D01*
X9319059Y-16243271D02*
X9328582Y-16224223D01*
X9347630Y-16214700D01*
X9376202Y-16214700D01*
X9395249Y-16224223D01*
X9404773Y-16243271D01*
X9404773Y-16348033D01*
X9795249Y-16138509D02*
X9623821Y-16395652D01*
X10052392Y-16148033D02*
X10071440Y-16148033D01*
X10090487Y-16157557D01*
X10100011Y-16167081D01*
X10109535Y-16186128D01*
X10119059Y-16224223D01*
X10119059Y-16271842D01*
X10109535Y-16309938D01*
X10100011Y-16328985D01*
X10090487Y-16338509D01*
X10071440Y-16348033D01*
X10052392Y-16348033D01*
X10033344Y-16338509D01*
X10023821Y-16328985D01*
X10014297Y-16309938D01*
X10004773Y-16271842D01*
X10004773Y-16224223D01*
X10014297Y-16186128D01*
X10023821Y-16167081D01*
X10033344Y-16157557D01*
X10052392Y-16148033D01*
X10204773Y-16328985D02*
X10214297Y-16338509D01*
X10204773Y-16348033D01*
X10195249Y-16338509D01*
X10204773Y-16328985D01*
X10204773Y-16348033D01*
X10338106Y-16148033D02*
X10357154Y-16148033D01*
X10376202Y-16157557D01*
X10385725Y-16167081D01*
X10395249Y-16186128D01*
X10404773Y-16224223D01*
X10404773Y-16271842D01*
X10395249Y-16309938D01*
X10385725Y-16328985D01*
X10376202Y-16338509D01*
X10357154Y-16348033D01*
X10338106Y-16348033D01*
X10319059Y-16338509D01*
X10309535Y-16328985D01*
X10300011Y-16309938D01*
X10290487Y-16271842D01*
X10290487Y-16224223D01*
X10300011Y-16186128D01*
X10309535Y-16167081D01*
X10319059Y-16157557D01*
X10338106Y-16148033D01*
X10471440Y-16148033D02*
X10595249Y-16148033D01*
X10528582Y-16224223D01*
X10557154Y-16224223D01*
X10576202Y-16233747D01*
X10585725Y-16243271D01*
X10595249Y-16262319D01*
X10595249Y-16309938D01*
X10585725Y-16328985D01*
X10576202Y-16338509D01*
X10557154Y-16348033D01*
X10500011Y-16348033D01*
X10480963Y-16338509D01*
X10471440Y-16328985D01*
X10690487Y-16348033D02*
X10728582Y-16348033D01*
X10747630Y-16338509D01*
X10757154Y-16328985D01*
X10776202Y-16300414D01*
X10785725Y-16262319D01*
X10785725Y-16186128D01*
X10776202Y-16167081D01*
X10766678Y-16157557D01*
X10747630Y-16148033D01*
X10709535Y-16148033D01*
X10690487Y-16157557D01*
X10680963Y-16167081D01*
X10671440Y-16186128D01*
X10671440Y-16233747D01*
X10680963Y-16252795D01*
X10690487Y-16262319D01*
X10709535Y-16271842D01*
X10747630Y-16271842D01*
X10766678Y-16262319D01*
X10776202Y-16252795D01*
X10785725Y-16233747D01*
X10957154Y-16214700D02*
X10957154Y-16348033D01*
X10909535Y-16138509D02*
X10861916Y-16281366D01*
X10985725Y-16281366D01*
X11052392Y-16148033D02*
X11052392Y-16186128D01*
X11128582Y-16148033D02*
X11128582Y-16186128D01*
X11423820Y-16424223D02*
X11414297Y-16414700D01*
X11395249Y-16386128D01*
X11385725Y-16367081D01*
X11376201Y-16338509D01*
X11366678Y-16290890D01*
X11366678Y-16252795D01*
X11376201Y-16205176D01*
X11385725Y-16176604D01*
X11395249Y-16157557D01*
X11414297Y-16128985D01*
X11423820Y-16119461D01*
X11604773Y-16348033D02*
X11490487Y-16348033D01*
X11547630Y-16348033D02*
X11547630Y-16148033D01*
X11528582Y-16176604D01*
X11509535Y-16195652D01*
X11490487Y-16205176D01*
X11700011Y-16348033D02*
X11738106Y-16348033D01*
X11757154Y-16338509D01*
X11766678Y-16328985D01*
X11785725Y-16300414D01*
X11795249Y-16262319D01*
X11795249Y-16186128D01*
X11785725Y-16167081D01*
X11776201Y-16157557D01*
X11757154Y-16148033D01*
X11719059Y-16148033D01*
X11700011Y-16157557D01*
X11690487Y-16167081D01*
X11680963Y-16186128D01*
X11680963Y-16233747D01*
X11690487Y-16252795D01*
X11700011Y-16262319D01*
X11719059Y-16271842D01*
X11757154Y-16271842D01*
X11776201Y-16262319D01*
X11785725Y-16252795D01*
X11795249Y-16233747D01*
X12033344Y-16348033D02*
X12033344Y-16148033D01*
X12119059Y-16348033D02*
X12119059Y-16243271D01*
X12109535Y-16224223D01*
X12090487Y-16214700D01*
X12061916Y-16214700D01*
X12042868Y-16224223D01*
X12033344Y-16233747D01*
X12242868Y-16348033D02*
X12223820Y-16338509D01*
X12214297Y-16328985D01*
X12204773Y-16309938D01*
X12204773Y-16252795D01*
X12214297Y-16233747D01*
X12223820Y-16224223D01*
X12242868Y-16214700D01*
X12271440Y-16214700D01*
X12290487Y-16224223D01*
X12300011Y-16233747D01*
X12309535Y-16252795D01*
X12309535Y-16309938D01*
X12300011Y-16328985D01*
X12290487Y-16338509D01*
X12271440Y-16348033D01*
X12242868Y-16348033D01*
X12423820Y-16348033D02*
X12404773Y-16338509D01*
X12395249Y-16319461D01*
X12395249Y-16148033D01*
X12576201Y-16338509D02*
X12557154Y-16348033D01*
X12519059Y-16348033D01*
X12500011Y-16338509D01*
X12490487Y-16319461D01*
X12490487Y-16243271D01*
X12500011Y-16224223D01*
X12519059Y-16214700D01*
X12557154Y-16214700D01*
X12576201Y-16224223D01*
X12585725Y-16243271D01*
X12585725Y-16262319D01*
X12490487Y-16281366D01*
X12661916Y-16338509D02*
X12680963Y-16348033D01*
X12719059Y-16348033D01*
X12738106Y-16338509D01*
X12747630Y-16319461D01*
X12747630Y-16309938D01*
X12738106Y-16290890D01*
X12719059Y-16281366D01*
X12690487Y-16281366D01*
X12671440Y-16271842D01*
X12661916Y-16252795D01*
X12661916Y-16243271D01*
X12671440Y-16224223D01*
X12690487Y-16214700D01*
X12719059Y-16214700D01*
X12738106Y-16224223D01*
X12985725Y-16271842D02*
X13138106Y-16271842D01*
X13061916Y-16348033D02*
X13061916Y-16195652D01*
X13414297Y-16233747D02*
X13395249Y-16224223D01*
X13385725Y-16214700D01*
X13376201Y-16195652D01*
X13376201Y-16186128D01*
X13385725Y-16167081D01*
X13395249Y-16157557D01*
X13414297Y-16148033D01*
X13452392Y-16148033D01*
X13471440Y-16157557D01*
X13480963Y-16167081D01*
X13490487Y-16186128D01*
X13490487Y-16195652D01*
X13480963Y-16214700D01*
X13471440Y-16224223D01*
X13452392Y-16233747D01*
X13414297Y-16233747D01*
X13395249Y-16243271D01*
X13385725Y-16252795D01*
X13376201Y-16271842D01*
X13376201Y-16309938D01*
X13385725Y-16328985D01*
X13395249Y-16338509D01*
X13414297Y-16348033D01*
X13452392Y-16348033D01*
X13471440Y-16338509D01*
X13480963Y-16328985D01*
X13490487Y-16309938D01*
X13490487Y-16271842D01*
X13480963Y-16252795D01*
X13471440Y-16243271D01*
X13452392Y-16233747D01*
X13719059Y-16338509D02*
X13738106Y-16348033D01*
X13776201Y-16348033D01*
X13795249Y-16338509D01*
X13804773Y-16319461D01*
X13804773Y-16309938D01*
X13795249Y-16290890D01*
X13776201Y-16281366D01*
X13747630Y-16281366D01*
X13728582Y-16271842D01*
X13719059Y-16252795D01*
X13719059Y-16243271D01*
X13728582Y-16224223D01*
X13747630Y-16214700D01*
X13776201Y-16214700D01*
X13795249Y-16224223D01*
X13919059Y-16348033D02*
X13900011Y-16338509D01*
X13890487Y-16319461D01*
X13890487Y-16148033D01*
X14023820Y-16348033D02*
X14004773Y-16338509D01*
X13995249Y-16328985D01*
X13985725Y-16309938D01*
X13985725Y-16252795D01*
X13995249Y-16233747D01*
X14004773Y-16224223D01*
X14023820Y-16214700D01*
X14052392Y-16214700D01*
X14071440Y-16224223D01*
X14080963Y-16233747D01*
X14090487Y-16252795D01*
X14090487Y-16309938D01*
X14080963Y-16328985D01*
X14071440Y-16338509D01*
X14052392Y-16348033D01*
X14023820Y-16348033D01*
X14147630Y-16214700D02*
X14223820Y-16214700D01*
X14176201Y-16148033D02*
X14176201Y-16319461D01*
X14185725Y-16338509D01*
X14204773Y-16348033D01*
X14223820Y-16348033D01*
X14280963Y-16338509D02*
X14300011Y-16348033D01*
X14338106Y-16348033D01*
X14357154Y-16338509D01*
X14366678Y-16319461D01*
X14366678Y-16309938D01*
X14357154Y-16290890D01*
X14338106Y-16281366D01*
X14309535Y-16281366D01*
X14290487Y-16271842D01*
X14280963Y-16252795D01*
X14280963Y-16243271D01*
X14290487Y-16224223D01*
X14309535Y-16214700D01*
X14338106Y-16214700D01*
X14357154Y-16224223D01*
X14433344Y-16424223D02*
X14442868Y-16414700D01*
X14461916Y-16386128D01*
X14471440Y-16367081D01*
X14480963Y-16338509D01*
X14490487Y-16290890D01*
X14490487Y-16252795D01*
X14480963Y-16205176D01*
X14471440Y-16176604D01*
X14461916Y-16157557D01*
X14442868Y-16128985D01*
X14433344Y-16119461D01*
D15*
X7835921Y-16560172D02*
X7835921Y-16482941D01*
X7758690Y-16482941D01*
X7758690Y-16560172D01*
X7835921Y-16560172D01*
D11*
X8214297Y-16612033D02*
X8100011Y-16612033D01*
X8157154Y-16612033D02*
X8157154Y-16412033D01*
X8138106Y-16440604D01*
X8119059Y-16459652D01*
X8100011Y-16469176D01*
X8300011Y-16592985D02*
X8309535Y-16602509D01*
X8300011Y-16612033D01*
X8290487Y-16602509D01*
X8300011Y-16592985D01*
X8300011Y-16612033D01*
X8433344Y-16412033D02*
X8452392Y-16412033D01*
X8471440Y-16421557D01*
X8480963Y-16431081D01*
X8490487Y-16450128D01*
X8500011Y-16488223D01*
X8500011Y-16535842D01*
X8490487Y-16573938D01*
X8480963Y-16592985D01*
X8471440Y-16602509D01*
X8452392Y-16612033D01*
X8433344Y-16612033D01*
X8414297Y-16602509D01*
X8404773Y-16592985D01*
X8395249Y-16573938D01*
X8385725Y-16535842D01*
X8385725Y-16488223D01*
X8395249Y-16450128D01*
X8404773Y-16431081D01*
X8414297Y-16421557D01*
X8433344Y-16412033D01*
X8595249Y-16612033D02*
X8633344Y-16612033D01*
X8652392Y-16602509D01*
X8661916Y-16592985D01*
X8680963Y-16564414D01*
X8690487Y-16526319D01*
X8690487Y-16450128D01*
X8680963Y-16431081D01*
X8671440Y-16421557D01*
X8652392Y-16412033D01*
X8614297Y-16412033D01*
X8595249Y-16421557D01*
X8585725Y-16431081D01*
X8576202Y-16450128D01*
X8576202Y-16497747D01*
X8585725Y-16516795D01*
X8595249Y-16526319D01*
X8614297Y-16535842D01*
X8652392Y-16535842D01*
X8671440Y-16526319D01*
X8680963Y-16516795D01*
X8690487Y-16497747D01*
X8766678Y-16431081D02*
X8776202Y-16421557D01*
X8795249Y-16412033D01*
X8842868Y-16412033D01*
X8861916Y-16421557D01*
X8871440Y-16431081D01*
X8880963Y-16450128D01*
X8880963Y-16469176D01*
X8871440Y-16497747D01*
X8757154Y-16612033D01*
X8880963Y-16612033D01*
X8966678Y-16612033D02*
X8966678Y-16478700D01*
X8966678Y-16497747D02*
X8976202Y-16488223D01*
X8995249Y-16478700D01*
X9023821Y-16478700D01*
X9042868Y-16488223D01*
X9052392Y-16507271D01*
X9052392Y-16612033D01*
X9052392Y-16507271D02*
X9061916Y-16488223D01*
X9080963Y-16478700D01*
X9109535Y-16478700D01*
X9128582Y-16488223D01*
X9138106Y-16507271D01*
X9138106Y-16612033D01*
X9233344Y-16612033D02*
X9233344Y-16478700D01*
X9233344Y-16497747D02*
X9242868Y-16488223D01*
X9261916Y-16478700D01*
X9290487Y-16478700D01*
X9309535Y-16488223D01*
X9319059Y-16507271D01*
X9319059Y-16612033D01*
X9319059Y-16507271D02*
X9328582Y-16488223D01*
X9347630Y-16478700D01*
X9376202Y-16478700D01*
X9395249Y-16488223D01*
X9404773Y-16507271D01*
X9404773Y-16612033D01*
X9795249Y-16402509D02*
X9623821Y-16659652D01*
X10052392Y-16412033D02*
X10071440Y-16412033D01*
X10090487Y-16421557D01*
X10100011Y-16431081D01*
X10109535Y-16450128D01*
X10119059Y-16488223D01*
X10119059Y-16535842D01*
X10109535Y-16573938D01*
X10100011Y-16592985D01*
X10090487Y-16602509D01*
X10071440Y-16612033D01*
X10052392Y-16612033D01*
X10033344Y-16602509D01*
X10023821Y-16592985D01*
X10014297Y-16573938D01*
X10004773Y-16535842D01*
X10004773Y-16488223D01*
X10014297Y-16450128D01*
X10023821Y-16431081D01*
X10033344Y-16421557D01*
X10052392Y-16412033D01*
X10204773Y-16592985D02*
X10214297Y-16602509D01*
X10204773Y-16612033D01*
X10195249Y-16602509D01*
X10204773Y-16592985D01*
X10204773Y-16612033D01*
X10338106Y-16412033D02*
X10357154Y-16412033D01*
X10376202Y-16421557D01*
X10385725Y-16431081D01*
X10395249Y-16450128D01*
X10404773Y-16488223D01*
X10404773Y-16535842D01*
X10395249Y-16573938D01*
X10385725Y-16592985D01*
X10376202Y-16602509D01*
X10357154Y-16612033D01*
X10338106Y-16612033D01*
X10319059Y-16602509D01*
X10309535Y-16592985D01*
X10300011Y-16573938D01*
X10290487Y-16535842D01*
X10290487Y-16488223D01*
X10300011Y-16450128D01*
X10309535Y-16431081D01*
X10319059Y-16421557D01*
X10338106Y-16412033D01*
X10576202Y-16478700D02*
X10576202Y-16612033D01*
X10528582Y-16402509D02*
X10480963Y-16545366D01*
X10604773Y-16545366D01*
X10661916Y-16412033D02*
X10785725Y-16412033D01*
X10719059Y-16488223D01*
X10747630Y-16488223D01*
X10766678Y-16497747D01*
X10776202Y-16507271D01*
X10785725Y-16526319D01*
X10785725Y-16573938D01*
X10776202Y-16592985D01*
X10766678Y-16602509D01*
X10747630Y-16612033D01*
X10690487Y-16612033D01*
X10671440Y-16602509D01*
X10661916Y-16592985D01*
X10909535Y-16412033D02*
X10928582Y-16412033D01*
X10947630Y-16421557D01*
X10957154Y-16431081D01*
X10966678Y-16450128D01*
X10976202Y-16488223D01*
X10976202Y-16535842D01*
X10966678Y-16573938D01*
X10957154Y-16592985D01*
X10947630Y-16602509D01*
X10928582Y-16612033D01*
X10909535Y-16612033D01*
X10890487Y-16602509D01*
X10880963Y-16592985D01*
X10871440Y-16573938D01*
X10861916Y-16535842D01*
X10861916Y-16488223D01*
X10871440Y-16450128D01*
X10880963Y-16431081D01*
X10890487Y-16421557D01*
X10909535Y-16412033D01*
X11052392Y-16412033D02*
X11052392Y-16450128D01*
X11128582Y-16412033D02*
X11128582Y-16450128D01*
X11423820Y-16688223D02*
X11414297Y-16678700D01*
X11395249Y-16650128D01*
X11385725Y-16631081D01*
X11376201Y-16602509D01*
X11366678Y-16554890D01*
X11366678Y-16516795D01*
X11376201Y-16469176D01*
X11385725Y-16440604D01*
X11395249Y-16421557D01*
X11414297Y-16392985D01*
X11423820Y-16383461D01*
X11490487Y-16431081D02*
X11500011Y-16421557D01*
X11519059Y-16412033D01*
X11566678Y-16412033D01*
X11585725Y-16421557D01*
X11595249Y-16431081D01*
X11604773Y-16450128D01*
X11604773Y-16469176D01*
X11595249Y-16497747D01*
X11480963Y-16612033D01*
X11604773Y-16612033D01*
X11842868Y-16612033D02*
X11842868Y-16412033D01*
X11928582Y-16612033D02*
X11928582Y-16507271D01*
X11919059Y-16488223D01*
X11900011Y-16478700D01*
X11871440Y-16478700D01*
X11852392Y-16488223D01*
X11842868Y-16497747D01*
X12052392Y-16612033D02*
X12033344Y-16602509D01*
X12023820Y-16592985D01*
X12014297Y-16573938D01*
X12014297Y-16516795D01*
X12023820Y-16497747D01*
X12033344Y-16488223D01*
X12052392Y-16478700D01*
X12080963Y-16478700D01*
X12100011Y-16488223D01*
X12109535Y-16497747D01*
X12119059Y-16516795D01*
X12119059Y-16573938D01*
X12109535Y-16592985D01*
X12100011Y-16602509D01*
X12080963Y-16612033D01*
X12052392Y-16612033D01*
X12233344Y-16612033D02*
X12214297Y-16602509D01*
X12204773Y-16583461D01*
X12204773Y-16412033D01*
X12385725Y-16602509D02*
X12366678Y-16612033D01*
X12328582Y-16612033D01*
X12309535Y-16602509D01*
X12300011Y-16583461D01*
X12300011Y-16507271D01*
X12309535Y-16488223D01*
X12328582Y-16478700D01*
X12366678Y-16478700D01*
X12385725Y-16488223D01*
X12395249Y-16507271D01*
X12395249Y-16526319D01*
X12300011Y-16545366D01*
X12471440Y-16602509D02*
X12490487Y-16612033D01*
X12528582Y-16612033D01*
X12547630Y-16602509D01*
X12557154Y-16583461D01*
X12557154Y-16573938D01*
X12547630Y-16554890D01*
X12528582Y-16545366D01*
X12500011Y-16545366D01*
X12480963Y-16535842D01*
X12471440Y-16516795D01*
X12471440Y-16507271D01*
X12480963Y-16488223D01*
X12500011Y-16478700D01*
X12528582Y-16478700D01*
X12547630Y-16488223D01*
X12623820Y-16688223D02*
X12633344Y-16678700D01*
X12652392Y-16650128D01*
X12661916Y-16631081D01*
X12671440Y-16602509D01*
X12680963Y-16554890D01*
X12680963Y-16516795D01*
X12671440Y-16469176D01*
X12661916Y-16440604D01*
X12652392Y-16421557D01*
X12633344Y-16392985D01*
X12623820Y-16383461D01*
D16*
X7786916Y-16850557D02*
X7851916Y-16785557D01*
X7786916Y-16720557D01*
X7721916Y-16785557D01*
X7786916Y-16850557D01*
D11*
X8214297Y-16876033D02*
X8100011Y-16876033D01*
X8157154Y-16876033D02*
X8157154Y-16676033D01*
X8138106Y-16704604D01*
X8119059Y-16723652D01*
X8100011Y-16733176D01*
X8300011Y-16856985D02*
X8309535Y-16866509D01*
X8300011Y-16876033D01*
X8290487Y-16866509D01*
X8300011Y-16856985D01*
X8300011Y-16876033D01*
X8376201Y-16676033D02*
X8500011Y-16676033D01*
X8433344Y-16752223D01*
X8461916Y-16752223D01*
X8480963Y-16761747D01*
X8490487Y-16771271D01*
X8500011Y-16790319D01*
X8500011Y-16837938D01*
X8490487Y-16856985D01*
X8480963Y-16866509D01*
X8461916Y-16876033D01*
X8404773Y-16876033D01*
X8385725Y-16866509D01*
X8376201Y-16856985D01*
X8623821Y-16676033D02*
X8642868Y-16676033D01*
X8661916Y-16685557D01*
X8671440Y-16695081D01*
X8680963Y-16714128D01*
X8690487Y-16752223D01*
X8690487Y-16799843D01*
X8680963Y-16837938D01*
X8671440Y-16856985D01*
X8661916Y-16866509D01*
X8642868Y-16876033D01*
X8623821Y-16876033D01*
X8604773Y-16866509D01*
X8595249Y-16856985D01*
X8585725Y-16837938D01*
X8576202Y-16799843D01*
X8576202Y-16752223D01*
X8585725Y-16714128D01*
X8595249Y-16695081D01*
X8604773Y-16685557D01*
X8623821Y-16676033D01*
X8814297Y-16676033D02*
X8833344Y-16676033D01*
X8852392Y-16685557D01*
X8861916Y-16695081D01*
X8871440Y-16714128D01*
X8880963Y-16752223D01*
X8880963Y-16799843D01*
X8871440Y-16837938D01*
X8861916Y-16856985D01*
X8852392Y-16866509D01*
X8833344Y-16876033D01*
X8814297Y-16876033D01*
X8795249Y-16866509D01*
X8785725Y-16856985D01*
X8776202Y-16837938D01*
X8766678Y-16799843D01*
X8766678Y-16752223D01*
X8776202Y-16714128D01*
X8785725Y-16695081D01*
X8795249Y-16685557D01*
X8814297Y-16676033D01*
X8966678Y-16876033D02*
X8966678Y-16742700D01*
X8966678Y-16761747D02*
X8976202Y-16752223D01*
X8995249Y-16742700D01*
X9023821Y-16742700D01*
X9042868Y-16752223D01*
X9052392Y-16771271D01*
X9052392Y-16876033D01*
X9052392Y-16771271D02*
X9061916Y-16752223D01*
X9080963Y-16742700D01*
X9109535Y-16742700D01*
X9128582Y-16752223D01*
X9138106Y-16771271D01*
X9138106Y-16876033D01*
X9233344Y-16876033D02*
X9233344Y-16742700D01*
X9233344Y-16761747D02*
X9242868Y-16752223D01*
X9261916Y-16742700D01*
X9290487Y-16742700D01*
X9309535Y-16752223D01*
X9319059Y-16771271D01*
X9319059Y-16876033D01*
X9319059Y-16771271D02*
X9328582Y-16752223D01*
X9347630Y-16742700D01*
X9376202Y-16742700D01*
X9395249Y-16752223D01*
X9404773Y-16771271D01*
X9404773Y-16876033D01*
X9795249Y-16666509D02*
X9623821Y-16923652D01*
X10052392Y-16676033D02*
X10071440Y-16676033D01*
X10090487Y-16685557D01*
X10100011Y-16695081D01*
X10109535Y-16714128D01*
X10119059Y-16752223D01*
X10119059Y-16799843D01*
X10109535Y-16837938D01*
X10100011Y-16856985D01*
X10090487Y-16866509D01*
X10071440Y-16876033D01*
X10052392Y-16876033D01*
X10033344Y-16866509D01*
X10023821Y-16856985D01*
X10014297Y-16837938D01*
X10004773Y-16799843D01*
X10004773Y-16752223D01*
X10014297Y-16714128D01*
X10023821Y-16695081D01*
X10033344Y-16685557D01*
X10052392Y-16676033D01*
X10204773Y-16856985D02*
X10214297Y-16866509D01*
X10204773Y-16876033D01*
X10195249Y-16866509D01*
X10204773Y-16856985D01*
X10204773Y-16876033D01*
X10338106Y-16676033D02*
X10357154Y-16676033D01*
X10376202Y-16685557D01*
X10385725Y-16695081D01*
X10395249Y-16714128D01*
X10404773Y-16752223D01*
X10404773Y-16799843D01*
X10395249Y-16837938D01*
X10385725Y-16856985D01*
X10376202Y-16866509D01*
X10357154Y-16876033D01*
X10338106Y-16876033D01*
X10319059Y-16866509D01*
X10309535Y-16856985D01*
X10300011Y-16837938D01*
X10290487Y-16799843D01*
X10290487Y-16752223D01*
X10300011Y-16714128D01*
X10309535Y-16695081D01*
X10319059Y-16685557D01*
X10338106Y-16676033D01*
X10585725Y-16676033D02*
X10490487Y-16676033D01*
X10480963Y-16771271D01*
X10490487Y-16761747D01*
X10509535Y-16752223D01*
X10557154Y-16752223D01*
X10576202Y-16761747D01*
X10585725Y-16771271D01*
X10595249Y-16790319D01*
X10595249Y-16837938D01*
X10585725Y-16856985D01*
X10576202Y-16866509D01*
X10557154Y-16876033D01*
X10509535Y-16876033D01*
X10490487Y-16866509D01*
X10480963Y-16856985D01*
X10785725Y-16876033D02*
X10671440Y-16876033D01*
X10728582Y-16876033D02*
X10728582Y-16676033D01*
X10709535Y-16704604D01*
X10690487Y-16723652D01*
X10671440Y-16733176D01*
X10861916Y-16695081D02*
X10871440Y-16685557D01*
X10890487Y-16676033D01*
X10938106Y-16676033D01*
X10957154Y-16685557D01*
X10966678Y-16695081D01*
X10976202Y-16714128D01*
X10976202Y-16733176D01*
X10966678Y-16761747D01*
X10852392Y-16876033D01*
X10976202Y-16876033D01*
X11052392Y-16676033D02*
X11052392Y-16714128D01*
X11128582Y-16676033D02*
X11128582Y-16714128D01*
X11423820Y-16952223D02*
X11414297Y-16942700D01*
X11395249Y-16914128D01*
X11385725Y-16895081D01*
X11376201Y-16866509D01*
X11366678Y-16818890D01*
X11366678Y-16780795D01*
X11376201Y-16733176D01*
X11385725Y-16704604D01*
X11395249Y-16685557D01*
X11414297Y-16656985D01*
X11423820Y-16647461D01*
X11490487Y-16695081D02*
X11500011Y-16685557D01*
X11519059Y-16676033D01*
X11566678Y-16676033D01*
X11585725Y-16685557D01*
X11595249Y-16695081D01*
X11604773Y-16714128D01*
X11604773Y-16733176D01*
X11595249Y-16761747D01*
X11480963Y-16876033D01*
X11604773Y-16876033D01*
X11842868Y-16876033D02*
X11842868Y-16676033D01*
X11928582Y-16876033D02*
X11928582Y-16771271D01*
X11919059Y-16752223D01*
X11900011Y-16742700D01*
X11871440Y-16742700D01*
X11852392Y-16752223D01*
X11842868Y-16761747D01*
X12052392Y-16876033D02*
X12033344Y-16866509D01*
X12023820Y-16856985D01*
X12014297Y-16837938D01*
X12014297Y-16780795D01*
X12023820Y-16761747D01*
X12033344Y-16752223D01*
X12052392Y-16742700D01*
X12080963Y-16742700D01*
X12100011Y-16752223D01*
X12109535Y-16761747D01*
X12119059Y-16780795D01*
X12119059Y-16837938D01*
X12109535Y-16856985D01*
X12100011Y-16866509D01*
X12080963Y-16876033D01*
X12052392Y-16876033D01*
X12233344Y-16876033D02*
X12214297Y-16866509D01*
X12204773Y-16847462D01*
X12204773Y-16676033D01*
X12385725Y-16866509D02*
X12366678Y-16876033D01*
X12328582Y-16876033D01*
X12309535Y-16866509D01*
X12300011Y-16847462D01*
X12300011Y-16771271D01*
X12309535Y-16752223D01*
X12328582Y-16742700D01*
X12366678Y-16742700D01*
X12385725Y-16752223D01*
X12395249Y-16771271D01*
X12395249Y-16790319D01*
X12300011Y-16809366D01*
X12471440Y-16866509D02*
X12490487Y-16876033D01*
X12528582Y-16876033D01*
X12547630Y-16866509D01*
X12557154Y-16847462D01*
X12557154Y-16837938D01*
X12547630Y-16818890D01*
X12528582Y-16809366D01*
X12500011Y-16809366D01*
X12480963Y-16799843D01*
X12471440Y-16780795D01*
X12471440Y-16771271D01*
X12480963Y-16752223D01*
X12500011Y-16742700D01*
X12528582Y-16742700D01*
X12547630Y-16752223D01*
X12623820Y-16952223D02*
X12633344Y-16942700D01*
X12652392Y-16914128D01*
X12661916Y-16895081D01*
X12671440Y-16866509D01*
X12680963Y-16818890D01*
X12680963Y-16780795D01*
X12671440Y-16733176D01*
X12661916Y-16704604D01*
X12652392Y-16685557D01*
X12633344Y-16656985D01*
X12623820Y-16647461D01*
D17*
X7701916Y-16974557D02*
X7851916Y-17124557D01*
X7851916Y-16974557D02*
X7701916Y-17124557D01*
X7851916Y-17049557D02*
G75*
G03*
X7851916Y-17049557I-75000J0D01*
G01*
D11*
X8214297Y-17140033D02*
X8100011Y-17140033D01*
X8157154Y-17140033D02*
X8157154Y-16940033D01*
X8138106Y-16968604D01*
X8119059Y-16987652D01*
X8100011Y-16997176D01*
X8300011Y-17120985D02*
X8309535Y-17130509D01*
X8300011Y-17140033D01*
X8290487Y-17130509D01*
X8300011Y-17120985D01*
X8300011Y-17140033D01*
X8490487Y-16940033D02*
X8395249Y-16940033D01*
X8385725Y-17035271D01*
X8395249Y-17025747D01*
X8414297Y-17016223D01*
X8461916Y-17016223D01*
X8480963Y-17025747D01*
X8490487Y-17035271D01*
X8500011Y-17054319D01*
X8500011Y-17101938D01*
X8490487Y-17120985D01*
X8480963Y-17130509D01*
X8461916Y-17140033D01*
X8414297Y-17140033D01*
X8395249Y-17130509D01*
X8385725Y-17120985D01*
X8623821Y-16940033D02*
X8642868Y-16940033D01*
X8661916Y-16949557D01*
X8671440Y-16959081D01*
X8680963Y-16978128D01*
X8690487Y-17016223D01*
X8690487Y-17063843D01*
X8680963Y-17101938D01*
X8671440Y-17120985D01*
X8661916Y-17130509D01*
X8642868Y-17140033D01*
X8623821Y-17140033D01*
X8604773Y-17130509D01*
X8595249Y-17120985D01*
X8585725Y-17101938D01*
X8576202Y-17063843D01*
X8576202Y-17016223D01*
X8585725Y-16978128D01*
X8595249Y-16959081D01*
X8604773Y-16949557D01*
X8623821Y-16940033D01*
X8814297Y-16940033D02*
X8833344Y-16940033D01*
X8852392Y-16949557D01*
X8861916Y-16959081D01*
X8871440Y-16978128D01*
X8880963Y-17016223D01*
X8880963Y-17063843D01*
X8871440Y-17101938D01*
X8861916Y-17120985D01*
X8852392Y-17130509D01*
X8833344Y-17140033D01*
X8814297Y-17140033D01*
X8795249Y-17130509D01*
X8785725Y-17120985D01*
X8776202Y-17101938D01*
X8766678Y-17063843D01*
X8766678Y-17016223D01*
X8776202Y-16978128D01*
X8785725Y-16959081D01*
X8795249Y-16949557D01*
X8814297Y-16940033D01*
X8966678Y-17140033D02*
X8966678Y-17006700D01*
X8966678Y-17025747D02*
X8976202Y-17016223D01*
X8995249Y-17006700D01*
X9023821Y-17006700D01*
X9042868Y-17016223D01*
X9052392Y-17035271D01*
X9052392Y-17140033D01*
X9052392Y-17035271D02*
X9061916Y-17016223D01*
X9080963Y-17006700D01*
X9109535Y-17006700D01*
X9128582Y-17016223D01*
X9138106Y-17035271D01*
X9138106Y-17140033D01*
X9233344Y-17140033D02*
X9233344Y-17006700D01*
X9233344Y-17025747D02*
X9242868Y-17016223D01*
X9261916Y-17006700D01*
X9290487Y-17006700D01*
X9309535Y-17016223D01*
X9319059Y-17035271D01*
X9319059Y-17140033D01*
X9319059Y-17035271D02*
X9328582Y-17016223D01*
X9347630Y-17006700D01*
X9376202Y-17006700D01*
X9395249Y-17016223D01*
X9404773Y-17035271D01*
X9404773Y-17140033D01*
X9795249Y-16930509D02*
X9623821Y-17187652D01*
X10052392Y-16940033D02*
X10071440Y-16940033D01*
X10090487Y-16949557D01*
X10100011Y-16959081D01*
X10109535Y-16978128D01*
X10119059Y-17016223D01*
X10119059Y-17063843D01*
X10109535Y-17101938D01*
X10100011Y-17120985D01*
X10090487Y-17130509D01*
X10071440Y-17140033D01*
X10052392Y-17140033D01*
X10033344Y-17130509D01*
X10023821Y-17120985D01*
X10014297Y-17101938D01*
X10004773Y-17063843D01*
X10004773Y-17016223D01*
X10014297Y-16978128D01*
X10023821Y-16959081D01*
X10033344Y-16949557D01*
X10052392Y-16940033D01*
X10204773Y-17120985D02*
X10214297Y-17130509D01*
X10204773Y-17140033D01*
X10195249Y-17130509D01*
X10204773Y-17120985D01*
X10204773Y-17140033D01*
X10338106Y-16940033D02*
X10357154Y-16940033D01*
X10376202Y-16949557D01*
X10385725Y-16959081D01*
X10395249Y-16978128D01*
X10404773Y-17016223D01*
X10404773Y-17063843D01*
X10395249Y-17101938D01*
X10385725Y-17120985D01*
X10376202Y-17130509D01*
X10357154Y-17140033D01*
X10338106Y-17140033D01*
X10319059Y-17130509D01*
X10309535Y-17120985D01*
X10300011Y-17101938D01*
X10290487Y-17063843D01*
X10290487Y-17016223D01*
X10300011Y-16978128D01*
X10309535Y-16959081D01*
X10319059Y-16949557D01*
X10338106Y-16940033D01*
X10585725Y-16940033D02*
X10490487Y-16940033D01*
X10480963Y-17035271D01*
X10490487Y-17025747D01*
X10509535Y-17016223D01*
X10557154Y-17016223D01*
X10576202Y-17025747D01*
X10585725Y-17035271D01*
X10595249Y-17054319D01*
X10595249Y-17101938D01*
X10585725Y-17120985D01*
X10576202Y-17130509D01*
X10557154Y-17140033D01*
X10509535Y-17140033D01*
X10490487Y-17130509D01*
X10480963Y-17120985D01*
X10690487Y-17140033D02*
X10728582Y-17140033D01*
X10747630Y-17130509D01*
X10757154Y-17120985D01*
X10776202Y-17092414D01*
X10785725Y-17054319D01*
X10785725Y-16978128D01*
X10776202Y-16959081D01*
X10766678Y-16949557D01*
X10747630Y-16940033D01*
X10709535Y-16940033D01*
X10690487Y-16949557D01*
X10680963Y-16959081D01*
X10671440Y-16978128D01*
X10671440Y-17025747D01*
X10680963Y-17044795D01*
X10690487Y-17054319D01*
X10709535Y-17063843D01*
X10747630Y-17063843D01*
X10766678Y-17054319D01*
X10776202Y-17044795D01*
X10785725Y-17025747D01*
X10976202Y-17140033D02*
X10861916Y-17140033D01*
X10919059Y-17140033D02*
X10919059Y-16940033D01*
X10900011Y-16968604D01*
X10880963Y-16987652D01*
X10861916Y-16997176D01*
X11052392Y-16940033D02*
X11052392Y-16978128D01*
X11128582Y-16940033D02*
X11128582Y-16978128D01*
X11423820Y-17216223D02*
X11414297Y-17206700D01*
X11395249Y-17178128D01*
X11385725Y-17159081D01*
X11376201Y-17130509D01*
X11366678Y-17082890D01*
X11366678Y-17044795D01*
X11376201Y-16997176D01*
X11385725Y-16968604D01*
X11395249Y-16949557D01*
X11414297Y-16920985D01*
X11423820Y-16911462D01*
X11538106Y-16940033D02*
X11557154Y-16940033D01*
X11576201Y-16949557D01*
X11585725Y-16959081D01*
X11595249Y-16978128D01*
X11604773Y-17016223D01*
X11604773Y-17063843D01*
X11595249Y-17101938D01*
X11585725Y-17120985D01*
X11576201Y-17130509D01*
X11557154Y-17140033D01*
X11538106Y-17140033D01*
X11519059Y-17130509D01*
X11509535Y-17120985D01*
X11500011Y-17101938D01*
X11490487Y-17063843D01*
X11490487Y-17016223D01*
X11500011Y-16978128D01*
X11509535Y-16959081D01*
X11519059Y-16949557D01*
X11538106Y-16940033D01*
X11842868Y-17140033D02*
X11842868Y-16940033D01*
X11928582Y-17140033D02*
X11928582Y-17035271D01*
X11919059Y-17016223D01*
X11900011Y-17006700D01*
X11871440Y-17006700D01*
X11852392Y-17016223D01*
X11842868Y-17025747D01*
X12052392Y-17140033D02*
X12033344Y-17130509D01*
X12023820Y-17120985D01*
X12014297Y-17101938D01*
X12014297Y-17044795D01*
X12023820Y-17025747D01*
X12033344Y-17016223D01*
X12052392Y-17006700D01*
X12080963Y-17006700D01*
X12100011Y-17016223D01*
X12109535Y-17025747D01*
X12119059Y-17044795D01*
X12119059Y-17101938D01*
X12109535Y-17120985D01*
X12100011Y-17130509D01*
X12080963Y-17140033D01*
X12052392Y-17140033D01*
X12233344Y-17140033D02*
X12214297Y-17130509D01*
X12204773Y-17111462D01*
X12204773Y-16940033D01*
X12385725Y-17130509D02*
X12366678Y-17140033D01*
X12328582Y-17140033D01*
X12309535Y-17130509D01*
X12300011Y-17111462D01*
X12300011Y-17035271D01*
X12309535Y-17016223D01*
X12328582Y-17006700D01*
X12366678Y-17006700D01*
X12385725Y-17016223D01*
X12395249Y-17035271D01*
X12395249Y-17054319D01*
X12300011Y-17073366D01*
X12471440Y-17130509D02*
X12490487Y-17140033D01*
X12528582Y-17140033D01*
X12547630Y-17130509D01*
X12557154Y-17111462D01*
X12557154Y-17101938D01*
X12547630Y-17082890D01*
X12528582Y-17073366D01*
X12500011Y-17073366D01*
X12480963Y-17063843D01*
X12471440Y-17044795D01*
X12471440Y-17035271D01*
X12480963Y-17016223D01*
X12500011Y-17006700D01*
X12528582Y-17006700D01*
X12547630Y-17016223D01*
X12795249Y-17063843D02*
X12947630Y-17063843D01*
X12871440Y-17140033D02*
X12871440Y-16987652D01*
X13185725Y-16959081D02*
X13195249Y-16949557D01*
X13214297Y-16940033D01*
X13261916Y-16940033D01*
X13280963Y-16949557D01*
X13290487Y-16959081D01*
X13300011Y-16978128D01*
X13300011Y-16997176D01*
X13290487Y-17025747D01*
X13176201Y-17140033D01*
X13300011Y-17140033D01*
X13528582Y-17130509D02*
X13547630Y-17140033D01*
X13585725Y-17140033D01*
X13604773Y-17130509D01*
X13614297Y-17111462D01*
X13614297Y-17101938D01*
X13604773Y-17082890D01*
X13585725Y-17073366D01*
X13557154Y-17073366D01*
X13538106Y-17063843D01*
X13528582Y-17044795D01*
X13528582Y-17035271D01*
X13538106Y-17016223D01*
X13557154Y-17006700D01*
X13585725Y-17006700D01*
X13604773Y-17016223D01*
X13728582Y-17140033D02*
X13709535Y-17130509D01*
X13700011Y-17111462D01*
X13700011Y-16940033D01*
X13833344Y-17140033D02*
X13814297Y-17130509D01*
X13804773Y-17120985D01*
X13795249Y-17101938D01*
X13795249Y-17044795D01*
X13804773Y-17025747D01*
X13814297Y-17016223D01*
X13833344Y-17006700D01*
X13861916Y-17006700D01*
X13880963Y-17016223D01*
X13890487Y-17025747D01*
X13900011Y-17044795D01*
X13900011Y-17101938D01*
X13890487Y-17120985D01*
X13880963Y-17130509D01*
X13861916Y-17140033D01*
X13833344Y-17140033D01*
X13957154Y-17006700D02*
X14033344Y-17006700D01*
X13985725Y-16940033D02*
X13985725Y-17111462D01*
X13995249Y-17130509D01*
X14014297Y-17140033D01*
X14033344Y-17140033D01*
X14090487Y-17130509D02*
X14109535Y-17140033D01*
X14147630Y-17140033D01*
X14166678Y-17130509D01*
X14176201Y-17111462D01*
X14176201Y-17101938D01*
X14166678Y-17082890D01*
X14147630Y-17073366D01*
X14119059Y-17073366D01*
X14100011Y-17063843D01*
X14090487Y-17044795D01*
X14090487Y-17035271D01*
X14100011Y-17016223D01*
X14119059Y-17006700D01*
X14147630Y-17006700D01*
X14166678Y-17016223D01*
X14242868Y-17216223D02*
X14252392Y-17206700D01*
X14271440Y-17178128D01*
X14280963Y-17159081D01*
X14290487Y-17130509D01*
X14300011Y-17082890D01*
X14300011Y-17044795D01*
X14290487Y-16997176D01*
X14280963Y-16968604D01*
X14271440Y-16949557D01*
X14252392Y-16920985D01*
X14242868Y-16911462D01*
X7651916Y-17219557D02*
X7851916Y-17419557D01*
X7851916Y-17219557D02*
X7651916Y-17419557D01*
X7751916Y-17219557D02*
X7751916Y-17419557D01*
X7651916Y-17319557D02*
X7851916Y-17319557D01*
X8100011Y-17229081D02*
X8109535Y-17219557D01*
X8128582Y-17210033D01*
X8176201Y-17210033D01*
X8195249Y-17219557D01*
X8204773Y-17229081D01*
X8214297Y-17248128D01*
X8214297Y-17267176D01*
X8204773Y-17295747D01*
X8090487Y-17410033D01*
X8214297Y-17410033D01*
X8300011Y-17390985D02*
X8309535Y-17400509D01*
X8300011Y-17410033D01*
X8290487Y-17400509D01*
X8300011Y-17390985D01*
X8300011Y-17410033D01*
X8385725Y-17229081D02*
X8395249Y-17219557D01*
X8414297Y-17210033D01*
X8461916Y-17210033D01*
X8480963Y-17219557D01*
X8490487Y-17229081D01*
X8500011Y-17248128D01*
X8500011Y-17267176D01*
X8490487Y-17295747D01*
X8376201Y-17410033D01*
X8500011Y-17410033D01*
X8623821Y-17210033D02*
X8642868Y-17210033D01*
X8661916Y-17219557D01*
X8671440Y-17229081D01*
X8680963Y-17248128D01*
X8690487Y-17286223D01*
X8690487Y-17333843D01*
X8680963Y-17371938D01*
X8671440Y-17390985D01*
X8661916Y-17400509D01*
X8642868Y-17410033D01*
X8623821Y-17410033D01*
X8604773Y-17400509D01*
X8595249Y-17390985D01*
X8585725Y-17371938D01*
X8576202Y-17333843D01*
X8576202Y-17286223D01*
X8585725Y-17248128D01*
X8595249Y-17229081D01*
X8604773Y-17219557D01*
X8623821Y-17210033D01*
X8814297Y-17210033D02*
X8833344Y-17210033D01*
X8852392Y-17219557D01*
X8861916Y-17229081D01*
X8871440Y-17248128D01*
X8880963Y-17286223D01*
X8880963Y-17333843D01*
X8871440Y-17371938D01*
X8861916Y-17390985D01*
X8852392Y-17400509D01*
X8833344Y-17410033D01*
X8814297Y-17410033D01*
X8795249Y-17400509D01*
X8785725Y-17390985D01*
X8776202Y-17371938D01*
X8766678Y-17333843D01*
X8766678Y-17286223D01*
X8776202Y-17248128D01*
X8785725Y-17229081D01*
X8795249Y-17219557D01*
X8814297Y-17210033D01*
X8966678Y-17410033D02*
X8966678Y-17276700D01*
X8966678Y-17295747D02*
X8976202Y-17286223D01*
X8995249Y-17276700D01*
X9023821Y-17276700D01*
X9042868Y-17286223D01*
X9052392Y-17305271D01*
X9052392Y-17410033D01*
X9052392Y-17305271D02*
X9061916Y-17286223D01*
X9080963Y-17276700D01*
X9109535Y-17276700D01*
X9128582Y-17286223D01*
X9138106Y-17305271D01*
X9138106Y-17410033D01*
X9233344Y-17410033D02*
X9233344Y-17276700D01*
X9233344Y-17295747D02*
X9242868Y-17286223D01*
X9261916Y-17276700D01*
X9290487Y-17276700D01*
X9309535Y-17286223D01*
X9319059Y-17305271D01*
X9319059Y-17410033D01*
X9319059Y-17305271D02*
X9328582Y-17286223D01*
X9347630Y-17276700D01*
X9376202Y-17276700D01*
X9395249Y-17286223D01*
X9404773Y-17305271D01*
X9404773Y-17410033D01*
X9795249Y-17200509D02*
X9623821Y-17457652D01*
X10052392Y-17210033D02*
X10071440Y-17210033D01*
X10090487Y-17219557D01*
X10100011Y-17229081D01*
X10109535Y-17248128D01*
X10119059Y-17286223D01*
X10119059Y-17333843D01*
X10109535Y-17371938D01*
X10100011Y-17390985D01*
X10090487Y-17400509D01*
X10071440Y-17410033D01*
X10052392Y-17410033D01*
X10033344Y-17400509D01*
X10023821Y-17390985D01*
X10014297Y-17371938D01*
X10004773Y-17333843D01*
X10004773Y-17286223D01*
X10014297Y-17248128D01*
X10023821Y-17229081D01*
X10033344Y-17219557D01*
X10052392Y-17210033D01*
X10204773Y-17390985D02*
X10214297Y-17400509D01*
X10204773Y-17410033D01*
X10195249Y-17400509D01*
X10204773Y-17390985D01*
X10204773Y-17410033D01*
X10338106Y-17210033D02*
X10357154Y-17210033D01*
X10376202Y-17219557D01*
X10385725Y-17229081D01*
X10395249Y-17248128D01*
X10404773Y-17286223D01*
X10404773Y-17333843D01*
X10395249Y-17371938D01*
X10385725Y-17390985D01*
X10376202Y-17400509D01*
X10357154Y-17410033D01*
X10338106Y-17410033D01*
X10319059Y-17400509D01*
X10309535Y-17390985D01*
X10300011Y-17371938D01*
X10290487Y-17333843D01*
X10290487Y-17286223D01*
X10300011Y-17248128D01*
X10309535Y-17229081D01*
X10319059Y-17219557D01*
X10338106Y-17210033D01*
X10519059Y-17295747D02*
X10500011Y-17286223D01*
X10490487Y-17276700D01*
X10480963Y-17257652D01*
X10480963Y-17248128D01*
X10490487Y-17229081D01*
X10500011Y-17219557D01*
X10519059Y-17210033D01*
X10557154Y-17210033D01*
X10576202Y-17219557D01*
X10585725Y-17229081D01*
X10595249Y-17248128D01*
X10595249Y-17257652D01*
X10585725Y-17276700D01*
X10576202Y-17286223D01*
X10557154Y-17295747D01*
X10519059Y-17295747D01*
X10500011Y-17305271D01*
X10490487Y-17314795D01*
X10480963Y-17333843D01*
X10480963Y-17371938D01*
X10490487Y-17390985D01*
X10500011Y-17400509D01*
X10519059Y-17410033D01*
X10557154Y-17410033D01*
X10576202Y-17400509D01*
X10585725Y-17390985D01*
X10595249Y-17371938D01*
X10595249Y-17333843D01*
X10585725Y-17314795D01*
X10576202Y-17305271D01*
X10557154Y-17295747D01*
X10766678Y-17210033D02*
X10728582Y-17210033D01*
X10709535Y-17219557D01*
X10700011Y-17229081D01*
X10680963Y-17257652D01*
X10671440Y-17295747D01*
X10671440Y-17371938D01*
X10680963Y-17390985D01*
X10690487Y-17400509D01*
X10709535Y-17410033D01*
X10747630Y-17410033D01*
X10766678Y-17400509D01*
X10776202Y-17390985D01*
X10785725Y-17371938D01*
X10785725Y-17324319D01*
X10776202Y-17305271D01*
X10766678Y-17295747D01*
X10747630Y-17286223D01*
X10709535Y-17286223D01*
X10690487Y-17295747D01*
X10680963Y-17305271D01*
X10671440Y-17324319D01*
X10957154Y-17210033D02*
X10919059Y-17210033D01*
X10900011Y-17219557D01*
X10890487Y-17229081D01*
X10871440Y-17257652D01*
X10861916Y-17295747D01*
X10861916Y-17371938D01*
X10871440Y-17390985D01*
X10880963Y-17400509D01*
X10900011Y-17410033D01*
X10938106Y-17410033D01*
X10957154Y-17400509D01*
X10966678Y-17390985D01*
X10976202Y-17371938D01*
X10976202Y-17324319D01*
X10966678Y-17305271D01*
X10957154Y-17295747D01*
X10938106Y-17286223D01*
X10900011Y-17286223D01*
X10880963Y-17295747D01*
X10871440Y-17305271D01*
X10861916Y-17324319D01*
X11052392Y-17210033D02*
X11052392Y-17248128D01*
X11128582Y-17210033D02*
X11128582Y-17248128D01*
X11423820Y-17486223D02*
X11414297Y-17476700D01*
X11395249Y-17448128D01*
X11385725Y-17429081D01*
X11376201Y-17400509D01*
X11366678Y-17352890D01*
X11366678Y-17314795D01*
X11376201Y-17267176D01*
X11385725Y-17238604D01*
X11395249Y-17219557D01*
X11414297Y-17190985D01*
X11423820Y-17181462D01*
X11585725Y-17276700D02*
X11585725Y-17410033D01*
X11538106Y-17200509D02*
X11490487Y-17343366D01*
X11614297Y-17343366D01*
X11842868Y-17410033D02*
X11842868Y-17210033D01*
X11928582Y-17410033D02*
X11928582Y-17305271D01*
X11919059Y-17286223D01*
X11900011Y-17276700D01*
X11871440Y-17276700D01*
X11852392Y-17286223D01*
X11842868Y-17295747D01*
X12052392Y-17410033D02*
X12033344Y-17400509D01*
X12023820Y-17390985D01*
X12014297Y-17371938D01*
X12014297Y-17314795D01*
X12023820Y-17295747D01*
X12033344Y-17286223D01*
X12052392Y-17276700D01*
X12080963Y-17276700D01*
X12100011Y-17286223D01*
X12109535Y-17295747D01*
X12119059Y-17314795D01*
X12119059Y-17371938D01*
X12109535Y-17390985D01*
X12100011Y-17400509D01*
X12080963Y-17410033D01*
X12052392Y-17410033D01*
X12233344Y-17410033D02*
X12214297Y-17400509D01*
X12204773Y-17381462D01*
X12204773Y-17210033D01*
X12385725Y-17400509D02*
X12366678Y-17410033D01*
X12328582Y-17410033D01*
X12309535Y-17400509D01*
X12300011Y-17381462D01*
X12300011Y-17305271D01*
X12309535Y-17286223D01*
X12328582Y-17276700D01*
X12366678Y-17276700D01*
X12385725Y-17286223D01*
X12395249Y-17305271D01*
X12395249Y-17324319D01*
X12300011Y-17343366D01*
X12471440Y-17400509D02*
X12490487Y-17410033D01*
X12528582Y-17410033D01*
X12547630Y-17400509D01*
X12557154Y-17381462D01*
X12557154Y-17371938D01*
X12547630Y-17352890D01*
X12528582Y-17343366D01*
X12500011Y-17343366D01*
X12480963Y-17333843D01*
X12471440Y-17314795D01*
X12471440Y-17305271D01*
X12480963Y-17286223D01*
X12500011Y-17276700D01*
X12528582Y-17276700D01*
X12547630Y-17286223D01*
X12623820Y-17486223D02*
X12633344Y-17476700D01*
X12652392Y-17448128D01*
X12661916Y-17429081D01*
X12671440Y-17400509D01*
X12680963Y-17352890D01*
X12680963Y-17314795D01*
X12671440Y-17267176D01*
X12661916Y-17238604D01*
X12652392Y-17219557D01*
X12633344Y-17190985D01*
X12623820Y-17181462D01*
X7651916Y-17539557D02*
X7851916Y-17739557D01*
X7851916Y-17539557D02*
X7651916Y-17739557D01*
X7822627Y-17710268D02*
X7822627Y-17568845D01*
X7681204Y-17568845D01*
X7681204Y-17710268D01*
X7822627Y-17710268D01*
X8195249Y-17596700D02*
X8195249Y-17730033D01*
X8147630Y-17520509D02*
X8100011Y-17663366D01*
X8223820Y-17663366D01*
X8300011Y-17710985D02*
X8309535Y-17720509D01*
X8300011Y-17730033D01*
X8290487Y-17720509D01*
X8300011Y-17710985D01*
X8300011Y-17730033D01*
X8500011Y-17730033D02*
X8385725Y-17730033D01*
X8442868Y-17730033D02*
X8442868Y-17530033D01*
X8423821Y-17558604D01*
X8404773Y-17577652D01*
X8385725Y-17587176D01*
X8623821Y-17530033D02*
X8642868Y-17530033D01*
X8661916Y-17539557D01*
X8671440Y-17549081D01*
X8680963Y-17568128D01*
X8690487Y-17606223D01*
X8690487Y-17653843D01*
X8680963Y-17691938D01*
X8671440Y-17710985D01*
X8661916Y-17720509D01*
X8642868Y-17730033D01*
X8623821Y-17730033D01*
X8604773Y-17720509D01*
X8595249Y-17710985D01*
X8585725Y-17691938D01*
X8576202Y-17653843D01*
X8576202Y-17606223D01*
X8585725Y-17568128D01*
X8595249Y-17549081D01*
X8604773Y-17539557D01*
X8623821Y-17530033D01*
X8814297Y-17530033D02*
X8833344Y-17530033D01*
X8852392Y-17539557D01*
X8861916Y-17549081D01*
X8871440Y-17568128D01*
X8880963Y-17606223D01*
X8880963Y-17653843D01*
X8871440Y-17691938D01*
X8861916Y-17710985D01*
X8852392Y-17720509D01*
X8833344Y-17730033D01*
X8814297Y-17730033D01*
X8795249Y-17720509D01*
X8785725Y-17710985D01*
X8776202Y-17691938D01*
X8766678Y-17653843D01*
X8766678Y-17606223D01*
X8776202Y-17568128D01*
X8785725Y-17549081D01*
X8795249Y-17539557D01*
X8814297Y-17530033D01*
X8966678Y-17730033D02*
X8966678Y-17596700D01*
X8966678Y-17615747D02*
X8976202Y-17606223D01*
X8995249Y-17596700D01*
X9023821Y-17596700D01*
X9042868Y-17606223D01*
X9052392Y-17625271D01*
X9052392Y-17730033D01*
X9052392Y-17625271D02*
X9061916Y-17606223D01*
X9080963Y-17596700D01*
X9109535Y-17596700D01*
X9128582Y-17606223D01*
X9138106Y-17625271D01*
X9138106Y-17730033D01*
X9233344Y-17730033D02*
X9233344Y-17596700D01*
X9233344Y-17615747D02*
X9242868Y-17606223D01*
X9261916Y-17596700D01*
X9290487Y-17596700D01*
X9309535Y-17606223D01*
X9319059Y-17625271D01*
X9319059Y-17730033D01*
X9319059Y-17625271D02*
X9328582Y-17606223D01*
X9347630Y-17596700D01*
X9376202Y-17596700D01*
X9395249Y-17606223D01*
X9404773Y-17625271D01*
X9404773Y-17730033D01*
X9795249Y-17520509D02*
X9623821Y-17777652D01*
X10052392Y-17530033D02*
X10071440Y-17530033D01*
X10090487Y-17539557D01*
X10100011Y-17549081D01*
X10109535Y-17568128D01*
X10119059Y-17606223D01*
X10119059Y-17653843D01*
X10109535Y-17691938D01*
X10100011Y-17710985D01*
X10090487Y-17720509D01*
X10071440Y-17730033D01*
X10052392Y-17730033D01*
X10033344Y-17720509D01*
X10023821Y-17710985D01*
X10014297Y-17691938D01*
X10004773Y-17653843D01*
X10004773Y-17606223D01*
X10014297Y-17568128D01*
X10023821Y-17549081D01*
X10033344Y-17539557D01*
X10052392Y-17530033D01*
X10204773Y-17710985D02*
X10214297Y-17720509D01*
X10204773Y-17730033D01*
X10195249Y-17720509D01*
X10204773Y-17710985D01*
X10204773Y-17730033D01*
X10404773Y-17730033D02*
X10290487Y-17730033D01*
X10347630Y-17730033D02*
X10347630Y-17530033D01*
X10328582Y-17558604D01*
X10309535Y-17577652D01*
X10290487Y-17587176D01*
X10576202Y-17530033D02*
X10538106Y-17530033D01*
X10519059Y-17539557D01*
X10509535Y-17549081D01*
X10490487Y-17577652D01*
X10480963Y-17615747D01*
X10480963Y-17691938D01*
X10490487Y-17710985D01*
X10500011Y-17720509D01*
X10519059Y-17730033D01*
X10557154Y-17730033D01*
X10576202Y-17720509D01*
X10585725Y-17710985D01*
X10595249Y-17691938D01*
X10595249Y-17644319D01*
X10585725Y-17625271D01*
X10576202Y-17615747D01*
X10557154Y-17606223D01*
X10519059Y-17606223D01*
X10500011Y-17615747D01*
X10490487Y-17625271D01*
X10480963Y-17644319D01*
X10785725Y-17730033D02*
X10671440Y-17730033D01*
X10728582Y-17730033D02*
X10728582Y-17530033D01*
X10709535Y-17558604D01*
X10690487Y-17577652D01*
X10671440Y-17587176D01*
X10957154Y-17596700D02*
X10957154Y-17730033D01*
X10909535Y-17520509D02*
X10861916Y-17663366D01*
X10985725Y-17663366D01*
X11052392Y-17530033D02*
X11052392Y-17568128D01*
X11128582Y-17530033D02*
X11128582Y-17568128D01*
X11423820Y-17806223D02*
X11414297Y-17796700D01*
X11395249Y-17768128D01*
X11385725Y-17749081D01*
X11376201Y-17720509D01*
X11366678Y-17672890D01*
X11366678Y-17634795D01*
X11376201Y-17587176D01*
X11385725Y-17558604D01*
X11395249Y-17539557D01*
X11414297Y-17510985D01*
X11423820Y-17501462D01*
X11595249Y-17530033D02*
X11500011Y-17530033D01*
X11490487Y-17625271D01*
X11500011Y-17615747D01*
X11519059Y-17606223D01*
X11566678Y-17606223D01*
X11585725Y-17615747D01*
X11595249Y-17625271D01*
X11604773Y-17644319D01*
X11604773Y-17691938D01*
X11595249Y-17710985D01*
X11585725Y-17720509D01*
X11566678Y-17730033D01*
X11519059Y-17730033D01*
X11500011Y-17720509D01*
X11490487Y-17710985D01*
X11842868Y-17730033D02*
X11842868Y-17530033D01*
X11928582Y-17730033D02*
X11928582Y-17625271D01*
X11919059Y-17606223D01*
X11900011Y-17596700D01*
X11871440Y-17596700D01*
X11852392Y-17606223D01*
X11842868Y-17615747D01*
X12052392Y-17730033D02*
X12033344Y-17720509D01*
X12023820Y-17710985D01*
X12014297Y-17691938D01*
X12014297Y-17634795D01*
X12023820Y-17615747D01*
X12033344Y-17606223D01*
X12052392Y-17596700D01*
X12080963Y-17596700D01*
X12100011Y-17606223D01*
X12109535Y-17615747D01*
X12119059Y-17634795D01*
X12119059Y-17691938D01*
X12109535Y-17710985D01*
X12100011Y-17720509D01*
X12080963Y-17730033D01*
X12052392Y-17730033D01*
X12233344Y-17730033D02*
X12214297Y-17720509D01*
X12204773Y-17701462D01*
X12204773Y-17530033D01*
X12385725Y-17720509D02*
X12366678Y-17730033D01*
X12328582Y-17730033D01*
X12309535Y-17720509D01*
X12300011Y-17701462D01*
X12300011Y-17625271D01*
X12309535Y-17606223D01*
X12328582Y-17596700D01*
X12366678Y-17596700D01*
X12385725Y-17606223D01*
X12395249Y-17625271D01*
X12395249Y-17644319D01*
X12300011Y-17663366D01*
X12471440Y-17720509D02*
X12490487Y-17730033D01*
X12528582Y-17730033D01*
X12547630Y-17720509D01*
X12557154Y-17701462D01*
X12557154Y-17691938D01*
X12547630Y-17672890D01*
X12528582Y-17663366D01*
X12500011Y-17663366D01*
X12480963Y-17653843D01*
X12471440Y-17634795D01*
X12471440Y-17625271D01*
X12480963Y-17606223D01*
X12500011Y-17596700D01*
X12528582Y-17596700D01*
X12547630Y-17606223D01*
X12623820Y-17806223D02*
X12633344Y-17796700D01*
X12652392Y-17768128D01*
X12661916Y-17749081D01*
X12671440Y-17720509D01*
X12680963Y-17672890D01*
X12680963Y-17634795D01*
X12671440Y-17587176D01*
X12661916Y-17558604D01*
X12652392Y-17539557D01*
X12633344Y-17510985D01*
X12623820Y-17501462D01*
M02*
