%FSLAX45Y45*%
G04 Gerber Fmt 4.5, Leading zero omitted, Abs format (unit mm)*
G04 Created by KiCad (PCBNEW (6.0.0)) date 2023-02-15 17:26:18*
%MOMM*%
%LPD*%
G01*
G04 APERTURE LIST*
%ADD10C,0.090000*%
%ADD11C,0.200000*%
%ADD12C,0.039370*%
%ADD13C,0.078740*%
%ADD14C,0.100000*%
%ADD15C,0.120000*%
%ADD16C,0.180000*%
%ADD17C,0.300000*%
%ADD18C,0.340000*%
G04 APERTURE END LIST*
D10*
X16221835Y-14280678D02*
X16601778Y-12049359D01*
X14787795Y-11942224D02*
X13468405Y-11942224D01*
X17139058Y-3452870D02*
X17112246Y-3447931D01*
X7863472Y-13287610D02*
X8477306Y-14973887D01*
X17112246Y-3447931D02*
X17078028Y-3441581D01*
X10134655Y-11883553D02*
X10134004Y-11895853D01*
X10132092Y-11906387D01*
X10128981Y-11915287D01*
X10122203Y-11925870D01*
X10113075Y-11933534D01*
X10101809Y-11938734D01*
X10088612Y-11941922D01*
X10078845Y-11943153D01*
X10068376Y-11943827D01*
X10057265Y-11944077D01*
X10045576Y-11944037D01*
X10033370Y-11943842D01*
X10020710Y-11943627D01*
X10007656Y-11943525D01*
X8678388Y-15069138D02*
X8726590Y-15064874D01*
X8811885Y-15057416D01*
X8931741Y-15046981D01*
X9083625Y-15033788D01*
X9265004Y-15018056D01*
X9473344Y-15000002D01*
X9706114Y-14979846D01*
X9960779Y-14957805D01*
X10234808Y-14934098D01*
X10525667Y-14908943D01*
X10830823Y-14882559D01*
X11147743Y-14855165D01*
X11473894Y-14826977D01*
X11806745Y-14798216D01*
X12143760Y-14769099D01*
X12482408Y-14739845D01*
X12820156Y-14710671D01*
X13154471Y-14681797D01*
X13482819Y-14653441D01*
X13802668Y-14625821D01*
X14111486Y-14599156D01*
X14406738Y-14573664D01*
X14685892Y-14549563D01*
X14946416Y-14527071D01*
X15185775Y-14506408D01*
X15401438Y-14487792D01*
X15590872Y-14471440D01*
X15751543Y-14457572D01*
X15880918Y-14446405D01*
X15976465Y-14438159D01*
X16035651Y-14433051D01*
X16055942Y-14431299D01*
X17078028Y-3441581D02*
X17064314Y-3440339D01*
X17039551Y-3439256D01*
X17004491Y-3438322D01*
X16959888Y-3437530D01*
X16906495Y-3436872D01*
X16845065Y-3436341D01*
X16776351Y-3435929D01*
X16701106Y-3435628D01*
X16620084Y-3435431D01*
X16534038Y-3435329D01*
X16443721Y-3435314D01*
X16349885Y-3435380D01*
X16253286Y-3435519D01*
X16154674Y-3435721D01*
X16054804Y-3435981D01*
X15954430Y-3436290D01*
X15854303Y-3436640D01*
X15755177Y-3437023D01*
X15657806Y-3437433D01*
X15562943Y-3437861D01*
X15471340Y-3438298D01*
X15383751Y-3438739D01*
X15300930Y-3439174D01*
X15223628Y-3439597D01*
X15152601Y-3439998D01*
X15088600Y-3440372D01*
X15032378Y-3440709D01*
X14984690Y-3441002D01*
X14946288Y-3441244D01*
X14917926Y-3441426D01*
X14900356Y-3441541D01*
X14894332Y-3441581D01*
X22613110Y-13853422D02*
X22630203Y-13848676D01*
X22646200Y-13843253D01*
X22661139Y-13837204D01*
X22675054Y-13830586D01*
X22687983Y-13823452D01*
X22699961Y-13815857D01*
X22711025Y-13807856D01*
X22721211Y-13799502D01*
X22730556Y-13790849D01*
X22739095Y-13781954D01*
X22746864Y-13772869D01*
X22753901Y-13763649D01*
X22760241Y-13754349D01*
X22765921Y-13745023D01*
X22770976Y-13735725D01*
X22775444Y-13726509D01*
X22779360Y-13717431D01*
X22782761Y-13708545D01*
X22785682Y-13699904D01*
X22790232Y-13683578D01*
X22793301Y-13668888D01*
X22795179Y-13656270D01*
X22796155Y-13646158D01*
X22796563Y-13636641D01*
X22796555Y-13634699D01*
X11200749Y-11942224D02*
X11187695Y-11942325D01*
X11175035Y-11942541D01*
X11162829Y-11942735D01*
X11151139Y-11942775D01*
X11140029Y-11942525D01*
X11129559Y-11941851D01*
X11119793Y-11940620D01*
X11110791Y-11938696D01*
X11098857Y-11934217D01*
X11088994Y-11927425D01*
X11081409Y-11917865D01*
X11076313Y-11905085D01*
X11074401Y-11894552D01*
X11073750Y-11882251D01*
X12520138Y-11942224D02*
X11200749Y-11942224D01*
X22796555Y-4581053D02*
X22795643Y-4567854D01*
X22793068Y-4555993D01*
X22789067Y-4545404D01*
X22783877Y-4536019D01*
X22777736Y-4527770D01*
X22770882Y-4520592D01*
X22763552Y-4514416D01*
X22755985Y-4509175D01*
X22744709Y-4502920D01*
X22734235Y-4498392D01*
X22725365Y-4495364D01*
X22716327Y-4493035D01*
X22715416Y-4492858D01*
X10007656Y-11943525D02*
X8858306Y-11943525D01*
X22796555Y-13634699D02*
X22796555Y-13608937D01*
X22796555Y-13533836D01*
X22796555Y-13412670D01*
X22796555Y-13248714D01*
X22796555Y-13045242D01*
X22796555Y-12805530D01*
X22796555Y-12532853D01*
X22796555Y-12230485D01*
X22796555Y-11901701D01*
X22796555Y-11549776D01*
X22796555Y-11177985D01*
X22796555Y-10789603D01*
X22796555Y-10387904D01*
X22796555Y-9976164D01*
X22796555Y-9557657D01*
X22796555Y-9135658D01*
X22796555Y-8713442D01*
X22796555Y-8294283D01*
X22796555Y-7881458D01*
X22796555Y-7478240D01*
X22796555Y-7087904D01*
X22796555Y-6713725D01*
X22796555Y-6358979D01*
X22796555Y-6026939D01*
X22796555Y-5720882D01*
X22796555Y-5444080D01*
X22796555Y-5199811D01*
X22796555Y-4991347D01*
X22796555Y-4821965D01*
X22796555Y-4694938D01*
X22796555Y-4613543D01*
X22796555Y-4581053D01*
X16601778Y-12049359D02*
X16601207Y-12037626D01*
X16599531Y-12026277D01*
X16596801Y-12015361D01*
X16593068Y-12004931D01*
X16588385Y-11995038D01*
X16582802Y-11985735D01*
X16576371Y-11977072D01*
X16569145Y-11969102D01*
X16561175Y-11961876D01*
X16552512Y-11955445D01*
X16543209Y-11949862D01*
X16533316Y-11945179D01*
X16522886Y-11941446D01*
X16511970Y-11938716D01*
X16500621Y-11937040D01*
X16488888Y-11936469D01*
X16220778Y-14285971D02*
X16221835Y-14280678D01*
X14787795Y-11825807D02*
X14800848Y-11825666D01*
X14813509Y-11825339D01*
X14825715Y-11824970D01*
X14837404Y-11824705D01*
X14848515Y-11824688D01*
X14858984Y-11825063D01*
X14868751Y-11825976D01*
X14877753Y-11827571D01*
X14889686Y-11831559D01*
X14899550Y-11837896D01*
X14907134Y-11847069D01*
X14912231Y-11859568D01*
X14914143Y-11869990D01*
X14914794Y-11882251D01*
X8477306Y-14973887D02*
X8482166Y-14984042D01*
X8488814Y-14994968D01*
X8495069Y-15003618D01*
X8502913Y-15012955D01*
X8512460Y-15022628D01*
X8523824Y-15032290D01*
X8537117Y-15041590D01*
X8552454Y-15050180D01*
X8560924Y-15054100D01*
X8569947Y-15057711D01*
X8579537Y-15060971D01*
X8589709Y-15063834D01*
X8600477Y-15066259D01*
X8611855Y-15068200D01*
X8623856Y-15069615D01*
X8636496Y-15070460D01*
X8649789Y-15070691D01*
X8663748Y-15070265D01*
X8678388Y-15069138D01*
X18344519Y-14062443D02*
X18353691Y-14076266D01*
X18363063Y-14089181D01*
X18372602Y-14101220D01*
X18382276Y-14112412D01*
X18392053Y-14122789D01*
X18401900Y-14132382D01*
X18411786Y-14141220D01*
X18421679Y-14149335D01*
X18431545Y-14156758D01*
X18441354Y-14163519D01*
X18451072Y-14169649D01*
X18460668Y-14175179D01*
X18470109Y-14180139D01*
X18479364Y-14184561D01*
X18488400Y-14188474D01*
X18497185Y-14191911D01*
X18505686Y-14194901D01*
X18521711Y-14199664D01*
X18536217Y-14203011D01*
X18548948Y-14205186D01*
X18559644Y-14206437D01*
X18571313Y-14207116D01*
X18577353Y-14207081D01*
X22715416Y-4492858D02*
X17139058Y-3452870D01*
X8752472Y-12007025D02*
X8742725Y-12019981D01*
X8731017Y-12035544D01*
X8715176Y-12056600D01*
X8695518Y-12082728D01*
X8672361Y-12113507D01*
X8646022Y-12148514D01*
X8616818Y-12187328D01*
X8585066Y-12229526D01*
X8551085Y-12274687D01*
X8515189Y-12322390D01*
X8477698Y-12372212D01*
X8438928Y-12423732D01*
X8399195Y-12476527D01*
X8358818Y-12530176D01*
X8318114Y-12584258D01*
X8277399Y-12638350D01*
X8236991Y-12692030D01*
X8197207Y-12744877D01*
X8158365Y-12796469D01*
X8120780Y-12846384D01*
X8084771Y-12894201D01*
X8050655Y-12939497D01*
X8018749Y-12981850D01*
X7989369Y-13020839D01*
X7962834Y-13056043D01*
X7939460Y-13087039D01*
X7919564Y-13113405D01*
X7903465Y-13134720D01*
X7891478Y-13150561D01*
X7883920Y-13160508D01*
X7881111Y-13164138D01*
X14894332Y-3441581D02*
X11206664Y-3655364D01*
X17628360Y-11823582D02*
X17638758Y-11823855D01*
X17648786Y-11824652D01*
X17658448Y-11825937D01*
X17667745Y-11827675D01*
X17676680Y-11829832D01*
X17693476Y-11835262D01*
X17708856Y-11841947D01*
X17722840Y-11849609D01*
X17735450Y-11857969D01*
X17746706Y-11866747D01*
X17756629Y-11875665D01*
X17765240Y-11884444D01*
X17772558Y-11892803D01*
X17778605Y-11900466D01*
X17785337Y-11910040D01*
X17790057Y-11917761D01*
X17790639Y-11918831D01*
X18577353Y-14207081D02*
X18588388Y-14206201D01*
X18620579Y-14203630D01*
X18672551Y-14199473D01*
X18742931Y-14193831D01*
X18830348Y-14186809D01*
X18933428Y-14178511D01*
X19050797Y-14169039D01*
X19181083Y-14158497D01*
X19322913Y-14146988D01*
X19474914Y-14134616D01*
X19635712Y-14121485D01*
X19803935Y-14107697D01*
X19978210Y-14093356D01*
X20157163Y-14078567D01*
X20339422Y-14063431D01*
X20523613Y-14048052D01*
X20708364Y-14032535D01*
X20892301Y-14016982D01*
X21074052Y-14001496D01*
X21252243Y-13986182D01*
X21425502Y-13971143D01*
X21592455Y-13956482D01*
X21751729Y-13942302D01*
X21901952Y-13928707D01*
X22041750Y-13915801D01*
X22169750Y-13903686D01*
X22284580Y-13892467D01*
X22384865Y-13882247D01*
X22469234Y-13873129D01*
X22536313Y-13865216D01*
X22584729Y-13858613D01*
X22613110Y-13853422D01*
X10840498Y-3677048D02*
X8917859Y-3684103D01*
X16488888Y-11936469D02*
X15683143Y-11936469D01*
X8791277Y-9280406D02*
X8791277Y-11714220D01*
X11206664Y-3655364D02*
X11195070Y-3656333D01*
X11181522Y-3657442D01*
X11163645Y-3658878D01*
X11153280Y-3659698D01*
X11142068Y-3660574D01*
X11130089Y-3661498D01*
X11117421Y-3662461D01*
X11104143Y-3663456D01*
X11090333Y-3664473D01*
X11076070Y-3665504D01*
X11061432Y-3666542D01*
X11046499Y-3667576D01*
X11031349Y-3668600D01*
X11016060Y-3669604D01*
X11000712Y-3670580D01*
X10985383Y-3671520D01*
X10970151Y-3672415D01*
X10955095Y-3673257D01*
X10940294Y-3674037D01*
X10925826Y-3674748D01*
X10911771Y-3675379D01*
X10898206Y-3675924D01*
X10885211Y-3676373D01*
X10872864Y-3676719D01*
X10861244Y-3676952D01*
X10850429Y-3677065D01*
X10840498Y-3677048D01*
X11073750Y-11882251D02*
X11074401Y-11869990D01*
X11076313Y-11859568D01*
X11079423Y-11850842D01*
X11086202Y-11840614D01*
X11095329Y-11833386D01*
X11106596Y-11828669D01*
X11119793Y-11825976D01*
X11129559Y-11825063D01*
X11140029Y-11824688D01*
X11151139Y-11824705D01*
X11162829Y-11824970D01*
X11175035Y-11825339D01*
X11187695Y-11825666D01*
X11200749Y-11825807D01*
X12647138Y-11882251D02*
X12646486Y-11894552D01*
X12644574Y-11905085D01*
X12641464Y-11913985D01*
X12634685Y-11924568D01*
X12625558Y-11932233D01*
X12614291Y-11937432D01*
X12601094Y-11940620D01*
X12591328Y-11941851D01*
X12580858Y-11942525D01*
X12569748Y-11942775D01*
X12558058Y-11942735D01*
X12545852Y-11942541D01*
X12533192Y-11942325D01*
X12520138Y-11942224D01*
X15683143Y-11820053D02*
X17628360Y-11823582D01*
X10007656Y-11827109D02*
X10020710Y-11826968D01*
X10033370Y-11826641D01*
X10045576Y-11826272D01*
X10057265Y-11826007D01*
X10068376Y-11825989D01*
X10078845Y-11826365D01*
X10088612Y-11827278D01*
X10097614Y-11828873D01*
X10109547Y-11832861D01*
X10119411Y-11839197D01*
X10126996Y-11848371D01*
X10132092Y-11860870D01*
X10134004Y-11871292D01*
X10134655Y-11883553D01*
X7856416Y-13245276D02*
X7856885Y-13254536D01*
X7858146Y-13263796D01*
X7859977Y-13273057D01*
X7862156Y-13282318D01*
X7863472Y-13287610D01*
X13468405Y-11942224D02*
X13455352Y-11942325D01*
X13442691Y-11942541D01*
X13430485Y-11942735D01*
X13418796Y-11942775D01*
X13407686Y-11942525D01*
X13397216Y-11941851D01*
X13387449Y-11940620D01*
X13378447Y-11938696D01*
X13366514Y-11934217D01*
X13356650Y-11927425D01*
X13349066Y-11917865D01*
X13343969Y-11905085D01*
X13342057Y-11894552D01*
X13341406Y-11882251D01*
X8759528Y-11996442D02*
X8753579Y-12003388D01*
X8752472Y-12007025D01*
X8905653Y-3684192D02*
X8893921Y-3684762D01*
X8882571Y-3686438D01*
X8871656Y-3689169D01*
X8861225Y-3692901D01*
X8851333Y-3697585D01*
X8842029Y-3703168D01*
X8833367Y-3709598D01*
X8825396Y-3716824D01*
X8818170Y-3724795D01*
X8811740Y-3733457D01*
X8806157Y-3742761D01*
X8801473Y-3752654D01*
X8797741Y-3763084D01*
X8795010Y-3773999D01*
X8793334Y-3785349D01*
X8792764Y-3797081D01*
X8917859Y-3684103D02*
X8905653Y-3684192D01*
X17790639Y-11918831D02*
X18344519Y-14062443D01*
X14914794Y-11882251D02*
X14914143Y-11894552D01*
X14912231Y-11905085D01*
X14909120Y-11913985D01*
X14902341Y-11924568D01*
X14893214Y-11932233D01*
X14881948Y-11937432D01*
X14868751Y-11940620D01*
X14858984Y-11941851D01*
X14848515Y-11942525D01*
X14837404Y-11942775D01*
X14825715Y-11942735D01*
X14813509Y-11942541D01*
X14800848Y-11942325D01*
X14787795Y-11942224D01*
X8858306Y-11943525D02*
X8847490Y-11944974D01*
X8836895Y-11947301D01*
X8826557Y-11950453D01*
X8816509Y-11954378D01*
X8806786Y-11959024D01*
X8797425Y-11964339D01*
X8788458Y-11970269D01*
X8779922Y-11976764D01*
X8771851Y-11983770D01*
X8764280Y-11991236D01*
X8759528Y-11996442D01*
X13341406Y-11882251D02*
X13342057Y-11869990D01*
X13343969Y-11859568D01*
X13347080Y-11850842D01*
X13353859Y-11840614D01*
X13362986Y-11833386D01*
X13374252Y-11828669D01*
X13387449Y-11825976D01*
X13397216Y-11825063D01*
X13407686Y-11824688D01*
X13418796Y-11824705D01*
X13430485Y-11824970D01*
X13442691Y-11825339D01*
X13455352Y-11825666D01*
X13468405Y-11825807D01*
X15683143Y-11936469D02*
X15670089Y-11936571D01*
X15657429Y-11936786D01*
X15645223Y-11936981D01*
X15633534Y-11937021D01*
X15622423Y-11936771D01*
X15611954Y-11936098D01*
X15602187Y-11934866D01*
X15593185Y-11932942D01*
X15581252Y-11928464D01*
X15571388Y-11921672D01*
X15563803Y-11912113D01*
X15558707Y-11899333D01*
X15556795Y-11888800D01*
X15556144Y-11876499D01*
X8792764Y-3797081D02*
X8791277Y-9280406D01*
X12520138Y-11825807D02*
X12533192Y-11825666D01*
X12545852Y-11825339D01*
X12558058Y-11824970D01*
X12569748Y-11824705D01*
X12580858Y-11824688D01*
X12591328Y-11825063D01*
X12601094Y-11825976D01*
X12610096Y-11827571D01*
X12622030Y-11831559D01*
X12631893Y-11837896D01*
X12639478Y-11847069D01*
X12644574Y-11859568D01*
X12646486Y-11869990D01*
X12647138Y-11882251D01*
X8904166Y-11827109D02*
X10007656Y-11827109D01*
X8791277Y-11714220D02*
X8791847Y-11725952D01*
X8793523Y-11737302D01*
X8796253Y-11748218D01*
X8799986Y-11758648D01*
X8804670Y-11768540D01*
X8810253Y-11777844D01*
X8816683Y-11786507D01*
X8823909Y-11794477D01*
X8831879Y-11801703D01*
X8840542Y-11808133D01*
X8849846Y-11813716D01*
X8859738Y-11818400D01*
X8870168Y-11822133D01*
X8881084Y-11824863D01*
X8892434Y-11826539D01*
X8904166Y-11827109D01*
X13468405Y-11825807D02*
X14787795Y-11825807D01*
X15556144Y-11876499D02*
X15556795Y-11864238D01*
X15558707Y-11853816D01*
X15561818Y-11845090D01*
X15568596Y-11834862D01*
X15577724Y-11827633D01*
X15588990Y-11822916D01*
X15602187Y-11820222D01*
X15611954Y-11819309D01*
X15622423Y-11818934D01*
X15633534Y-11818951D01*
X15645223Y-11819216D01*
X15657429Y-11819585D01*
X15670089Y-11819912D01*
X15683143Y-11820053D01*
X7881111Y-13164138D02*
X7874985Y-13173556D01*
X7869811Y-13183264D01*
X7865545Y-13193220D01*
X7862149Y-13203384D01*
X7859578Y-13213712D01*
X7857794Y-13224165D01*
X7856753Y-13234700D01*
X7856416Y-13245276D01*
X11200749Y-11825807D02*
X12520138Y-11825807D01*
X16055942Y-14431299D02*
X16068433Y-14429677D01*
X16082309Y-14426745D01*
X16093598Y-14423594D01*
X16106118Y-14419278D01*
X16119525Y-14413618D01*
X16133475Y-14406435D01*
X16147627Y-14397551D01*
X16161635Y-14386786D01*
X16168478Y-14380642D01*
X16175156Y-14373961D01*
X16181628Y-14366721D01*
X16187848Y-14358898D01*
X16193776Y-14350472D01*
X16199367Y-14341419D01*
X16204579Y-14331716D01*
X16209369Y-14321343D01*
X16213695Y-14310276D01*
X16217512Y-14298492D01*
X16220778Y-14285971D01*
D11*
D12*
X10841227Y-11862579D02*
X10880597Y-11901949D01*
X10880597Y-11862579D02*
X10841227Y-11901949D01*
X10994227Y-11865579D02*
X11033597Y-11904949D01*
X11033597Y-11865579D02*
X10994227Y-11904949D01*
X12677227Y-11864579D02*
X12716597Y-11903949D01*
X12716597Y-11864579D02*
X12677227Y-11903949D01*
X12797227Y-11865179D02*
X12836597Y-11904549D01*
X12836597Y-11865179D02*
X12797227Y-11904549D01*
D13*
X10222282Y-11879864D02*
G75*
G03*
X10222282Y-11879864I-39370J0D01*
G01*
X10349282Y-11879864D02*
G75*
G03*
X10349282Y-11879864I-39370J0D01*
G01*
X10476282Y-11879864D02*
G75*
G03*
X10476282Y-11879864I-39370J0D01*
G01*
X10603282Y-11879864D02*
G75*
G03*
X10603282Y-11879864I-39370J0D01*
G01*
X10730282Y-11879864D02*
G75*
G03*
X10730282Y-11879864I-39370J0D01*
G01*
X13004282Y-11883864D02*
G75*
G03*
X13004282Y-11883864I-39370J0D01*
G01*
X13131282Y-11883864D02*
G75*
G03*
X13131282Y-11883864I-39370J0D01*
G01*
X13258282Y-11883864D02*
G75*
G03*
X13258282Y-11883864I-39370J0D01*
G01*
X15018282Y-11878864D02*
G75*
G03*
X15018282Y-11878864I-39370J0D01*
G01*
X15145282Y-11878864D02*
G75*
G03*
X15145282Y-11878864I-39370J0D01*
G01*
X15272282Y-11878864D02*
G75*
G03*
X15272282Y-11878864I-39370J0D01*
G01*
X15399282Y-11878864D02*
G75*
G03*
X15399282Y-11878864I-39370J0D01*
G01*
X15526282Y-11878864D02*
G75*
G03*
X15526282Y-11878864I-39370J0D01*
G01*
D14*
X8565565Y-13499738D02*
X8565565Y-13599738D01*
X8515565Y-13549738D02*
X8615565Y-13549738D01*
X9546604Y-13142669D02*
X9546604Y-13242669D01*
X9496604Y-13192669D02*
X9596604Y-13192669D01*
X10607910Y-12846289D02*
X10607910Y-12946289D01*
X10557910Y-12896289D02*
X10657910Y-12896289D01*
X11533000Y-4530000D02*
X11533000Y-4630000D01*
X11483000Y-4580000D02*
X11583000Y-4580000D01*
X11533000Y-6440000D02*
X11533000Y-6540000D01*
X11483000Y-6490000D02*
X11583000Y-6490000D01*
X11533000Y-8340000D02*
X11533000Y-8440000D01*
X11483000Y-8390000D02*
X11583000Y-8390000D01*
X11533000Y-10245000D02*
X11533000Y-10345000D01*
X11483000Y-10295000D02*
X11583000Y-10295000D01*
X11636049Y-12665000D02*
X11636049Y-12765000D01*
X11586049Y-12715000D02*
X11686049Y-12715000D01*
X12577000Y-4530000D02*
X12577000Y-4630000D01*
X12527000Y-4580000D02*
X12627000Y-4580000D01*
X12577000Y-6440000D02*
X12577000Y-6540000D01*
X12527000Y-6490000D02*
X12627000Y-6490000D01*
X12577000Y-8340000D02*
X12577000Y-8440000D01*
X12527000Y-8390000D02*
X12627000Y-8390000D01*
X12577000Y-10245000D02*
X12577000Y-10345000D01*
X12527000Y-10295000D02*
X12627000Y-10295000D01*
X12737912Y-12575264D02*
X12737912Y-12675264D01*
X12687912Y-12625264D02*
X12787912Y-12625264D01*
X13438000Y-4280000D02*
X13438000Y-4380000D01*
X13388000Y-4330000D02*
X13488000Y-4330000D01*
X13438000Y-6185000D02*
X13438000Y-6285000D01*
X13388000Y-6235000D02*
X13488000Y-6235000D01*
X13438000Y-8090000D02*
X13438000Y-8190000D01*
X13388000Y-8140000D02*
X13488000Y-8140000D01*
X13438000Y-9995000D02*
X13438000Y-10095000D01*
X13388000Y-10045000D02*
X13488000Y-10045000D01*
X13781912Y-12575264D02*
X13781912Y-12675264D01*
X13731912Y-12625264D02*
X13831912Y-12625264D01*
X14482000Y-4280000D02*
X14482000Y-4380000D01*
X14432000Y-4330000D02*
X14532000Y-4330000D01*
X14482000Y-6185000D02*
X14482000Y-6285000D01*
X14432000Y-6235000D02*
X14532000Y-6235000D01*
X14482000Y-8090000D02*
X14482000Y-8190000D01*
X14432000Y-8140000D02*
X14532000Y-8140000D01*
X14482000Y-9995000D02*
X14482000Y-10095000D01*
X14432000Y-10045000D02*
X14532000Y-10045000D01*
X14876775Y-12672000D02*
X14876775Y-12772000D01*
X14826775Y-12722000D02*
X14926775Y-12722000D01*
X15343000Y-4030000D02*
X15343000Y-4130000D01*
X15293000Y-4080000D02*
X15393000Y-4080000D01*
X15343000Y-5935000D02*
X15343000Y-6035000D01*
X15293000Y-5985000D02*
X15393000Y-5985000D01*
X15343000Y-7840000D02*
X15343000Y-7940000D01*
X15293000Y-7890000D02*
X15393000Y-7890000D01*
X15343000Y-9745000D02*
X15343000Y-9845000D01*
X15293000Y-9795000D02*
X15393000Y-9795000D01*
X15904914Y-12853289D02*
X15904914Y-12953289D01*
X15854914Y-12903289D02*
X15954914Y-12903289D01*
X16387000Y-4030000D02*
X16387000Y-4130000D01*
X16337000Y-4080000D02*
X16437000Y-4080000D01*
X16387000Y-5935000D02*
X16387000Y-6035000D01*
X16337000Y-5985000D02*
X16437000Y-5985000D01*
X16387000Y-7840000D02*
X16387000Y-7940000D01*
X16337000Y-7890000D02*
X16437000Y-7890000D01*
X16387000Y-9745000D02*
X16387000Y-9845000D01*
X16337000Y-9795000D02*
X16437000Y-9795000D01*
X17248000Y-4280000D02*
X17248000Y-4380000D01*
X17198000Y-4330000D02*
X17298000Y-4330000D01*
X17248000Y-6185000D02*
X17248000Y-6285000D01*
X17198000Y-6235000D02*
X17298000Y-6235000D01*
X17248000Y-8090000D02*
X17248000Y-8190000D01*
X17198000Y-8140000D02*
X17298000Y-8140000D01*
X17248000Y-9995000D02*
X17248000Y-10095000D01*
X17198000Y-10045000D02*
X17298000Y-10045000D01*
X18292000Y-4280000D02*
X18292000Y-4380000D01*
X18242000Y-4330000D02*
X18342000Y-4330000D01*
X18292000Y-6185000D02*
X18292000Y-6285000D01*
X18242000Y-6235000D02*
X18342000Y-6235000D01*
X18292000Y-8090000D02*
X18292000Y-8190000D01*
X18242000Y-8140000D02*
X18342000Y-8140000D01*
X18292000Y-9995000D02*
X18292000Y-10095000D01*
X18242000Y-10045000D02*
X18342000Y-10045000D01*
X19156912Y-5704264D02*
X19156912Y-5804264D01*
X19106912Y-5754264D02*
X19206912Y-5754264D01*
X19156912Y-7609264D02*
X19156912Y-7709264D01*
X19106912Y-7659264D02*
X19206912Y-7659264D01*
X19156912Y-9514264D02*
X19156912Y-9614264D01*
X19106912Y-9564264D02*
X19206912Y-9564264D01*
X19156912Y-11419264D02*
X19156912Y-11519264D01*
X19106912Y-11469264D02*
X19206912Y-11469264D01*
X20200912Y-5704264D02*
X20200912Y-5804264D01*
X20150912Y-5754264D02*
X20250912Y-5754264D01*
X20200912Y-7609264D02*
X20200912Y-7709264D01*
X20150912Y-7659264D02*
X20250912Y-7659264D01*
X20200912Y-9514264D02*
X20200912Y-9614264D01*
X20150912Y-9564264D02*
X20250912Y-9564264D01*
X20200912Y-11419264D02*
X20200912Y-11519264D01*
X20150912Y-11469264D02*
X20250912Y-11469264D01*
X21061912Y-5704264D02*
X21061912Y-5804264D01*
X21011912Y-5754264D02*
X21111912Y-5754264D01*
X21061912Y-7609264D02*
X21061912Y-7709264D01*
X21011912Y-7659264D02*
X21111912Y-7659264D01*
X21061912Y-9514264D02*
X21061912Y-9614264D01*
X21011912Y-9564264D02*
X21111912Y-9564264D01*
X21061912Y-11419264D02*
X21061912Y-11519264D01*
X21011912Y-11469264D02*
X21111912Y-11469264D01*
X22105912Y-5704264D02*
X22105912Y-5804264D01*
X22055912Y-5754264D02*
X22155912Y-5754264D01*
X22105912Y-7609264D02*
X22105912Y-7709264D01*
X22055912Y-7659264D02*
X22155912Y-7659264D01*
X22105912Y-9514264D02*
X22105912Y-9614264D01*
X22055912Y-9564264D02*
X22155912Y-9564264D01*
X22105912Y-11419264D02*
X22105912Y-11519264D01*
X22055912Y-11469264D02*
X22155912Y-11469264D01*
D15*
X8992427Y-8607427D02*
X8992427Y-8522573D01*
X8907573Y-8522573D01*
X8907573Y-8607427D01*
X8992427Y-8607427D01*
X8992427Y-8782427D02*
X8992427Y-8697573D01*
X8907573Y-8697573D01*
X8907573Y-8782427D01*
X8992427Y-8782427D01*
X9692427Y-8607427D02*
X9692427Y-8522573D01*
X9607573Y-8522573D01*
X9607573Y-8607427D01*
X9692427Y-8607427D01*
X9692427Y-8782427D02*
X9692427Y-8697573D01*
X9607573Y-8697573D01*
X9607573Y-8782427D01*
X9692427Y-8782427D01*
D16*
X8682902Y-14043986D02*
X8772902Y-13953986D01*
X8682902Y-13863986D01*
X8592902Y-13953986D01*
X8682902Y-14043986D01*
X9716564Y-13667764D02*
X9806564Y-13577764D01*
X9716564Y-13487764D01*
X9626564Y-13577764D01*
X9716564Y-13667764D01*
X10653268Y-13404770D02*
X10743268Y-13314770D01*
X10653268Y-13224770D01*
X10563268Y-13314770D01*
X10653268Y-13404770D01*
X11505000Y-5090000D02*
X11595000Y-5000000D01*
X11505000Y-4910000D01*
X11415000Y-5000000D01*
X11505000Y-5090000D01*
X11505000Y-7000000D02*
X11595000Y-6910000D01*
X11505000Y-6820000D01*
X11415000Y-6910000D01*
X11505000Y-7000000D01*
X11505000Y-8900000D02*
X11595000Y-8810000D01*
X11505000Y-8720000D01*
X11415000Y-8810000D01*
X11505000Y-8900000D01*
X11505000Y-10805000D02*
X11595000Y-10715000D01*
X11505000Y-10625000D01*
X11415000Y-10715000D01*
X11505000Y-10805000D01*
X11736556Y-13213757D02*
X11826556Y-13123757D01*
X11736556Y-13033757D01*
X11646556Y-13123757D01*
X11736556Y-13213757D01*
X12605000Y-5090000D02*
X12695000Y-5000000D01*
X12605000Y-4910000D01*
X12515000Y-5000000D01*
X12605000Y-5090000D01*
X12605000Y-7000000D02*
X12695000Y-6910000D01*
X12605000Y-6820000D01*
X12515000Y-6910000D01*
X12605000Y-7000000D01*
X12605000Y-8900000D02*
X12695000Y-8810000D01*
X12605000Y-8720000D01*
X12515000Y-8810000D01*
X12605000Y-8900000D01*
X12605000Y-10805000D02*
X12695000Y-10715000D01*
X12605000Y-10625000D01*
X12515000Y-10715000D01*
X12605000Y-10805000D01*
X12709912Y-13135264D02*
X12799912Y-13045264D01*
X12709912Y-12955264D01*
X12619912Y-13045264D01*
X12709912Y-13135264D01*
X13410000Y-4840000D02*
X13500000Y-4750000D01*
X13410000Y-4660000D01*
X13320000Y-4750000D01*
X13410000Y-4840000D01*
X13410000Y-6745000D02*
X13500000Y-6655000D01*
X13410000Y-6565000D01*
X13320000Y-6655000D01*
X13410000Y-6745000D01*
X13410000Y-8650000D02*
X13500000Y-8560000D01*
X13410000Y-8470000D01*
X13320000Y-8560000D01*
X13410000Y-8650000D01*
X13410000Y-10555000D02*
X13500000Y-10465000D01*
X13410000Y-10375000D01*
X13320000Y-10465000D01*
X13410000Y-10555000D01*
X13809912Y-13135264D02*
X13899912Y-13045264D01*
X13809912Y-12955264D01*
X13719912Y-13045264D01*
X13809912Y-13135264D01*
X14510000Y-4840000D02*
X14600000Y-4750000D01*
X14510000Y-4660000D01*
X14420000Y-4750000D01*
X14510000Y-4840000D01*
X14510000Y-6745000D02*
X14600000Y-6655000D01*
X14510000Y-6565000D01*
X14420000Y-6655000D01*
X14510000Y-6745000D01*
X14510000Y-8650000D02*
X14600000Y-8560000D01*
X14510000Y-8470000D01*
X14420000Y-8560000D01*
X14510000Y-8650000D01*
X14510000Y-10555000D02*
X14600000Y-10465000D01*
X14510000Y-10375000D01*
X14420000Y-10465000D01*
X14510000Y-10555000D01*
X14776268Y-13220757D02*
X14866268Y-13130757D01*
X14776268Y-13040757D01*
X14686268Y-13130757D01*
X14776268Y-13220757D01*
X15315000Y-4590000D02*
X15405000Y-4500000D01*
X15315000Y-4410000D01*
X15225000Y-4500000D01*
X15315000Y-4590000D01*
X15315000Y-6495000D02*
X15405000Y-6405000D01*
X15315000Y-6315000D01*
X15225000Y-6405000D01*
X15315000Y-6495000D01*
X15315000Y-8400000D02*
X15405000Y-8310000D01*
X15315000Y-8220000D01*
X15225000Y-8310000D01*
X15315000Y-8400000D01*
X15315000Y-10305000D02*
X15405000Y-10215000D01*
X15315000Y-10125000D01*
X15225000Y-10215000D01*
X15315000Y-10305000D01*
X15859556Y-13411770D02*
X15949556Y-13321770D01*
X15859556Y-13231770D01*
X15769556Y-13321770D01*
X15859556Y-13411770D01*
X16415000Y-4590000D02*
X16505000Y-4500000D01*
X16415000Y-4410000D01*
X16325000Y-4500000D01*
X16415000Y-4590000D01*
X16415000Y-6495000D02*
X16505000Y-6405000D01*
X16415000Y-6315000D01*
X16325000Y-6405000D01*
X16415000Y-6495000D01*
X16415000Y-8400000D02*
X16505000Y-8310000D01*
X16415000Y-8220000D01*
X16325000Y-8310000D01*
X16415000Y-8400000D01*
X16415000Y-10305000D02*
X16505000Y-10215000D01*
X16415000Y-10125000D01*
X16325000Y-10215000D01*
X16415000Y-10305000D01*
X17220000Y-4840000D02*
X17310000Y-4750000D01*
X17220000Y-4660000D01*
X17130000Y-4750000D01*
X17220000Y-4840000D01*
X17220000Y-6745000D02*
X17310000Y-6655000D01*
X17220000Y-6565000D01*
X17130000Y-6655000D01*
X17220000Y-6745000D01*
X17220000Y-8650000D02*
X17310000Y-8560000D01*
X17220000Y-8470000D01*
X17130000Y-8560000D01*
X17220000Y-8650000D01*
X17220000Y-10555000D02*
X17310000Y-10465000D01*
X17220000Y-10375000D01*
X17130000Y-10465000D01*
X17220000Y-10555000D01*
X18320000Y-4840000D02*
X18410000Y-4750000D01*
X18320000Y-4660000D01*
X18230000Y-4750000D01*
X18320000Y-4840000D01*
X18320000Y-6745000D02*
X18410000Y-6655000D01*
X18320000Y-6565000D01*
X18230000Y-6655000D01*
X18320000Y-6745000D01*
X18320000Y-8650000D02*
X18410000Y-8560000D01*
X18320000Y-8470000D01*
X18230000Y-8560000D01*
X18320000Y-8650000D01*
X18320000Y-10555000D02*
X18410000Y-10465000D01*
X18320000Y-10375000D01*
X18230000Y-10465000D01*
X18320000Y-10555000D01*
X19128912Y-6264264D02*
X19218912Y-6174264D01*
X19128912Y-6084264D01*
X19038912Y-6174264D01*
X19128912Y-6264264D01*
X19128912Y-8169264D02*
X19218912Y-8079264D01*
X19128912Y-7989264D01*
X19038912Y-8079264D01*
X19128912Y-8169264D01*
X19128912Y-10074264D02*
X19218912Y-9984264D01*
X19128912Y-9894264D01*
X19038912Y-9984264D01*
X19128912Y-10074264D01*
X19128912Y-11979264D02*
X19218912Y-11889264D01*
X19128912Y-11799264D01*
X19038912Y-11889264D01*
X19128912Y-11979264D01*
X20228912Y-6264264D02*
X20318912Y-6174264D01*
X20228912Y-6084264D01*
X20138912Y-6174264D01*
X20228912Y-6264264D01*
X20228912Y-8169264D02*
X20318912Y-8079264D01*
X20228912Y-7989264D01*
X20138912Y-8079264D01*
X20228912Y-8169264D01*
X20228912Y-10074264D02*
X20318912Y-9984264D01*
X20228912Y-9894264D01*
X20138912Y-9984264D01*
X20228912Y-10074264D01*
X20228912Y-11979264D02*
X20318912Y-11889264D01*
X20228912Y-11799264D01*
X20138912Y-11889264D01*
X20228912Y-11979264D01*
X21033912Y-6264264D02*
X21123912Y-6174264D01*
X21033912Y-6084264D01*
X20943912Y-6174264D01*
X21033912Y-6264264D01*
X21033912Y-8169264D02*
X21123912Y-8079264D01*
X21033912Y-7989264D01*
X20943912Y-8079264D01*
X21033912Y-8169264D01*
X21033912Y-10074264D02*
X21123912Y-9984264D01*
X21033912Y-9894264D01*
X20943912Y-9984264D01*
X21033912Y-10074264D01*
X21033912Y-11979264D02*
X21123912Y-11889264D01*
X21033912Y-11799264D01*
X20943912Y-11889264D01*
X21033912Y-11979264D01*
X22133912Y-6264264D02*
X22223912Y-6174264D01*
X22133912Y-6084264D01*
X22043912Y-6174264D01*
X22133912Y-6264264D01*
X22133912Y-8169264D02*
X22223912Y-8079264D01*
X22133912Y-7989264D01*
X22043912Y-8079264D01*
X22133912Y-8169264D01*
X22133912Y-10074264D02*
X22223912Y-9984264D01*
X22133912Y-9894264D01*
X22043912Y-9984264D01*
X22133912Y-10074264D01*
X22133912Y-11979264D02*
X22223912Y-11889264D01*
X22133912Y-11799264D01*
X22043912Y-11889264D01*
X22133912Y-11979264D01*
D17*
X8706434Y-14134571D02*
X9006434Y-14434571D01*
X9006434Y-14134571D02*
X8706434Y-14434571D01*
X9006434Y-14284571D02*
G75*
G03*
X9006434Y-14284571I-150000J0D01*
G01*
X9251525Y-14170293D02*
X9551525Y-14470293D01*
X9551525Y-14170293D02*
X9251525Y-14470293D01*
X9551525Y-14320293D02*
G75*
G03*
X9551525Y-14320293I-150000J0D01*
G01*
X9646127Y-13792551D02*
X9946127Y-14092551D01*
X9946127Y-13792551D02*
X9646127Y-14092551D01*
X9946127Y-13942551D02*
G75*
G03*
X9946127Y-13942551I-150000J0D01*
G01*
X10616758Y-13520467D02*
X10916758Y-13820467D01*
X10916758Y-13520467D02*
X10616758Y-13820467D01*
X10916758Y-13670467D02*
G75*
G03*
X10916758Y-13670467I-150000J0D01*
G01*
X11147364Y-13650301D02*
X11447364Y-13950301D01*
X11447364Y-13650301D02*
X11147364Y-13950301D01*
X11447364Y-13800301D02*
G75*
G03*
X11447364Y-13800301I-150000J0D01*
G01*
X11405000Y-5220000D02*
X11705000Y-5520000D01*
X11705000Y-5220000D02*
X11405000Y-5520000D01*
X11705000Y-5370000D02*
G75*
G03*
X11705000Y-5370000I-150000J0D01*
G01*
X11405000Y-7130000D02*
X11705000Y-7430000D01*
X11705000Y-7130000D02*
X11405000Y-7430000D01*
X11705000Y-7280000D02*
G75*
G03*
X11705000Y-7280000I-150000J0D01*
G01*
X11405000Y-9030000D02*
X11705000Y-9330000D01*
X11705000Y-9030000D02*
X11405000Y-9330000D01*
X11705000Y-9180000D02*
G75*
G03*
X11705000Y-9180000I-150000J0D01*
G01*
X11405000Y-10935000D02*
X11705000Y-11235000D01*
X11705000Y-10935000D02*
X11405000Y-11235000D01*
X11705000Y-11085000D02*
G75*
G03*
X11705000Y-11085000I-150000J0D01*
G01*
X11601566Y-13346819D02*
X11901566Y-13646819D01*
X11901566Y-13346819D02*
X11601566Y-13646819D01*
X11901566Y-13496819D02*
G75*
G03*
X11901566Y-13496819I-150000J0D01*
G01*
X11905000Y-5440000D02*
X12205000Y-5740000D01*
X12205000Y-5440000D02*
X11905000Y-5740000D01*
X12205000Y-5590000D02*
G75*
G03*
X12205000Y-5590000I-150000J0D01*
G01*
X11905000Y-7350000D02*
X12205000Y-7650000D01*
X12205000Y-7350000D02*
X11905000Y-7650000D01*
X12205000Y-7500000D02*
G75*
G03*
X12205000Y-7500000I-150000J0D01*
G01*
X11905000Y-9250000D02*
X12205000Y-9550000D01*
X12205000Y-9250000D02*
X11905000Y-9550000D01*
X12205000Y-9400000D02*
G75*
G03*
X12205000Y-9400000I-150000J0D01*
G01*
X11905000Y-11155000D02*
X12205000Y-11455000D01*
X12205000Y-11155000D02*
X11905000Y-11455000D01*
X12205000Y-11305000D02*
G75*
G03*
X12205000Y-11305000I-150000J0D01*
G01*
X12405000Y-5220000D02*
X12705000Y-5520000D01*
X12705000Y-5220000D02*
X12405000Y-5520000D01*
X12705000Y-5370000D02*
G75*
G03*
X12705000Y-5370000I-150000J0D01*
G01*
X12405000Y-7130000D02*
X12705000Y-7430000D01*
X12705000Y-7130000D02*
X12405000Y-7430000D01*
X12705000Y-7280000D02*
G75*
G03*
X12705000Y-7280000I-150000J0D01*
G01*
X12405000Y-9030000D02*
X12705000Y-9330000D01*
X12705000Y-9030000D02*
X12405000Y-9330000D01*
X12705000Y-9180000D02*
G75*
G03*
X12705000Y-9180000I-150000J0D01*
G01*
X12405000Y-10935000D02*
X12705000Y-11235000D01*
X12705000Y-10935000D02*
X12405000Y-11235000D01*
X12705000Y-11085000D02*
G75*
G03*
X12705000Y-11085000I-150000J0D01*
G01*
X12609912Y-13265264D02*
X12909912Y-13565264D01*
X12909912Y-13265264D02*
X12609912Y-13565264D01*
X12909912Y-13415264D02*
G75*
G03*
X12909912Y-13415264I-150000J0D01*
G01*
X13109912Y-13485264D02*
X13409912Y-13785264D01*
X13409912Y-13485264D02*
X13109912Y-13785264D01*
X13409912Y-13635264D02*
G75*
G03*
X13409912Y-13635264I-150000J0D01*
G01*
X13310000Y-4970000D02*
X13610000Y-5270000D01*
X13610000Y-4970000D02*
X13310000Y-5270000D01*
X13610000Y-5120000D02*
G75*
G03*
X13610000Y-5120000I-150000J0D01*
G01*
X13310000Y-6875000D02*
X13610000Y-7175000D01*
X13610000Y-6875000D02*
X13310000Y-7175000D01*
X13610000Y-7025000D02*
G75*
G03*
X13610000Y-7025000I-150000J0D01*
G01*
X13310000Y-8780000D02*
X13610000Y-9080000D01*
X13610000Y-8780000D02*
X13310000Y-9080000D01*
X13610000Y-8930000D02*
G75*
G03*
X13610000Y-8930000I-150000J0D01*
G01*
X13310000Y-10685000D02*
X13610000Y-10985000D01*
X13610000Y-10685000D02*
X13310000Y-10985000D01*
X13610000Y-10835000D02*
G75*
G03*
X13610000Y-10835000I-150000J0D01*
G01*
X13609912Y-13265264D02*
X13909912Y-13565264D01*
X13909912Y-13265264D02*
X13609912Y-13565264D01*
X13909912Y-13415264D02*
G75*
G03*
X13909912Y-13415264I-150000J0D01*
G01*
X13810000Y-5190000D02*
X14110000Y-5490000D01*
X14110000Y-5190000D02*
X13810000Y-5490000D01*
X14110000Y-5340000D02*
G75*
G03*
X14110000Y-5340000I-150000J0D01*
G01*
X13810000Y-7095000D02*
X14110000Y-7395000D01*
X14110000Y-7095000D02*
X13810000Y-7395000D01*
X14110000Y-7245000D02*
G75*
G03*
X14110000Y-7245000I-150000J0D01*
G01*
X13810000Y-9000000D02*
X14110000Y-9300000D01*
X14110000Y-9000000D02*
X13810000Y-9300000D01*
X14110000Y-9150000D02*
G75*
G03*
X14110000Y-9150000I-150000J0D01*
G01*
X13810000Y-10905000D02*
X14110000Y-11205000D01*
X14110000Y-10905000D02*
X13810000Y-11205000D01*
X14110000Y-11055000D02*
G75*
G03*
X14110000Y-11055000I-150000J0D01*
G01*
X14310000Y-4970000D02*
X14610000Y-5270000D01*
X14610000Y-4970000D02*
X14310000Y-5270000D01*
X14610000Y-5120000D02*
G75*
G03*
X14610000Y-5120000I-150000J0D01*
G01*
X14310000Y-6875000D02*
X14610000Y-7175000D01*
X14610000Y-6875000D02*
X14310000Y-7175000D01*
X14610000Y-7025000D02*
G75*
G03*
X14610000Y-7025000I-150000J0D01*
G01*
X14310000Y-8780000D02*
X14610000Y-9080000D01*
X14610000Y-8780000D02*
X14310000Y-9080000D01*
X14610000Y-8930000D02*
G75*
G03*
X14610000Y-8930000I-150000J0D01*
G01*
X14310000Y-10685000D02*
X14610000Y-10985000D01*
X14610000Y-10685000D02*
X14310000Y-10985000D01*
X14610000Y-10835000D02*
G75*
G03*
X14610000Y-10835000I-150000J0D01*
G01*
X14611258Y-13353819D02*
X14911258Y-13653819D01*
X14911258Y-13353819D02*
X14611258Y-13653819D01*
X14911258Y-13503819D02*
G75*
G03*
X14911258Y-13503819I-150000J0D01*
G01*
X15065460Y-13657301D02*
X15365460Y-13957301D01*
X15365460Y-13657301D02*
X15065460Y-13957301D01*
X15365460Y-13807301D02*
G75*
G03*
X15365460Y-13807301I-150000J0D01*
G01*
X15215000Y-4720000D02*
X15515000Y-5020000D01*
X15515000Y-4720000D02*
X15215000Y-5020000D01*
X15515000Y-4870000D02*
G75*
G03*
X15515000Y-4870000I-150000J0D01*
G01*
X15215000Y-6625000D02*
X15515000Y-6925000D01*
X15515000Y-6625000D02*
X15215000Y-6925000D01*
X15515000Y-6775000D02*
G75*
G03*
X15515000Y-6775000I-150000J0D01*
G01*
X15215000Y-8530000D02*
X15515000Y-8830000D01*
X15515000Y-8530000D02*
X15215000Y-8830000D01*
X15515000Y-8680000D02*
G75*
G03*
X15515000Y-8680000I-150000J0D01*
G01*
X15215000Y-10435000D02*
X15515000Y-10735000D01*
X15515000Y-10435000D02*
X15215000Y-10735000D01*
X15515000Y-10585000D02*
G75*
G03*
X15515000Y-10585000I-150000J0D01*
G01*
X15596066Y-13527467D02*
X15896066Y-13827467D01*
X15896066Y-13527467D02*
X15596066Y-13827467D01*
X15896066Y-13677467D02*
G75*
G03*
X15896066Y-13677467I-150000J0D01*
G01*
X15715000Y-4940000D02*
X16015000Y-5240000D01*
X16015000Y-4940000D02*
X15715000Y-5240000D01*
X16015000Y-5090000D02*
G75*
G03*
X16015000Y-5090000I-150000J0D01*
G01*
X15715000Y-6845000D02*
X16015000Y-7145000D01*
X16015000Y-6845000D02*
X15715000Y-7145000D01*
X16015000Y-6995000D02*
G75*
G03*
X16015000Y-6995000I-150000J0D01*
G01*
X15715000Y-8750000D02*
X16015000Y-9050000D01*
X16015000Y-8750000D02*
X15715000Y-9050000D01*
X16015000Y-8900000D02*
G75*
G03*
X16015000Y-8900000I-150000J0D01*
G01*
X15715000Y-10655000D02*
X16015000Y-10955000D01*
X16015000Y-10655000D02*
X15715000Y-10955000D01*
X16015000Y-10805000D02*
G75*
G03*
X16015000Y-10805000I-150000J0D01*
G01*
X16215000Y-4720000D02*
X16515000Y-5020000D01*
X16515000Y-4720000D02*
X16215000Y-5020000D01*
X16515000Y-4870000D02*
G75*
G03*
X16515000Y-4870000I-150000J0D01*
G01*
X16215000Y-6625000D02*
X16515000Y-6925000D01*
X16515000Y-6625000D02*
X16215000Y-6925000D01*
X16515000Y-6775000D02*
G75*
G03*
X16515000Y-6775000I-150000J0D01*
G01*
X16215000Y-8530000D02*
X16515000Y-8830000D01*
X16515000Y-8530000D02*
X16215000Y-8830000D01*
X16515000Y-8680000D02*
G75*
G03*
X16515000Y-8680000I-150000J0D01*
G01*
X16215000Y-10435000D02*
X16515000Y-10735000D01*
X16515000Y-10435000D02*
X16215000Y-10735000D01*
X16515000Y-10585000D02*
G75*
G03*
X16515000Y-10585000I-150000J0D01*
G01*
X17120000Y-4970000D02*
X17420000Y-5270000D01*
X17420000Y-4970000D02*
X17120000Y-5270000D01*
X17420000Y-5120000D02*
G75*
G03*
X17420000Y-5120000I-150000J0D01*
G01*
X17120000Y-6875000D02*
X17420000Y-7175000D01*
X17420000Y-6875000D02*
X17120000Y-7175000D01*
X17420000Y-7025000D02*
G75*
G03*
X17420000Y-7025000I-150000J0D01*
G01*
X17120000Y-8780000D02*
X17420000Y-9080000D01*
X17420000Y-8780000D02*
X17120000Y-9080000D01*
X17420000Y-8930000D02*
G75*
G03*
X17420000Y-8930000I-150000J0D01*
G01*
X17120000Y-10685000D02*
X17420000Y-10985000D01*
X17420000Y-10685000D02*
X17120000Y-10985000D01*
X17420000Y-10835000D02*
G75*
G03*
X17420000Y-10835000I-150000J0D01*
G01*
X17620000Y-5190000D02*
X17920000Y-5490000D01*
X17920000Y-5190000D02*
X17620000Y-5490000D01*
X17920000Y-5340000D02*
G75*
G03*
X17920000Y-5340000I-150000J0D01*
G01*
X17620000Y-7095000D02*
X17920000Y-7395000D01*
X17920000Y-7095000D02*
X17620000Y-7395000D01*
X17920000Y-7245000D02*
G75*
G03*
X17920000Y-7245000I-150000J0D01*
G01*
X17620000Y-9000000D02*
X17920000Y-9300000D01*
X17920000Y-9000000D02*
X17620000Y-9300000D01*
X17920000Y-9150000D02*
G75*
G03*
X17920000Y-9150000I-150000J0D01*
G01*
X17620000Y-10905000D02*
X17920000Y-11205000D01*
X17920000Y-10905000D02*
X17620000Y-11205000D01*
X17920000Y-11055000D02*
G75*
G03*
X17920000Y-11055000I-150000J0D01*
G01*
X18120000Y-4970000D02*
X18420000Y-5270000D01*
X18420000Y-4970000D02*
X18120000Y-5270000D01*
X18420000Y-5120000D02*
G75*
G03*
X18420000Y-5120000I-150000J0D01*
G01*
X18120000Y-6875000D02*
X18420000Y-7175000D01*
X18420000Y-6875000D02*
X18120000Y-7175000D01*
X18420000Y-7025000D02*
G75*
G03*
X18420000Y-7025000I-150000J0D01*
G01*
X18120000Y-8780000D02*
X18420000Y-9080000D01*
X18420000Y-8780000D02*
X18120000Y-9080000D01*
X18420000Y-8930000D02*
G75*
G03*
X18420000Y-8930000I-150000J0D01*
G01*
X18120000Y-10685000D02*
X18420000Y-10985000D01*
X18420000Y-10685000D02*
X18120000Y-10985000D01*
X18420000Y-10835000D02*
G75*
G03*
X18420000Y-10835000I-150000J0D01*
G01*
X19028912Y-6394264D02*
X19328912Y-6694264D01*
X19328912Y-6394264D02*
X19028912Y-6694264D01*
X19328912Y-6544264D02*
G75*
G03*
X19328912Y-6544264I-150000J0D01*
G01*
X19028912Y-8299264D02*
X19328912Y-8599264D01*
X19328912Y-8299264D02*
X19028912Y-8599264D01*
X19328912Y-8449264D02*
G75*
G03*
X19328912Y-8449264I-150000J0D01*
G01*
X19028912Y-10204264D02*
X19328912Y-10504264D01*
X19328912Y-10204264D02*
X19028912Y-10504264D01*
X19328912Y-10354264D02*
G75*
G03*
X19328912Y-10354264I-150000J0D01*
G01*
X19028912Y-12109264D02*
X19328912Y-12409264D01*
X19328912Y-12109264D02*
X19028912Y-12409264D01*
X19328912Y-12259264D02*
G75*
G03*
X19328912Y-12259264I-150000J0D01*
G01*
X19528912Y-6614264D02*
X19828912Y-6914264D01*
X19828912Y-6614264D02*
X19528912Y-6914264D01*
X19828912Y-6764264D02*
G75*
G03*
X19828912Y-6764264I-150000J0D01*
G01*
X19528912Y-8519264D02*
X19828912Y-8819264D01*
X19828912Y-8519264D02*
X19528912Y-8819264D01*
X19828912Y-8669264D02*
G75*
G03*
X19828912Y-8669264I-150000J0D01*
G01*
X19528912Y-10424264D02*
X19828912Y-10724264D01*
X19828912Y-10424264D02*
X19528912Y-10724264D01*
X19828912Y-10574264D02*
G75*
G03*
X19828912Y-10574264I-150000J0D01*
G01*
X19528912Y-12329264D02*
X19828912Y-12629264D01*
X19828912Y-12329264D02*
X19528912Y-12629264D01*
X19828912Y-12479264D02*
G75*
G03*
X19828912Y-12479264I-150000J0D01*
G01*
X20028912Y-6394264D02*
X20328912Y-6694264D01*
X20328912Y-6394264D02*
X20028912Y-6694264D01*
X20328912Y-6544264D02*
G75*
G03*
X20328912Y-6544264I-150000J0D01*
G01*
X20028912Y-8299264D02*
X20328912Y-8599264D01*
X20328912Y-8299264D02*
X20028912Y-8599264D01*
X20328912Y-8449264D02*
G75*
G03*
X20328912Y-8449264I-150000J0D01*
G01*
X20028912Y-10204264D02*
X20328912Y-10504264D01*
X20328912Y-10204264D02*
X20028912Y-10504264D01*
X20328912Y-10354264D02*
G75*
G03*
X20328912Y-10354264I-150000J0D01*
G01*
X20028912Y-12109264D02*
X20328912Y-12409264D01*
X20328912Y-12109264D02*
X20028912Y-12409264D01*
X20328912Y-12259264D02*
G75*
G03*
X20328912Y-12259264I-150000J0D01*
G01*
X20933912Y-6394264D02*
X21233912Y-6694264D01*
X21233912Y-6394264D02*
X20933912Y-6694264D01*
X21233912Y-6544264D02*
G75*
G03*
X21233912Y-6544264I-150000J0D01*
G01*
X20933912Y-8299264D02*
X21233912Y-8599264D01*
X21233912Y-8299264D02*
X20933912Y-8599264D01*
X21233912Y-8449264D02*
G75*
G03*
X21233912Y-8449264I-150000J0D01*
G01*
X20933912Y-10204264D02*
X21233912Y-10504264D01*
X21233912Y-10204264D02*
X20933912Y-10504264D01*
X21233912Y-10354264D02*
G75*
G03*
X21233912Y-10354264I-150000J0D01*
G01*
X20933912Y-12109264D02*
X21233912Y-12409264D01*
X21233912Y-12109264D02*
X20933912Y-12409264D01*
X21233912Y-12259264D02*
G75*
G03*
X21233912Y-12259264I-150000J0D01*
G01*
X21433912Y-6614264D02*
X21733912Y-6914264D01*
X21733912Y-6614264D02*
X21433912Y-6914264D01*
X21733912Y-6764264D02*
G75*
G03*
X21733912Y-6764264I-150000J0D01*
G01*
X21433912Y-8519264D02*
X21733912Y-8819264D01*
X21733912Y-8519264D02*
X21433912Y-8819264D01*
X21733912Y-8669264D02*
G75*
G03*
X21733912Y-8669264I-150000J0D01*
G01*
X21433912Y-10424264D02*
X21733912Y-10724264D01*
X21733912Y-10424264D02*
X21433912Y-10724264D01*
X21733912Y-10574264D02*
G75*
G03*
X21733912Y-10574264I-150000J0D01*
G01*
X21433912Y-12329264D02*
X21733912Y-12629264D01*
X21733912Y-12329264D02*
X21433912Y-12629264D01*
X21733912Y-12479264D02*
G75*
G03*
X21733912Y-12479264I-150000J0D01*
G01*
X21933912Y-6394264D02*
X22233912Y-6694264D01*
X22233912Y-6394264D02*
X21933912Y-6694264D01*
X22233912Y-6544264D02*
G75*
G03*
X22233912Y-6544264I-150000J0D01*
G01*
X21933912Y-8299264D02*
X22233912Y-8599264D01*
X22233912Y-8299264D02*
X21933912Y-8599264D01*
X22233912Y-8449264D02*
G75*
G03*
X22233912Y-8449264I-150000J0D01*
G01*
X21933912Y-10204264D02*
X22233912Y-10504264D01*
X22233912Y-10204264D02*
X21933912Y-10504264D01*
X22233912Y-10354264D02*
G75*
G03*
X22233912Y-10354264I-150000J0D01*
G01*
X21933912Y-12109264D02*
X22233912Y-12409264D01*
X22233912Y-12109264D02*
X21933912Y-12409264D01*
X22233912Y-12259264D02*
G75*
G03*
X22233912Y-12259264I-150000J0D01*
G01*
D18*
X9029733Y-13595875D02*
X9369733Y-13935875D01*
X9369733Y-13595875D02*
X9029733Y-13935875D01*
X9199733Y-13595875D02*
X9199733Y-13935875D01*
X9029733Y-13765875D02*
X9369733Y-13765875D01*
X11024912Y-13049264D02*
X11364912Y-13389264D01*
X11364912Y-13049264D02*
X11024912Y-13389264D01*
X11194912Y-13049264D02*
X11194912Y-13389264D01*
X11024912Y-13219264D02*
X11364912Y-13219264D01*
X11885000Y-4830000D02*
X12225000Y-5170000D01*
X12225000Y-4830000D02*
X11885000Y-5170000D01*
X12055000Y-4830000D02*
X12055000Y-5170000D01*
X11885000Y-5000000D02*
X12225000Y-5000000D01*
X11885000Y-6740000D02*
X12225000Y-7080000D01*
X12225000Y-6740000D02*
X11885000Y-7080000D01*
X12055000Y-6740000D02*
X12055000Y-7080000D01*
X11885000Y-6910000D02*
X12225000Y-6910000D01*
X11885000Y-8640000D02*
X12225000Y-8980000D01*
X12225000Y-8640000D02*
X11885000Y-8980000D01*
X12055000Y-8640000D02*
X12055000Y-8980000D01*
X11885000Y-8810000D02*
X12225000Y-8810000D01*
X11885000Y-10545000D02*
X12225000Y-10885000D01*
X12225000Y-10545000D02*
X11885000Y-10885000D01*
X12055000Y-10545000D02*
X12055000Y-10885000D01*
X11885000Y-10715000D02*
X12225000Y-10715000D01*
X13089912Y-12875264D02*
X13429912Y-13215264D01*
X13429912Y-12875264D02*
X13089912Y-13215264D01*
X13259912Y-12875264D02*
X13259912Y-13215264D01*
X13089912Y-13045264D02*
X13429912Y-13045264D01*
X13790000Y-4580000D02*
X14130000Y-4920000D01*
X14130000Y-4580000D02*
X13790000Y-4920000D01*
X13960000Y-4580000D02*
X13960000Y-4920000D01*
X13790000Y-4750000D02*
X14130000Y-4750000D01*
X13790000Y-6485000D02*
X14130000Y-6825000D01*
X14130000Y-6485000D02*
X13790000Y-6825000D01*
X13960000Y-6485000D02*
X13960000Y-6825000D01*
X13790000Y-6655000D02*
X14130000Y-6655000D01*
X13790000Y-8390000D02*
X14130000Y-8730000D01*
X14130000Y-8390000D02*
X13790000Y-8730000D01*
X13960000Y-8390000D02*
X13960000Y-8730000D01*
X13790000Y-8560000D02*
X14130000Y-8560000D01*
X13790000Y-10295000D02*
X14130000Y-10635000D01*
X14130000Y-10295000D02*
X13790000Y-10635000D01*
X13960000Y-10295000D02*
X13960000Y-10635000D01*
X13790000Y-10465000D02*
X14130000Y-10465000D01*
X15147912Y-13056264D02*
X15487912Y-13396264D01*
X15487912Y-13056264D02*
X15147912Y-13396264D01*
X15317912Y-13056264D02*
X15317912Y-13396264D01*
X15147912Y-13226264D02*
X15487912Y-13226264D01*
X15695000Y-4330000D02*
X16035000Y-4670000D01*
X16035000Y-4330000D02*
X15695000Y-4670000D01*
X15865000Y-4330000D02*
X15865000Y-4670000D01*
X15695000Y-4500000D02*
X16035000Y-4500000D01*
X15695000Y-6235000D02*
X16035000Y-6575000D01*
X16035000Y-6235000D02*
X15695000Y-6575000D01*
X15865000Y-6235000D02*
X15865000Y-6575000D01*
X15695000Y-6405000D02*
X16035000Y-6405000D01*
X15695000Y-8140000D02*
X16035000Y-8480000D01*
X16035000Y-8140000D02*
X15695000Y-8480000D01*
X15865000Y-8140000D02*
X15865000Y-8480000D01*
X15695000Y-8310000D02*
X16035000Y-8310000D01*
X15695000Y-10045000D02*
X16035000Y-10385000D01*
X16035000Y-10045000D02*
X15695000Y-10385000D01*
X15865000Y-10045000D02*
X15865000Y-10385000D01*
X15695000Y-10215000D02*
X16035000Y-10215000D01*
X17600000Y-4580000D02*
X17940000Y-4920000D01*
X17940000Y-4580000D02*
X17600000Y-4920000D01*
X17770000Y-4580000D02*
X17770000Y-4920000D01*
X17600000Y-4750000D02*
X17940000Y-4750000D01*
X17600000Y-6485000D02*
X17940000Y-6825000D01*
X17940000Y-6485000D02*
X17600000Y-6825000D01*
X17770000Y-6485000D02*
X17770000Y-6825000D01*
X17600000Y-6655000D02*
X17940000Y-6655000D01*
X17600000Y-8390000D02*
X17940000Y-8730000D01*
X17940000Y-8390000D02*
X17600000Y-8730000D01*
X17770000Y-8390000D02*
X17770000Y-8730000D01*
X17600000Y-8560000D02*
X17940000Y-8560000D01*
X17600000Y-10295000D02*
X17940000Y-10635000D01*
X17940000Y-10295000D02*
X17600000Y-10635000D01*
X17770000Y-10295000D02*
X17770000Y-10635000D01*
X17600000Y-10465000D02*
X17940000Y-10465000D01*
X19508912Y-6004264D02*
X19848912Y-6344264D01*
X19848912Y-6004264D02*
X19508912Y-6344264D01*
X19678912Y-6004264D02*
X19678912Y-6344264D01*
X19508912Y-6174264D02*
X19848912Y-6174264D01*
X19508912Y-7909264D02*
X19848912Y-8249264D01*
X19848912Y-7909264D02*
X19508912Y-8249264D01*
X19678912Y-7909264D02*
X19678912Y-8249264D01*
X19508912Y-8079264D02*
X19848912Y-8079264D01*
X19508912Y-9814264D02*
X19848912Y-10154264D01*
X19848912Y-9814264D02*
X19508912Y-10154264D01*
X19678912Y-9814264D02*
X19678912Y-10154264D01*
X19508912Y-9984264D02*
X19848912Y-9984264D01*
X19508912Y-11719264D02*
X19848912Y-12059264D01*
X19848912Y-11719264D02*
X19508912Y-12059264D01*
X19678912Y-11719264D02*
X19678912Y-12059264D01*
X19508912Y-11889264D02*
X19848912Y-11889264D01*
X21413912Y-6004264D02*
X21753912Y-6344264D01*
X21753912Y-6004264D02*
X21413912Y-6344264D01*
X21583912Y-6004264D02*
X21583912Y-6344264D01*
X21413912Y-6174264D02*
X21753912Y-6174264D01*
X21413912Y-7909264D02*
X21753912Y-8249264D01*
X21753912Y-7909264D02*
X21413912Y-8249264D01*
X21583912Y-7909264D02*
X21583912Y-8249264D01*
X21413912Y-8079264D02*
X21753912Y-8079264D01*
X21413912Y-9814264D02*
X21753912Y-10154264D01*
X21753912Y-9814264D02*
X21413912Y-10154264D01*
X21583912Y-9814264D02*
X21583912Y-10154264D01*
X21413912Y-9984264D02*
X21753912Y-9984264D01*
X21413912Y-11719264D02*
X21753912Y-12059264D01*
X21753912Y-11719264D02*
X21413912Y-12059264D01*
X21583912Y-11719264D02*
X21583912Y-12059264D01*
X21413912Y-11889264D02*
X21753912Y-11889264D01*
D11*
X8109535Y-15400033D02*
X8109535Y-15200033D01*
X8157154Y-15200033D01*
X8185725Y-15209557D01*
X8204773Y-15228604D01*
X8214297Y-15247652D01*
X8223820Y-15285747D01*
X8223820Y-15314319D01*
X8214297Y-15352414D01*
X8204773Y-15371461D01*
X8185725Y-15390509D01*
X8157154Y-15400033D01*
X8109535Y-15400033D01*
X8309535Y-15400033D02*
X8309535Y-15266700D01*
X8309535Y-15304795D02*
X8319059Y-15285747D01*
X8328582Y-15276223D01*
X8347630Y-15266700D01*
X8366678Y-15266700D01*
X8433344Y-15400033D02*
X8433344Y-15266700D01*
X8433344Y-15200033D02*
X8423821Y-15209557D01*
X8433344Y-15219081D01*
X8442868Y-15209557D01*
X8433344Y-15200033D01*
X8433344Y-15219081D01*
X8557154Y-15400033D02*
X8538106Y-15390509D01*
X8528582Y-15371461D01*
X8528582Y-15200033D01*
X8661916Y-15400033D02*
X8642868Y-15390509D01*
X8633344Y-15371461D01*
X8633344Y-15200033D01*
X8890487Y-15400033D02*
X8890487Y-15200033D01*
X8957154Y-15342890D01*
X9023821Y-15200033D01*
X9023821Y-15400033D01*
X9204773Y-15400033D02*
X9204773Y-15295271D01*
X9195249Y-15276223D01*
X9176202Y-15266700D01*
X9138106Y-15266700D01*
X9119059Y-15276223D01*
X9204773Y-15390509D02*
X9185725Y-15400033D01*
X9138106Y-15400033D01*
X9119059Y-15390509D01*
X9109535Y-15371461D01*
X9109535Y-15352414D01*
X9119059Y-15333366D01*
X9138106Y-15323842D01*
X9185725Y-15323842D01*
X9204773Y-15314319D01*
X9300011Y-15266700D02*
X9300011Y-15466700D01*
X9300011Y-15276223D02*
X9319059Y-15266700D01*
X9357154Y-15266700D01*
X9376202Y-15276223D01*
X9385725Y-15285747D01*
X9395249Y-15304795D01*
X9395249Y-15361938D01*
X9385725Y-15380985D01*
X9376202Y-15390509D01*
X9357154Y-15400033D01*
X9319059Y-15400033D01*
X9300011Y-15390509D01*
X9480963Y-15380985D02*
X9490487Y-15390509D01*
X9480963Y-15400033D01*
X9471440Y-15390509D01*
X9480963Y-15380985D01*
X9480963Y-15400033D01*
X9480963Y-15276223D02*
X9490487Y-15285747D01*
X9480963Y-15295271D01*
X9471440Y-15285747D01*
X9480963Y-15276223D01*
X9480963Y-15295271D01*
D12*
X7812546Y-15709872D02*
X7851916Y-15749242D01*
X7851916Y-15709872D02*
X7812546Y-15749242D01*
D11*
X8147630Y-15620033D02*
X8166678Y-15620033D01*
X8185725Y-15629557D01*
X8195249Y-15639081D01*
X8204773Y-15658128D01*
X8214297Y-15696223D01*
X8214297Y-15743842D01*
X8204773Y-15781938D01*
X8195249Y-15800985D01*
X8185725Y-15810509D01*
X8166678Y-15820033D01*
X8147630Y-15820033D01*
X8128582Y-15810509D01*
X8119059Y-15800985D01*
X8109535Y-15781938D01*
X8100011Y-15743842D01*
X8100011Y-15696223D01*
X8109535Y-15658128D01*
X8119059Y-15639081D01*
X8128582Y-15629557D01*
X8147630Y-15620033D01*
X8300011Y-15800985D02*
X8309535Y-15810509D01*
X8300011Y-15820033D01*
X8290487Y-15810509D01*
X8300011Y-15800985D01*
X8300011Y-15820033D01*
X8376201Y-15620033D02*
X8500011Y-15620033D01*
X8433344Y-15696223D01*
X8461916Y-15696223D01*
X8480963Y-15705747D01*
X8490487Y-15715271D01*
X8500011Y-15734319D01*
X8500011Y-15781938D01*
X8490487Y-15800985D01*
X8480963Y-15810509D01*
X8461916Y-15820033D01*
X8404773Y-15820033D01*
X8385725Y-15810509D01*
X8376201Y-15800985D01*
X8595249Y-15820033D02*
X8633344Y-15820033D01*
X8652392Y-15810509D01*
X8661916Y-15800985D01*
X8680963Y-15772414D01*
X8690487Y-15734319D01*
X8690487Y-15658128D01*
X8680963Y-15639081D01*
X8671440Y-15629557D01*
X8652392Y-15620033D01*
X8614297Y-15620033D01*
X8595249Y-15629557D01*
X8585725Y-15639081D01*
X8576202Y-15658128D01*
X8576202Y-15705747D01*
X8585725Y-15724795D01*
X8595249Y-15734319D01*
X8614297Y-15743842D01*
X8652392Y-15743842D01*
X8671440Y-15734319D01*
X8680963Y-15724795D01*
X8690487Y-15705747D01*
X8861916Y-15686700D02*
X8861916Y-15820033D01*
X8814297Y-15610509D02*
X8766678Y-15753366D01*
X8890487Y-15753366D01*
X8966678Y-15820033D02*
X8966678Y-15686700D01*
X8966678Y-15705747D02*
X8976202Y-15696223D01*
X8995249Y-15686700D01*
X9023821Y-15686700D01*
X9042868Y-15696223D01*
X9052392Y-15715271D01*
X9052392Y-15820033D01*
X9052392Y-15715271D02*
X9061916Y-15696223D01*
X9080963Y-15686700D01*
X9109535Y-15686700D01*
X9128582Y-15696223D01*
X9138106Y-15715271D01*
X9138106Y-15820033D01*
X9233344Y-15820033D02*
X9233344Y-15686700D01*
X9233344Y-15705747D02*
X9242868Y-15696223D01*
X9261916Y-15686700D01*
X9290487Y-15686700D01*
X9309535Y-15696223D01*
X9319059Y-15715271D01*
X9319059Y-15820033D01*
X9319059Y-15715271D02*
X9328582Y-15696223D01*
X9347630Y-15686700D01*
X9376202Y-15686700D01*
X9395249Y-15696223D01*
X9404773Y-15715271D01*
X9404773Y-15820033D01*
X9795249Y-15610509D02*
X9623821Y-15867652D01*
X10052392Y-15620033D02*
X10071440Y-15620033D01*
X10090487Y-15629557D01*
X10100011Y-15639081D01*
X10109535Y-15658128D01*
X10119059Y-15696223D01*
X10119059Y-15743842D01*
X10109535Y-15781938D01*
X10100011Y-15800985D01*
X10090487Y-15810509D01*
X10071440Y-15820033D01*
X10052392Y-15820033D01*
X10033344Y-15810509D01*
X10023821Y-15800985D01*
X10014297Y-15781938D01*
X10004773Y-15743842D01*
X10004773Y-15696223D01*
X10014297Y-15658128D01*
X10023821Y-15639081D01*
X10033344Y-15629557D01*
X10052392Y-15620033D01*
X10204773Y-15800985D02*
X10214297Y-15810509D01*
X10204773Y-15820033D01*
X10195249Y-15810509D01*
X10204773Y-15800985D01*
X10204773Y-15820033D01*
X10338106Y-15620033D02*
X10357154Y-15620033D01*
X10376202Y-15629557D01*
X10385725Y-15639081D01*
X10395249Y-15658128D01*
X10404773Y-15696223D01*
X10404773Y-15743842D01*
X10395249Y-15781938D01*
X10385725Y-15800985D01*
X10376202Y-15810509D01*
X10357154Y-15820033D01*
X10338106Y-15820033D01*
X10319059Y-15810509D01*
X10309535Y-15800985D01*
X10300011Y-15781938D01*
X10290487Y-15743842D01*
X10290487Y-15696223D01*
X10300011Y-15658128D01*
X10309535Y-15639081D01*
X10319059Y-15629557D01*
X10338106Y-15620033D01*
X10595249Y-15820033D02*
X10480963Y-15820033D01*
X10538106Y-15820033D02*
X10538106Y-15620033D01*
X10519059Y-15648604D01*
X10500011Y-15667652D01*
X10480963Y-15677176D01*
X10776202Y-15620033D02*
X10680963Y-15620033D01*
X10671440Y-15715271D01*
X10680963Y-15705747D01*
X10700011Y-15696223D01*
X10747630Y-15696223D01*
X10766678Y-15705747D01*
X10776202Y-15715271D01*
X10785725Y-15734319D01*
X10785725Y-15781938D01*
X10776202Y-15800985D01*
X10766678Y-15810509D01*
X10747630Y-15820033D01*
X10700011Y-15820033D01*
X10680963Y-15810509D01*
X10671440Y-15800985D01*
X10966678Y-15620033D02*
X10871440Y-15620033D01*
X10861916Y-15715271D01*
X10871440Y-15705747D01*
X10890487Y-15696223D01*
X10938106Y-15696223D01*
X10957154Y-15705747D01*
X10966678Y-15715271D01*
X10976202Y-15734319D01*
X10976202Y-15781938D01*
X10966678Y-15800985D01*
X10957154Y-15810509D01*
X10938106Y-15820033D01*
X10890487Y-15820033D01*
X10871440Y-15810509D01*
X10861916Y-15800985D01*
X11052392Y-15620033D02*
X11052392Y-15658128D01*
X11128582Y-15620033D02*
X11128582Y-15658128D01*
X11423820Y-15896223D02*
X11414297Y-15886700D01*
X11395249Y-15858128D01*
X11385725Y-15839081D01*
X11376201Y-15810509D01*
X11366678Y-15762890D01*
X11366678Y-15724795D01*
X11376201Y-15677176D01*
X11385725Y-15648604D01*
X11395249Y-15629557D01*
X11414297Y-15600985D01*
X11423820Y-15591461D01*
X11585725Y-15686700D02*
X11585725Y-15820033D01*
X11538106Y-15610509D02*
X11490487Y-15753366D01*
X11614297Y-15753366D01*
X11842868Y-15820033D02*
X11842868Y-15620033D01*
X11928582Y-15820033D02*
X11928582Y-15715271D01*
X11919059Y-15696223D01*
X11900011Y-15686700D01*
X11871440Y-15686700D01*
X11852392Y-15696223D01*
X11842868Y-15705747D01*
X12052392Y-15820033D02*
X12033344Y-15810509D01*
X12023820Y-15800985D01*
X12014297Y-15781938D01*
X12014297Y-15724795D01*
X12023820Y-15705747D01*
X12033344Y-15696223D01*
X12052392Y-15686700D01*
X12080963Y-15686700D01*
X12100011Y-15696223D01*
X12109535Y-15705747D01*
X12119059Y-15724795D01*
X12119059Y-15781938D01*
X12109535Y-15800985D01*
X12100011Y-15810509D01*
X12080963Y-15820033D01*
X12052392Y-15820033D01*
X12233344Y-15820033D02*
X12214297Y-15810509D01*
X12204773Y-15791461D01*
X12204773Y-15620033D01*
X12385725Y-15810509D02*
X12366678Y-15820033D01*
X12328582Y-15820033D01*
X12309535Y-15810509D01*
X12300011Y-15791461D01*
X12300011Y-15715271D01*
X12309535Y-15696223D01*
X12328582Y-15686700D01*
X12366678Y-15686700D01*
X12385725Y-15696223D01*
X12395249Y-15715271D01*
X12395249Y-15734319D01*
X12300011Y-15753366D01*
X12471440Y-15810509D02*
X12490487Y-15820033D01*
X12528582Y-15820033D01*
X12547630Y-15810509D01*
X12557154Y-15791461D01*
X12557154Y-15781938D01*
X12547630Y-15762890D01*
X12528582Y-15753366D01*
X12500011Y-15753366D01*
X12480963Y-15743842D01*
X12471440Y-15724795D01*
X12471440Y-15715271D01*
X12480963Y-15696223D01*
X12500011Y-15686700D01*
X12528582Y-15686700D01*
X12547630Y-15696223D01*
X12623820Y-15896223D02*
X12633344Y-15886700D01*
X12652392Y-15858128D01*
X12661916Y-15839081D01*
X12671440Y-15810509D01*
X12680963Y-15762890D01*
X12680963Y-15724795D01*
X12671440Y-15677176D01*
X12661916Y-15648604D01*
X12652392Y-15629557D01*
X12633344Y-15600985D01*
X12623820Y-15591461D01*
X12985725Y-15896223D02*
X12976201Y-15886700D01*
X12957154Y-15858128D01*
X12947630Y-15839081D01*
X12938106Y-15810509D01*
X12928582Y-15762890D01*
X12928582Y-15724795D01*
X12938106Y-15677176D01*
X12947630Y-15648604D01*
X12957154Y-15629557D01*
X12976201Y-15600985D01*
X12985725Y-15591461D01*
X13061916Y-15686700D02*
X13061916Y-15820033D01*
X13061916Y-15705747D02*
X13071440Y-15696223D01*
X13090487Y-15686700D01*
X13119059Y-15686700D01*
X13138106Y-15696223D01*
X13147630Y-15715271D01*
X13147630Y-15820033D01*
X13271440Y-15820033D02*
X13252392Y-15810509D01*
X13242868Y-15800985D01*
X13233344Y-15781938D01*
X13233344Y-15724795D01*
X13242868Y-15705747D01*
X13252392Y-15696223D01*
X13271440Y-15686700D01*
X13300011Y-15686700D01*
X13319059Y-15696223D01*
X13328582Y-15705747D01*
X13338106Y-15724795D01*
X13338106Y-15781938D01*
X13328582Y-15800985D01*
X13319059Y-15810509D01*
X13300011Y-15820033D01*
X13271440Y-15820033D01*
X13395249Y-15686700D02*
X13471440Y-15686700D01*
X13423820Y-15620033D02*
X13423820Y-15791461D01*
X13433344Y-15810509D01*
X13452392Y-15820033D01*
X13471440Y-15820033D01*
X13690487Y-15686700D02*
X13690487Y-15886700D01*
X13690487Y-15696223D02*
X13709535Y-15686700D01*
X13747630Y-15686700D01*
X13766678Y-15696223D01*
X13776201Y-15705747D01*
X13785725Y-15724795D01*
X13785725Y-15781938D01*
X13776201Y-15800985D01*
X13766678Y-15810509D01*
X13747630Y-15820033D01*
X13709535Y-15820033D01*
X13690487Y-15810509D01*
X13900011Y-15820033D02*
X13880963Y-15810509D01*
X13871440Y-15791461D01*
X13871440Y-15620033D01*
X14061916Y-15820033D02*
X14061916Y-15715271D01*
X14052392Y-15696223D01*
X14033344Y-15686700D01*
X13995249Y-15686700D01*
X13976201Y-15696223D01*
X14061916Y-15810509D02*
X14042868Y-15820033D01*
X13995249Y-15820033D01*
X13976201Y-15810509D01*
X13966678Y-15791461D01*
X13966678Y-15772414D01*
X13976201Y-15753366D01*
X13995249Y-15743842D01*
X14042868Y-15743842D01*
X14061916Y-15734319D01*
X14128582Y-15686700D02*
X14204773Y-15686700D01*
X14157154Y-15620033D02*
X14157154Y-15791461D01*
X14166678Y-15810509D01*
X14185725Y-15820033D01*
X14204773Y-15820033D01*
X14347630Y-15810509D02*
X14328582Y-15820033D01*
X14290487Y-15820033D01*
X14271440Y-15810509D01*
X14261916Y-15791461D01*
X14261916Y-15715271D01*
X14271440Y-15696223D01*
X14290487Y-15686700D01*
X14328582Y-15686700D01*
X14347630Y-15696223D01*
X14357154Y-15715271D01*
X14357154Y-15734319D01*
X14261916Y-15753366D01*
X14528582Y-15820033D02*
X14528582Y-15620033D01*
X14528582Y-15810509D02*
X14509535Y-15820033D01*
X14471440Y-15820033D01*
X14452392Y-15810509D01*
X14442868Y-15800985D01*
X14433344Y-15781938D01*
X14433344Y-15724795D01*
X14442868Y-15705747D01*
X14452392Y-15696223D01*
X14471440Y-15686700D01*
X14509535Y-15686700D01*
X14528582Y-15696223D01*
X14604773Y-15896223D02*
X14614297Y-15886700D01*
X14633344Y-15858128D01*
X14642868Y-15839081D01*
X14652392Y-15810509D01*
X14661916Y-15762890D01*
X14661916Y-15724795D01*
X14652392Y-15677176D01*
X14642868Y-15648604D01*
X14633344Y-15629557D01*
X14614297Y-15600985D01*
X14604773Y-15591461D01*
D13*
X7851916Y-15993557D02*
G75*
G03*
X7851916Y-15993557I-39370J0D01*
G01*
D11*
X8147630Y-15884033D02*
X8166678Y-15884033D01*
X8185725Y-15893557D01*
X8195249Y-15903081D01*
X8204773Y-15922128D01*
X8214297Y-15960223D01*
X8214297Y-16007842D01*
X8204773Y-16045938D01*
X8195249Y-16064985D01*
X8185725Y-16074509D01*
X8166678Y-16084033D01*
X8147630Y-16084033D01*
X8128582Y-16074509D01*
X8119059Y-16064985D01*
X8109535Y-16045938D01*
X8100011Y-16007842D01*
X8100011Y-15960223D01*
X8109535Y-15922128D01*
X8119059Y-15903081D01*
X8128582Y-15893557D01*
X8147630Y-15884033D01*
X8300011Y-16064985D02*
X8309535Y-16074509D01*
X8300011Y-16084033D01*
X8290487Y-16074509D01*
X8300011Y-16064985D01*
X8300011Y-16084033D01*
X8376201Y-15884033D02*
X8509535Y-15884033D01*
X8423821Y-16084033D01*
X8614297Y-15969747D02*
X8595249Y-15960223D01*
X8585725Y-15950700D01*
X8576202Y-15931652D01*
X8576202Y-15922128D01*
X8585725Y-15903081D01*
X8595249Y-15893557D01*
X8614297Y-15884033D01*
X8652392Y-15884033D01*
X8671440Y-15893557D01*
X8680963Y-15903081D01*
X8690487Y-15922128D01*
X8690487Y-15931652D01*
X8680963Y-15950700D01*
X8671440Y-15960223D01*
X8652392Y-15969747D01*
X8614297Y-15969747D01*
X8595249Y-15979271D01*
X8585725Y-15988795D01*
X8576202Y-16007842D01*
X8576202Y-16045938D01*
X8585725Y-16064985D01*
X8595249Y-16074509D01*
X8614297Y-16084033D01*
X8652392Y-16084033D01*
X8671440Y-16074509D01*
X8680963Y-16064985D01*
X8690487Y-16045938D01*
X8690487Y-16007842D01*
X8680963Y-15988795D01*
X8671440Y-15979271D01*
X8652392Y-15969747D01*
X8757154Y-15884033D02*
X8890487Y-15884033D01*
X8804773Y-16084033D01*
X8966678Y-16084033D02*
X8966678Y-15950700D01*
X8966678Y-15969747D02*
X8976202Y-15960223D01*
X8995249Y-15950700D01*
X9023821Y-15950700D01*
X9042868Y-15960223D01*
X9052392Y-15979271D01*
X9052392Y-16084033D01*
X9052392Y-15979271D02*
X9061916Y-15960223D01*
X9080963Y-15950700D01*
X9109535Y-15950700D01*
X9128582Y-15960223D01*
X9138106Y-15979271D01*
X9138106Y-16084033D01*
X9233344Y-16084033D02*
X9233344Y-15950700D01*
X9233344Y-15969747D02*
X9242868Y-15960223D01*
X9261916Y-15950700D01*
X9290487Y-15950700D01*
X9309535Y-15960223D01*
X9319059Y-15979271D01*
X9319059Y-16084033D01*
X9319059Y-15979271D02*
X9328582Y-15960223D01*
X9347630Y-15950700D01*
X9376202Y-15950700D01*
X9395249Y-15960223D01*
X9404773Y-15979271D01*
X9404773Y-16084033D01*
X9795249Y-15874509D02*
X9623821Y-16131652D01*
X10052392Y-15884033D02*
X10071440Y-15884033D01*
X10090487Y-15893557D01*
X10100011Y-15903081D01*
X10109535Y-15922128D01*
X10119059Y-15960223D01*
X10119059Y-16007842D01*
X10109535Y-16045938D01*
X10100011Y-16064985D01*
X10090487Y-16074509D01*
X10071440Y-16084033D01*
X10052392Y-16084033D01*
X10033344Y-16074509D01*
X10023821Y-16064985D01*
X10014297Y-16045938D01*
X10004773Y-16007842D01*
X10004773Y-15960223D01*
X10014297Y-15922128D01*
X10023821Y-15903081D01*
X10033344Y-15893557D01*
X10052392Y-15884033D01*
X10204773Y-16064985D02*
X10214297Y-16074509D01*
X10204773Y-16084033D01*
X10195249Y-16074509D01*
X10204773Y-16064985D01*
X10204773Y-16084033D01*
X10338106Y-15884033D02*
X10357154Y-15884033D01*
X10376202Y-15893557D01*
X10385725Y-15903081D01*
X10395249Y-15922128D01*
X10404773Y-15960223D01*
X10404773Y-16007842D01*
X10395249Y-16045938D01*
X10385725Y-16064985D01*
X10376202Y-16074509D01*
X10357154Y-16084033D01*
X10338106Y-16084033D01*
X10319059Y-16074509D01*
X10309535Y-16064985D01*
X10300011Y-16045938D01*
X10290487Y-16007842D01*
X10290487Y-15960223D01*
X10300011Y-15922128D01*
X10309535Y-15903081D01*
X10319059Y-15893557D01*
X10338106Y-15884033D01*
X10471440Y-15884033D02*
X10595249Y-15884033D01*
X10528582Y-15960223D01*
X10557154Y-15960223D01*
X10576202Y-15969747D01*
X10585725Y-15979271D01*
X10595249Y-15998319D01*
X10595249Y-16045938D01*
X10585725Y-16064985D01*
X10576202Y-16074509D01*
X10557154Y-16084033D01*
X10500011Y-16084033D01*
X10480963Y-16074509D01*
X10471440Y-16064985D01*
X10785725Y-16084033D02*
X10671440Y-16084033D01*
X10728582Y-16084033D02*
X10728582Y-15884033D01*
X10709535Y-15912604D01*
X10690487Y-15931652D01*
X10671440Y-15941176D01*
X10909535Y-15884033D02*
X10928582Y-15884033D01*
X10947630Y-15893557D01*
X10957154Y-15903081D01*
X10966678Y-15922128D01*
X10976202Y-15960223D01*
X10976202Y-16007842D01*
X10966678Y-16045938D01*
X10957154Y-16064985D01*
X10947630Y-16074509D01*
X10928582Y-16084033D01*
X10909535Y-16084033D01*
X10890487Y-16074509D01*
X10880963Y-16064985D01*
X10871440Y-16045938D01*
X10861916Y-16007842D01*
X10861916Y-15960223D01*
X10871440Y-15922128D01*
X10880963Y-15903081D01*
X10890487Y-15893557D01*
X10909535Y-15884033D01*
X11052392Y-15884033D02*
X11052392Y-15922128D01*
X11128582Y-15884033D02*
X11128582Y-15922128D01*
X11423820Y-16160223D02*
X11414297Y-16150700D01*
X11395249Y-16122128D01*
X11385725Y-16103081D01*
X11376201Y-16074509D01*
X11366678Y-16026890D01*
X11366678Y-15988795D01*
X11376201Y-15941176D01*
X11385725Y-15912604D01*
X11395249Y-15893557D01*
X11414297Y-15864985D01*
X11423820Y-15855461D01*
X11604773Y-16084033D02*
X11490487Y-16084033D01*
X11547630Y-16084033D02*
X11547630Y-15884033D01*
X11528582Y-15912604D01*
X11509535Y-15931652D01*
X11490487Y-15941176D01*
X11671440Y-15884033D02*
X11795249Y-15884033D01*
X11728582Y-15960223D01*
X11757154Y-15960223D01*
X11776201Y-15969747D01*
X11785725Y-15979271D01*
X11795249Y-15998319D01*
X11795249Y-16045938D01*
X11785725Y-16064985D01*
X11776201Y-16074509D01*
X11757154Y-16084033D01*
X11700011Y-16084033D01*
X11680963Y-16074509D01*
X11671440Y-16064985D01*
X12033344Y-16084033D02*
X12033344Y-15884033D01*
X12119059Y-16084033D02*
X12119059Y-15979271D01*
X12109535Y-15960223D01*
X12090487Y-15950700D01*
X12061916Y-15950700D01*
X12042868Y-15960223D01*
X12033344Y-15969747D01*
X12242868Y-16084033D02*
X12223820Y-16074509D01*
X12214297Y-16064985D01*
X12204773Y-16045938D01*
X12204773Y-15988795D01*
X12214297Y-15969747D01*
X12223820Y-15960223D01*
X12242868Y-15950700D01*
X12271440Y-15950700D01*
X12290487Y-15960223D01*
X12300011Y-15969747D01*
X12309535Y-15988795D01*
X12309535Y-16045938D01*
X12300011Y-16064985D01*
X12290487Y-16074509D01*
X12271440Y-16084033D01*
X12242868Y-16084033D01*
X12423820Y-16084033D02*
X12404773Y-16074509D01*
X12395249Y-16055461D01*
X12395249Y-15884033D01*
X12576201Y-16074509D02*
X12557154Y-16084033D01*
X12519059Y-16084033D01*
X12500011Y-16074509D01*
X12490487Y-16055461D01*
X12490487Y-15979271D01*
X12500011Y-15960223D01*
X12519059Y-15950700D01*
X12557154Y-15950700D01*
X12576201Y-15960223D01*
X12585725Y-15979271D01*
X12585725Y-15998319D01*
X12490487Y-16017366D01*
X12661916Y-16074509D02*
X12680963Y-16084033D01*
X12719059Y-16084033D01*
X12738106Y-16074509D01*
X12747630Y-16055461D01*
X12747630Y-16045938D01*
X12738106Y-16026890D01*
X12719059Y-16017366D01*
X12690487Y-16017366D01*
X12671440Y-16007842D01*
X12661916Y-15988795D01*
X12661916Y-15979271D01*
X12671440Y-15960223D01*
X12690487Y-15950700D01*
X12719059Y-15950700D01*
X12738106Y-15960223D01*
X12814297Y-16160223D02*
X12823820Y-16150700D01*
X12842868Y-16122128D01*
X12852392Y-16103081D01*
X12861916Y-16074509D01*
X12871440Y-16026890D01*
X12871440Y-15988795D01*
X12861916Y-15941176D01*
X12852392Y-15912604D01*
X12842868Y-15893557D01*
X12823820Y-15864985D01*
X12814297Y-15855461D01*
X13176201Y-16160223D02*
X13166678Y-16150700D01*
X13147630Y-16122128D01*
X13138106Y-16103081D01*
X13128582Y-16074509D01*
X13119059Y-16026890D01*
X13119059Y-15988795D01*
X13128582Y-15941176D01*
X13138106Y-15912604D01*
X13147630Y-15893557D01*
X13166678Y-15864985D01*
X13176201Y-15855461D01*
X13252392Y-15950700D02*
X13252392Y-16084033D01*
X13252392Y-15969747D02*
X13261916Y-15960223D01*
X13280963Y-15950700D01*
X13309535Y-15950700D01*
X13328582Y-15960223D01*
X13338106Y-15979271D01*
X13338106Y-16084033D01*
X13461916Y-16084033D02*
X13442868Y-16074509D01*
X13433344Y-16064985D01*
X13423820Y-16045938D01*
X13423820Y-15988795D01*
X13433344Y-15969747D01*
X13442868Y-15960223D01*
X13461916Y-15950700D01*
X13490487Y-15950700D01*
X13509535Y-15960223D01*
X13519059Y-15969747D01*
X13528582Y-15988795D01*
X13528582Y-16045938D01*
X13519059Y-16064985D01*
X13509535Y-16074509D01*
X13490487Y-16084033D01*
X13461916Y-16084033D01*
X13585725Y-15950700D02*
X13661916Y-15950700D01*
X13614297Y-15884033D02*
X13614297Y-16055461D01*
X13623820Y-16074509D01*
X13642868Y-16084033D01*
X13661916Y-16084033D01*
X13880963Y-15950700D02*
X13880963Y-16150700D01*
X13880963Y-15960223D02*
X13900011Y-15950700D01*
X13938106Y-15950700D01*
X13957154Y-15960223D01*
X13966678Y-15969747D01*
X13976201Y-15988795D01*
X13976201Y-16045938D01*
X13966678Y-16064985D01*
X13957154Y-16074509D01*
X13938106Y-16084033D01*
X13900011Y-16084033D01*
X13880963Y-16074509D01*
X14090487Y-16084033D02*
X14071440Y-16074509D01*
X14061916Y-16055461D01*
X14061916Y-15884033D01*
X14252392Y-16084033D02*
X14252392Y-15979271D01*
X14242868Y-15960223D01*
X14223820Y-15950700D01*
X14185725Y-15950700D01*
X14166678Y-15960223D01*
X14252392Y-16074509D02*
X14233344Y-16084033D01*
X14185725Y-16084033D01*
X14166678Y-16074509D01*
X14157154Y-16055461D01*
X14157154Y-16036414D01*
X14166678Y-16017366D01*
X14185725Y-16007842D01*
X14233344Y-16007842D01*
X14252392Y-15998319D01*
X14319059Y-15950700D02*
X14395249Y-15950700D01*
X14347630Y-15884033D02*
X14347630Y-16055461D01*
X14357154Y-16074509D01*
X14376201Y-16084033D01*
X14395249Y-16084033D01*
X14538106Y-16074509D02*
X14519059Y-16084033D01*
X14480963Y-16084033D01*
X14461916Y-16074509D01*
X14452392Y-16055461D01*
X14452392Y-15979271D01*
X14461916Y-15960223D01*
X14480963Y-15950700D01*
X14519059Y-15950700D01*
X14538106Y-15960223D01*
X14547630Y-15979271D01*
X14547630Y-15998319D01*
X14452392Y-16017366D01*
X14719059Y-16084033D02*
X14719059Y-15884033D01*
X14719059Y-16074509D02*
X14700011Y-16084033D01*
X14661916Y-16084033D01*
X14642868Y-16074509D01*
X14633344Y-16064985D01*
X14623820Y-16045938D01*
X14623820Y-15988795D01*
X14633344Y-15969747D01*
X14642868Y-15960223D01*
X14661916Y-15950700D01*
X14700011Y-15950700D01*
X14719059Y-15960223D01*
X14795249Y-16160223D02*
X14804773Y-16150700D01*
X14823820Y-16122128D01*
X14833344Y-16103081D01*
X14842868Y-16074509D01*
X14852392Y-16026890D01*
X14852392Y-15988795D01*
X14842868Y-15941176D01*
X14833344Y-15912604D01*
X14823820Y-15893557D01*
X14804773Y-15864985D01*
X14795249Y-15855461D01*
D14*
X7801916Y-16207557D02*
X7801916Y-16307557D01*
X7751916Y-16257557D02*
X7851916Y-16257557D01*
D11*
X8214297Y-16348033D02*
X8100011Y-16348033D01*
X8157154Y-16348033D02*
X8157154Y-16148033D01*
X8138106Y-16176604D01*
X8119059Y-16195652D01*
X8100011Y-16205176D01*
X8300011Y-16328985D02*
X8309535Y-16338509D01*
X8300011Y-16348033D01*
X8290487Y-16338509D01*
X8300011Y-16328985D01*
X8300011Y-16348033D01*
X8433344Y-16148033D02*
X8452392Y-16148033D01*
X8471440Y-16157557D01*
X8480963Y-16167081D01*
X8490487Y-16186128D01*
X8500011Y-16224223D01*
X8500011Y-16271842D01*
X8490487Y-16309938D01*
X8480963Y-16328985D01*
X8471440Y-16338509D01*
X8452392Y-16348033D01*
X8433344Y-16348033D01*
X8414297Y-16338509D01*
X8404773Y-16328985D01*
X8395249Y-16309938D01*
X8385725Y-16271842D01*
X8385725Y-16224223D01*
X8395249Y-16186128D01*
X8404773Y-16167081D01*
X8414297Y-16157557D01*
X8433344Y-16148033D01*
X8623821Y-16148033D02*
X8642868Y-16148033D01*
X8661916Y-16157557D01*
X8671440Y-16167081D01*
X8680963Y-16186128D01*
X8690487Y-16224223D01*
X8690487Y-16271842D01*
X8680963Y-16309938D01*
X8671440Y-16328985D01*
X8661916Y-16338509D01*
X8642868Y-16348033D01*
X8623821Y-16348033D01*
X8604773Y-16338509D01*
X8595249Y-16328985D01*
X8585725Y-16309938D01*
X8576202Y-16271842D01*
X8576202Y-16224223D01*
X8585725Y-16186128D01*
X8595249Y-16167081D01*
X8604773Y-16157557D01*
X8623821Y-16148033D01*
X8814297Y-16148033D02*
X8833344Y-16148033D01*
X8852392Y-16157557D01*
X8861916Y-16167081D01*
X8871440Y-16186128D01*
X8880963Y-16224223D01*
X8880963Y-16271842D01*
X8871440Y-16309938D01*
X8861916Y-16328985D01*
X8852392Y-16338509D01*
X8833344Y-16348033D01*
X8814297Y-16348033D01*
X8795249Y-16338509D01*
X8785725Y-16328985D01*
X8776202Y-16309938D01*
X8766678Y-16271842D01*
X8766678Y-16224223D01*
X8776202Y-16186128D01*
X8785725Y-16167081D01*
X8795249Y-16157557D01*
X8814297Y-16148033D01*
X8966678Y-16348033D02*
X8966678Y-16214700D01*
X8966678Y-16233747D02*
X8976202Y-16224223D01*
X8995249Y-16214700D01*
X9023821Y-16214700D01*
X9042868Y-16224223D01*
X9052392Y-16243271D01*
X9052392Y-16348033D01*
X9052392Y-16243271D02*
X9061916Y-16224223D01*
X9080963Y-16214700D01*
X9109535Y-16214700D01*
X9128582Y-16224223D01*
X9138106Y-16243271D01*
X9138106Y-16348033D01*
X9233344Y-16348033D02*
X9233344Y-16214700D01*
X9233344Y-16233747D02*
X9242868Y-16224223D01*
X9261916Y-16214700D01*
X9290487Y-16214700D01*
X9309535Y-16224223D01*
X9319059Y-16243271D01*
X9319059Y-16348033D01*
X9319059Y-16243271D02*
X9328582Y-16224223D01*
X9347630Y-16214700D01*
X9376202Y-16214700D01*
X9395249Y-16224223D01*
X9404773Y-16243271D01*
X9404773Y-16348033D01*
X9795249Y-16138509D02*
X9623821Y-16395652D01*
X10052392Y-16148033D02*
X10071440Y-16148033D01*
X10090487Y-16157557D01*
X10100011Y-16167081D01*
X10109535Y-16186128D01*
X10119059Y-16224223D01*
X10119059Y-16271842D01*
X10109535Y-16309938D01*
X10100011Y-16328985D01*
X10090487Y-16338509D01*
X10071440Y-16348033D01*
X10052392Y-16348033D01*
X10033344Y-16338509D01*
X10023821Y-16328985D01*
X10014297Y-16309938D01*
X10004773Y-16271842D01*
X10004773Y-16224223D01*
X10014297Y-16186128D01*
X10023821Y-16167081D01*
X10033344Y-16157557D01*
X10052392Y-16148033D01*
X10204773Y-16328985D02*
X10214297Y-16338509D01*
X10204773Y-16348033D01*
X10195249Y-16338509D01*
X10204773Y-16328985D01*
X10204773Y-16348033D01*
X10338106Y-16148033D02*
X10357154Y-16148033D01*
X10376202Y-16157557D01*
X10385725Y-16167081D01*
X10395249Y-16186128D01*
X10404773Y-16224223D01*
X10404773Y-16271842D01*
X10395249Y-16309938D01*
X10385725Y-16328985D01*
X10376202Y-16338509D01*
X10357154Y-16348033D01*
X10338106Y-16348033D01*
X10319059Y-16338509D01*
X10309535Y-16328985D01*
X10300011Y-16309938D01*
X10290487Y-16271842D01*
X10290487Y-16224223D01*
X10300011Y-16186128D01*
X10309535Y-16167081D01*
X10319059Y-16157557D01*
X10338106Y-16148033D01*
X10471440Y-16148033D02*
X10595249Y-16148033D01*
X10528582Y-16224223D01*
X10557154Y-16224223D01*
X10576202Y-16233747D01*
X10585725Y-16243271D01*
X10595249Y-16262319D01*
X10595249Y-16309938D01*
X10585725Y-16328985D01*
X10576202Y-16338509D01*
X10557154Y-16348033D01*
X10500011Y-16348033D01*
X10480963Y-16338509D01*
X10471440Y-16328985D01*
X10690487Y-16348033D02*
X10728582Y-16348033D01*
X10747630Y-16338509D01*
X10757154Y-16328985D01*
X10776202Y-16300414D01*
X10785725Y-16262319D01*
X10785725Y-16186128D01*
X10776202Y-16167081D01*
X10766678Y-16157557D01*
X10747630Y-16148033D01*
X10709535Y-16148033D01*
X10690487Y-16157557D01*
X10680963Y-16167081D01*
X10671440Y-16186128D01*
X10671440Y-16233747D01*
X10680963Y-16252795D01*
X10690487Y-16262319D01*
X10709535Y-16271842D01*
X10747630Y-16271842D01*
X10766678Y-16262319D01*
X10776202Y-16252795D01*
X10785725Y-16233747D01*
X10957154Y-16214700D02*
X10957154Y-16348033D01*
X10909535Y-16138509D02*
X10861916Y-16281366D01*
X10985725Y-16281366D01*
X11052392Y-16148033D02*
X11052392Y-16186128D01*
X11128582Y-16148033D02*
X11128582Y-16186128D01*
X11423820Y-16424223D02*
X11414297Y-16414700D01*
X11395249Y-16386128D01*
X11385725Y-16367081D01*
X11376201Y-16338509D01*
X11366678Y-16290890D01*
X11366678Y-16252795D01*
X11376201Y-16205176D01*
X11385725Y-16176604D01*
X11395249Y-16157557D01*
X11414297Y-16128985D01*
X11423820Y-16119461D01*
X11595249Y-16148033D02*
X11500011Y-16148033D01*
X11490487Y-16243271D01*
X11500011Y-16233747D01*
X11519059Y-16224223D01*
X11566678Y-16224223D01*
X11585725Y-16233747D01*
X11595249Y-16243271D01*
X11604773Y-16262319D01*
X11604773Y-16309938D01*
X11595249Y-16328985D01*
X11585725Y-16338509D01*
X11566678Y-16348033D01*
X11519059Y-16348033D01*
X11500011Y-16338509D01*
X11490487Y-16328985D01*
X11776201Y-16148033D02*
X11738106Y-16148033D01*
X11719059Y-16157557D01*
X11709535Y-16167081D01*
X11690487Y-16195652D01*
X11680963Y-16233747D01*
X11680963Y-16309938D01*
X11690487Y-16328985D01*
X11700011Y-16338509D01*
X11719059Y-16348033D01*
X11757154Y-16348033D01*
X11776201Y-16338509D01*
X11785725Y-16328985D01*
X11795249Y-16309938D01*
X11795249Y-16262319D01*
X11785725Y-16243271D01*
X11776201Y-16233747D01*
X11757154Y-16224223D01*
X11719059Y-16224223D01*
X11700011Y-16233747D01*
X11690487Y-16243271D01*
X11680963Y-16262319D01*
X12033344Y-16348033D02*
X12033344Y-16148033D01*
X12119059Y-16348033D02*
X12119059Y-16243271D01*
X12109535Y-16224223D01*
X12090487Y-16214700D01*
X12061916Y-16214700D01*
X12042868Y-16224223D01*
X12033344Y-16233747D01*
X12242868Y-16348033D02*
X12223820Y-16338509D01*
X12214297Y-16328985D01*
X12204773Y-16309938D01*
X12204773Y-16252795D01*
X12214297Y-16233747D01*
X12223820Y-16224223D01*
X12242868Y-16214700D01*
X12271440Y-16214700D01*
X12290487Y-16224223D01*
X12300011Y-16233747D01*
X12309535Y-16252795D01*
X12309535Y-16309938D01*
X12300011Y-16328985D01*
X12290487Y-16338509D01*
X12271440Y-16348033D01*
X12242868Y-16348033D01*
X12423820Y-16348033D02*
X12404773Y-16338509D01*
X12395249Y-16319461D01*
X12395249Y-16148033D01*
X12576201Y-16338509D02*
X12557154Y-16348033D01*
X12519059Y-16348033D01*
X12500011Y-16338509D01*
X12490487Y-16319461D01*
X12490487Y-16243271D01*
X12500011Y-16224223D01*
X12519059Y-16214700D01*
X12557154Y-16214700D01*
X12576201Y-16224223D01*
X12585725Y-16243271D01*
X12585725Y-16262319D01*
X12490487Y-16281366D01*
X12661916Y-16338509D02*
X12680963Y-16348033D01*
X12719059Y-16348033D01*
X12738106Y-16338509D01*
X12747630Y-16319461D01*
X12747630Y-16309938D01*
X12738106Y-16290890D01*
X12719059Y-16281366D01*
X12690487Y-16281366D01*
X12671440Y-16271842D01*
X12661916Y-16252795D01*
X12661916Y-16243271D01*
X12671440Y-16224223D01*
X12690487Y-16214700D01*
X12719059Y-16214700D01*
X12738106Y-16224223D01*
X12814297Y-16424223D02*
X12823820Y-16414700D01*
X12842868Y-16386128D01*
X12852392Y-16367081D01*
X12861916Y-16338509D01*
X12871440Y-16290890D01*
X12871440Y-16252795D01*
X12861916Y-16205176D01*
X12852392Y-16176604D01*
X12842868Y-16157557D01*
X12823820Y-16128985D01*
X12814297Y-16119461D01*
X13176201Y-16424223D02*
X13166678Y-16414700D01*
X13147630Y-16386128D01*
X13138106Y-16367081D01*
X13128582Y-16338509D01*
X13119059Y-16290890D01*
X13119059Y-16252795D01*
X13128582Y-16205176D01*
X13138106Y-16176604D01*
X13147630Y-16157557D01*
X13166678Y-16128985D01*
X13176201Y-16119461D01*
X13252392Y-16214700D02*
X13252392Y-16348033D01*
X13252392Y-16233747D02*
X13261916Y-16224223D01*
X13280963Y-16214700D01*
X13309535Y-16214700D01*
X13328582Y-16224223D01*
X13338106Y-16243271D01*
X13338106Y-16348033D01*
X13461916Y-16348033D02*
X13442868Y-16338509D01*
X13433344Y-16328985D01*
X13423820Y-16309938D01*
X13423820Y-16252795D01*
X13433344Y-16233747D01*
X13442868Y-16224223D01*
X13461916Y-16214700D01*
X13490487Y-16214700D01*
X13509535Y-16224223D01*
X13519059Y-16233747D01*
X13528582Y-16252795D01*
X13528582Y-16309938D01*
X13519059Y-16328985D01*
X13509535Y-16338509D01*
X13490487Y-16348033D01*
X13461916Y-16348033D01*
X13585725Y-16214700D02*
X13661916Y-16214700D01*
X13614297Y-16148033D02*
X13614297Y-16319461D01*
X13623820Y-16338509D01*
X13642868Y-16348033D01*
X13661916Y-16348033D01*
X13880963Y-16214700D02*
X13880963Y-16414700D01*
X13880963Y-16224223D02*
X13900011Y-16214700D01*
X13938106Y-16214700D01*
X13957154Y-16224223D01*
X13966678Y-16233747D01*
X13976201Y-16252795D01*
X13976201Y-16309938D01*
X13966678Y-16328985D01*
X13957154Y-16338509D01*
X13938106Y-16348033D01*
X13900011Y-16348033D01*
X13880963Y-16338509D01*
X14090487Y-16348033D02*
X14071440Y-16338509D01*
X14061916Y-16319461D01*
X14061916Y-16148033D01*
X14252392Y-16348033D02*
X14252392Y-16243271D01*
X14242868Y-16224223D01*
X14223820Y-16214700D01*
X14185725Y-16214700D01*
X14166678Y-16224223D01*
X14252392Y-16338509D02*
X14233344Y-16348033D01*
X14185725Y-16348033D01*
X14166678Y-16338509D01*
X14157154Y-16319461D01*
X14157154Y-16300414D01*
X14166678Y-16281366D01*
X14185725Y-16271842D01*
X14233344Y-16271842D01*
X14252392Y-16262319D01*
X14319059Y-16214700D02*
X14395249Y-16214700D01*
X14347630Y-16148033D02*
X14347630Y-16319461D01*
X14357154Y-16338509D01*
X14376201Y-16348033D01*
X14395249Y-16348033D01*
X14538106Y-16338509D02*
X14519059Y-16348033D01*
X14480963Y-16348033D01*
X14461916Y-16338509D01*
X14452392Y-16319461D01*
X14452392Y-16243271D01*
X14461916Y-16224223D01*
X14480963Y-16214700D01*
X14519059Y-16214700D01*
X14538106Y-16224223D01*
X14547630Y-16243271D01*
X14547630Y-16262319D01*
X14452392Y-16281366D01*
X14719059Y-16348033D02*
X14719059Y-16148033D01*
X14719059Y-16338509D02*
X14700011Y-16348033D01*
X14661916Y-16348033D01*
X14642868Y-16338509D01*
X14633344Y-16328985D01*
X14623820Y-16309938D01*
X14623820Y-16252795D01*
X14633344Y-16233747D01*
X14642868Y-16224223D01*
X14661916Y-16214700D01*
X14700011Y-16214700D01*
X14719059Y-16224223D01*
X14795249Y-16424223D02*
X14804773Y-16414700D01*
X14823820Y-16386128D01*
X14833344Y-16367081D01*
X14842868Y-16338509D01*
X14852392Y-16290890D01*
X14852392Y-16252795D01*
X14842868Y-16205176D01*
X14833344Y-16176604D01*
X14823820Y-16157557D01*
X14804773Y-16128985D01*
X14795249Y-16119461D01*
D15*
X7834343Y-16563984D02*
X7834343Y-16479130D01*
X7749489Y-16479130D01*
X7749489Y-16563984D01*
X7834343Y-16563984D01*
D11*
X8214297Y-16612033D02*
X8100011Y-16612033D01*
X8157154Y-16612033D02*
X8157154Y-16412033D01*
X8138106Y-16440604D01*
X8119059Y-16459652D01*
X8100011Y-16469176D01*
X8300011Y-16592985D02*
X8309535Y-16602509D01*
X8300011Y-16612033D01*
X8290487Y-16602509D01*
X8300011Y-16592985D01*
X8300011Y-16612033D01*
X8385725Y-16431081D02*
X8395249Y-16421557D01*
X8414297Y-16412033D01*
X8461916Y-16412033D01*
X8480963Y-16421557D01*
X8490487Y-16431081D01*
X8500011Y-16450128D01*
X8500011Y-16469176D01*
X8490487Y-16497747D01*
X8376201Y-16612033D01*
X8500011Y-16612033D01*
X8623821Y-16412033D02*
X8642868Y-16412033D01*
X8661916Y-16421557D01*
X8671440Y-16431081D01*
X8680963Y-16450128D01*
X8690487Y-16488223D01*
X8690487Y-16535842D01*
X8680963Y-16573938D01*
X8671440Y-16592985D01*
X8661916Y-16602509D01*
X8642868Y-16612033D01*
X8623821Y-16612033D01*
X8604773Y-16602509D01*
X8595249Y-16592985D01*
X8585725Y-16573938D01*
X8576202Y-16535842D01*
X8576202Y-16488223D01*
X8585725Y-16450128D01*
X8595249Y-16431081D01*
X8604773Y-16421557D01*
X8623821Y-16412033D01*
X8814297Y-16412033D02*
X8833344Y-16412033D01*
X8852392Y-16421557D01*
X8861916Y-16431081D01*
X8871440Y-16450128D01*
X8880963Y-16488223D01*
X8880963Y-16535842D01*
X8871440Y-16573938D01*
X8861916Y-16592985D01*
X8852392Y-16602509D01*
X8833344Y-16612033D01*
X8814297Y-16612033D01*
X8795249Y-16602509D01*
X8785725Y-16592985D01*
X8776202Y-16573938D01*
X8766678Y-16535842D01*
X8766678Y-16488223D01*
X8776202Y-16450128D01*
X8785725Y-16431081D01*
X8795249Y-16421557D01*
X8814297Y-16412033D01*
X8966678Y-16612033D02*
X8966678Y-16478700D01*
X8966678Y-16497747D02*
X8976202Y-16488223D01*
X8995249Y-16478700D01*
X9023821Y-16478700D01*
X9042868Y-16488223D01*
X9052392Y-16507271D01*
X9052392Y-16612033D01*
X9052392Y-16507271D02*
X9061916Y-16488223D01*
X9080963Y-16478700D01*
X9109535Y-16478700D01*
X9128582Y-16488223D01*
X9138106Y-16507271D01*
X9138106Y-16612033D01*
X9233344Y-16612033D02*
X9233344Y-16478700D01*
X9233344Y-16497747D02*
X9242868Y-16488223D01*
X9261916Y-16478700D01*
X9290487Y-16478700D01*
X9309535Y-16488223D01*
X9319059Y-16507271D01*
X9319059Y-16612033D01*
X9319059Y-16507271D02*
X9328582Y-16488223D01*
X9347630Y-16478700D01*
X9376202Y-16478700D01*
X9395249Y-16488223D01*
X9404773Y-16507271D01*
X9404773Y-16612033D01*
X9795249Y-16402509D02*
X9623821Y-16659652D01*
X10052392Y-16412033D02*
X10071440Y-16412033D01*
X10090487Y-16421557D01*
X10100011Y-16431081D01*
X10109535Y-16450128D01*
X10119059Y-16488223D01*
X10119059Y-16535842D01*
X10109535Y-16573938D01*
X10100011Y-16592985D01*
X10090487Y-16602509D01*
X10071440Y-16612033D01*
X10052392Y-16612033D01*
X10033344Y-16602509D01*
X10023821Y-16592985D01*
X10014297Y-16573938D01*
X10004773Y-16535842D01*
X10004773Y-16488223D01*
X10014297Y-16450128D01*
X10023821Y-16431081D01*
X10033344Y-16421557D01*
X10052392Y-16412033D01*
X10204773Y-16592985D02*
X10214297Y-16602509D01*
X10204773Y-16612033D01*
X10195249Y-16602509D01*
X10204773Y-16592985D01*
X10204773Y-16612033D01*
X10338106Y-16412033D02*
X10357154Y-16412033D01*
X10376202Y-16421557D01*
X10385725Y-16431081D01*
X10395249Y-16450128D01*
X10404773Y-16488223D01*
X10404773Y-16535842D01*
X10395249Y-16573938D01*
X10385725Y-16592985D01*
X10376202Y-16602509D01*
X10357154Y-16612033D01*
X10338106Y-16612033D01*
X10319059Y-16602509D01*
X10309535Y-16592985D01*
X10300011Y-16573938D01*
X10290487Y-16535842D01*
X10290487Y-16488223D01*
X10300011Y-16450128D01*
X10309535Y-16431081D01*
X10319059Y-16421557D01*
X10338106Y-16412033D01*
X10576202Y-16478700D02*
X10576202Y-16612033D01*
X10528582Y-16402509D02*
X10480963Y-16545366D01*
X10604773Y-16545366D01*
X10661916Y-16412033D02*
X10795249Y-16412033D01*
X10709535Y-16612033D01*
X10861916Y-16431081D02*
X10871440Y-16421557D01*
X10890487Y-16412033D01*
X10938106Y-16412033D01*
X10957154Y-16421557D01*
X10966678Y-16431081D01*
X10976202Y-16450128D01*
X10976202Y-16469176D01*
X10966678Y-16497747D01*
X10852392Y-16612033D01*
X10976202Y-16612033D01*
X11052392Y-16412033D02*
X11052392Y-16450128D01*
X11128582Y-16412033D02*
X11128582Y-16450128D01*
X11423820Y-16688223D02*
X11414297Y-16678700D01*
X11395249Y-16650128D01*
X11385725Y-16631081D01*
X11376201Y-16602509D01*
X11366678Y-16554890D01*
X11366678Y-16516795D01*
X11376201Y-16469176D01*
X11385725Y-16440604D01*
X11395249Y-16421557D01*
X11414297Y-16392985D01*
X11423820Y-16383461D01*
X11585725Y-16478700D02*
X11585725Y-16612033D01*
X11538106Y-16402509D02*
X11490487Y-16545366D01*
X11614297Y-16545366D01*
X11842868Y-16612033D02*
X11842868Y-16412033D01*
X11928582Y-16612033D02*
X11928582Y-16507271D01*
X11919059Y-16488223D01*
X11900011Y-16478700D01*
X11871440Y-16478700D01*
X11852392Y-16488223D01*
X11842868Y-16497747D01*
X12052392Y-16612033D02*
X12033344Y-16602509D01*
X12023820Y-16592985D01*
X12014297Y-16573938D01*
X12014297Y-16516795D01*
X12023820Y-16497747D01*
X12033344Y-16488223D01*
X12052392Y-16478700D01*
X12080963Y-16478700D01*
X12100011Y-16488223D01*
X12109535Y-16497747D01*
X12119059Y-16516795D01*
X12119059Y-16573938D01*
X12109535Y-16592985D01*
X12100011Y-16602509D01*
X12080963Y-16612033D01*
X12052392Y-16612033D01*
X12233344Y-16612033D02*
X12214297Y-16602509D01*
X12204773Y-16583461D01*
X12204773Y-16412033D01*
X12385725Y-16602509D02*
X12366678Y-16612033D01*
X12328582Y-16612033D01*
X12309535Y-16602509D01*
X12300011Y-16583461D01*
X12300011Y-16507271D01*
X12309535Y-16488223D01*
X12328582Y-16478700D01*
X12366678Y-16478700D01*
X12385725Y-16488223D01*
X12395249Y-16507271D01*
X12395249Y-16526319D01*
X12300011Y-16545366D01*
X12471440Y-16602509D02*
X12490487Y-16612033D01*
X12528582Y-16612033D01*
X12547630Y-16602509D01*
X12557154Y-16583461D01*
X12557154Y-16573938D01*
X12547630Y-16554890D01*
X12528582Y-16545366D01*
X12500011Y-16545366D01*
X12480963Y-16535842D01*
X12471440Y-16516795D01*
X12471440Y-16507271D01*
X12480963Y-16488223D01*
X12500011Y-16478700D01*
X12528582Y-16478700D01*
X12547630Y-16488223D01*
X12623820Y-16688223D02*
X12633344Y-16678700D01*
X12652392Y-16650128D01*
X12661916Y-16631081D01*
X12671440Y-16602509D01*
X12680963Y-16554890D01*
X12680963Y-16516795D01*
X12671440Y-16469176D01*
X12661916Y-16440604D01*
X12652392Y-16421557D01*
X12633344Y-16392985D01*
X12623820Y-16383461D01*
X12985725Y-16688223D02*
X12976201Y-16678700D01*
X12957154Y-16650128D01*
X12947630Y-16631081D01*
X12938106Y-16602509D01*
X12928582Y-16554890D01*
X12928582Y-16516795D01*
X12938106Y-16469176D01*
X12947630Y-16440604D01*
X12957154Y-16421557D01*
X12976201Y-16392985D01*
X12985725Y-16383461D01*
X13061916Y-16478700D02*
X13061916Y-16612033D01*
X13061916Y-16497747D02*
X13071440Y-16488223D01*
X13090487Y-16478700D01*
X13119059Y-16478700D01*
X13138106Y-16488223D01*
X13147630Y-16507271D01*
X13147630Y-16612033D01*
X13271440Y-16612033D02*
X13252392Y-16602509D01*
X13242868Y-16592985D01*
X13233344Y-16573938D01*
X13233344Y-16516795D01*
X13242868Y-16497747D01*
X13252392Y-16488223D01*
X13271440Y-16478700D01*
X13300011Y-16478700D01*
X13319059Y-16488223D01*
X13328582Y-16497747D01*
X13338106Y-16516795D01*
X13338106Y-16573938D01*
X13328582Y-16592985D01*
X13319059Y-16602509D01*
X13300011Y-16612033D01*
X13271440Y-16612033D01*
X13395249Y-16478700D02*
X13471440Y-16478700D01*
X13423820Y-16412033D02*
X13423820Y-16583461D01*
X13433344Y-16602509D01*
X13452392Y-16612033D01*
X13471440Y-16612033D01*
X13690487Y-16478700D02*
X13690487Y-16678700D01*
X13690487Y-16488223D02*
X13709535Y-16478700D01*
X13747630Y-16478700D01*
X13766678Y-16488223D01*
X13776201Y-16497747D01*
X13785725Y-16516795D01*
X13785725Y-16573938D01*
X13776201Y-16592985D01*
X13766678Y-16602509D01*
X13747630Y-16612033D01*
X13709535Y-16612033D01*
X13690487Y-16602509D01*
X13900011Y-16612033D02*
X13880963Y-16602509D01*
X13871440Y-16583461D01*
X13871440Y-16412033D01*
X14061916Y-16612033D02*
X14061916Y-16507271D01*
X14052392Y-16488223D01*
X14033344Y-16478700D01*
X13995249Y-16478700D01*
X13976201Y-16488223D01*
X14061916Y-16602509D02*
X14042868Y-16612033D01*
X13995249Y-16612033D01*
X13976201Y-16602509D01*
X13966678Y-16583461D01*
X13966678Y-16564414D01*
X13976201Y-16545366D01*
X13995249Y-16535842D01*
X14042868Y-16535842D01*
X14061916Y-16526319D01*
X14128582Y-16478700D02*
X14204773Y-16478700D01*
X14157154Y-16412033D02*
X14157154Y-16583461D01*
X14166678Y-16602509D01*
X14185725Y-16612033D01*
X14204773Y-16612033D01*
X14347630Y-16602509D02*
X14328582Y-16612033D01*
X14290487Y-16612033D01*
X14271440Y-16602509D01*
X14261916Y-16583461D01*
X14261916Y-16507271D01*
X14271440Y-16488223D01*
X14290487Y-16478700D01*
X14328582Y-16478700D01*
X14347630Y-16488223D01*
X14357154Y-16507271D01*
X14357154Y-16526319D01*
X14261916Y-16545366D01*
X14528582Y-16612033D02*
X14528582Y-16412033D01*
X14528582Y-16602509D02*
X14509535Y-16612033D01*
X14471440Y-16612033D01*
X14452392Y-16602509D01*
X14442868Y-16592985D01*
X14433344Y-16573938D01*
X14433344Y-16516795D01*
X14442868Y-16497747D01*
X14452392Y-16488223D01*
X14471440Y-16478700D01*
X14509535Y-16478700D01*
X14528582Y-16488223D01*
X14604773Y-16688223D02*
X14614297Y-16678700D01*
X14633344Y-16650128D01*
X14642868Y-16631081D01*
X14652392Y-16602509D01*
X14661916Y-16554890D01*
X14661916Y-16516795D01*
X14652392Y-16469176D01*
X14642868Y-16440604D01*
X14633344Y-16421557D01*
X14614297Y-16392985D01*
X14604773Y-16383461D01*
D16*
X7761916Y-16875557D02*
X7851916Y-16785557D01*
X7761916Y-16695557D01*
X7671916Y-16785557D01*
X7761916Y-16875557D01*
D11*
X8214297Y-16876033D02*
X8100011Y-16876033D01*
X8157154Y-16876033D02*
X8157154Y-16676033D01*
X8138106Y-16704604D01*
X8119059Y-16723652D01*
X8100011Y-16733176D01*
X8300011Y-16856985D02*
X8309535Y-16866509D01*
X8300011Y-16876033D01*
X8290487Y-16866509D01*
X8300011Y-16856985D01*
X8300011Y-16876033D01*
X8423821Y-16761747D02*
X8404773Y-16752223D01*
X8395249Y-16742700D01*
X8385725Y-16723652D01*
X8385725Y-16714128D01*
X8395249Y-16695081D01*
X8404773Y-16685557D01*
X8423821Y-16676033D01*
X8461916Y-16676033D01*
X8480963Y-16685557D01*
X8490487Y-16695081D01*
X8500011Y-16714128D01*
X8500011Y-16723652D01*
X8490487Y-16742700D01*
X8480963Y-16752223D01*
X8461916Y-16761747D01*
X8423821Y-16761747D01*
X8404773Y-16771271D01*
X8395249Y-16780795D01*
X8385725Y-16799843D01*
X8385725Y-16837938D01*
X8395249Y-16856985D01*
X8404773Y-16866509D01*
X8423821Y-16876033D01*
X8461916Y-16876033D01*
X8480963Y-16866509D01*
X8490487Y-16856985D01*
X8500011Y-16837938D01*
X8500011Y-16799843D01*
X8490487Y-16780795D01*
X8480963Y-16771271D01*
X8461916Y-16761747D01*
X8623821Y-16676033D02*
X8642868Y-16676033D01*
X8661916Y-16685557D01*
X8671440Y-16695081D01*
X8680963Y-16714128D01*
X8690487Y-16752223D01*
X8690487Y-16799843D01*
X8680963Y-16837938D01*
X8671440Y-16856985D01*
X8661916Y-16866509D01*
X8642868Y-16876033D01*
X8623821Y-16876033D01*
X8604773Y-16866509D01*
X8595249Y-16856985D01*
X8585725Y-16837938D01*
X8576202Y-16799843D01*
X8576202Y-16752223D01*
X8585725Y-16714128D01*
X8595249Y-16695081D01*
X8604773Y-16685557D01*
X8623821Y-16676033D01*
X8814297Y-16676033D02*
X8833344Y-16676033D01*
X8852392Y-16685557D01*
X8861916Y-16695081D01*
X8871440Y-16714128D01*
X8880963Y-16752223D01*
X8880963Y-16799843D01*
X8871440Y-16837938D01*
X8861916Y-16856985D01*
X8852392Y-16866509D01*
X8833344Y-16876033D01*
X8814297Y-16876033D01*
X8795249Y-16866509D01*
X8785725Y-16856985D01*
X8776202Y-16837938D01*
X8766678Y-16799843D01*
X8766678Y-16752223D01*
X8776202Y-16714128D01*
X8785725Y-16695081D01*
X8795249Y-16685557D01*
X8814297Y-16676033D01*
X8966678Y-16876033D02*
X8966678Y-16742700D01*
X8966678Y-16761747D02*
X8976202Y-16752223D01*
X8995249Y-16742700D01*
X9023821Y-16742700D01*
X9042868Y-16752223D01*
X9052392Y-16771271D01*
X9052392Y-16876033D01*
X9052392Y-16771271D02*
X9061916Y-16752223D01*
X9080963Y-16742700D01*
X9109535Y-16742700D01*
X9128582Y-16752223D01*
X9138106Y-16771271D01*
X9138106Y-16876033D01*
X9233344Y-16876033D02*
X9233344Y-16742700D01*
X9233344Y-16761747D02*
X9242868Y-16752223D01*
X9261916Y-16742700D01*
X9290487Y-16742700D01*
X9309535Y-16752223D01*
X9319059Y-16771271D01*
X9319059Y-16876033D01*
X9319059Y-16771271D02*
X9328582Y-16752223D01*
X9347630Y-16742700D01*
X9376202Y-16742700D01*
X9395249Y-16752223D01*
X9404773Y-16771271D01*
X9404773Y-16876033D01*
X9795249Y-16666509D02*
X9623821Y-16923652D01*
X10052392Y-16676033D02*
X10071440Y-16676033D01*
X10090487Y-16685557D01*
X10100011Y-16695081D01*
X10109535Y-16714128D01*
X10119059Y-16752223D01*
X10119059Y-16799843D01*
X10109535Y-16837938D01*
X10100011Y-16856985D01*
X10090487Y-16866509D01*
X10071440Y-16876033D01*
X10052392Y-16876033D01*
X10033344Y-16866509D01*
X10023821Y-16856985D01*
X10014297Y-16837938D01*
X10004773Y-16799843D01*
X10004773Y-16752223D01*
X10014297Y-16714128D01*
X10023821Y-16695081D01*
X10033344Y-16685557D01*
X10052392Y-16676033D01*
X10204773Y-16856985D02*
X10214297Y-16866509D01*
X10204773Y-16876033D01*
X10195249Y-16866509D01*
X10204773Y-16856985D01*
X10204773Y-16876033D01*
X10338106Y-16676033D02*
X10357154Y-16676033D01*
X10376202Y-16685557D01*
X10385725Y-16695081D01*
X10395249Y-16714128D01*
X10404773Y-16752223D01*
X10404773Y-16799843D01*
X10395249Y-16837938D01*
X10385725Y-16856985D01*
X10376202Y-16866509D01*
X10357154Y-16876033D01*
X10338106Y-16876033D01*
X10319059Y-16866509D01*
X10309535Y-16856985D01*
X10300011Y-16837938D01*
X10290487Y-16799843D01*
X10290487Y-16752223D01*
X10300011Y-16714128D01*
X10309535Y-16695081D01*
X10319059Y-16685557D01*
X10338106Y-16676033D01*
X10471440Y-16676033D02*
X10604773Y-16676033D01*
X10519059Y-16876033D01*
X10719059Y-16676033D02*
X10738106Y-16676033D01*
X10757154Y-16685557D01*
X10766678Y-16695081D01*
X10776202Y-16714128D01*
X10785725Y-16752223D01*
X10785725Y-16799843D01*
X10776202Y-16837938D01*
X10766678Y-16856985D01*
X10757154Y-16866509D01*
X10738106Y-16876033D01*
X10719059Y-16876033D01*
X10700011Y-16866509D01*
X10690487Y-16856985D01*
X10680963Y-16837938D01*
X10671440Y-16799843D01*
X10671440Y-16752223D01*
X10680963Y-16714128D01*
X10690487Y-16695081D01*
X10700011Y-16685557D01*
X10719059Y-16676033D01*
X10880963Y-16876033D02*
X10919059Y-16876033D01*
X10938106Y-16866509D01*
X10947630Y-16856985D01*
X10966678Y-16828414D01*
X10976202Y-16790319D01*
X10976202Y-16714128D01*
X10966678Y-16695081D01*
X10957154Y-16685557D01*
X10938106Y-16676033D01*
X10900011Y-16676033D01*
X10880963Y-16685557D01*
X10871440Y-16695081D01*
X10861916Y-16714128D01*
X10861916Y-16761747D01*
X10871440Y-16780795D01*
X10880963Y-16790319D01*
X10900011Y-16799843D01*
X10938106Y-16799843D01*
X10957154Y-16790319D01*
X10966678Y-16780795D01*
X10976202Y-16761747D01*
X11052392Y-16676033D02*
X11052392Y-16714128D01*
X11128582Y-16676033D02*
X11128582Y-16714128D01*
X11423820Y-16952223D02*
X11414297Y-16942700D01*
X11395249Y-16914128D01*
X11385725Y-16895081D01*
X11376201Y-16866509D01*
X11366678Y-16818890D01*
X11366678Y-16780795D01*
X11376201Y-16733176D01*
X11385725Y-16704604D01*
X11395249Y-16685557D01*
X11414297Y-16656985D01*
X11423820Y-16647461D01*
X11595249Y-16676033D02*
X11500011Y-16676033D01*
X11490487Y-16771271D01*
X11500011Y-16761747D01*
X11519059Y-16752223D01*
X11566678Y-16752223D01*
X11585725Y-16761747D01*
X11595249Y-16771271D01*
X11604773Y-16790319D01*
X11604773Y-16837938D01*
X11595249Y-16856985D01*
X11585725Y-16866509D01*
X11566678Y-16876033D01*
X11519059Y-16876033D01*
X11500011Y-16866509D01*
X11490487Y-16856985D01*
X11776201Y-16676033D02*
X11738106Y-16676033D01*
X11719059Y-16685557D01*
X11709535Y-16695081D01*
X11690487Y-16723652D01*
X11680963Y-16761747D01*
X11680963Y-16837938D01*
X11690487Y-16856985D01*
X11700011Y-16866509D01*
X11719059Y-16876033D01*
X11757154Y-16876033D01*
X11776201Y-16866509D01*
X11785725Y-16856985D01*
X11795249Y-16837938D01*
X11795249Y-16790319D01*
X11785725Y-16771271D01*
X11776201Y-16761747D01*
X11757154Y-16752223D01*
X11719059Y-16752223D01*
X11700011Y-16761747D01*
X11690487Y-16771271D01*
X11680963Y-16790319D01*
X12033344Y-16876033D02*
X12033344Y-16676033D01*
X12119059Y-16876033D02*
X12119059Y-16771271D01*
X12109535Y-16752223D01*
X12090487Y-16742700D01*
X12061916Y-16742700D01*
X12042868Y-16752223D01*
X12033344Y-16761747D01*
X12242868Y-16876033D02*
X12223820Y-16866509D01*
X12214297Y-16856985D01*
X12204773Y-16837938D01*
X12204773Y-16780795D01*
X12214297Y-16761747D01*
X12223820Y-16752223D01*
X12242868Y-16742700D01*
X12271440Y-16742700D01*
X12290487Y-16752223D01*
X12300011Y-16761747D01*
X12309535Y-16780795D01*
X12309535Y-16837938D01*
X12300011Y-16856985D01*
X12290487Y-16866509D01*
X12271440Y-16876033D01*
X12242868Y-16876033D01*
X12423820Y-16876033D02*
X12404773Y-16866509D01*
X12395249Y-16847462D01*
X12395249Y-16676033D01*
X12576201Y-16866509D02*
X12557154Y-16876033D01*
X12519059Y-16876033D01*
X12500011Y-16866509D01*
X12490487Y-16847462D01*
X12490487Y-16771271D01*
X12500011Y-16752223D01*
X12519059Y-16742700D01*
X12557154Y-16742700D01*
X12576201Y-16752223D01*
X12585725Y-16771271D01*
X12585725Y-16790319D01*
X12490487Y-16809366D01*
X12661916Y-16866509D02*
X12680963Y-16876033D01*
X12719059Y-16876033D01*
X12738106Y-16866509D01*
X12747630Y-16847462D01*
X12747630Y-16837938D01*
X12738106Y-16818890D01*
X12719059Y-16809366D01*
X12690487Y-16809366D01*
X12671440Y-16799843D01*
X12661916Y-16780795D01*
X12661916Y-16771271D01*
X12671440Y-16752223D01*
X12690487Y-16742700D01*
X12719059Y-16742700D01*
X12738106Y-16752223D01*
X12814297Y-16952223D02*
X12823820Y-16942700D01*
X12842868Y-16914128D01*
X12852392Y-16895081D01*
X12861916Y-16866509D01*
X12871440Y-16818890D01*
X12871440Y-16780795D01*
X12861916Y-16733176D01*
X12852392Y-16704604D01*
X12842868Y-16685557D01*
X12823820Y-16656985D01*
X12814297Y-16647461D01*
X13176201Y-16952223D02*
X13166678Y-16942700D01*
X13147630Y-16914128D01*
X13138106Y-16895081D01*
X13128582Y-16866509D01*
X13119059Y-16818890D01*
X13119059Y-16780795D01*
X13128582Y-16733176D01*
X13138106Y-16704604D01*
X13147630Y-16685557D01*
X13166678Y-16656985D01*
X13176201Y-16647461D01*
X13252392Y-16742700D02*
X13252392Y-16876033D01*
X13252392Y-16761747D02*
X13261916Y-16752223D01*
X13280963Y-16742700D01*
X13309535Y-16742700D01*
X13328582Y-16752223D01*
X13338106Y-16771271D01*
X13338106Y-16876033D01*
X13461916Y-16876033D02*
X13442868Y-16866509D01*
X13433344Y-16856985D01*
X13423820Y-16837938D01*
X13423820Y-16780795D01*
X13433344Y-16761747D01*
X13442868Y-16752223D01*
X13461916Y-16742700D01*
X13490487Y-16742700D01*
X13509535Y-16752223D01*
X13519059Y-16761747D01*
X13528582Y-16780795D01*
X13528582Y-16837938D01*
X13519059Y-16856985D01*
X13509535Y-16866509D01*
X13490487Y-16876033D01*
X13461916Y-16876033D01*
X13585725Y-16742700D02*
X13661916Y-16742700D01*
X13614297Y-16676033D02*
X13614297Y-16847462D01*
X13623820Y-16866509D01*
X13642868Y-16876033D01*
X13661916Y-16876033D01*
X13880963Y-16742700D02*
X13880963Y-16942700D01*
X13880963Y-16752223D02*
X13900011Y-16742700D01*
X13938106Y-16742700D01*
X13957154Y-16752223D01*
X13966678Y-16761747D01*
X13976201Y-16780795D01*
X13976201Y-16837938D01*
X13966678Y-16856985D01*
X13957154Y-16866509D01*
X13938106Y-16876033D01*
X13900011Y-16876033D01*
X13880963Y-16866509D01*
X14090487Y-16876033D02*
X14071440Y-16866509D01*
X14061916Y-16847462D01*
X14061916Y-16676033D01*
X14252392Y-16876033D02*
X14252392Y-16771271D01*
X14242868Y-16752223D01*
X14223820Y-16742700D01*
X14185725Y-16742700D01*
X14166678Y-16752223D01*
X14252392Y-16866509D02*
X14233344Y-16876033D01*
X14185725Y-16876033D01*
X14166678Y-16866509D01*
X14157154Y-16847462D01*
X14157154Y-16828414D01*
X14166678Y-16809366D01*
X14185725Y-16799843D01*
X14233344Y-16799843D01*
X14252392Y-16790319D01*
X14319059Y-16742700D02*
X14395249Y-16742700D01*
X14347630Y-16676033D02*
X14347630Y-16847462D01*
X14357154Y-16866509D01*
X14376201Y-16876033D01*
X14395249Y-16876033D01*
X14538106Y-16866509D02*
X14519059Y-16876033D01*
X14480963Y-16876033D01*
X14461916Y-16866509D01*
X14452392Y-16847462D01*
X14452392Y-16771271D01*
X14461916Y-16752223D01*
X14480963Y-16742700D01*
X14519059Y-16742700D01*
X14538106Y-16752223D01*
X14547630Y-16771271D01*
X14547630Y-16790319D01*
X14452392Y-16809366D01*
X14719059Y-16876033D02*
X14719059Y-16676033D01*
X14719059Y-16866509D02*
X14700011Y-16876033D01*
X14661916Y-16876033D01*
X14642868Y-16866509D01*
X14633344Y-16856985D01*
X14623820Y-16837938D01*
X14623820Y-16780795D01*
X14633344Y-16761747D01*
X14642868Y-16752223D01*
X14661916Y-16742700D01*
X14700011Y-16742700D01*
X14719059Y-16752223D01*
X14795249Y-16952223D02*
X14804773Y-16942700D01*
X14823820Y-16914128D01*
X14833344Y-16895081D01*
X14842868Y-16866509D01*
X14852392Y-16818890D01*
X14852392Y-16780795D01*
X14842868Y-16733176D01*
X14833344Y-16704604D01*
X14823820Y-16685557D01*
X14804773Y-16656985D01*
X14795249Y-16647461D01*
X7651916Y-16985557D02*
X7851916Y-17185557D01*
X7851916Y-16985557D02*
X7651916Y-17185557D01*
X7851916Y-17085557D02*
G75*
G03*
X7851916Y-17085557I-100000J0D01*
G01*
X8090487Y-16976033D02*
X8214297Y-16976033D01*
X8147630Y-17052223D01*
X8176201Y-17052223D01*
X8195249Y-17061747D01*
X8204773Y-17071271D01*
X8214297Y-17090319D01*
X8214297Y-17137938D01*
X8204773Y-17156985D01*
X8195249Y-17166509D01*
X8176201Y-17176033D01*
X8119059Y-17176033D01*
X8100011Y-17166509D01*
X8090487Y-17156985D01*
X8300011Y-17156985D02*
X8309535Y-17166509D01*
X8300011Y-17176033D01*
X8290487Y-17166509D01*
X8300011Y-17156985D01*
X8300011Y-17176033D01*
X8433344Y-16976033D02*
X8452392Y-16976033D01*
X8471440Y-16985557D01*
X8480963Y-16995081D01*
X8490487Y-17014128D01*
X8500011Y-17052223D01*
X8500011Y-17099843D01*
X8490487Y-17137938D01*
X8480963Y-17156985D01*
X8471440Y-17166509D01*
X8452392Y-17176033D01*
X8433344Y-17176033D01*
X8414297Y-17166509D01*
X8404773Y-17156985D01*
X8395249Y-17137938D01*
X8385725Y-17099843D01*
X8385725Y-17052223D01*
X8395249Y-17014128D01*
X8404773Y-16995081D01*
X8414297Y-16985557D01*
X8433344Y-16976033D01*
X8623821Y-16976033D02*
X8642868Y-16976033D01*
X8661916Y-16985557D01*
X8671440Y-16995081D01*
X8680963Y-17014128D01*
X8690487Y-17052223D01*
X8690487Y-17099843D01*
X8680963Y-17137938D01*
X8671440Y-17156985D01*
X8661916Y-17166509D01*
X8642868Y-17176033D01*
X8623821Y-17176033D01*
X8604773Y-17166509D01*
X8595249Y-17156985D01*
X8585725Y-17137938D01*
X8576202Y-17099843D01*
X8576202Y-17052223D01*
X8585725Y-17014128D01*
X8595249Y-16995081D01*
X8604773Y-16985557D01*
X8623821Y-16976033D01*
X8814297Y-16976033D02*
X8833344Y-16976033D01*
X8852392Y-16985557D01*
X8861916Y-16995081D01*
X8871440Y-17014128D01*
X8880963Y-17052223D01*
X8880963Y-17099843D01*
X8871440Y-17137938D01*
X8861916Y-17156985D01*
X8852392Y-17166509D01*
X8833344Y-17176033D01*
X8814297Y-17176033D01*
X8795249Y-17166509D01*
X8785725Y-17156985D01*
X8776202Y-17137938D01*
X8766678Y-17099843D01*
X8766678Y-17052223D01*
X8776202Y-17014128D01*
X8785725Y-16995081D01*
X8795249Y-16985557D01*
X8814297Y-16976033D01*
X8966678Y-17176033D02*
X8966678Y-17042700D01*
X8966678Y-17061747D02*
X8976202Y-17052223D01*
X8995249Y-17042700D01*
X9023821Y-17042700D01*
X9042868Y-17052223D01*
X9052392Y-17071271D01*
X9052392Y-17176033D01*
X9052392Y-17071271D02*
X9061916Y-17052223D01*
X9080963Y-17042700D01*
X9109535Y-17042700D01*
X9128582Y-17052223D01*
X9138106Y-17071271D01*
X9138106Y-17176033D01*
X9233344Y-17176033D02*
X9233344Y-17042700D01*
X9233344Y-17061747D02*
X9242868Y-17052223D01*
X9261916Y-17042700D01*
X9290487Y-17042700D01*
X9309535Y-17052223D01*
X9319059Y-17071271D01*
X9319059Y-17176033D01*
X9319059Y-17071271D02*
X9328582Y-17052223D01*
X9347630Y-17042700D01*
X9376202Y-17042700D01*
X9395249Y-17052223D01*
X9404773Y-17071271D01*
X9404773Y-17176033D01*
X9795249Y-16966509D02*
X9623821Y-17223652D01*
X10052392Y-16976033D02*
X10071440Y-16976033D01*
X10090487Y-16985557D01*
X10100011Y-16995081D01*
X10109535Y-17014128D01*
X10119059Y-17052223D01*
X10119059Y-17099843D01*
X10109535Y-17137938D01*
X10100011Y-17156985D01*
X10090487Y-17166509D01*
X10071440Y-17176033D01*
X10052392Y-17176033D01*
X10033344Y-17166509D01*
X10023821Y-17156985D01*
X10014297Y-17137938D01*
X10004773Y-17099843D01*
X10004773Y-17052223D01*
X10014297Y-17014128D01*
X10023821Y-16995081D01*
X10033344Y-16985557D01*
X10052392Y-16976033D01*
X10204773Y-17156985D02*
X10214297Y-17166509D01*
X10204773Y-17176033D01*
X10195249Y-17166509D01*
X10204773Y-17156985D01*
X10204773Y-17176033D01*
X10404773Y-17176033D02*
X10290487Y-17176033D01*
X10347630Y-17176033D02*
X10347630Y-16976033D01*
X10328582Y-17004604D01*
X10309535Y-17023652D01*
X10290487Y-17033176D01*
X10595249Y-17176033D02*
X10480963Y-17176033D01*
X10538106Y-17176033D02*
X10538106Y-16976033D01*
X10519059Y-17004604D01*
X10500011Y-17023652D01*
X10480963Y-17033176D01*
X10709535Y-17061747D02*
X10690487Y-17052223D01*
X10680963Y-17042700D01*
X10671440Y-17023652D01*
X10671440Y-17014128D01*
X10680963Y-16995081D01*
X10690487Y-16985557D01*
X10709535Y-16976033D01*
X10747630Y-16976033D01*
X10766678Y-16985557D01*
X10776202Y-16995081D01*
X10785725Y-17014128D01*
X10785725Y-17023652D01*
X10776202Y-17042700D01*
X10766678Y-17052223D01*
X10747630Y-17061747D01*
X10709535Y-17061747D01*
X10690487Y-17071271D01*
X10680963Y-17080795D01*
X10671440Y-17099843D01*
X10671440Y-17137938D01*
X10680963Y-17156985D01*
X10690487Y-17166509D01*
X10709535Y-17176033D01*
X10747630Y-17176033D01*
X10766678Y-17166509D01*
X10776202Y-17156985D01*
X10785725Y-17137938D01*
X10785725Y-17099843D01*
X10776202Y-17080795D01*
X10766678Y-17071271D01*
X10747630Y-17061747D01*
X10976202Y-17176033D02*
X10861916Y-17176033D01*
X10919059Y-17176033D02*
X10919059Y-16976033D01*
X10900011Y-17004604D01*
X10880963Y-17023652D01*
X10861916Y-17033176D01*
X11052392Y-16976033D02*
X11052392Y-17014128D01*
X11128582Y-16976033D02*
X11128582Y-17014128D01*
X11423820Y-17252223D02*
X11414297Y-17242700D01*
X11395249Y-17214128D01*
X11385725Y-17195081D01*
X11376201Y-17166509D01*
X11366678Y-17118890D01*
X11366678Y-17080795D01*
X11376201Y-17033176D01*
X11385725Y-17004604D01*
X11395249Y-16985557D01*
X11414297Y-16956985D01*
X11423820Y-16947462D01*
X11528582Y-17061747D02*
X11509535Y-17052223D01*
X11500011Y-17042700D01*
X11490487Y-17023652D01*
X11490487Y-17014128D01*
X11500011Y-16995081D01*
X11509535Y-16985557D01*
X11528582Y-16976033D01*
X11566678Y-16976033D01*
X11585725Y-16985557D01*
X11595249Y-16995081D01*
X11604773Y-17014128D01*
X11604773Y-17023652D01*
X11595249Y-17042700D01*
X11585725Y-17052223D01*
X11566678Y-17061747D01*
X11528582Y-17061747D01*
X11509535Y-17071271D01*
X11500011Y-17080795D01*
X11490487Y-17099843D01*
X11490487Y-17137938D01*
X11500011Y-17156985D01*
X11509535Y-17166509D01*
X11528582Y-17176033D01*
X11566678Y-17176033D01*
X11585725Y-17166509D01*
X11595249Y-17156985D01*
X11604773Y-17137938D01*
X11604773Y-17099843D01*
X11595249Y-17080795D01*
X11585725Y-17071271D01*
X11566678Y-17061747D01*
X11776201Y-17042700D02*
X11776201Y-17176033D01*
X11728582Y-16966509D02*
X11680963Y-17109366D01*
X11804773Y-17109366D01*
X12033344Y-17176033D02*
X12033344Y-16976033D01*
X12119059Y-17176033D02*
X12119059Y-17071271D01*
X12109535Y-17052223D01*
X12090487Y-17042700D01*
X12061916Y-17042700D01*
X12042868Y-17052223D01*
X12033344Y-17061747D01*
X12242868Y-17176033D02*
X12223820Y-17166509D01*
X12214297Y-17156985D01*
X12204773Y-17137938D01*
X12204773Y-17080795D01*
X12214297Y-17061747D01*
X12223820Y-17052223D01*
X12242868Y-17042700D01*
X12271440Y-17042700D01*
X12290487Y-17052223D01*
X12300011Y-17061747D01*
X12309535Y-17080795D01*
X12309535Y-17137938D01*
X12300011Y-17156985D01*
X12290487Y-17166509D01*
X12271440Y-17176033D01*
X12242868Y-17176033D01*
X12423820Y-17176033D02*
X12404773Y-17166509D01*
X12395249Y-17147462D01*
X12395249Y-16976033D01*
X12576201Y-17166509D02*
X12557154Y-17176033D01*
X12519059Y-17176033D01*
X12500011Y-17166509D01*
X12490487Y-17147462D01*
X12490487Y-17071271D01*
X12500011Y-17052223D01*
X12519059Y-17042700D01*
X12557154Y-17042700D01*
X12576201Y-17052223D01*
X12585725Y-17071271D01*
X12585725Y-17090319D01*
X12490487Y-17109366D01*
X12661916Y-17166509D02*
X12680963Y-17176033D01*
X12719059Y-17176033D01*
X12738106Y-17166509D01*
X12747630Y-17147462D01*
X12747630Y-17137938D01*
X12738106Y-17118890D01*
X12719059Y-17109366D01*
X12690487Y-17109366D01*
X12671440Y-17099843D01*
X12661916Y-17080795D01*
X12661916Y-17071271D01*
X12671440Y-17052223D01*
X12690487Y-17042700D01*
X12719059Y-17042700D01*
X12738106Y-17052223D01*
X12814297Y-17252223D02*
X12823820Y-17242700D01*
X12842868Y-17214128D01*
X12852392Y-17195081D01*
X12861916Y-17166509D01*
X12871440Y-17118890D01*
X12871440Y-17080795D01*
X12861916Y-17033176D01*
X12852392Y-17004604D01*
X12842868Y-16985557D01*
X12823820Y-16956985D01*
X12814297Y-16947462D01*
X13176201Y-17252223D02*
X13166678Y-17242700D01*
X13147630Y-17214128D01*
X13138106Y-17195081D01*
X13128582Y-17166509D01*
X13119059Y-17118890D01*
X13119059Y-17080795D01*
X13128582Y-17033176D01*
X13138106Y-17004604D01*
X13147630Y-16985557D01*
X13166678Y-16956985D01*
X13176201Y-16947462D01*
X13252392Y-17042700D02*
X13252392Y-17176033D01*
X13252392Y-17061747D02*
X13261916Y-17052223D01*
X13280963Y-17042700D01*
X13309535Y-17042700D01*
X13328582Y-17052223D01*
X13338106Y-17071271D01*
X13338106Y-17176033D01*
X13461916Y-17176033D02*
X13442868Y-17166509D01*
X13433344Y-17156985D01*
X13423820Y-17137938D01*
X13423820Y-17080795D01*
X13433344Y-17061747D01*
X13442868Y-17052223D01*
X13461916Y-17042700D01*
X13490487Y-17042700D01*
X13509535Y-17052223D01*
X13519059Y-17061747D01*
X13528582Y-17080795D01*
X13528582Y-17137938D01*
X13519059Y-17156985D01*
X13509535Y-17166509D01*
X13490487Y-17176033D01*
X13461916Y-17176033D01*
X13585725Y-17042700D02*
X13661916Y-17042700D01*
X13614297Y-16976033D02*
X13614297Y-17147462D01*
X13623820Y-17166509D01*
X13642868Y-17176033D01*
X13661916Y-17176033D01*
X13880963Y-17042700D02*
X13880963Y-17242700D01*
X13880963Y-17052223D02*
X13900011Y-17042700D01*
X13938106Y-17042700D01*
X13957154Y-17052223D01*
X13966678Y-17061747D01*
X13976201Y-17080795D01*
X13976201Y-17137938D01*
X13966678Y-17156985D01*
X13957154Y-17166509D01*
X13938106Y-17176033D01*
X13900011Y-17176033D01*
X13880963Y-17166509D01*
X14090487Y-17176033D02*
X14071440Y-17166509D01*
X14061916Y-17147462D01*
X14061916Y-16976033D01*
X14252392Y-17176033D02*
X14252392Y-17071271D01*
X14242868Y-17052223D01*
X14223820Y-17042700D01*
X14185725Y-17042700D01*
X14166678Y-17052223D01*
X14252392Y-17166509D02*
X14233344Y-17176033D01*
X14185725Y-17176033D01*
X14166678Y-17166509D01*
X14157154Y-17147462D01*
X14157154Y-17128414D01*
X14166678Y-17109366D01*
X14185725Y-17099843D01*
X14233344Y-17099843D01*
X14252392Y-17090319D01*
X14319059Y-17042700D02*
X14395249Y-17042700D01*
X14347630Y-16976033D02*
X14347630Y-17147462D01*
X14357154Y-17166509D01*
X14376201Y-17176033D01*
X14395249Y-17176033D01*
X14538106Y-17166509D02*
X14519059Y-17176033D01*
X14480963Y-17176033D01*
X14461916Y-17166509D01*
X14452392Y-17147462D01*
X14452392Y-17071271D01*
X14461916Y-17052223D01*
X14480963Y-17042700D01*
X14519059Y-17042700D01*
X14538106Y-17052223D01*
X14547630Y-17071271D01*
X14547630Y-17090319D01*
X14452392Y-17109366D01*
X14719059Y-17176033D02*
X14719059Y-16976033D01*
X14719059Y-17166509D02*
X14700011Y-17176033D01*
X14661916Y-17176033D01*
X14642868Y-17166509D01*
X14633344Y-17156985D01*
X14623820Y-17137938D01*
X14623820Y-17080795D01*
X14633344Y-17061747D01*
X14642868Y-17052223D01*
X14661916Y-17042700D01*
X14700011Y-17042700D01*
X14719059Y-17052223D01*
X14795249Y-17252223D02*
X14804773Y-17242700D01*
X14823820Y-17214128D01*
X14833344Y-17195081D01*
X14842868Y-17166509D01*
X14852392Y-17118890D01*
X14852392Y-17080795D01*
X14842868Y-17033176D01*
X14833344Y-17004604D01*
X14823820Y-16985557D01*
X14804773Y-16956985D01*
X14795249Y-16947462D01*
X7651916Y-17305557D02*
X7851916Y-17505557D01*
X7851916Y-17305557D02*
X7651916Y-17505557D01*
X7751916Y-17305557D02*
X7751916Y-17505557D01*
X7651916Y-17405557D02*
X7851916Y-17405557D01*
X8090487Y-17296033D02*
X8214297Y-17296033D01*
X8147630Y-17372223D01*
X8176201Y-17372223D01*
X8195249Y-17381747D01*
X8204773Y-17391271D01*
X8214297Y-17410319D01*
X8214297Y-17457938D01*
X8204773Y-17476985D01*
X8195249Y-17486509D01*
X8176201Y-17496033D01*
X8119059Y-17496033D01*
X8100011Y-17486509D01*
X8090487Y-17476985D01*
X8300011Y-17476985D02*
X8309535Y-17486509D01*
X8300011Y-17496033D01*
X8290487Y-17486509D01*
X8300011Y-17476985D01*
X8300011Y-17496033D01*
X8480963Y-17362700D02*
X8480963Y-17496033D01*
X8433344Y-17286509D02*
X8385725Y-17429366D01*
X8509535Y-17429366D01*
X8623821Y-17296033D02*
X8642868Y-17296033D01*
X8661916Y-17305557D01*
X8671440Y-17315081D01*
X8680963Y-17334128D01*
X8690487Y-17372223D01*
X8690487Y-17419843D01*
X8680963Y-17457938D01*
X8671440Y-17476985D01*
X8661916Y-17486509D01*
X8642868Y-17496033D01*
X8623821Y-17496033D01*
X8604773Y-17486509D01*
X8595249Y-17476985D01*
X8585725Y-17457938D01*
X8576202Y-17419843D01*
X8576202Y-17372223D01*
X8585725Y-17334128D01*
X8595249Y-17315081D01*
X8604773Y-17305557D01*
X8623821Y-17296033D01*
X8814297Y-17296033D02*
X8833344Y-17296033D01*
X8852392Y-17305557D01*
X8861916Y-17315081D01*
X8871440Y-17334128D01*
X8880963Y-17372223D01*
X8880963Y-17419843D01*
X8871440Y-17457938D01*
X8861916Y-17476985D01*
X8852392Y-17486509D01*
X8833344Y-17496033D01*
X8814297Y-17496033D01*
X8795249Y-17486509D01*
X8785725Y-17476985D01*
X8776202Y-17457938D01*
X8766678Y-17419843D01*
X8766678Y-17372223D01*
X8776202Y-17334128D01*
X8785725Y-17315081D01*
X8795249Y-17305557D01*
X8814297Y-17296033D01*
X8966678Y-17496033D02*
X8966678Y-17362700D01*
X8966678Y-17381747D02*
X8976202Y-17372223D01*
X8995249Y-17362700D01*
X9023821Y-17362700D01*
X9042868Y-17372223D01*
X9052392Y-17391271D01*
X9052392Y-17496033D01*
X9052392Y-17391271D02*
X9061916Y-17372223D01*
X9080963Y-17362700D01*
X9109535Y-17362700D01*
X9128582Y-17372223D01*
X9138106Y-17391271D01*
X9138106Y-17496033D01*
X9233344Y-17496033D02*
X9233344Y-17362700D01*
X9233344Y-17381747D02*
X9242868Y-17372223D01*
X9261916Y-17362700D01*
X9290487Y-17362700D01*
X9309535Y-17372223D01*
X9319059Y-17391271D01*
X9319059Y-17496033D01*
X9319059Y-17391271D02*
X9328582Y-17372223D01*
X9347630Y-17362700D01*
X9376202Y-17362700D01*
X9395249Y-17372223D01*
X9404773Y-17391271D01*
X9404773Y-17496033D01*
X9795249Y-17286509D02*
X9623821Y-17543652D01*
X10052392Y-17296033D02*
X10071440Y-17296033D01*
X10090487Y-17305557D01*
X10100011Y-17315081D01*
X10109535Y-17334128D01*
X10119059Y-17372223D01*
X10119059Y-17419843D01*
X10109535Y-17457938D01*
X10100011Y-17476985D01*
X10090487Y-17486509D01*
X10071440Y-17496033D01*
X10052392Y-17496033D01*
X10033344Y-17486509D01*
X10023821Y-17476985D01*
X10014297Y-17457938D01*
X10004773Y-17419843D01*
X10004773Y-17372223D01*
X10014297Y-17334128D01*
X10023821Y-17315081D01*
X10033344Y-17305557D01*
X10052392Y-17296033D01*
X10204773Y-17476985D02*
X10214297Y-17486509D01*
X10204773Y-17496033D01*
X10195249Y-17486509D01*
X10204773Y-17476985D01*
X10204773Y-17496033D01*
X10404773Y-17496033D02*
X10290487Y-17496033D01*
X10347630Y-17496033D02*
X10347630Y-17296033D01*
X10328582Y-17324604D01*
X10309535Y-17343652D01*
X10290487Y-17353176D01*
X10471440Y-17296033D02*
X10595249Y-17296033D01*
X10528582Y-17372223D01*
X10557154Y-17372223D01*
X10576202Y-17381747D01*
X10585725Y-17391271D01*
X10595249Y-17410319D01*
X10595249Y-17457938D01*
X10585725Y-17476985D01*
X10576202Y-17486509D01*
X10557154Y-17496033D01*
X10500011Y-17496033D01*
X10480963Y-17486509D01*
X10471440Y-17476985D01*
X10661916Y-17296033D02*
X10785725Y-17296033D01*
X10719059Y-17372223D01*
X10747630Y-17372223D01*
X10766678Y-17381747D01*
X10776202Y-17391271D01*
X10785725Y-17410319D01*
X10785725Y-17457938D01*
X10776202Y-17476985D01*
X10766678Y-17486509D01*
X10747630Y-17496033D01*
X10690487Y-17496033D01*
X10671440Y-17486509D01*
X10661916Y-17476985D01*
X10880963Y-17496033D02*
X10919059Y-17496033D01*
X10938106Y-17486509D01*
X10947630Y-17476985D01*
X10966678Y-17448414D01*
X10976202Y-17410319D01*
X10976202Y-17334128D01*
X10966678Y-17315081D01*
X10957154Y-17305557D01*
X10938106Y-17296033D01*
X10900011Y-17296033D01*
X10880963Y-17305557D01*
X10871440Y-17315081D01*
X10861916Y-17334128D01*
X10861916Y-17381747D01*
X10871440Y-17400795D01*
X10880963Y-17410319D01*
X10900011Y-17419843D01*
X10938106Y-17419843D01*
X10957154Y-17410319D01*
X10966678Y-17400795D01*
X10976202Y-17381747D01*
X11052392Y-17296033D02*
X11052392Y-17334128D01*
X11128582Y-17296033D02*
X11128582Y-17334128D01*
X11423820Y-17572223D02*
X11414297Y-17562700D01*
X11395249Y-17534128D01*
X11385725Y-17515081D01*
X11376201Y-17486509D01*
X11366678Y-17438890D01*
X11366678Y-17400795D01*
X11376201Y-17353176D01*
X11385725Y-17324604D01*
X11395249Y-17305557D01*
X11414297Y-17276985D01*
X11423820Y-17267462D01*
X11490487Y-17315081D02*
X11500011Y-17305557D01*
X11519059Y-17296033D01*
X11566678Y-17296033D01*
X11585725Y-17305557D01*
X11595249Y-17315081D01*
X11604773Y-17334128D01*
X11604773Y-17353176D01*
X11595249Y-17381747D01*
X11480963Y-17496033D01*
X11604773Y-17496033D01*
X11719059Y-17381747D02*
X11700011Y-17372223D01*
X11690487Y-17362700D01*
X11680963Y-17343652D01*
X11680963Y-17334128D01*
X11690487Y-17315081D01*
X11700011Y-17305557D01*
X11719059Y-17296033D01*
X11757154Y-17296033D01*
X11776201Y-17305557D01*
X11785725Y-17315081D01*
X11795249Y-17334128D01*
X11795249Y-17343652D01*
X11785725Y-17362700D01*
X11776201Y-17372223D01*
X11757154Y-17381747D01*
X11719059Y-17381747D01*
X11700011Y-17391271D01*
X11690487Y-17400795D01*
X11680963Y-17419843D01*
X11680963Y-17457938D01*
X11690487Y-17476985D01*
X11700011Y-17486509D01*
X11719059Y-17496033D01*
X11757154Y-17496033D01*
X11776201Y-17486509D01*
X11785725Y-17476985D01*
X11795249Y-17457938D01*
X11795249Y-17419843D01*
X11785725Y-17400795D01*
X11776201Y-17391271D01*
X11757154Y-17381747D01*
X12033344Y-17496033D02*
X12033344Y-17296033D01*
X12119059Y-17496033D02*
X12119059Y-17391271D01*
X12109535Y-17372223D01*
X12090487Y-17362700D01*
X12061916Y-17362700D01*
X12042868Y-17372223D01*
X12033344Y-17381747D01*
X12242868Y-17496033D02*
X12223820Y-17486509D01*
X12214297Y-17476985D01*
X12204773Y-17457938D01*
X12204773Y-17400795D01*
X12214297Y-17381747D01*
X12223820Y-17372223D01*
X12242868Y-17362700D01*
X12271440Y-17362700D01*
X12290487Y-17372223D01*
X12300011Y-17381747D01*
X12309535Y-17400795D01*
X12309535Y-17457938D01*
X12300011Y-17476985D01*
X12290487Y-17486509D01*
X12271440Y-17496033D01*
X12242868Y-17496033D01*
X12423820Y-17496033D02*
X12404773Y-17486509D01*
X12395249Y-17467462D01*
X12395249Y-17296033D01*
X12576201Y-17486509D02*
X12557154Y-17496033D01*
X12519059Y-17496033D01*
X12500011Y-17486509D01*
X12490487Y-17467462D01*
X12490487Y-17391271D01*
X12500011Y-17372223D01*
X12519059Y-17362700D01*
X12557154Y-17362700D01*
X12576201Y-17372223D01*
X12585725Y-17391271D01*
X12585725Y-17410319D01*
X12490487Y-17429366D01*
X12661916Y-17486509D02*
X12680963Y-17496033D01*
X12719059Y-17496033D01*
X12738106Y-17486509D01*
X12747630Y-17467462D01*
X12747630Y-17457938D01*
X12738106Y-17438890D01*
X12719059Y-17429366D01*
X12690487Y-17429366D01*
X12671440Y-17419843D01*
X12661916Y-17400795D01*
X12661916Y-17391271D01*
X12671440Y-17372223D01*
X12690487Y-17362700D01*
X12719059Y-17362700D01*
X12738106Y-17372223D01*
X12814297Y-17572223D02*
X12823820Y-17562700D01*
X12842868Y-17534128D01*
X12852392Y-17515081D01*
X12861916Y-17486509D01*
X12871440Y-17438890D01*
X12871440Y-17400795D01*
X12861916Y-17353176D01*
X12852392Y-17324604D01*
X12842868Y-17305557D01*
X12823820Y-17276985D01*
X12814297Y-17267462D01*
X13176201Y-17572223D02*
X13166678Y-17562700D01*
X13147630Y-17534128D01*
X13138106Y-17515081D01*
X13128582Y-17486509D01*
X13119059Y-17438890D01*
X13119059Y-17400795D01*
X13128582Y-17353176D01*
X13138106Y-17324604D01*
X13147630Y-17305557D01*
X13166678Y-17276985D01*
X13176201Y-17267462D01*
X13252392Y-17362700D02*
X13252392Y-17496033D01*
X13252392Y-17381747D02*
X13261916Y-17372223D01*
X13280963Y-17362700D01*
X13309535Y-17362700D01*
X13328582Y-17372223D01*
X13338106Y-17391271D01*
X13338106Y-17496033D01*
X13461916Y-17496033D02*
X13442868Y-17486509D01*
X13433344Y-17476985D01*
X13423820Y-17457938D01*
X13423820Y-17400795D01*
X13433344Y-17381747D01*
X13442868Y-17372223D01*
X13461916Y-17362700D01*
X13490487Y-17362700D01*
X13509535Y-17372223D01*
X13519059Y-17381747D01*
X13528582Y-17400795D01*
X13528582Y-17457938D01*
X13519059Y-17476985D01*
X13509535Y-17486509D01*
X13490487Y-17496033D01*
X13461916Y-17496033D01*
X13585725Y-17362700D02*
X13661916Y-17362700D01*
X13614297Y-17296033D02*
X13614297Y-17467462D01*
X13623820Y-17486509D01*
X13642868Y-17496033D01*
X13661916Y-17496033D01*
X13880963Y-17362700D02*
X13880963Y-17562700D01*
X13880963Y-17372223D02*
X13900011Y-17362700D01*
X13938106Y-17362700D01*
X13957154Y-17372223D01*
X13966678Y-17381747D01*
X13976201Y-17400795D01*
X13976201Y-17457938D01*
X13966678Y-17476985D01*
X13957154Y-17486509D01*
X13938106Y-17496033D01*
X13900011Y-17496033D01*
X13880963Y-17486509D01*
X14090487Y-17496033D02*
X14071440Y-17486509D01*
X14061916Y-17467462D01*
X14061916Y-17296033D01*
X14252392Y-17496033D02*
X14252392Y-17391271D01*
X14242868Y-17372223D01*
X14223820Y-17362700D01*
X14185725Y-17362700D01*
X14166678Y-17372223D01*
X14252392Y-17486509D02*
X14233344Y-17496033D01*
X14185725Y-17496033D01*
X14166678Y-17486509D01*
X14157154Y-17467462D01*
X14157154Y-17448414D01*
X14166678Y-17429366D01*
X14185725Y-17419843D01*
X14233344Y-17419843D01*
X14252392Y-17410319D01*
X14319059Y-17362700D02*
X14395249Y-17362700D01*
X14347630Y-17296033D02*
X14347630Y-17467462D01*
X14357154Y-17486509D01*
X14376201Y-17496033D01*
X14395249Y-17496033D01*
X14538106Y-17486509D02*
X14519059Y-17496033D01*
X14480963Y-17496033D01*
X14461916Y-17486509D01*
X14452392Y-17467462D01*
X14452392Y-17391271D01*
X14461916Y-17372223D01*
X14480963Y-17362700D01*
X14519059Y-17362700D01*
X14538106Y-17372223D01*
X14547630Y-17391271D01*
X14547630Y-17410319D01*
X14452392Y-17429366D01*
X14719059Y-17496033D02*
X14719059Y-17296033D01*
X14719059Y-17486509D02*
X14700011Y-17496033D01*
X14661916Y-17496033D01*
X14642868Y-17486509D01*
X14633344Y-17476985D01*
X14623820Y-17457938D01*
X14623820Y-17400795D01*
X14633344Y-17381747D01*
X14642868Y-17372223D01*
X14661916Y-17362700D01*
X14700011Y-17362700D01*
X14719059Y-17372223D01*
X14795249Y-17572223D02*
X14804773Y-17562700D01*
X14823820Y-17534128D01*
X14833344Y-17515081D01*
X14842868Y-17486509D01*
X14852392Y-17438890D01*
X14852392Y-17400795D01*
X14842868Y-17353176D01*
X14833344Y-17324604D01*
X14823820Y-17305557D01*
X14804773Y-17276985D01*
X14795249Y-17267462D01*
M02*
