M48
; DRILL file {KiCad (6.0.0)} date Wed Feb 15 17:26:15 2023
; FORMAT={-:-/ absolute / metric / decimal}
; #@! TF.CreationDate,2023-02-15T17:26:15+02:00
; #@! TF.GenerationSoftware,Kicad,Pcbnew,(6.0.0)
; #@! TF.FileFunction,NonPlated,1,2,NPTH
FMAT,2
METRIC
; #@! TA.AperFunction,NonPlated,NPTH,ComponentDrill
T1C0.394
; #@! TA.AperFunction,NonPlated,NPTH,ComponentDrill
T2C0.787
; #@! TA.AperFunction,NonPlated,NPTH,ComponentDrill
T3C1.000
; #@! TA.AperFunction,NonPlated,NPTH,ComponentDrill
T4C1.200
; #@! TA.AperFunction,NonPlated,NPTH,ComponentDrill
T5C1.800
; #@! TA.AperFunction,NonPlated,NPTH,ComponentDrill
T6C3.000
; #@! TA.AperFunction,NonPlated,NPTH,ComponentDrill
T7C3.400
%
G90
G05
T1
X108.609Y-118.823
X110.139Y-118.853
X126.969Y-118.843
X128.169Y-118.849
T2
X101.829Y-118.799
X103.099Y-118.799
X104.369Y-118.799
X105.639Y-118.799
X106.909Y-118.799
X129.649Y-118.839
X130.919Y-118.839
X132.189Y-118.839
X149.789Y-118.789
X151.059Y-118.789
X152.329Y-118.789
X153.599Y-118.789
X154.869Y-118.789
T3
X85.656Y-135.497
X95.466Y-131.927
X106.079Y-128.963
X115.33Y-45.8
X115.33Y-64.9
X115.33Y-83.9
X115.33Y-102.95
X116.36Y-127.15
X125.77Y-45.8
X125.77Y-64.9
X125.77Y-83.9
X125.77Y-102.95
X127.379Y-126.253
X134.38Y-43.3
X134.38Y-62.35
X134.38Y-81.4
X134.38Y-100.45
X137.819Y-126.253
X144.82Y-43.3
X144.82Y-62.35
X144.82Y-81.4
X144.82Y-100.45
X148.768Y-127.22
X153.43Y-40.8
X153.43Y-59.85
X153.43Y-78.9
X153.43Y-97.95
X159.049Y-129.033
X163.87Y-40.8
X163.87Y-59.85
X163.87Y-78.9
X163.87Y-97.95
X172.48Y-43.3
X172.48Y-62.35
X172.48Y-81.4
X172.48Y-100.45
X182.92Y-43.3
X182.92Y-62.35
X182.92Y-81.4
X182.92Y-100.45
X191.569Y-57.543
X191.569Y-76.593
X191.569Y-95.643
X191.569Y-114.693
X202.009Y-57.543
X202.009Y-76.593
X202.009Y-95.643
X202.009Y-114.693
X210.619Y-57.543
X210.619Y-76.593
X210.619Y-95.643
X210.619Y-114.693
X221.059Y-57.543
X221.059Y-76.593
X221.059Y-95.643
X221.059Y-114.693
T4
X89.5Y-85.65
X89.5Y-87.4
X96.5Y-85.65
X96.5Y-87.4
T5
X86.829Y-139.54
X97.166Y-135.778
X106.533Y-133.148
X115.05Y-50.0
X115.05Y-69.1
X115.05Y-88.1
X115.05Y-107.15
X117.366Y-131.238
X126.05Y-50.0
X126.05Y-69.1
X126.05Y-88.1
X126.05Y-107.15
X127.099Y-130.453
X134.1Y-47.5
X134.1Y-66.55
X134.1Y-85.6
X134.1Y-104.65
X138.099Y-130.453
X145.1Y-47.5
X145.1Y-66.55
X145.1Y-85.6
X145.1Y-104.65
X147.763Y-131.308
X153.15Y-45.0
X153.15Y-64.05
X153.15Y-83.1
X153.15Y-102.15
X158.596Y-133.218
X164.15Y-45.0
X164.15Y-64.05
X164.15Y-83.1
X164.15Y-102.15
X172.2Y-47.5
X172.2Y-66.55
X172.2Y-85.6
X172.2Y-104.65
X183.2Y-47.5
X183.2Y-66.55
X183.2Y-85.6
X183.2Y-104.65
X191.289Y-61.743
X191.289Y-80.793
X191.289Y-99.843
X191.289Y-118.893
X202.289Y-61.743
X202.289Y-80.793
X202.289Y-99.843
X202.289Y-118.893
X210.339Y-61.743
X210.339Y-80.793
X210.339Y-99.843
X210.339Y-118.893
X221.339Y-61.743
X221.339Y-80.793
X221.339Y-99.843
X221.339Y-118.893
T6
X88.564Y-142.846
X94.015Y-143.203
X97.961Y-139.426
X107.668Y-136.705
X112.974Y-138.003
X115.55Y-53.7
X115.55Y-72.8
X115.55Y-91.8
X115.55Y-110.85
X117.516Y-134.968
X120.55Y-55.9
X120.55Y-75.0
X120.55Y-94.0
X120.55Y-113.05
X125.55Y-53.7
X125.55Y-72.8
X125.55Y-91.8
X125.55Y-110.85
X127.599Y-134.153
X132.599Y-136.353
X134.6Y-51.2
X134.6Y-70.25
X134.6Y-89.3
X134.6Y-108.35
X137.599Y-134.153
X139.6Y-53.4
X139.6Y-72.45
X139.6Y-91.5
X139.6Y-110.55
X144.6Y-51.2
X144.6Y-70.25
X144.6Y-89.3
X144.6Y-108.35
X147.613Y-135.038
X152.155Y-138.073
X153.65Y-48.7
X153.65Y-67.75
X153.65Y-86.8
X153.65Y-105.85
X157.461Y-136.775
X158.65Y-50.9
X158.65Y-69.95
X158.65Y-89.0
X158.65Y-108.05
X163.65Y-48.7
X163.65Y-67.75
X163.65Y-86.8
X163.65Y-105.85
X172.7Y-51.2
X172.7Y-70.25
X172.7Y-89.3
X172.7Y-108.35
X177.7Y-53.4
X177.7Y-72.45
X177.7Y-91.5
X177.7Y-110.55
X182.7Y-51.2
X182.7Y-70.25
X182.7Y-89.3
X182.7Y-108.35
X191.789Y-65.443
X191.789Y-84.493
X191.789Y-103.543
X191.789Y-122.593
X196.789Y-67.643
X196.789Y-86.693
X196.789Y-105.743
X196.789Y-124.793
X201.789Y-65.443
X201.789Y-84.493
X201.789Y-103.543
X201.789Y-122.593
X210.839Y-65.443
X210.839Y-84.493
X210.839Y-103.543
X210.839Y-122.593
X215.839Y-67.643
X215.839Y-86.693
X215.839Y-105.743
X215.839Y-124.793
X220.839Y-65.443
X220.839Y-84.493
X220.839Y-103.543
X220.839Y-122.593
T7
X91.997Y-137.659
X111.949Y-132.193
X120.55Y-50.0
X120.55Y-69.1
X120.55Y-88.1
X120.55Y-107.15
X132.599Y-130.453
X139.6Y-47.5
X139.6Y-66.55
X139.6Y-85.6
X139.6Y-104.65
X153.179Y-132.263
X158.65Y-45.0
X158.65Y-64.05
X158.65Y-83.1
X158.65Y-102.15
X177.7Y-47.5
X177.7Y-66.55
X177.7Y-85.6
X177.7Y-104.65
X196.789Y-61.743
X196.789Y-80.793
X196.789Y-99.843
X196.789Y-118.893
X215.839Y-61.743
X215.839Y-80.793
X215.839Y-99.843
X215.839Y-118.893
T0
M30
